<svg width="107" height="111" viewBox="0 0 107 111" fill="none" xmlns="http://www.w3.org/2000/svg">
<path d="M85.7639 48.1869L74.724 41.8997L85.443 31.8456C87.0901 30.3004 87.8652 28.0216 87.5166 25.7531C87.1669 23.4834 85.7463 21.5669 83.7155 20.6229L59.6678 9.4638C57.1211 8.28219 54.1164 8.89247 52.195 10.9817L28.4782 36.7564C27.1986 38.1471 26.5456 40.0402 26.6877 41.9516C26.8287 43.8629 27.7535 45.6328 29.2042 46.7923L42.465 57.4943L19.0363 90.856L18.8954 91.0689C17.2169 93.7581 17.5629 97.2302 19.7372 99.5116C21.0181 100.856 22.7092 101.552 24.4216 101.552C25.6157 101.552 26.8199 101.213 27.902 100.519L86.1527 59.842C88.0703 58.563 89.2216 56.3205 89.1624 53.9599C89.1033 51.559 87.7998 49.3477 85.7626 48.1869H85.7639Z" fill="#F9B60D"/>
<path d="M83.5605 52.3022L69.4316 44.2568C68.2136 43.5634 68.0173 41.8391 69.0466 40.873L82.3752 28.37C83.4573 27.3546 83.1755 25.5289 81.843 24.9096L57.7966 13.7505C57.0101 13.3856 56.0866 13.5726 55.4927 14.2179L31.7759 39.9926C30.948 40.8925 31.0549 42.3325 32.0062 43.0908L47.1958 55.3497C47.7859 55.821 48.0589 56.5663 47.9658 57.2857C47.9142 57.683 47.7343 58.0518 47.4801 58.3556L22.7203 93.6131C21.5488 95.4907 23.6589 97.7046 25.4972 96.5269L83.6498 55.9132C84.9672 55.0692 84.9169 53.0734 83.5592 52.3009L83.5605 52.3022Z" fill="#F2F9F9"/>
</svg>
