<svg width="111" height="95" viewBox="0 0 111 95" fill="none" xmlns="http://www.w3.org/2000/svg">
<path d="M110.652 26.4393L104.381 7.57596C103.884 6.0834 102.919 4.91696 101.661 4.28899C100.404 3.66254 99.0143 3.65344 97.752 4.26775L79.9354 12.9334C79.7928 13.0032 79.6581 13.0866 79.5285 13.1746C78.1846 8.39201 76.0333 1.62392 74.3252 0.38315C73.7667 -0.023361 73.12 -0.108303 72.4565 0.137424C71.5973 0.455958 69.008 1.41611 62.9197 18.1043L46.4223 11.8959C45.3402 11.4909 44.201 11.7154 43.2122 12.5314C41.6092 13.8541 40.5607 16.5859 40.4765 19.6696L40.3495 25.0074C40.3404 25.4685 40.4635 25.9235 40.7007 26.2936C41.0921 26.9019 41.3072 27.7225 41.3072 28.6083C41.3072 29.5624 41.0506 30.4589 40.6009 31.0671C40.3391 31.422 40.1888 31.8756 40.1745 32.3534L39.9827 40.4032C39.9698 40.9614 40.1564 41.5105 40.4985 41.9155C41.0039 42.5101 41.3072 43.4763 41.3072 44.5047C41.3072 45.5968 40.9573 46.6328 40.3987 47.2047C40.0242 47.5839 39.8013 48.1315 39.7858 48.7094L39.616 55.9022C39.6004 56.5711 39.8583 57.2097 40.3054 57.6086C40.9236 58.1623 41.3072 59.2301 41.3072 60.3981C41.3072 61.6358 40.8718 62.7643 40.1966 63.277C39.7132 63.6441 39.4164 64.269 39.4009 64.9425L39.2441 71.5164C39.2246 72.2779 39.5642 72.9862 40.1279 73.3624C40.8342 73.8357 41.3072 75.0127 41.3072 76.2899C41.3072 77.9372 40.5879 79.0763 39.8778 79.3509L39.0497 79.6709L39.0134 81.2287C38.9369 83.9878 39.6523 86.5558 40.9249 88.0954C41.6351 88.9539 42.4748 89.4484 43.3665 89.5364L43.3496 89.6016C43.0956 90.5784 43.2407 91.6008 43.7578 92.4805C44.5808 93.8791 46.2642 94.8119 48.2638 94.9757C49.0543 95.0334 49.7866 94.4752 50.0483 93.6076C50.2946 92.7915 51.2678 91.9663 52.6519 91.9663C54.036 91.9663 55.0183 92.7976 55.2593 93.6151C55.5017 94.4433 56.1704 95 56.922 95H61.9619C62.7136 95 63.3823 94.4433 63.6246 93.6166C63.867 92.796 64.8389 91.9648 66.2321 91.9648C67.6252 91.9648 68.5998 92.796 68.8408 93.6136C69.0832 94.4418 69.7519 94.9985 70.5035 94.9985H75.5434C76.2951 94.9985 76.9638 94.4418 77.2061 93.6151C77.4485 92.7945 78.4217 91.9633 79.8136 91.9633C81.2054 91.9633 82.1787 92.7945 82.4223 93.6182C82.6672 94.4433 83.3347 94.997 84.0837 94.997C89.1962 94.997 91.9553 88.4609 91.9553 82.3117C91.9553 78.3209 90.8874 74.6123 88.9461 71.8668C86.6354 68.5965 83.2245 66.8689 79.0814 66.8689H73.0397C73.5464 66.4487 73.9702 65.8875 74.2449 65.2094C74.7516 63.9596 74.7231 62.5429 74.1645 61.3218C73.6514 60.1994 72.7688 59.4258 71.7204 59.1543L71.7645 57.2233C72.8349 56.923 73.7628 56.0766 74.2449 54.8874C74.7516 53.6375 74.7231 52.2193 74.1645 50.9998C73.6889 49.9607 72.8984 49.219 71.9511 48.899L72.0249 45.6059L86.5823 56.289L86.7508 56.3451C86.8479 56.3785 87.2989 56.518 87.9067 56.518C88.6312 56.518 89.5798 56.3193 90.4209 55.5048C91.6987 54.267 92.2235 52.0798 91.9799 49.0036C91.5535 43.6037 87.3676 41.6955 83.9424 41.2754C84.1044 40.4533 84.1977 39.3156 84.1524 37.7123C84.3001 37.7366 84.4492 37.7579 84.5982 37.7579C84.7394 37.7579 84.882 37.7472 85.0246 37.7245L106.61 34.4178C108.155 34.1812 109.497 33.1452 110.292 31.5752C111.086 30.0053 111.217 28.1305 110.652 26.4302V26.4393ZM95.4452 32.9252C95.4115 32.9465 95.3442 32.9814 95.2262 33.0147L92.7419 33.3651L92.6253 33.3879C92.2106 33.4925 92.0421 33.4516 92.0188 33.4516C92.0175 33.4516 92.0162 33.4516 92.0162 33.4516C91.9967 33.4212 91.9449 33.3014 91.9099 33.0511C91.1608 27.7058 88.3435 17.3292 87.1408 13.029L90.5906 11.2285L95.3597 32.2138C95.4556 32.6355 95.4517 32.8448 95.4439 32.9237L95.4452 32.9252ZM64.9465 19.9472C69.4486 7.47888 72.1727 3.44715 73.1019 2.94963C73.86 3.88096 75.7495 8.56948 77.9124 16.8256C77.9396 17.1775 78.007 17.5324 78.1211 17.8798C78.2273 18.2044 78.3258 18.5184 78.4243 18.8354C79.728 24.076 80.7324 29.1544 81.2573 33.1603L81.2611 33.1892C81.278 33.4986 81.2922 33.7898 81.3 34.0462C81.3117 34.4527 81.3791 34.8501 81.4957 35.2247C81.9311 39.6812 81.4763 40.9568 81.3376 41.2268L71.7295 41.5423C71.6478 41.5454 71.5688 41.556 71.491 41.5727H71.3446C70.383 41.5727 69.6106 42.454 69.5847 43.5794L69.4745 48.4333C68.3808 48.2467 67.2196 48.0495 66.0908 47.8599C66.0545 47.8539 66.0183 47.8478 65.9807 47.8417C65.7435 47.8023 65.5089 47.7629 65.277 47.7234C65.1577 47.7037 65.0398 47.684 64.9232 47.6643C64.7366 47.6324 64.5538 47.6021 64.3724 47.5717C64.2804 47.5566 64.1884 47.5414 64.0977 47.5262C63.8164 47.4792 63.5404 47.4337 63.2747 47.3897C62.0695 47.1895 60.8578 47.7022 60.0375 48.7549C59.4219 49.5451 59.0862 50.5629 59.0759 51.608C59.0746 51.7825 59.0811 51.9569 59.0979 52.1313C59.1148 52.3058 59.1394 52.4802 59.1744 52.6546L59.3778 53.6648C59.7575 55.5442 61.1727 56.9094 62.8212 56.9837L69.2763 57.281L69.2439 58.7129C68.5026 58.587 67.7341 58.4565 66.9682 58.3261C66.7168 58.2836 66.4679 58.2411 66.2191 58.2002C66.2049 58.1971 66.1919 58.1956 66.1776 58.1926C65.6683 58.1061 65.1681 58.0227 64.6808 57.9408C64.6782 57.9408 64.6757 57.9408 64.6731 57.9408C64.432 57.8998 64.1949 57.8604 63.9629 57.8225C63.727 57.783 63.4976 57.7451 63.2747 57.7087C62.0682 57.5115 60.8578 58.0212 60.0375 59.0754C59.2171 60.1296 58.8944 61.5873 59.1744 62.9736L59.3778 63.9854C59.4724 64.4556 59.6318 64.8924 59.8444 65.2853C59.8534 65.3005 59.8638 65.3141 59.8729 65.3308L54.7746 64.6194L54.4805 67.5059L63.4471 68.7573L57.1359 70.4061L57.6763 73.2441L70.9493 69.7766H72.2725C70.3376 72.4978 67.7367 77.4336 66.8736 85.0754L49.193 84.1986L47.6016 79.4889L50.1637 16.3554L62.7836 21.1046C63.6557 21.4307 64.5849 20.9347 64.9439 19.9442L64.9465 19.9472ZM87.0307 73.7219C88.6027 75.9471 89.4696 78.9974 89.4696 82.3132C89.4696 86.8956 87.6372 91.6296 84.5425 92.0589C83.7377 90.2629 81.878 89.0571 79.8123 89.0571C77.7465 89.0571 75.8622 90.2538 75.0652 92.0907H70.9791C70.1834 90.2538 68.3458 89.0571 66.2308 89.0571C64.1158 89.0571 62.2846 90.2766 61.4876 92.0907H57.3989C56.6032 90.2538 54.7656 89.0571 52.6519 89.0571C50.5382 89.0571 48.7576 90.2189 47.9424 92.0088C46.8357 91.8101 46.0711 91.2853 45.8028 90.8302C45.6784 90.6194 45.7069 90.5117 45.7238 90.4465L46.0413 89.2285C46.2292 88.514 46.0711 87.7329 45.6318 87.1898C45.1911 86.6468 44.5328 86.4238 43.9082 86.6043C43.417 86.75 42.9673 86.3859 42.7068 86.0704C42.1081 85.3469 41.4899 83.8194 41.4886 81.6473C42.8766 80.628 43.7889 78.5712 43.7889 76.2884C43.7889 74.1709 42.9958 72.2051 41.7362 71.1236L41.8709 65.4385C43.0632 64.3327 43.7889 62.4458 43.7889 60.3935C43.7889 58.4793 43.1669 56.7167 42.1055 55.5821L42.2584 49.1371C43.2213 47.9995 43.7889 46.2961 43.7889 44.4986C43.7889 42.8286 43.3107 41.2572 42.4723 40.1287L42.6485 32.7189C43.3859 31.6026 43.7889 30.154 43.7889 28.6023C43.7889 27.2022 43.452 25.8613 42.8377 24.7935L42.9582 19.7516C43.0256 17.3064 43.8524 15.5545 44.6417 14.9023C45.1626 14.473 45.5385 14.6141 45.6603 14.6596L47.7169 15.4331L45.0978 79.9758L47.4798 87.023L69.1039 88.0954L69.2166 86.7227C70.072 76.2565 74.5326 71.0007 75.7184 69.7751H79.0801C82.5065 69.7751 85.1814 71.1023 87.0307 73.7189V73.7219ZM71.9731 62.6961C72.1545 63.095 72.1649 63.5576 71.999 63.9656C71.8008 64.4541 71.3744 64.7681 70.913 64.7681L62.9197 64.401C62.3818 64.3767 61.9205 63.9308 61.7961 63.318L61.5926 62.3062C61.4993 61.8466 61.6017 61.3825 61.8738 61.0336C61.9373 60.9517 62.0086 60.8834 62.0825 60.8228C62.1071 60.8031 62.133 60.7894 62.1589 60.7712C62.2108 60.7348 62.2652 60.7014 62.3209 60.6756C62.352 60.6605 62.3857 60.6498 62.4181 60.6392C62.4712 60.621 62.5257 60.6059 62.5814 60.5952C62.6164 60.5892 62.6514 60.5846 62.6877 60.5831C62.768 60.577 62.8484 60.5755 62.93 60.5892C65.1305 60.9517 67.9712 61.4341 70.2689 61.8269L71.088 61.9665C71.469 62.0317 71.7917 62.2971 71.9731 62.6945V62.6961ZM71.999 53.6436C71.802 54.1305 71.377 54.446 70.8664 54.446H70.8638L62.9184 54.0805C62.3805 54.0562 61.9192 53.6102 61.7948 52.9974L61.5913 51.9872C61.498 51.5276 61.6004 51.0635 61.8725 50.7146C61.936 50.6327 62.0073 50.5629 62.0838 50.5023C62.1045 50.4856 62.1278 50.4734 62.1486 50.4583C62.2056 50.4188 62.2639 50.3824 62.3261 50.3536C62.352 50.3415 62.3805 50.3324 62.4065 50.3233C62.4661 50.302 62.527 50.2854 62.5892 50.2747C62.619 50.2702 62.6501 50.2656 62.6812 50.2641C62.7628 50.258 62.8458 50.2565 62.9287 50.2702C63.1166 50.3005 63.3162 50.3339 63.5145 50.3673C65.6969 50.7283 68.3574 51.1803 70.5022 51.5474L71.088 51.6475C71.469 51.7127 71.7917 51.9781 71.9731 52.3755C72.1545 52.7745 72.1649 53.2371 71.999 53.6451V53.6436ZM89.5059 49.2767C89.6627 51.2667 89.4295 52.6804 88.8463 53.2599C88.4251 53.6785 87.8264 53.63 87.5659 53.5845L75.1106 44.444C77.3228 44.4 79.6879 44.309 81.6201 44.124H81.624C81.9272 44.0967 89.0536 43.5612 89.5046 49.2767H89.5059ZM84.7019 34.8501C84.387 34.8956 84.1718 34.7333 84.0681 34.6317C84.0241 34.5877 83.9658 34.5149 83.9139 34.4223C83.8621 33.94 83.809 33.4501 83.7429 32.9419L83.7351 32.8797C83.542 29.5139 82.8409 24.4704 80.7855 17.9192C80.6585 17.4065 80.5276 16.8984 80.3967 16.3918C80.4304 16.0596 80.6093 15.7547 80.8892 15.6182L84.7317 13.7495C85.7373 17.3443 88.7219 28.2458 89.4619 33.5244C89.4904 33.7307 89.537 33.9188 89.5837 34.1038L84.7032 34.8516L84.7019 34.8501ZM108.153 30.1009C107.75 30.8972 107.07 31.422 106.286 31.5419L97.9153 32.8236C97.9153 32.4065 97.8725 31.962 97.7611 31.466L92.8378 9.80267L98.7032 6.94951C99.3434 6.63856 100.047 6.64159 100.686 6.96013C101.324 7.27866 101.814 7.87023 102.066 8.62713L108.337 27.4904C108.624 28.352 108.558 29.303 108.155 30.0994L108.153 30.1009Z" fill="#0346C8"/>
<path d="M69.1379 43.3891L70.6451 41.0789C66.1339 37.0457 66.3426 33.0534 66.353 32.885L63.8803 32.6074C63.8609 32.838 63.4552 38.3092 69.1366 43.3875L69.1379 43.3891Z" fill="#0346C8"/>
<path d="M18.7084 69.1719C20.1547 69.4146 21.6178 69.5405 23.0822 69.5405H23.0861C26.1212 69.5405 28.6224 68.9869 30.7309 67.8493C33.4316 66.3931 35.4701 63.9009 36.3229 61.0114C37.0914 58.407 36.8438 55.4992 35.6244 52.822C34.3219 49.9643 32.045 47.7952 29.5347 47.0201C25.2762 45.702 20.3231 47.9803 17.5006 52.367C16.8461 51.8755 16.2344 51.3021 15.6992 50.6287C12.5099 46.6212 11.7738 40.0215 13.9082 34.5791C14.1467 33.9724 14.4124 33.3975 14.7039 32.859C15.7459 35.0084 17.209 36.865 19.0298 38.1649C20.651 39.3237 22.2049 39.7985 23.6459 39.5816C25.3125 39.3298 26.7575 38.0723 27.6115 36.1293C28.5537 33.983 28.5796 31.4286 27.6763 29.4628C26.0849 25.9969 22.074 24.3071 18.5464 25.6161C17.5122 25.9999 16.5234 26.6142 15.6111 27.4227C15.1575 24.7986 15.3623 22.0334 16.3602 19.6686L14.1337 18.3809C12.646 21.9075 12.5384 26.05 13.5518 29.7677C12.8183 30.8234 12.1756 32.0338 11.6533 33.3656C9.10935 39.8486 10.0269 47.7619 13.8836 52.6097C14.5821 53.4864 15.3739 54.2266 16.2189 54.8576C14.9709 57.9671 14.5938 61.653 15.1109 65.2934C11.801 64.1664 8.66355 62.3492 5.8993 59.9177C3.92946 58.1855 2.86549 56.6126 2.54928 54.9638C2.36267 53.9915 2.57002 52.8311 3.07803 52.0075C3.32296 51.6101 3.74414 51.1216 4.36101 51.0473L4.1096 48.1547C2.91215 48.2973 1.83003 49.0618 1.06284 50.3071C0.145308 51.7966 -0.213668 53.8246 0.12587 55.5978C0.720708 58.6997 2.85383 60.8749 4.40767 62.24C7.79785 65.2206 11.7025 67.3532 15.8107 68.5151C15.9623 69.0309 16.1334 69.5405 16.3226 70.0426C18.0708 74.6856 21.3236 78.8387 25.7298 82.0513C29.698 84.9454 34.1133 86.7808 38.2927 88.334L39.0443 85.5628C35.0191 84.0672 30.7788 82.3077 27.0426 79.5835C24.3198 77.5979 20.6899 74.1926 18.7097 69.1674L18.7084 69.1719ZM19.2955 28.3874C21.6813 27.5 24.4598 28.6013 25.4875 30.8401C26.0007 31.958 25.967 33.5128 25.4007 34.8021C24.9263 35.8805 24.1708 36.5722 23.3271 36.6996C22.4576 36.8286 21.448 36.4888 20.3219 35.6849C18.606 34.4593 17.2777 32.5693 16.4327 30.3987C17.301 29.4568 18.2717 28.7666 19.2942 28.3874H19.2955ZM18.4363 56.1757C19.9395 56.8583 21.5387 57.2193 23.125 57.2193C25.6767 57.2193 28.1843 56.3168 30.1607 54.4587L28.6042 52.1925C26.2508 54.4071 22.8114 54.8242 19.7905 53.6456C22.0558 50.4679 25.7376 48.8555 28.901 49.8323C30.7555 50.4057 32.4493 52.0348 33.4329 54.1917C34.3232 56.1469 34.5163 58.231 33.9759 60.0634C33.3435 62.2066 31.7819 64.083 29.6928 65.21C27.9161 66.1686 25.7557 66.6343 23.0874 66.6343H23.0848C21.3003 66.6343 19.521 66.434 17.7727 66.0442C17.0574 62.6192 17.288 59.085 18.4376 56.1772L18.4363 56.1757Z" fill="#0346C8"/>
</svg>
