<svg width="88" height="93" viewBox="0 0 88 93" fill="none" xmlns="http://www.w3.org/2000/svg">
<path d="M87.5 21.2893L82.2993 6.20809C80.6448 1.40728 75.3926 -1.15115 70.5906 0.503389L55.5094 5.70406C50.7086 7.3598 48.1501 12.612 49.8047 17.4128L55.0054 32.4952C56.3187 36.3047 59.8983 38.7027 63.7186 38.7027C64.7123 38.7027 65.7228 38.5411 66.7129 38.1987L81.7953 32.998C86.5961 31.3423 89.1545 26.0901 87.4988 21.2893H87.5ZM84.7428 27.1904C83.9682 28.779 82.6225 29.9715 80.9512 30.5485L65.8688 35.7492C64.1975 36.3262 62.4017 36.2161 60.813 35.4427C59.2243 34.6681 58.0319 33.3224 57.4548 31.6511L52.2542 16.5687C51.0654 13.1196 52.9031 9.34477 56.3534 8.15594L71.4346 2.95527C72.147 2.70984 72.8725 2.59371 73.586 2.59371C76.3312 2.59371 78.904 4.3165 79.8474 7.05451L85.0481 22.1357C85.624 23.807 85.515 25.6017 84.7416 27.1915L84.7428 27.1904Z" fill="#0346C8"/>
<path d="M68.6488 14.6256C66.0424 14.6256 63.921 16.7458 63.921 19.3533C63.921 21.9609 66.0412 24.0811 68.6488 24.0811C71.2563 24.0811 73.3765 21.9609 73.3765 19.3533C73.3765 16.7458 71.2563 14.6256 68.6488 14.6256ZM68.6488 21.488C67.4707 21.488 66.5129 20.5302 66.5129 19.3521C66.5129 18.1741 67.4707 17.2163 68.6488 17.2163C69.8268 17.2163 70.7846 18.1741 70.7846 19.3521C70.7846 20.5302 69.8268 21.488 68.6488 21.488Z" fill="#0346C8"/>
<path d="M74.5286 75.5109H72.88C72.8705 74.8477 72.8525 74.194 72.8274 73.5535H73.748C75.1452 73.5535 76.2825 72.4162 76.2825 71.019V64.4344C76.2825 63.0372 75.1452 61.8999 73.748 61.8999H71.3859C67.0101 42.2741 54.5735 37.6995 51.0956 36.792C50.9352 36.3431 50.6491 35.8103 50.1403 35.2656C48.2343 33.2232 44.3278 32.1876 38.5309 32.1876C32.7341 32.1876 28.8288 33.2232 26.9216 35.2656C26.4128 35.8103 26.1267 36.3431 25.9662 36.792C22.4872 37.6995 10.0458 42.2729 5.67596 61.8999H3.31507C1.91793 61.8999 0.78058 63.0372 0.78058 64.4344V71.019C0.78058 72.4162 1.91793 73.5535 3.31507 73.5535H4.23452C4.20938 74.194 4.19262 74.8477 4.18185 75.5109H2.53449C1.13735 75.5109 0 76.6483 0 78.0454V81.0361C0 81.8454 0.372332 82.5864 1.02122 83.0677C1.6725 83.5514 2.49259 83.6951 3.27077 83.4604C5.20546 82.8774 6.82887 83.6268 8.09672 85.6824C10.6528 89.8272 19.2846 91.4518 26.0764 92.0851C29.1664 92.3736 32.497 92.5137 35.8923 92.5137C49.8709 92.5137 64.9449 90.1336 68.8227 85.8752C70.9274 83.5634 72.7962 83.3814 73.9922 83.6352C74.7489 83.7956 75.5271 83.6089 76.1257 83.124C76.7219 82.6415 77.0631 81.9244 77.0631 81.1582V78.0454C77.0631 76.6483 75.9257 75.5109 74.5286 75.5109ZM74.4711 81.0875C72.9303 80.7763 69.9517 80.7834 66.9048 84.1308C63.0976 88.3127 42.6158 91.0256 26.317 89.5051C17.6732 88.6994 11.8368 86.8102 10.3032 84.3224C8.83539 81.9423 6.78338 80.6781 4.49552 80.6781C3.87656 80.6781 3.23965 80.7703 2.59315 80.9582V78.1017H4.24051C5.6185 78.1017 6.75465 76.9811 6.775 75.6043C6.78458 74.9231 6.80253 74.2527 6.82887 73.5966C6.82887 73.5822 6.82528 73.5679 6.82648 73.5523H11.0969V70.9604H3.37493V64.4906H11.0969V61.8987H8.34454C12.3815 44.7056 22.9217 40.3573 26.2608 39.3972V42.5566H28.8527V36.98C29.8236 35.9995 32.4515 34.7771 38.5333 34.7771C44.6152 34.7771 47.2442 35.9995 48.2152 36.98V42.5554H50.8071V39.3972C54.1509 40.3597 64.6804 44.714 68.7197 61.8975H65.9626V64.4894H73.6917V70.9592H66.6941V73.5511H70.2402C70.2402 73.5655 70.2366 73.5798 70.2378 73.5942C70.2641 74.2515 70.2821 74.9207 70.2917 75.6019C70.312 76.9799 71.4482 78.0993 72.8262 78.0993H74.4747V81.0839L74.4711 81.0875Z" fill="#0346C8"/>
<path d="M63.2512 78.2638C47.0913 82.5762 30.0874 82.2948 14.0783 77.4485L13.3276 79.9291C22.0565 82.5714 31.0727 83.8943 40.0948 83.8943C48.0969 83.8943 56.1039 82.8527 63.9193 80.7684L67.0212 79.9411L66.3532 77.4366L63.2512 78.2638Z" fill="#0346C8"/>
<path d="M47.1479 23.0262L44.9788 24.4451L52.1997 35.484L54.3688 34.0651L47.1479 23.0262Z" fill="#0346C8"/>
<path d="M43.7297 28.1034L42.5513 30.412L46.6493 32.5036L47.8276 30.195L43.7297 28.1034Z" fill="#0346C8"/>
<path d="M63.6675 39.6123L63.5843 42.2029L75.7189 42.5927L75.8021 40.0021L63.6675 39.6123Z" fill="#0346C8"/>
<path d="M65.6889 43.4093L64.7432 45.8226L69.2242 47.5786L70.1699 45.1654L65.6889 43.4093Z" fill="#0346C8"/>
<path d="M73.9165 43.5061L72.7382 45.8147L76.0097 47.4845L77.1881 45.1759L73.9165 43.5061Z" fill="#0346C8"/>
<path d="M39.4434 20.8928L37.8608 22.9455L42.5637 26.5711L44.1462 24.5184L39.4434 20.8928Z" fill="#0346C8"/>
<path d="M61.0444 58.8362L63.4304 57.8234C61.0922 52.3162 57.7856 47.9153 53.5989 44.7439L52.0342 46.8091C55.8545 49.7051 58.8858 53.7505 61.0444 58.8362Z" fill="#0346C8"/>
<path d="M38.5279 79.358C45.0276 79.358 50.3144 74.07 50.3144 67.5715C50.3144 61.0731 45.0276 55.785 38.5279 55.785C32.0283 55.785 26.7414 61.0719 26.7414 67.5715C26.7414 74.0712 32.0295 79.358 38.5279 79.358ZM38.5279 58.8379C43.3431 58.8379 47.2604 62.7552 47.2604 67.5703C47.2604 72.3855 43.3431 76.304 38.5279 76.304C33.7128 76.304 29.7943 72.3867 29.7943 67.5703C29.7943 62.754 33.7116 58.8379 38.5279 58.8379Z" fill="#0346C8"/>
</svg>
