<svg width="764" height="420" viewBox="0 0 764 420" fill="none" xmlns="http://www.w3.org/2000/svg">
<path d="M355.177 245.054C353.991 244.793 352.769 244.661 351.541 244.661C349.07 244.661 346.6 245.183 344.232 246.196L347.893 228.079C348.598 224.582 347.51 221.016 344.903 218.296C342.296 215.576 338.475 214.016 334.418 214.016H241.674C237.617 214.016 233.796 215.576 231.189 218.296C228.582 221.016 227.493 224.582 228.198 228.079L231.86 246.196C229.492 245.183 227.021 244.661 224.551 244.661C223.323 244.661 222.1 244.793 220.915 245.056C215.883 246.169 211.846 249.476 209.546 254.364C207.334 259.067 207.002 264.717 208.602 270.269C211.522 280.39 220.298 287.737 229.478 287.737C230.706 287.737 231.928 287.605 233.114 287.341C235.502 286.813 237.68 285.783 239.559 284.305L241.378 293.306C242.535 299.04 248.204 303.198 254.854 303.198H321.241C327.891 303.198 333.557 299.037 334.717 293.306L336.536 284.305C338.415 285.78 340.593 286.811 342.981 287.341C344.166 287.602 345.389 287.737 346.617 287.737C355.794 287.737 364.573 280.39 367.492 270.269C369.096 264.717 368.76 259.067 366.549 254.364C364.251 249.474 360.212 246.169 355.18 245.056L355.177 245.054Z" fill="#E4DBFF"/>
<path d="M222.74 156.545C217.091 164.023 217.35 174.321 223.533 181.028C228.514 186.428 236.821 189.402 246.928 189.402C249.944 189.402 253.034 189.138 256.11 188.621C266.936 186.797 277.773 183.805 288.252 180.914C289.981 180.436 291.746 179.95 293.509 179.468C293.344 183.318 295.78 187.128 299.669 188.765C300.974 189.315 302.469 189.606 303.985 189.606C307.732 189.606 311.234 187.887 312.909 185.224C315.007 181.892 313.929 177.171 310.558 174.916C309.028 173.893 307.12 173.375 304.883 173.375C303.575 173.375 302.27 173.547 300.988 173.799C301.961 172.92 302.995 172.163 303.874 171.561C305.651 170.342 307.499 169.182 309.494 168.04C310.913 168.883 312.548 169.526 314.302 169.919C315.987 170.297 317.818 170.481 319.894 170.481C321.713 170.481 323.476 170.342 324.957 170.205C335.868 169.2 346.574 166.903 356.78 163.379C365.013 160.537 366.637 156.746 366.549 154.069C366.483 152.085 365.38 150.214 363.447 148.798C361.758 147.561 359.527 146.762 357.323 146.603C356.954 146.575 356.576 146.563 356.2 146.563C352.456 146.563 348.877 147.904 345.997 148.979C343.248 150.01 340.439 151.023 337.724 152.003C331.581 154.22 325.227 156.512 319.18 159.126C315.794 160.589 312.747 162.047 309.909 163.563C309.545 163.165 309.247 162.744 309.02 162.304C308.104 160.517 308.192 158.337 309.295 155.505C315.405 154.332 322.745 150.497 331.14 144.097C337.795 139.02 343.686 133.425 347.453 129.628C349.846 127.216 352.49 124.344 353.608 120.798C354.685 117.371 354.074 112.737 350.276 110.117C348.573 108.94 346.412 108.32 344.027 108.32C341.642 108.32 339.268 108.92 337.19 110.01C333.608 111.889 331.18 114.768 328.803 117.804C320.755 128.082 313.551 138.99 307.393 150.224C306.978 150.978 306.631 151.65 306.327 152.274C306.009 152.297 305.699 152.307 305.395 152.307C301.986 152.307 299.351 150.965 297.341 148.208C295.516 145.707 294.569 142.785 293.565 139.694C293.557 139.664 293.546 139.635 293.537 139.607C296.744 134.667 297.332 129.135 295.24 123.61C293.838 119.91 291.243 116.286 287.735 113.136C284.4 110.139 280.403 107.698 276.181 106.075C271.382 104.234 266.131 103.298 260.574 103.298C255.016 103.298 249.119 104.303 243.789 106.205C238.336 108.151 233.248 111.08 229.068 114.676C224.753 118.389 221.395 122.836 219.36 127.535C217.256 132.385 216.5 137.711 217.168 142.937C217.808 147.919 219.724 152.603 222.734 156.55L222.74 156.545Z" fill="#E4DBFF"/>
<path d="M306.148 193.129C300.238 193.129 294.214 195.105 288.238 199.002C286.603 200.067 285.659 201.582 285.714 203.056C285.759 204.295 286.484 205.378 287.758 206.104C289.694 207.207 294.981 209.775 302.273 209.775C309.728 209.775 316.644 207.122 322.831 201.889L324.241 200.697L322.941 199.41C322.683 199.154 316.488 193.129 306.148 193.129Z" fill="#E4DBFF"/>
<path d="M305.265 139.466C306.121 139.466 306.951 139.239 307.733 138.789C309.663 137.682 314.471 134.476 317.402 128.633C320.401 122.655 320.404 116.04 317.413 108.978L316.731 107.368L314.863 107.89C314.653 107.95 309.689 109.376 305.444 113.527C298.377 120.443 298.852 129.317 300.495 135.546C301.112 137.888 303.028 139.461 305.263 139.461L305.265 139.466Z" fill="#E4DBFF"/>
<path d="M367.578 124.019C356.408 124.019 349.173 130.746 345.068 136.39C343.973 137.896 343.706 139.605 344.354 140.964C344.9 142.109 346.017 142.895 347.501 143.176C349.119 143.485 350.944 143.647 352.783 143.647C356.084 143.647 361.082 143.122 366.151 140.616C371.41 138.015 375.589 133.879 378.571 128.322L379.404 126.766L377.667 125.968C377.494 125.888 373.363 124.019 367.575 124.019H367.578Z" fill="#E4DBFF"/>
<path d="M344.491 196.291C346.37 196.291 348.332 196.152 350.322 195.873L352.258 195.604L352.036 193.897C352.013 193.713 351.411 189.331 347.775 184.953C341.714 177.654 332.159 176.123 325.211 176.123C324.767 176.123 324.329 176.128 323.874 176.141C321.839 176.193 320.071 176.962 319.149 178.194C318.373 179.232 318.26 180.483 318.825 181.718C321.916 188.44 330.49 196.291 344.485 196.291H344.491Z" fill="#E4DBFF"/>
<path d="M348.679 237.172C345.427 236.456 342.066 236.665 338.823 237.715L342.155 221.223C342.914 217.465 341.742 213.632 338.939 210.706C336.136 207.779 332.028 206.104 327.67 206.104H280.782V199.651C282.121 200.395 287.92 203.352 295.701 203.352C301.836 203.352 309.191 201.51 316.54 195.294L318.405 193.716L316.688 192.014C311.701 187.066 297.839 180.603 281.095 191.526C280.984 191.598 280.884 191.678 280.779 191.755V174.725C281.086 174.64 281.399 174.556 281.706 174.469C283.167 174.066 284.625 173.662 286.084 173.264C286.269 177.052 288.779 180.67 292.625 182.29C294.087 182.908 295.67 183.199 297.245 183.199C301.094 183.199 304.893 181.464 306.757 178.503C309.009 174.927 307.849 169.857 304.224 167.433C301.831 165.833 298.999 165.599 296.378 165.86C296.782 165.557 297.18 165.278 297.552 165.022C299.204 163.887 300.924 162.799 302.746 161.742C304.125 162.511 305.697 163.111 307.389 163.489C311.013 164.303 314.769 164.113 318.285 163.79C329.256 162.78 340.025 160.47 350.288 156.926C358.888 153.957 360.582 149.913 360.486 147.046C360.335 142.445 355.357 139.344 350.635 139.001C346.294 138.687 342.243 140.205 338.985 141.425C336.236 142.455 333.475 143.45 330.72 144.443C324.565 146.663 318.2 148.96 312.133 151.583C308.981 152.944 306.061 154.333 303.343 155.762C303.17 155.533 303.022 155.294 302.897 155.05C301.987 153.27 302.266 151.175 303.073 148.995C316.48 146.198 332.312 131.993 341.222 123.009C343.664 120.547 346.365 117.613 347.519 113.945C348.656 110.327 347.994 105.429 343.954 102.639C339.735 99.7275 333.956 100.464 330.095 102.49C326.396 104.431 323.917 107.365 321.495 110.458C313.427 120.764 306.206 131.697 300.031 142.955C299.721 143.522 299.414 144.102 299.121 144.69C298.701 144.705 298.291 144.7 297.896 144.675C295.099 144.493 292.898 143.251 291.164 140.875C289.424 138.485 288.492 135.661 287.52 132.667C290.701 127.633 291.261 122.016 289.134 116.409C286.28 108.878 278.834 102.022 269.703 98.5155C259.733 94.688 247.736 94.7328 236.782 98.64C225.362 102.714 216.086 110.817 211.972 120.311C207.722 130.119 208.967 141.173 215.168 149.54C209.655 157.145 209.948 167.568 216.248 174.397C222.949 181.661 235.372 184.578 249.484 182.198C258.158 180.738 266.823 178.53 275.309 176.226V206.107H234.914C230.553 206.107 226.445 207.784 223.645 210.708C220.842 213.632 219.671 217.465 220.43 221.225L223.762 237.717C220.518 236.665 217.155 236.458 213.902 237.175C203.202 239.542 197.345 251.343 200.848 263.477C202.502 269.216 205.985 274.218 210.65 277.56C214.391 280.238 218.553 281.629 222.681 281.629C223.998 281.629 225.311 281.487 226.605 281.201C228.586 280.763 230.428 279.999 232.089 278.947L233.604 286.455C234.849 292.617 240.941 297.089 248.088 297.089H314.479C321.626 297.089 327.718 292.617 328.963 286.455L330.482 278.947C332.142 279.999 333.984 280.763 335.966 281.204C337.236 281.485 338.521 281.619 339.801 281.619C349.299 281.619 358.638 274.173 361.722 263.48C365.225 251.343 359.368 239.542 348.665 237.175L348.679 237.172ZM284.341 195.336C297.18 186.962 306.615 190.993 310.581 193.584C298.058 202.491 286.266 197.023 283.872 195.739C283.966 195.625 284.117 195.483 284.341 195.336ZM314.558 155.874C320.46 153.323 326.737 151.058 332.81 148.866C335.585 147.865 338.368 146.86 341.14 145.822C343.983 144.757 347.215 143.552 350.191 143.769C352.432 143.931 354.968 145.374 355.027 147.183C355.112 149.734 350.84 151.593 348.287 152.474C338.484 155.859 328.199 158.066 317.717 159.032C314.237 159.353 311.383 159.445 308.748 158.855C308.605 158.823 308.463 158.788 308.327 158.753C310.274 157.785 312.344 156.832 314.558 155.874ZM326.01 113.161C328.074 110.523 330.157 108.037 332.909 106.591C334.166 105.932 335.772 105.501 337.305 105.501C338.507 105.501 339.667 105.767 340.574 106.395C342.638 107.821 342.891 110.65 342.254 112.676C341.404 115.379 339.15 117.807 337.1 119.871C325.438 131.629 314.473 139.745 306.061 143.047C311.866 132.707 318.57 122.66 326.01 113.161ZM300.912 171.236C302.428 172.249 302.945 174.658 301.979 176.196C300.748 178.152 297.424 179.003 295.002 177.985C292.557 176.955 291.099 174.232 291.662 171.764C291.94 171.689 292.219 171.617 292.497 171.542C295.721 170.696 299.025 169.974 300.912 171.236ZM248.461 177.497C243.929 178.261 228.524 180.076 220.509 171.388C216.126 166.632 215.62 159.305 218.843 153.589C226.323 160.398 237.988 164.054 248.06 162.441C252.708 161.697 257.902 158.798 259.028 154C260.523 147.626 254.05 142.124 247.199 140.183C237.305 137.378 226.03 139.618 218.858 145.615C214.462 138.734 213.729 129.765 217.089 122.006C220.674 113.731 228.811 106.651 238.852 103.07C248.444 99.6479 258.891 99.5832 267.517 102.896C275.159 105.83 281.612 111.725 283.957 117.914C284.91 120.428 285.18 122.884 284.765 125.256C282.564 120.376 279.207 115.097 273.768 111.466C266.476 106.594 254.388 105.494 247.574 112.208C244.316 115.421 242.792 120.052 243.395 124.915C244.472 133.575 252.327 141.146 262.076 142.913C269.697 144.294 277.865 142.019 283.417 137.341C284.199 139.436 285.151 141.512 286.564 143.45C289.211 147.081 292.822 149.095 297.296 149.433C296.659 151.964 296.654 154.547 297.913 157.008C298.149 157.466 298.428 157.912 298.746 158.34C297.151 159.29 295.63 160.264 294.18 161.261C291.977 162.775 289.146 164.97 287.474 167.884C285.015 168.548 282.544 169.228 280.068 169.912C269.717 172.769 259.017 175.72 248.461 177.502V177.497ZM222.05 149.582C227.747 144.376 237.211 142.38 245.516 144.734C250.175 146.056 254.502 149.523 253.675 153.039C253.063 155.637 249.825 157.297 247.076 157.738C238.391 159.129 228.236 155.744 222.047 149.585L222.05 149.582ZM281.598 131.923C277.512 136.778 269.939 139.451 263.187 138.227C255.818 136.89 249.646 130.945 248.833 124.395C248.401 120.926 249.462 117.556 251.665 115.381C253.86 113.218 257.026 112.278 260.324 112.278C263.915 112.278 267.656 113.395 270.459 115.267C276.662 119.41 279.682 126.266 281.601 131.923H281.598ZM225.109 275.978C221.692 276.732 217.945 275.813 214.559 273.389C210.909 270.774 208.163 266.785 206.826 262.158C204.154 252.901 208.012 244.036 215.421 242.398C216.202 242.227 216.998 242.142 217.806 242.142C220.242 242.142 222.758 242.919 225.126 244.417L230.821 272.608C229.257 274.335 227.301 275.492 225.109 275.978ZM322.917 285.514C322.192 289.098 318.649 291.698 314.493 291.698H248.103C243.946 291.698 240.404 289.098 239.679 285.514L233.541 255.128L230.784 241.47L226.505 220.284C226.064 218.097 226.744 215.87 228.373 214.167C230.002 212.468 232.393 211.492 234.929 211.492H327.676C330.211 211.492 332.6 212.468 334.228 214.17C335.857 215.872 336.54 218.099 336.099 220.287L327.022 265.214L325.276 273.852L322.919 285.517L322.917 285.514ZM355.769 262.158C353.1 271.416 344.898 277.613 337.486 275.978C335.295 275.492 333.339 274.335 331.775 272.608L335.232 255.494L337.472 244.414C340.628 242.418 344.039 241.704 347.175 242.396C354.587 244.036 358.442 252.901 355.772 262.158H355.769Z" fill="#7248D8"/>
<path d="M270.004 231.815L263.855 232.026C263.977 234.913 263.338 243.275 258.951 247.264C257.228 248.829 255.093 249.591 252.418 249.591C249.743 249.591 247.579 248.827 245.828 247.252C240.464 242.434 240.702 232.098 240.705 231.994L237.629 231.922L234.553 231.844C234.536 232.36 234.229 244.536 241.405 250.999C244.336 253.64 248.043 254.979 252.418 254.979C256.793 254.979 260.495 253.637 263.4 250.989C270.505 244.517 270.033 232.33 270.007 231.815H270.004Z" fill="#7248D8"/>
<path d="M318.717 232.026C318.84 234.913 318.2 243.275 313.813 247.264C312.091 248.829 309.956 249.591 307.28 249.591C304.605 249.591 302.442 248.827 300.69 247.252C295.326 242.434 295.565 232.098 295.568 231.994L292.492 231.922L289.416 231.844C289.398 232.36 289.091 244.536 296.267 250.999C299.198 253.64 302.905 254.979 307.28 254.979C311.656 254.979 315.357 253.637 318.262 250.989C325.367 244.517 324.895 232.33 324.869 231.815L318.72 232.026H318.717Z" fill="#7248D8"/>
<path d="M283.955 267.733C282.014 268.505 277.181 269.714 275.483 268.296C275.319 268.159 275.157 267.982 275.162 267.9C275.211 267.355 276.322 266.272 277.235 265.712L278.571 264.911V249.34H272.416V262.203C271.068 263.271 269.243 265.125 269.024 267.462C268.911 268.684 269.201 270.493 271.225 272.188C273.164 273.813 275.66 274.338 278.073 274.338C282.085 274.338 285.871 272.89 286.511 272.633L283.952 267.733H283.955Z" fill="#7248D8"/>
<path d="M297.228 280.627C294.166 281.737 290.311 280.814 287.406 278.27L283.053 282.08C286.32 284.94 290.473 286.475 294.513 286.475C296.25 286.475 297.967 286.192 299.582 285.604C304.958 283.656 308.167 278.785 308.167 272.576H302.012C302.012 276.588 300.267 279.525 297.225 280.627H297.228Z" fill="#7248D8"/>
<path d="M296.726 132.73C297.312 132.936 297.914 133.038 298.517 133.038C299.481 133.038 300.447 132.777 301.343 132.264C303.225 131.184 319.492 121.16 311.282 101.769L310.381 99.6409L307.91 100.333C300.732 102.346 288.399 110.857 293.101 128.671C293.607 130.595 294.964 132.11 296.726 132.73ZM307.097 105.862C311.384 119.48 300.928 126.735 298.622 128.141C298.543 128.019 298.452 127.842 298.389 127.603C294.784 113.946 302.796 108.003 307.097 105.862Z" fill="#7248D8"/>
<path d="M371.224 118.444C364.555 115.373 348.973 113.643 337.758 129.068C336.546 130.733 336.262 132.641 336.993 134.177C337.624 135.501 338.909 136.409 340.609 136.733C341.226 136.85 343.219 137.183 345.985 137.183C353.058 137.183 365.2 135.013 372.418 121.557L373.521 119.502L371.224 118.446V118.444ZM342.059 132.141C342.101 132.004 342.181 131.825 342.332 131.619C350.929 119.795 361.388 120.626 366.147 121.813C358.059 134.038 344.819 132.597 342.056 132.141H342.059Z" fill="#7248D8"/>
<path d="M317.108 168.554C314.853 168.611 312.889 169.477 311.848 170.869C310.95 172.071 310.813 173.509 311.464 174.925C312.226 176.585 318.921 189.872 337.622 189.872C339.512 189.872 341.531 189.735 343.674 189.436L346.236 189.08L345.946 186.823C345.102 180.268 337.966 167.999 317.108 168.552V168.554ZM316.619 173.397C316.772 173.352 316.988 173.31 317.267 173.302C333.287 172.882 338.358 180.93 339.91 185.044C323.817 186.044 317.739 175.652 316.619 173.397Z" fill="#7248D8"/>
<path d="M324.537 102.393C325.043 95.1133 329.934 88.9638 336.71 87.0881C338.47 86.6008 340.291 86.4228 342.123 86.5605L371.934 88.7975C376.315 89.1255 380.311 91.2113 383.186 94.6653C386.061 98.1192 387.469 102.535 387.154 107.091L385.004 138.104C384.498 145.384 379.607 151.534 372.831 153.409C371.071 153.897 369.25 154.075 367.418 153.937L337.607 151.7C333.226 151.372 329.23 149.286 326.355 145.832C323.48 142.378 322.072 137.963 322.387 133.406L324.537 102.393Z" fill="#84E2F7"/>
<path d="M371.4 229.785L374.486 228.93C374.855 228.828 375.079 228.433 374.987 228.048C374.671 226.74 374.372 225.425 374.093 224.135C374.037 223.87 373.866 223.729 373.772 223.669C373.677 223.608 373.48 223.518 373.229 223.587L371.456 224.078C369.355 224.659 367.192 223.355 366.634 221.172L363.462 208.77C362.903 206.585 364.157 204.337 366.257 203.756L370.617 202.549C370.933 202.462 371.152 202.155 371.138 201.821C370.731 191.671 371.808 182.342 374.339 174.088C376.375 167.447 379.35 161.485 383.184 156.372C388.308 149.535 393.558 146.068 395.755 144.81C395.766 143.928 395.962 142.725 396.673 141.34C399.032 136.751 405.433 132.982 415.703 130.139C425.974 127.296 433.331 127.257 437.568 130.02C438.846 130.851 439.591 131.797 440.023 132.556C442.578 132.511 448.977 132.816 456.89 136.278C462.784 138.855 468.314 142.663 473.322 147.596C479.273 153.456 484.5 160.924 488.875 169.814L493.778 168.456C495.878 167.875 498.039 169.18 498.597 171.362L501.77 183.765C502.328 185.95 501.074 188.197 498.976 188.778L497.203 189.269C496.951 189.339 496.823 189.519 496.771 189.621C496.715 189.723 496.637 189.933 496.715 190.191C497.089 191.455 497.457 192.751 497.808 194.049C497.911 194.431 498.296 194.658 498.664 194.556L501.751 193.701C503.851 193.12 506.012 194.425 506.57 196.608L508.011 202.24C508.569 204.423 507.316 206.673 505.218 207.254C504.845 207.357 504.457 207.404 504.066 207.389C503.158 207.358 502.291 207.455 501.491 207.677C498.684 208.454 496.7 210.78 495.598 214.592C494.165 219.542 488.719 224.532 479.413 229.419C471.448 233.601 460.951 237.552 449.053 240.846C436.327 244.369 423.191 246.807 412.066 247.709C403.539 248.401 392.262 248.48 386.954 244.924C383.464 242.585 380.229 241.807 377.339 242.607C376.776 242.763 376.228 242.98 375.71 243.253C375.461 243.385 375.197 243.489 374.929 243.564C373.925 243.842 372.872 243.701 371.966 243.169C371.04 242.624 370.378 241.733 370.104 240.662L368.604 234.799C368.045 232.614 369.299 230.366 371.397 229.785L371.4 229.785Z" fill="#84E2F7"/>
<path d="M325.1 125.569L327.251 94.5561C327.933 84.6843 336.21 77.233 345.702 77.9426L375.513 80.1796C385.003 80.8921 392.166 89.5025 391.483 99.3742L389.333 130.389C388.791 138.223 383.465 144.534 376.548 146.448C374.749 146.946 372.842 147.148 370.884 147L341.07 144.763C331.58 144.051 324.418 135.441 325.103 125.568L325.1 125.569ZM332.936 135.302C335.103 137.906 338.114 139.477 341.418 139.727L371.232 141.963C374.536 142.212 377.734 141.105 380.238 138.852C382.742 136.597 384.252 133.464 384.492 130.027L386.642 99.0122C387.132 91.9197 381.986 85.7308 375.166 85.2209L345.355 82.9839C343.947 82.8786 342.577 83.0235 341.285 83.3812C336.315 84.7571 332.487 89.2915 332.098 94.9215L329.948 125.934C329.71 129.371 330.772 132.696 332.938 135.303L332.936 135.302Z" fill="#397BFF"/>
<path d="M356.016 103.568C360.735 102.262 365.598 105.192 366.854 110.104C368.111 115.015 365.293 120.071 360.572 121.378C355.851 122.685 350.99 119.754 349.734 114.843C348.478 109.931 351.295 104.875 356.016 103.568ZM359.323 116.494C361.456 115.903 362.728 113.619 362.161 111.4C361.593 109.182 359.398 107.858 357.265 108.448C355.132 109.039 353.859 111.323 354.427 113.541C354.994 115.76 357.19 117.084 359.323 116.494Z" fill="#397BFF"/>
<path d="M374.706 221.194L377.69 220.367C377.388 219.113 377.106 217.873 376.843 216.654L375.176 217.115C372.646 217.816 370.039 216.244 369.366 213.612L366.193 201.209C365.52 198.578 367.032 195.866 369.561 195.165L373.838 193.981C372.305 154.822 392.619 139.973 398.479 136.52C398.553 135.594 398.814 134.447 399.473 133.166C401.94 128.364 408.514 124.456 419.01 121.55C429.505 118.645 437.075 118.638 441.512 121.529C442.696 122.3 443.471 123.16 443.978 123.926C450.714 123.891 475.444 126.27 492.811 161.048L497.086 159.864C499.616 159.164 502.223 160.736 502.896 163.368L506.068 175.77C506.742 178.402 505.23 181.114 502.701 181.815L501.036 182.275C501.39 183.469 501.735 184.692 502.074 185.936L505.057 185.11C507.587 184.41 510.194 185.982 510.867 188.614L512.308 194.247C512.698 195.771 512.381 197.354 511.438 198.585C510.491 199.823 509.076 200.504 507.554 200.452C503.77 200.324 501.192 202.549 499.887 207.056C497.256 216.144 482.41 223.531 470.418 228.127C464.962 230.22 458.999 232.153 452.852 233.854C427.542 240.861 399.103 243.933 390.03 237.855C385.105 234.556 381.634 235.15 379.591 236.227C378.298 236.909 376.799 236.947 375.482 236.334C374.17 235.724 373.207 234.544 372.837 233.101L371.338 227.238C370.665 224.606 372.176 221.894 374.706 221.194ZM377.496 231.669C380.136 230.31 385.533 228.831 392.662 233.608C401.57 239.577 439.961 234.421 468.739 223.389C484.001 217.539 493.658 211.055 495.236 205.601C496.747 200.382 499.853 196.972 503.996 195.826C505.117 195.515 506.314 195.37 507.575 195.4L506.199 190.019L503.216 190.845C500.721 191.536 498.124 189.994 497.424 187.411C497.079 186.133 496.723 184.879 496.359 183.657C496.352 183.63 496.352 183.601 496.342 183.572L488.61 185.713L487.362 180.83L501.343 176.96L498.226 164.774L484.245 168.644L482.996 163.762L487.979 162.383C472.386 132.022 451.208 129.115 444.699 128.98L446.222 134.931L441.529 136.23L438.842 125.726C436.612 124.366 431.265 123.381 420.253 126.429C409.241 129.477 405.07 133.097 403.785 135.431L406.471 145.932L401.778 147.231L400.256 141.283C394.666 144.772 377.699 158.25 378.664 192.641L383.656 191.259L384.905 196.141L370.911 200.015L374.028 212.201L386.698 208.693L387.946 213.575L381.526 215.353C381.533 215.38 381.546 215.405 381.551 215.433C381.82 216.684 382.11 217.954 382.421 219.241C383.048 221.847 381.53 224.525 379.035 225.216L376.05 226.042L377.488 231.664L377.496 231.669Z" fill="#397BFF"/>
<path d="M396.443 220.729C427.78 220.752 458.431 211.7 485.082 194.548L487.636 198.844C473.105 208.195 457.418 215.206 441.083 219.728C426.594 223.739 411.595 225.79 396.44 225.781L390.425 225.778L390.428 220.725L396.443 220.729Z" fill="#397BFF"/>
<path d="M398.988 108.616L403.599 110.202L395.843 134.613L391.232 133.028L398.988 108.616Z" fill="#397BFF"/>
<path d="M407.624 116.465L410.87 120.223L404.458 126.217L401.212 122.459L407.624 116.465Z" fill="#397BFF"/>
<path d="M377.063 148.137L378.462 152.975L356.679 159.791L355.28 154.953L377.063 148.137Z" fill="#397BFF"/>
<path d="M375.243 156.3L378.118 160.371L370.851 165.925L367.976 161.853L375.243 156.3Z" fill="#397BFF"/>
<path d="M360.393 160.607L363.638 164.364L358.519 169.149L355.274 165.391L360.393 160.607Z" fill="#397BFF"/>
<path d="M411.918 100.733L415.772 103.806L409.004 112.992L405.15 109.919L411.918 100.733Z" fill="#397BFF"/>
<path d="M391.08 183.029L386.272 182.318C387.852 170.773 391.719 160.826 397.771 152.754L401.599 155.86C396.077 163.229 392.538 172.368 391.08 183.029Z" fill="#397BFF"/>
<path d="M441.73 210.398C429.962 213.655 417.842 206.345 414.711 194.105C411.58 181.865 418.605 169.255 430.373 165.997C442.141 162.739 454.261 170.048 457.392 182.29C460.524 194.532 453.496 207.141 441.73 210.398ZM431.844 171.747C423.126 174.161 417.92 183.502 420.24 192.572C422.56 201.641 431.541 207.059 440.259 204.645C448.977 202.232 454.185 192.89 451.864 183.818C449.544 174.746 440.564 169.333 431.844 171.747Z" fill="#397BFF"/>
<path d="M380.342 259.745C381.159 258.388 383.2 258.829 383.429 260.412C383.501 260.907 383.782 261.347 384.196 261.617C385.528 262.485 385.111 264.575 383.556 264.818C383.074 264.894 382.647 265.182 382.392 265.605C381.575 266.963 379.535 266.522 379.305 264.938C379.234 264.444 378.952 264.003 378.539 263.734C377.206 262.866 377.624 260.776 379.178 260.532C379.661 260.457 380.087 260.169 380.342 259.745Z" fill="#FFE885"/>
<ellipse cx="2.27424" cy="2.35354" rx="2.27424" ry="2.35354" transform="matrix(0.964496 -0.266988 0.247999 0.969552 356.742 233.441)" fill="#D5F48C"/>
<ellipse cx="0.826997" cy="0.855833" rx="0.826997" ry="0.855833" transform="matrix(0.964496 -0.266988 0.247999 0.969552 352.38 249.756)" fill="#84E2F7"/>
<path d="M212.993 198.101H192.898C193.877 189.426 193.692 180.664 192.342 172.019C190.896 162.758 188.154 153.871 184.19 145.611C180.187 137.267 175.045 129.788 168.91 123.384C162.561 116.758 155.283 111.428 147.274 107.539C137.692 102.889 127.583 100.53 117.229 100.53C104.384 100.53 91.6019 104.246 80.2681 111.277C68.7738 118.408 59.0246 128.804 52.0743 141.343C50.0578 144.984 49.4852 149.444 50.5465 153.277C51.4079 156.391 53.2343 158.763 55.6876 159.954L134.276 198.098H81.3491C78.6786 198.098 76.1709 199.464 74.2902 201.94C71.975 204.99 70.9409 209.344 71.5234 213.587C74.3 233.865 83.3977 252.465 97.1379 265.955C103.945 272.637 111.641 277.856 120.013 281.466C128.681 285.201 137.818 287.097 147.17 287.097C156.522 287.097 165.659 285.201 174.327 281.466C182.699 277.856 190.397 272.637 197.202 265.955C210.942 252.465 220.04 233.865 222.817 213.587C223.397 209.344 222.363 204.99 220.05 201.94C218.169 199.462 215.661 198.098 212.991 198.098L212.993 198.101Z" fill="#D5F48C"/>
<path d="M214.638 193.661C212.643 191.035 209.98 189.588 207.134 189.588H187.695C189.423 173.096 186.972 156.25 180.518 141.137C172.464 122.276 158.657 107.339 141.644 99.0816C124.631 90.8243 105.537 89.79 87.8778 96.1712C70.4056 102.485 55.4338 115.616 45.7216 133.139C43.6138 136.942 43.0189 141.609 44.1296 145.623C45.0428 148.924 46.9853 151.441 49.5991 152.709L125.579 189.588H75.4901C72.6443 189.588 69.9811 191.035 67.9868 193.661C65.5631 196.856 64.4796 201.406 65.0843 205.841C67.8832 226.275 77.0475 245.012 90.8938 258.605C104.886 272.343 122.792 279.909 141.309 279.909C159.825 279.909 177.731 272.343 191.723 258.605C205.567 245.012 214.734 226.272 217.533 205.841C218.14 201.408 217.054 196.856 214.63 193.661H214.638ZM51.4675 147.8C50.1421 147.159 49.14 145.818 48.6463 144.028C47.9429 141.483 48.3477 138.472 49.7323 135.975C58.8522 119.519 72.9133 107.188 89.3216 101.259C96.4941 98.6662 103.916 97.3783 111.328 97.3783C121.037 97.3783 130.725 99.5917 139.781 103.988C155.745 111.738 168.703 125.755 176.26 143.457C182.403 157.844 184.679 173.899 182.927 189.588H137.562L51.4675 147.8ZM182.161 194.933C181.883 196.558 181.577 198.18 181.209 199.792C180.557 202.643 178.904 205.049 176.783 206.226C175.293 207.051 173.743 207.151 172.417 206.51L148.57 194.935H182.161V194.933ZM212.863 205.024C210.237 224.212 201.628 241.808 188.626 254.573C175.493 267.467 158.689 274.567 141.313 274.567C123.938 274.567 107.134 267.467 94.0013 254.573C80.999 241.808 72.3901 224.212 69.7639 205.024C69.3641 202.114 70.0453 199.164 71.583 197.14C72.664 195.719 74.0511 194.933 75.495 194.933H136.592L170.551 211.416C171.734 211.991 172.982 212.275 174.254 212.275C175.794 212.275 177.361 211.854 178.869 211.021C182.213 209.167 184.8 205.467 185.792 201.127C186.261 199.075 186.644 197.009 186.977 194.935H207.139C208.581 194.935 209.97 195.719 211.051 197.143C212.589 199.167 213.268 202.117 212.87 205.027L212.863 205.024Z" fill="#74AA27"/>
<path d="M187.191 214.092C181.05 214.092 174.853 216.11 174.853 220.624C174.853 225.137 181.05 227.155 187.191 227.155C193.332 227.155 198.485 222.756 198.695 222.569L200.877 220.624L198.695 218.678C198.485 218.491 193.483 214.092 187.191 214.092ZM187.191 222.193C183.393 222.193 180.764 221.318 179.663 220.621C180.764 219.927 183.393 219.051 187.191 219.051C189.398 219.051 191.449 219.81 193.014 220.621C191.449 221.435 189.4 222.193 187.191 222.193Z" fill="#74AA27"/>
<path d="M106.164 220.622C106.164 216.108 99.9663 214.09 93.8255 214.09C87.6848 214.09 82.5312 218.486 82.3214 218.676L80.1396 220.622L82.3214 222.567C82.5312 222.754 87.5342 227.153 93.8255 227.153C100.117 227.153 106.164 225.135 106.164 220.622ZM93.8255 222.194C91.6165 222.194 89.568 221.436 88.0031 220.622C89.568 219.81 91.6165 219.052 93.8255 219.052C97.624 219.052 100.253 219.928 101.353 220.622C100.253 221.316 97.624 222.194 93.8255 222.194Z" fill="#74AA27"/>
<path d="M139.606 233.916C135.924 233.916 133.251 239.115 133.251 246.277C133.251 252.73 137.901 257.754 138.098 257.963L139.604 259.566L141.109 257.963C141.307 257.754 145.959 252.73 145.959 246.277C145.959 239.115 143.286 233.916 139.604 233.916H139.606ZM139.606 252.309C138.671 250.804 137.644 248.621 137.644 246.279C137.644 241.641 139.095 239.07 139.567 238.875C140.117 239.07 141.568 241.641 141.568 246.279C141.568 248.621 140.542 250.807 139.606 252.309Z" fill="#74AA27"/>
<path d="M171.977 231.656C167.833 227.619 162.001 224.605 158.995 227.533C158.129 228.377 157.652 229.615 157.652 231.017C157.652 233.956 159.735 237.741 163.228 241.142C167.72 245.519 174.408 245.854 174.692 245.865L177.091 245.968L176.968 243.261C176.956 242.974 176.598 236.158 171.977 231.658V231.656ZM166.096 237.384C163.27 234.633 162.25 232.275 162.073 231.316H162.08C163.119 231.316 165.918 232.305 169.107 235.414C170.635 236.902 171.496 238.826 171.977 240.429C170.161 239.971 167.838 239.085 166.093 237.387L166.096 237.384Z" fill="#74AA27"/>
<path d="M107.239 231.655C102.621 236.154 102.263 242.97 102.249 243.258L102.125 245.964L104.524 245.861C104.806 245.85 111.497 245.516 115.989 241.139C119.479 237.738 121.564 233.952 121.564 231.014C121.564 229.612 121.088 228.374 120.222 227.529C117.216 224.602 111.386 227.613 107.239 231.652V231.655ZM113.121 237.384C111.378 239.082 109.053 239.968 107.239 240.425C107.721 238.825 108.582 236.899 110.11 235.41C113.299 232.305 116.097 231.312 117.137 231.312H117.144C116.966 232.268 115.947 234.63 113.121 237.381V237.384Z" fill="#74AA27"/>
<path d="M81.0497 127.088C75.2693 124.281 69.1359 126.093 68.8767 126.171L66.1914 126.988L67.5168 129.748C67.6451 130.013 70.7032 136.285 76.4836 139.092C79.3886 140.503 82.4936 141.426 85.0383 141.426C87.4373 141.426 89.3378 140.603 90.1054 138.593C91.6825 134.448 86.6944 129.829 81.0522 127.088H81.0497ZM78.2163 134.531C76.1874 133.547 74.5683 131.936 73.4157 130.492C75.1311 130.439 77.2833 130.659 79.3121 131.646C82.8021 133.341 84.9099 135.318 85.68 136.447C84.4212 136.592 81.7038 136.226 78.2138 134.531H78.2163Z" fill="#74AA27"/>
<path d="M175.803 178.07C175.675 177.805 172.616 171.533 166.836 168.726C164.124 167.41 161.379 166.59 159.111 166.42C155.228 166.133 153.765 167.783 153.217 169.222C152.669 170.66 152.617 173.002 155.473 175.982C157.144 177.725 159.557 179.411 162.27 180.727C164.77 181.94 167.337 182.291 169.467 182.291C172.259 182.291 174.297 181.689 174.443 181.644L177.128 180.83L175.803 178.067V178.07ZM164.003 176.172C160.513 174.477 158.402 172.5 157.635 171.371C158.889 171.224 161.608 171.591 165.101 173.286C167.13 174.271 168.749 175.882 169.902 177.326C168.169 177.37 166.031 177.156 164.003 176.172Z" fill="#74AA27"/>
<path d="M136.102 118.529L134.159 119.329C133.905 119.435 127.875 121.975 125.62 127.904C124.571 130.661 124.037 133.513 124.119 135.939C124.26 140.087 126.069 141.576 127.137 142.094C127.552 142.295 128.137 142.487 128.858 142.487C129.998 142.487 131.479 142.008 133.167 140.329C134.781 138.726 136.247 136.326 137.296 133.569C139.552 127.64 137.035 120.952 136.926 120.67L136.102 118.526V118.529ZM133.261 131.615C131.639 135.875 129.418 137.578 128.905 137.561C128.465 137.137 128.033 134.129 129.655 129.867C130.474 127.715 132.18 126.168 133.565 125.203C133.9 127.004 134.078 129.466 133.261 131.618V131.615Z" fill="#74AA27"/>
<path d="M99.0759 115.474L96.9089 114.308L96.0746 116.851C95.9858 117.121 93.9323 123.544 96.6028 129.739C98.7452 134.709 102.413 139.526 105.871 139.526C106.28 139.526 106.688 139.459 107.088 139.314C108.179 138.924 109.05 138.001 109.541 136.711C110.568 134.009 109.978 129.605 107.959 124.924C105.362 118.9 99.3326 115.61 99.0759 115.474ZM105.584 134.467C104.634 134.009 102.401 131.852 100.552 127.564C99.6683 125.515 99.5498 123.363 99.6658 121.676C101.174 122.909 103 124.757 104.007 127.096C105.641 130.884 105.752 133.508 105.582 134.467H105.584Z" fill="#74AA27"/>
<path d="M156.085 158.61C161.902 156.536 164.615 150.434 164.726 150.175L165.785 147.741L163.544 146.765C163.28 146.651 157.015 143.978 151.361 145.99C146.965 147.557 143.727 150.105 142.7 152.806C142.209 154.094 142.214 155.446 142.717 156.606C143.727 158.948 146.311 159.871 149.322 159.871C151.497 159.871 153.896 159.388 156.085 158.608V158.61ZM146.866 154.504C147.365 153.704 149.127 151.992 152.684 150.724C154.881 149.941 157.326 150.164 159.153 150.551C158.151 151.808 156.685 153.191 154.762 153.877C150.736 155.313 147.812 154.97 146.866 154.504Z" fill="#74AA27"/>
<path d="M663.689 131.818L638.642 101.054C635.793 97.5536 631.257 96.2582 627.091 97.751C625.771 98.2243 624.566 98.9563 623.512 99.9284L591.165 129.776C590.71 130.195 590.319 130.673 589.999 131.191C586.528 126.405 583.153 122.086 580.274 118.743C574.5 112.047 572.124 110.865 570.841 110.562C570.07 110.378 569.305 110.422 568.564 110.687C566.339 111.484 563.48 114.27 561.08 128.848C559.76 136.866 558.965 146.034 558.519 152.601L519.064 153.45C518.314 153.466 517.581 153.601 516.886 153.85C511.705 155.707 509.535 163.533 511.954 171.672L515.012 181.818C515.233 182.541 515.684 183.171 516.287 183.598C517.618 184.53 518.681 186.044 519.281 187.855C519.929 189.812 519.941 191.878 519.307 193.518C519.032 194.236 519 195.04 519.223 195.788L523.836 211.091C524.101 211.967 524.712 212.707 525.519 213.121C527.122 213.936 528.495 215.681 529.194 217.792C529.95 220.074 529.839 222.457 528.897 224.159C528.436 224.985 528.327 225.973 528.599 226.886L532.726 240.563C533.043 241.616 533.822 242.446 534.813 242.787C536.666 243.427 538.312 245.32 539.109 247.725C539.954 250.279 539.695 253.002 538.441 254.662C537.788 255.536 537.587 256.691 537.907 257.752L541.678 270.253C542.038 271.451 542.995 272.338 544.175 272.57C546.2 272.972 548.146 275.017 549.021 277.659C550.021 280.682 549.452 283.896 547.668 285.309L546.461 286.265L546.945 287.728L547.244 288.723C548.749 293.798 551.736 297.93 555.231 299.774C557.324 300.881 559.457 301.098 561.398 300.402C561.481 300.372 561.566 300.342 561.646 300.307L561.683 301.383C561.748 303.191 562.592 304.812 564.067 305.946C566.514 307.826 570.445 308.261 574.582 307.108C574.655 307.088 574.728 307.065 574.796 307.041C576.106 306.571 576.995 305.294 577.003 303.863C577.018 301.56 579.104 299.148 581.962 298.124C584.821 297.099 587.915 297.668 589.282 299.485C590.131 300.622 591.587 301.069 592.903 300.597L603.582 296.77C604.897 296.299 605.78 295.014 605.778 293.58C605.778 291.27 607.863 288.845 610.735 287.816C613.607 286.787 616.691 287.36 618.054 289.178C618.904 290.315 620.359 290.758 621.675 290.287L632.354 286.46C633.669 285.989 634.552 284.704 634.55 283.27C634.55 280.96 636.637 278.534 639.51 277.505C642.382 276.475 645.46 277.05 646.832 278.875C647.685 280.004 649.138 280.449 650.45 279.978C655.198 278.277 658.568 274.123 659.945 268.28C661.168 263.087 660.76 256.957 658.795 251.021C656.358 243.663 651.886 237.625 646.199 234.013C639.444 229.726 631.34 229.083 622.762 232.157L615.836 234.639L610.521 229.811C610.24 228.016 609.36 226.351 608.025 225.139C606.693 223.928 604.989 223.245 603.244 223.196L600.986 221.145L600.206 218.568C602.359 217.352 603.858 215.089 604.136 212.513C604.407 210 603.539 207.576 601.756 205.856C600.108 204.264 597.937 203.534 595.73 203.807L593.309 195.82L631.894 205.145L632.19 205.128C632.302 205.123 633.303 205.058 634.542 204.615C636.824 203.797 638.496 202.242 639.376 200.122C640.62 197.126 640.189 193.161 638.098 188.34C633.484 177.707 622.322 178.936 616.26 180.537C616.203 178.732 615.685 176.119 614.155 172.165C614.721 172.122 615.286 172.002 615.838 171.804C616.113 171.706 616.386 171.585 616.649 171.45L660.323 148.833C663.26 147.311 665.322 144.524 665.985 141.18C666.647 137.837 665.809 134.427 663.689 131.825L663.689 131.818Z" fill="#FFE885"/>
<path d="M531.857 262.022C536.537 257.361 539.224 251.31 539.229 245.416C539.236 240.128 536.971 235.025 532.86 231.05C528.454 226.79 522.472 224.505 516.858 224.935C515.642 225.029 514.417 225.234 513.208 225.553L501.14 212.893C503.341 211.088 504.808 208.338 505.259 205.071C505.885 200.542 504.426 195.952 501.452 193.093C497.415 189.213 491.249 188.115 485.362 190.225C483.956 190.729 482.638 191.396 481.429 192.216L467.535 177.641L466.99 182.074C466.076 189.534 468.241 197.363 472.95 203.754C471.991 206.377 471.364 209.196 471.084 212.156C469.764 226.018 476.495 239.936 487.449 246.003C489.552 247.167 491.822 248.021 494.223 248.554C493.769 252.165 493.95 255.922 494.756 259.663L464.787 245.905L463.929 246.318C461.66 247.409 459.977 249.514 459.185 252.242C458.224 255.555 458.7 259.424 460.426 262.336C463.502 267.526 469.226 269.933 473.267 271.29C482.218 274.298 491.929 275.359 501.439 274.373C502.148 275.337 502.897 276.264 503.674 277.135C510.181 284.448 519.543 289.724 530.746 292.395C540.887 294.813 551.332 294.918 561.111 294.67L561.906 290.496L518.161 270.41C523.917 268.21 528.407 265.461 531.857 262.022Z" fill="#FFE885"/>
<path d="M666.69 125.687L641.639 94.9237C639.657 92.4897 636.884 91.0261 633.826 90.7989C630.772 90.5736 627.822 91.6113 625.531 93.7266L593.183 123.574C592.925 123.814 592.691 124.073 592.472 124.338C586.642 116.351 577.863 105.238 573.47 104.199C572.033 103.857 570.61 104.188 569.357 105.155C567.735 106.407 562.848 110.181 560.354 146.232L521.526 147.067C518.981 147.126 516.707 148.413 515.121 150.701C512.549 154.409 512.031 160.35 513.776 166.221L516.835 176.37C517.103 177.245 517.648 178.009 518.381 178.526C519.59 179.374 520.558 180.756 521.11 182.424C521.705 184.221 521.72 186.104 521.147 187.591C520.813 188.458 520.778 189.427 521.045 190.337L525.659 205.643C525.979 206.704 526.717 207.596 527.695 208.099C529.136 208.835 530.381 210.425 531.023 212.361C531.704 214.418 531.608 216.635 530.782 218.136C530.224 219.134 530.094 220.335 530.421 221.435L534.547 235.11C534.931 236.381 535.876 237.388 537.072 237.8C538.727 238.373 540.205 240.093 540.934 242.293C541.706 244.624 541.487 247.08 540.376 248.558C539.58 249.616 539.341 251.018 539.728 252.298L543.496 264.798C543.929 266.247 545.09 267.323 546.519 267.603C548.311 267.958 550.047 269.816 550.844 272.221C551.871 275.323 551.057 278.015 549.724 279.071L548.169 280.303L549.063 283.264C550.622 288.518 553.739 292.811 557.396 294.744C559.436 295.822 561.523 296.115 563.467 295.604L563.472 295.74C563.543 297.772 564.488 299.587 566.133 300.852C568.749 302.861 572.897 303.339 577.236 302.129C578.947 301.638 580.151 300.03 580.164 298.198C580.177 296.474 581.725 294.181 584.657 293.13C587.59 292.079 590.19 292.899 591.21 294.255C592.24 295.631 594.004 296.172 595.597 295.601L606.276 291.774C607.869 291.203 608.938 289.647 608.936 287.907C608.938 286.177 610.479 283.874 613.431 282.816C616.383 281.758 618.966 282.584 619.987 283.94C621.017 285.316 622.781 285.857 624.374 285.286L635.053 281.459C636.645 280.888 637.715 279.332 637.713 277.591C637.715 275.862 639.259 273.558 642.208 272.501C645.157 271.444 647.737 272.27 648.767 273.636C649.801 275.004 651.56 275.54 653.147 274.972C663.98 271.09 665.75 256.686 661.916 245.105C659.427 237.59 654.852 231.416 649.026 227.72C642.091 223.315 633.786 222.651 625.008 225.797L612.206 230.385C613.018 229.209 613.566 227.83 613.725 226.344C614.019 223.606 613.075 220.96 611.13 219.084C609.343 217.36 606.991 216.573 604.6 216.858L603.489 213.188C605.57 211.81 607.008 209.511 607.288 206.905C607.582 204.167 606.638 201.518 604.694 199.645C603.038 198.049 600.9 197.253 598.694 197.369L596.797 191.112L634.304 200.177L634.696 200.155C634.922 200.144 635.965 200.064 637.253 199.603C638.788 199.053 640.674 197.958 641.948 195.786C643.884 192.485 643.632 187.967 641.197 182.359C636.927 172.513 626.867 172.098 619.348 173.907C619.178 172.236 618.667 170.023 617.571 167.038C617.899 166.971 618.228 166.898 618.544 166.785C618.843 166.678 619.138 166.549 619.426 166.398L663.101 143.781C666.226 142.163 668.425 139.192 669.129 135.633C669.834 132.073 668.942 128.443 666.684 125.67L666.69 125.687ZM638.514 149.448C638.455 149.513 638.334 149.63 638.105 149.782L633.06 152.329L632.827 152.46C632.013 152.972 631.631 153.023 631.582 153.041C631.579 153.042 631.576 153.043 631.576 153.043C631.516 153 631.331 152.814 631.101 152.369C626.181 142.871 613.74 125.469 608.51 118.283L614.697 112.273L637.889 148.173C638.355 148.894 638.477 149.291 638.51 149.446L638.514 149.448ZM565.798 148.164C567.562 121.265 570.82 111.603 572.478 109.961C574.665 111.139 581.593 118.534 591.324 132.44C591.601 133.082 591.965 133.7 592.424 134.267C592.851 134.798 593.256 135.314 593.662 135.837C599.693 144.716 604.987 153.518 608.598 160.663L608.624 160.715C608.853 161.285 609.064 161.822 609.241 162.299C609.519 163.056 609.909 163.753 610.39 164.37C614.092 172.432 613.924 175.18 613.798 175.794L593.636 183.683C593.465 183.751 593.304 183.831 593.15 183.921L592.84 184.032C590.802 184.763 589.715 187.009 590.362 189.148L593.156 198.373C590.722 198.852 588.138 199.362 585.628 199.862C585.548 199.878 585.467 199.894 585.384 199.912C584.857 200.017 584.335 200.121 583.819 200.223C583.554 200.276 583.292 200.329 583.032 200.38C582.617 200.462 582.211 200.544 581.808 200.624C581.603 200.665 581.399 200.707 581.197 200.747C580.572 200.872 579.959 200.996 579.368 201.115C576.69 201.653 574.442 203.538 573.36 206.144C572.549 208.099 572.472 210.271 573.102 212.247C573.208 212.577 573.33 212.9 573.475 213.216C573.619 213.532 573.78 213.841 573.963 214.143L575.024 215.891C577.001 219.142 580.851 220.639 584.39 219.527L598.253 215.186L599.077 217.907C597.428 218.233 595.718 218.571 594.014 218.906C593.455 219.017 592.901 219.126 592.348 219.238C592.316 219.243 592.288 219.25 592.256 219.255C591.123 219.479 590.011 219.702 588.927 219.918C588.922 219.92 588.916 219.922 588.911 219.924C588.374 220.029 587.847 220.135 587.332 220.24C586.808 220.345 586.298 220.447 585.803 220.548C583.124 221.093 580.877 222.972 579.796 225.58C578.715 228.188 578.94 231.178 580.398 233.577L581.46 235.328C581.954 236.141 582.564 236.843 583.259 237.421C583.288 237.443 583.319 237.461 583.348 237.486L572.102 240.017L573.279 245.676L593.058 241.225L580.714 249.122L583.628 254.056L609.59 237.448L612.394 236.443C609.991 243.037 607.558 254.307 610.494 269.354L572.485 281.128L566.176 273.466L532.235 152.624L561.936 151.986C563.988 151.938 565.647 150.298 565.79 148.16L565.798 148.164ZM646.125 232.668C650.843 235.665 654.582 240.751 656.65 246.995C659.508 255.625 658.577 265.932 652.287 269.09C649.462 266.319 644.77 265.46 640.393 267.029C636.016 268.597 632.769 272.282 632.226 276.346L623.568 279.449C620.737 276.593 616.097 275.735 611.615 277.341C607.134 278.947 604.014 282.634 603.457 286.655L594.793 289.76C591.962 286.905 587.322 286.046 582.843 287.651C578.365 289.256 575.316 292.796 574.705 296.786C572.236 297.252 570.289 296.844 569.437 296.191C569.042 295.888 569.035 295.664 569.03 295.528L568.943 292.993C568.896 291.505 568.074 290.154 566.804 289.465C565.532 288.777 563.998 288.857 562.787 289.671C561.837 290.318 560.657 289.974 559.908 289.578C558.189 288.67 555.926 286.262 554.569 282.173C556.874 279.199 557.525 274.633 556.101 270.334C554.781 266.346 551.874 263.246 548.531 262.166L545.271 251.357C547.108 248.369 547.469 244.265 546.189 240.4C544.996 236.795 542.579 233.948 539.622 232.617L535.927 220.363C537.258 217.49 537.398 213.851 536.277 210.466C535.236 207.32 533.243 204.724 530.763 203.235L526.515 189.147C527.382 186.485 527.332 183.451 526.365 180.529C525.492 177.892 523.941 175.623 521.974 174.078L519.085 164.491C517.703 159.835 518.363 155.908 519.628 154.08C520.464 152.876 521.349 152.857 521.635 152.85L526.475 152.745L561.174 276.284L570.616 287.748L617.103 273.348L616.486 270.677C611.772 250.317 617.946 237.032 619.694 233.824L626.817 231.272C634.077 228.67 640.573 229.138 646.123 232.662L646.125 232.668ZM607.344 223.336C607.977 223.95 608.288 224.813 608.191 225.707C608.075 226.778 607.367 227.693 606.39 228.043L589.224 233.421C588.069 233.784 586.814 233.294 586.168 232.235L585.106 230.484C584.622 229.689 584.549 228.737 584.908 227.874C584.992 227.671 585.1 227.488 585.219 227.318C585.259 227.262 585.305 227.217 585.349 227.163C585.436 227.055 585.53 226.951 585.632 226.86C585.689 226.808 585.753 226.762 585.816 226.718C585.917 226.643 586.023 226.573 586.134 226.511C586.204 226.473 586.276 226.438 586.352 226.407C586.518 226.335 586.687 226.271 586.869 226.235C591.758 225.247 598.078 223.998 603.191 222.993L605.014 222.634C605.862 222.468 606.711 222.723 607.343 223.333L607.344 223.336ZM601.754 206.268C601.64 207.335 600.936 208.252 599.854 208.639L599.849 208.641L582.785 213.986C581.631 214.348 580.375 213.859 579.729 212.799L578.668 211.051C578.184 210.257 578.111 209.305 578.471 208.441C578.554 208.239 578.662 208.053 578.786 207.881C578.819 207.834 578.861 207.793 578.896 207.749C578.992 207.631 579.093 207.518 579.207 207.417C579.254 207.374 579.309 207.336 579.358 207.299C579.471 207.214 579.59 207.136 579.715 207.069C579.775 207.037 579.838 207.005 579.903 206.979C580.072 206.905 580.247 206.839 580.431 206.802C580.848 206.717 581.292 206.628 581.733 206.54C586.582 205.563 592.502 204.394 597.275 203.457L598.579 203.201C599.427 203.034 600.276 203.289 600.908 203.9C601.541 204.513 601.852 205.377 601.755 206.271L601.754 206.268ZM636.126 184.751C637.699 188.38 638.086 191.22 637.212 192.754C636.58 193.862 635.282 194.225 634.701 194.337L602.61 186.58C607.27 184.818 612.225 182.851 616.203 181.035L616.212 181.032C616.837 180.751 631.603 174.331 636.123 184.752L636.126 184.751ZM616.95 161.23C616.311 161.555 615.754 161.413 615.471 161.3C615.35 161.25 615.181 161.158 615.014 161.023C614.603 160.154 614.185 159.271 613.728 158.365L613.673 158.253C611.165 152.061 606.534 143.095 598.094 132.318C597.505 131.449 596.911 130.592 596.318 129.737C596.182 129.086 596.371 128.376 596.879 127.906L603.855 121.469C608.228 127.476 621.35 145.74 626.209 155.119C626.398 155.486 626.614 155.805 626.829 156.118L616.954 161.232L616.95 161.23ZM663.679 134.48C663.322 136.285 662.207 137.79 660.621 138.611L643.684 147.381C643.424 146.595 643.056 145.791 642.511 144.941L618.57 107.882L629.219 98.0548C630.381 96.9831 631.874 96.4545 633.427 96.5693C634.976 96.6851 636.383 97.4272 637.39 98.6608L662.441 129.424C663.585 130.829 664.038 132.67 663.681 134.476L663.679 134.48Z" fill="#F9B60D"/>
<path d="M589.291 189.132L591.044 183.637C578.97 179.467 576.922 171.79 576.839 171.465L571.427 172.82C571.53 173.269 574.082 183.881 589.287 189.131L589.291 189.132Z" fill="#F9B60D"/>
<path d="M498.516 275.98C501.732 275.339 504.911 274.465 508.014 273.353L508.022 273.35C514.453 271.045 519.407 268.104 523.166 264.36C527.98 259.567 530.745 253.326 530.75 247.237C530.755 241.748 528.417 236.46 524.163 232.344C519.622 227.952 513.444 225.595 507.642 226.042C497.797 226.793 488.723 234.844 485.478 245.249C483.784 244.82 482.131 244.205 480.577 243.343C471.32 238.217 465.645 226.347 466.774 214.477C466.9 213.153 467.105 211.869 467.387 210.634C470.935 213.89 475.193 216.276 479.862 217.341C484.019 218.293 487.608 218.007 490.526 216.504C493.9 214.765 496.178 211.299 496.776 206.992C497.434 202.234 495.896 197.404 492.756 194.388C487.223 189.069 477.67 188.932 471.012 194.076C469.06 195.584 467.348 197.491 465.919 199.707C463.322 195.109 462.031 189.746 462.671 184.535L457.15 183.8C456.197 191.572 458.552 199.455 463.018 205.687C462.122 208.232 461.515 210.999 461.239 213.904C459.891 228.045 466.77 242.251 477.965 248.452C479.992 249.573 482.131 250.366 484.315 250.912C483.61 257.716 485.109 264.944 488.475 271.407C480.759 271.798 472.978 270.758 465.605 268.277C460.351 266.511 457.115 264.357 455.417 261.492C454.415 259.802 454.131 257.459 454.694 255.523C454.965 254.588 455.553 253.349 456.814 252.74L454.477 247.484C452.029 248.661 450.213 250.923 449.364 253.85C448.348 257.352 448.852 261.444 450.678 264.526C453.872 269.916 459.748 272.392 463.892 273.783C472.934 276.823 482.538 277.874 491.967 276.943C492.61 277.799 493.29 278.629 494.004 279.431C500.604 286.848 510.086 292.199 521.425 294.904C531.638 297.341 542.138 297.445 551.962 297.197L551.827 291.407C542.365 291.647 532.283 291.553 522.668 289.259C515.661 287.587 505.846 283.93 498.516 275.97L498.516 275.98ZM474.327 198.726C478.829 195.243 485.403 195.208 488.977 198.644C490.761 200.359 491.66 203.313 491.264 206.171C490.931 208.562 489.762 210.438 488.053 211.319C486.291 212.222 483.94 212.349 481.053 211.69C476.653 210.684 472.66 208.134 469.516 204.688C470.768 202.254 472.394 200.218 474.325 198.727L474.327 198.726ZM489.835 251.711C493.446 251.855 497.06 251.321 500.421 250.116C505.828 248.179 510.578 244.575 513.607 239.575L508.896 236.489C505.29 242.447 498.263 245.844 491.127 245.918C493.945 238.213 500.741 232.381 508.053 231.819C512.34 231.491 516.945 233.273 520.374 236.588C523.48 239.594 525.189 243.372 525.186 247.233C525.183 251.75 523.044 256.469 519.32 260.178C516.153 263.332 511.866 265.85 506.212 267.876L506.207 267.878C502.426 269.233 498.531 270.207 494.583 270.8C490.932 264.893 489.217 258.062 489.839 251.713L489.835 251.711Z" fill="#F9B60D"/>
</svg>
