<svg width="258" height="110" viewBox="0 0 258 110" fill="none" xmlns="http://www.w3.org/2000/svg">
<path d="M230.596 70.9385C231.19 69.0862 233.81 69.0862 234.404 70.9385L237.488 80.5531C237.665 81.1055 238.073 81.5539 238.607 81.7817L247.692 85.6606C249.312 86.3521 249.312 88.6479 247.692 89.3394L238.607 93.2183C238.073 93.4461 237.665 93.8945 237.488 94.4469L234.404 104.061C233.81 105.914 231.19 105.914 230.596 104.061L227.512 94.4469C227.335 93.8945 226.927 93.4461 226.393 93.2183L217.308 89.3394C215.688 88.6479 215.688 86.3521 217.308 85.6606L226.393 81.7817C226.927 81.5539 227.335 81.1055 227.512 80.5531L230.596 70.9385Z" fill="#E7E9EC"/>
<ellipse cx="17.5" cy="70" rx="17.5" ry="17" fill="#84E2F7"/>
<g clip-path="url(#clip0_232_726)">
<path d="M115.206 30.1853H166.349C167.669 30.1853 168.742 29.1123 168.742 27.7939V24.1336C168.742 22.8152 167.668 21.7422 166.349 21.7422H115.206C113.886 21.7422 112.812 22.8152 112.812 24.1336V27.7939C112.812 29.1123 113.886 30.1853 115.206 30.1853ZM166.349 23.1354C166.9 23.1354 167.348 23.5836 167.348 24.1345V27.7947C167.348 28.3456 166.899 28.7938 166.349 28.7938H115.206C114.655 28.7938 114.206 28.3456 114.206 27.7947V24.1345C114.206 23.5836 114.655 23.1354 115.206 23.1354H166.349Z" fill="#FFE885"/>
<path d="M160.098 37.5755L166.258 28.8652L140.77 28.9549L140.774 30.3473L163.561 30.2672L159.382 36.1753L140.78 35.969L140.765 37.3614L160.098 37.5755Z" fill="#FFE885"/>
<path d="M157.784 51.785C158.599 51.785 159.42 51.6414 160.198 51.3412C162.63 50.4022 164.512 48.0273 164.992 45.2921C165.28 43.6535 165.067 41.9939 164.391 40.6207C163.695 39.2039 161.569 36.7229 159.951 36.2129L159.532 37.5409C160.683 37.9038 162.567 40.0672 163.14 41.2342C163.686 42.3455 163.856 43.7005 163.619 45.0519C163.222 47.3163 161.682 49.2752 159.696 50.0419C157.639 50.8356 155.109 50.2177 153.811 48.6051C153.303 47.9733 153.005 47.1962 152.912 46.3991C153.125 46.6445 153.361 46.8699 153.621 47.0726C154.689 47.9046 156.01 48.2779 157.246 48.0969C158.623 47.8959 159.826 46.9778 160.312 45.7586C161.015 43.992 160.084 41.7807 158.279 40.9296C156.651 40.1629 154.534 40.5441 153.129 41.8573C153.089 41.8938 153.051 41.9304 153.014 41.9678C153.113 41.3543 153.345 40.7669 153.719 40.27L152.605 39.4337C151.601 40.7686 151.34 42.53 151.741 44.1199C151.197 45.8917 151.509 47.9681 152.724 49.4771C153.916 50.9574 155.832 51.7841 157.785 51.7841L157.784 51.785ZM156.474 41.9312C156.9 41.9312 157.314 42.0148 157.684 42.1888C158.827 42.7275 159.45 44.1556 159.016 45.2443C158.716 45.9979 157.923 46.5905 157.044 46.7193C156.196 46.8429 155.236 46.5653 154.477 45.9744C153.884 45.5123 153.455 44.8692 153.208 44.1565C153.408 43.67 153.699 43.2297 154.08 42.8737C154.734 42.2628 155.624 41.9304 156.473 41.9304L156.474 41.9312Z" fill="#FFE885"/>
<path d="M150.332 48.3594H151.727V86.2958H150.332V48.3594Z" fill="#FFE885"/>
<path d="M140.771 45.1719H148.875V46.5643H140.771V45.1719Z" fill="#FFE885"/>
<path d="M140.778 51.916H149.508V53.3084H140.778V51.916Z" fill="#FFE885"/>
<path d="M121.446 37.5772L136.73 37.3614L136.71 35.969L122.16 36.1744L117.982 30.2672L140.769 30.3473L140.773 28.9549L115.286 28.8652L116.132 30.0644L121.446 37.5772Z" fill="#FFE885"/>
<path d="M123.762 51.7852C125.714 51.7852 127.629 50.9593 128.821 49.4782C130.036 47.9692 130.349 45.8937 129.805 44.121C130.206 42.5311 129.944 40.7688 128.941 39.4347L127.826 40.271C128.2 40.7688 128.433 41.3554 128.532 41.9698C128.495 41.9323 128.456 41.8949 128.417 41.8592C127.012 40.546 124.893 40.164 123.267 40.9316C121.461 41.7826 120.531 43.9939 121.234 45.7605C121.719 46.9797 122.923 47.8978 124.299 48.0989C125.535 48.2799 126.857 47.9065 127.925 47.0746C128.184 46.8718 128.421 46.6464 128.633 46.401C128.541 47.1982 128.244 47.9753 127.735 48.6071C126.437 50.2196 123.907 50.8375 121.85 50.0439C119.863 49.2772 118.323 47.3183 117.925 45.0539C117.688 43.7033 117.859 42.3474 118.405 41.2361C118.978 40.0691 120.862 37.9057 122.013 37.5428L121.594 36.2148C119.976 36.7248 117.85 39.2059 117.153 40.6226C116.479 41.9959 116.266 43.6545 116.552 45.2941C117.032 48.0301 118.914 50.4041 121.347 51.3431C122.124 51.6434 122.946 51.787 123.761 51.787L123.762 51.7852ZM128.337 44.1575C128.089 44.8694 127.661 45.5125 127.067 45.9755C126.309 46.5664 125.349 46.844 124.501 46.7204C123.622 46.5916 122.829 45.999 122.53 45.2453C122.096 44.1567 122.719 42.7286 123.862 42.1899C124.967 41.6686 126.483 41.9576 127.465 42.8757C127.845 43.2316 128.136 43.6719 128.337 44.1584V44.1575Z" fill="#FFE885"/>
<path d="M129.825 48.3594H131.219V86.2958H129.825V48.3594Z" fill="#FFE885"/>
<path d="M132.669 45.1719H140.773V46.5643H132.669V45.1719Z" fill="#FFE885"/>
<path d="M132.044 51.916H140.773V53.3084H132.044V51.916Z" fill="#FFE885"/>
<path d="M143.938 84.0815H145.333V56.6454C145.333 56.1302 145.963 55.6951 146.708 55.6951C147.452 55.6951 148.082 56.1302 148.082 56.6454V84.0815H149.477V56.6454C149.477 55.354 148.234 54.3027 146.708 54.3027C145.181 54.3027 143.938 55.354 143.938 56.6454V84.0815Z" fill="#FFE885"/>
<path d="M138.001 84.0815H139.395V56.6454C139.395 56.1302 140.025 55.6951 140.77 55.6951C141.515 55.6951 142.145 56.1302 142.145 56.6454V84.0815H143.539V56.6454C143.539 55.354 142.297 54.3027 140.77 54.3027C139.243 54.3027 138.001 55.354 138.001 56.6454V84.0815Z" fill="#FFE885"/>
<path d="M132.071 84.0815H133.465V56.6454C133.465 56.1302 134.095 55.6951 134.84 55.6951C135.585 55.6951 136.215 56.1302 136.215 56.6454V84.0815H137.609V56.6454C137.609 55.354 136.367 54.3027 134.84 54.3027C133.314 54.3027 132.071 55.354 132.071 56.6454V84.0815Z" fill="#FFE885"/>
<path d="M172.464 8.72542H223.606C224.927 8.72542 226 7.65241 226 6.33399V2.67463C226 1.35621 224.926 0.283203 223.606 0.283203H172.464C171.144 0.283203 170.07 1.35621 170.07 2.67463V6.33487C170.07 7.65328 171.144 8.72629 172.464 8.72629V8.72542ZM223.606 1.67559C224.158 1.67559 224.606 2.12376 224.606 2.67463V6.33487C224.606 6.88573 224.157 7.3339 223.606 7.3339H172.464C171.913 7.3339 171.464 6.88573 171.464 6.33487V2.67463C171.464 2.12376 171.913 1.67559 172.464 1.67559H223.606Z" fill="#FFE885"/>
<path d="M217.364 16.1145L223.523 7.4043L198.035 7.49393L198.04 8.88632L220.827 8.80626L216.648 14.7143L198.045 14.5081L198.029 15.9005L217.364 16.1145Z" fill="#FFE885"/>
<path d="M215.05 30.3221C215.864 30.3221 216.685 30.1785 217.463 29.8783C219.896 28.9393 221.778 26.5644 222.258 23.8292C222.546 22.1906 222.332 20.531 221.657 19.1578C220.961 17.741 218.835 15.26 217.217 14.75L216.798 16.078C217.949 16.4409 219.832 18.6043 220.406 19.7713C220.951 20.8826 221.122 22.2376 220.885 23.589C220.488 25.8534 218.948 27.8123 216.961 28.579C214.905 29.3727 212.375 28.7548 211.076 27.1422C210.568 26.5104 210.27 25.7333 210.178 24.9362C210.391 25.1816 210.627 25.407 210.886 25.6097C211.955 26.4417 213.276 26.815 214.512 26.634C215.889 26.433 217.092 25.5149 217.577 24.2957C218.281 22.5291 217.35 20.3178 215.545 19.4667C213.917 18.7 211.8 19.0812 210.394 20.3944C210.355 20.4309 210.317 20.4675 210.279 20.5049C210.379 19.8914 210.61 19.304 210.985 18.8071L209.871 17.9708C208.867 19.3057 208.605 21.0671 209.006 22.657C208.462 24.4288 208.774 26.5052 209.99 28.0142C211.182 29.4945 213.098 30.3212 215.051 30.3212L215.05 30.3221ZM213.739 20.4692C214.165 20.4692 214.58 20.5528 214.949 20.7268C216.093 21.2655 216.716 22.6936 216.282 23.7822C215.982 24.5359 215.189 25.1285 214.31 25.2573C213.461 25.3809 212.502 25.1033 211.743 24.5124C211.15 24.0503 210.721 23.4072 210.473 22.6944C210.674 22.208 210.965 21.7676 211.346 21.4117C212 20.8008 212.89 20.4684 213.738 20.4684L213.739 20.4692Z" fill="#FFE885"/>
<path d="M207.59 26.8984H208.984V104H207.59V26.8984Z" fill="#FFE885"/>
<path d="M198.036 23.7109H206.141V25.1033H198.036V23.7109Z" fill="#FFE885"/>
<path d="M198.036 30.4551H206.766V31.8475H198.036V30.4551Z" fill="#FFE885"/>
<path d="M178.711 16.1163L193.994 15.9005L193.974 14.5081L179.426 14.7135L175.248 8.80626L198.034 8.88632L198.039 7.49393L172.551 7.4043L173.397 8.60349L178.711 16.1163Z" fill="#FFE885"/>
<path d="M181.019 30.3223C182.972 30.3223 184.887 29.4965 186.079 28.0153C187.294 26.5063 187.607 24.4308 187.063 22.6581C187.464 21.0682 187.202 19.3059 186.199 17.9718L185.084 18.8082C185.458 19.3059 185.691 19.8925 185.79 20.5069C185.752 20.4694 185.714 20.432 185.675 20.3963C184.269 19.0831 182.151 18.7011 180.524 19.4687C178.719 20.3198 177.789 22.531 178.492 24.2976C178.977 25.5168 180.18 26.4349 181.557 26.636C182.793 26.817 184.114 26.4437 185.183 25.6117C185.442 25.4089 185.679 25.1835 185.891 24.9381C185.799 25.7353 185.501 26.5124 184.993 27.1442C183.694 28.7568 181.165 29.3746 179.108 28.581C177.121 27.8143 175.581 25.8554 175.183 23.591C174.946 22.2404 175.117 20.8845 175.663 19.7732C176.236 18.6063 178.12 16.4428 179.271 16.0799L178.852 14.752C177.234 15.2619 175.107 17.743 174.411 19.1597C173.737 20.533 173.523 22.1917 173.81 23.8312C174.289 26.5672 176.171 28.9412 178.605 29.8802C179.382 30.1805 180.204 30.3241 181.019 30.3241L181.019 30.3223ZM185.596 22.6955C185.348 23.4074 184.919 24.0505 184.326 24.5135C183.568 25.1044 182.608 25.382 181.76 25.2584C180.881 25.1296 180.088 24.537 179.788 23.7833C179.355 22.6947 179.977 21.2666 181.12 20.7279C182.225 20.2066 183.741 20.4956 184.723 21.4137C185.104 21.7696 185.395 22.2099 185.596 22.6964V22.6955Z" fill="#FFE885"/>
<path d="M187.09 26.8984H188.484V104H187.09V26.8984Z" fill="#FFE885"/>
<path d="M189.927 23.7109H198.031V25.1033H189.927V23.7109Z" fill="#FFE885"/>
<path d="M189.301 30.4551H198.031V31.8475H189.301V30.4551Z" fill="#FFE885"/>
<path d="M201.204 101.785H202.598V35.1845C202.598 34.6693 203.228 34.2342 203.973 34.2342C204.718 34.2342 205.348 34.6693 205.348 35.1845V101.786H206.742V35.1845C206.742 33.893 205.5 32.8418 203.973 32.8418C202.447 32.8418 201.204 33.893 201.204 35.1845V101.786V101.785Z" fill="#FFE885"/>
<path d="M195.267 101.785H196.661V35.1845C196.661 34.6693 197.291 34.2342 198.036 34.2342C198.781 34.2342 199.411 34.6693 199.411 35.1845V101.786H200.805V35.1845C200.805 33.893 199.562 32.8418 198.036 32.8418C196.509 32.8418 195.267 33.893 195.267 35.1845V101.786V101.785Z" fill="#FFE885"/>
<path d="M189.337 101.785H190.731V35.1845C190.731 34.6693 191.361 34.2342 192.106 34.2342C192.851 34.2342 193.481 34.6693 193.481 35.1845V101.786H194.875V35.1845C194.875 33.893 193.632 32.8418 192.106 32.8418C190.579 32.8418 189.337 33.893 189.337 35.1845V101.786V101.785Z" fill="#FFE885"/>
<path d="M58.394 8.44222H109.536C110.856 8.44222 111.93 7.36921 111.93 6.05079V2.39142C111.93 1.07301 110.855 0 109.536 0H58.394C57.0739 0 55.9996 1.07301 55.9996 2.39142V6.05166C55.9996 7.37008 57.0739 8.44309 58.394 8.44309V8.44222ZM109.536 1.39239C110.088 1.39239 110.536 1.84056 110.536 2.39142V6.05166C110.536 6.60253 110.087 7.0507 109.536 7.0507H58.394C57.8424 7.0507 57.3937 6.60253 57.3937 6.05166V2.39142C57.3937 1.84056 57.8424 1.39239 58.394 1.39239H109.536Z" fill="#FFE885"/>
<path d="M103.295 15.8313L109.453 7.12109L83.9652 7.21073L83.9705 8.60312L106.756 8.52305L102.578 14.4311L83.9757 14.2249L83.96 15.6173L103.295 15.8313Z" fill="#FFE885"/>
<path d="M100.979 30.0409C101.794 30.0409 102.615 29.8973 103.393 29.597C105.826 28.658 107.708 26.2832 108.188 23.548C108.475 21.9093 108.262 20.2498 107.587 18.8765C106.89 17.4598 104.764 14.9787 103.146 14.4688L102.727 15.7967C103.878 16.1596 105.762 18.3231 106.335 19.49C106.881 20.6013 107.052 21.9563 106.815 23.3078C106.417 25.5722 104.878 27.5311 102.891 28.2978C100.835 29.0914 98.3044 28.4736 97.0061 26.861C96.4981 26.2292 96.2002 25.4521 96.1078 24.6549C96.3204 24.9003 96.5565 25.1257 96.8162 25.3285C97.8844 26.1605 99.2053 26.5338 100.442 26.3528C101.818 26.1517 103.022 25.2336 103.507 24.0144C104.21 22.2478 103.28 20.0366 101.474 19.1855C99.8466 18.4188 97.7293 18.7999 96.3239 20.1131C96.2847 20.1497 96.2463 20.1862 96.2089 20.2237C96.3082 19.6101 96.54 19.0227 96.9146 18.5258L95.8002 17.6895C94.7965 19.0245 94.5351 20.7858 94.9359 22.3758C94.3922 24.1476 94.7041 26.224 95.9196 27.733C97.1116 29.2133 99.0276 30.04 100.98 30.04L100.979 30.0409ZM99.668 20.188C100.094 20.188 100.509 20.2715 100.878 20.4456C102.021 20.9843 102.644 22.4123 102.211 23.501C101.911 24.2546 101.118 24.8473 100.239 24.976C99.3901 25.0996 98.4307 24.822 97.6718 24.2311C97.0785 23.769 96.6498 23.1259 96.4023 22.4132C96.6027 21.9267 96.8937 21.4864 97.2745 21.1305C97.9289 20.5195 98.8185 20.1871 99.6671 20.1871L99.668 20.188Z" fill="#FFE885"/>
<path d="M93.5199 26.6152H94.9141V88.3223H93.5199V26.6152Z" fill="#FFE885"/>
<path d="M83.9662 23.4277H92.0703V24.8201H83.9662V23.4277Z" fill="#FFE885"/>
<path d="M83.9656 30.1719H92.6953V31.5643H83.9656V30.1719Z" fill="#FFE885"/>
<path d="M64.6402 15.8331L79.9241 15.6173L79.904 14.2249L65.3547 14.4303L61.1767 8.52305L83.9635 8.60312L83.9688 7.21073L58.48 7.12109L59.3269 8.32029L64.6402 15.8331Z" fill="#FFE885"/>
<path d="M66.9569 30.0391C68.9095 30.0391 70.8247 29.2133 72.0167 27.7321C73.2313 26.2231 73.5441 24.1476 73.0004 22.3749C73.4012 20.785 73.1398 19.0227 72.136 17.6886L71.0216 18.5249C71.3954 19.0227 71.6281 19.6093 71.7274 20.2237C71.6899 20.1862 71.6516 20.1488 71.6124 20.1131C70.2069 18.7999 68.0887 18.4179 66.462 19.1855C64.6566 20.0366 63.726 22.2478 64.4292 24.0144C64.9145 25.2336 66.1178 26.1517 67.4945 26.3528C68.73 26.5338 70.0518 26.1604 71.1201 25.3285C71.3797 25.1257 71.6167 24.9003 71.8285 24.6549C71.7361 25.4521 71.439 26.2292 70.9301 26.861C69.6319 28.4736 67.1024 29.0914 65.0452 28.2978C63.0586 27.5311 61.5181 25.5722 61.1208 23.3078C60.8838 21.9572 61.0546 20.6013 61.6 19.49C62.1734 18.3231 64.0571 16.1596 65.2082 15.7967L64.7891 14.4688C63.171 14.9787 61.045 17.4598 60.3488 18.8765C59.6744 20.2498 59.4609 21.9084 59.7476 23.548C60.2268 26.284 62.1089 28.658 64.5425 29.597C65.3197 29.8973 66.1413 30.0409 66.956 30.0409L66.9569 30.0391ZM71.5322 22.4123C71.2848 23.1242 70.8561 23.7673 70.2627 24.2303C69.5046 24.8211 68.5445 25.0988 67.6967 24.9752C66.8175 24.8464 66.0246 24.2537 65.7249 23.5001C65.2918 22.4114 65.9139 20.9834 67.0571 20.4447C68.1619 19.9234 69.678 20.2123 70.66 21.1305C71.0408 21.4864 71.3318 21.9267 71.5322 22.4132V22.4123Z" fill="#FFE885"/>
<path d="M73.0121 26.6152H74.4062V88.3223H73.0121V26.6152Z" fill="#FFE885"/>
<path d="M75.8646 23.4277H83.9688V24.8201H75.8646V23.4277Z" fill="#FFE885"/>
<path d="M75.239 30.1719H83.9688V31.5643H75.239V30.1719Z" fill="#FFE885"/>
<path d="M87.1338 86.1072H88.5279V34.9013C88.5279 34.3861 89.1578 33.951 89.9028 33.951C90.6478 33.951 91.2778 34.3861 91.2778 34.9013V86.1072H92.6719V34.9013C92.6719 33.6098 91.4294 32.5586 89.9028 32.5586C88.3763 32.5586 87.1338 33.6098 87.1338 34.9013V86.1072Z" fill="#FFE885"/>
<path d="M81.1963 86.1072H82.5904V34.9013C82.5904 34.3861 83.2203 33.951 83.9653 33.951C84.7103 33.951 85.3403 34.3861 85.3403 34.9013V86.1072H86.7344V34.9013C86.7344 33.6098 85.4919 32.5586 83.9653 32.5586C82.4388 32.5586 81.1963 33.6098 81.1963 34.9013V86.1072Z" fill="#FFE885"/>
<path d="M75.2666 86.1072H76.6607V34.9013C76.6607 34.3861 77.2906 33.951 78.0356 33.951C78.7806 33.951 79.4106 34.3861 79.4106 34.9013V86.1072H80.8047V34.9013C80.8047 33.6098 79.5622 32.5586 78.0356 32.5586C76.5091 32.5586 75.2666 33.6098 75.2666 34.9013V86.1072Z" fill="#FFE885"/>
</g>
<ellipse cx="4.42461" cy="3.81814" rx="4.42461" ry="3.81814" transform="matrix(0.96379 -0.266663 0.375887 0.926666 246 64.3594)" fill="#84E2F7"/>
<defs>
<clipPath id="clip0_232_726">
<rect width="170" height="104" fill="white" transform="matrix(-1 0 0 1 226 0)"/>
</clipPath>
</defs>
</svg>
