<svg width="81" height="108" viewBox="0 0 81 108" fill="none" xmlns="http://www.w3.org/2000/svg">
<path d="M69.4183 75.3842C67.9015 75.0023 66.3343 75.1137 64.8215 75.6732L66.3754 66.8867C66.7294 64.8847 66.1831 62.8428 64.8758 61.2836C63.5685 59.7244 61.6527 58.8321 59.6201 58.8321H37.7526V55.3941C38.3771 55.7906 41.0819 57.3657 44.7108 57.3657C47.572 57.3657 51.002 56.3846 54.4294 53.0725L55.2991 52.232L54.4983 51.3251C52.1727 48.6892 45.7078 45.246 37.8985 51.0652C37.8468 51.1036 37.8004 51.1461 37.7513 51.1872V42.1143C37.8945 42.0692 38.0403 42.0241 38.1835 41.9777C38.865 41.7629 39.5452 41.5481 40.2254 41.336C40.3116 43.354 41.4823 45.2818 43.2762 46.1449C43.9577 46.4737 44.6962 46.6289 45.4307 46.6289C47.2259 46.6289 48.9973 45.7047 49.8671 44.1269C50.9171 42.2217 50.3762 39.5209 48.6857 38.2295C47.5693 37.377 46.2488 37.2523 45.0263 37.3916C45.2146 37.2298 45.4002 37.0813 45.5739 36.9447C46.3442 36.3401 47.1464 35.7607 47.9963 35.1972C48.6393 35.6069 49.3725 35.9265 50.1614 36.128C51.8519 36.5616 53.6033 36.4608 55.2434 36.2884C60.36 35.7501 65.3823 34.5197 70.1687 32.6317C74.1794 31.0499 74.9696 28.8954 74.9246 27.368C74.8543 24.9165 72.5327 23.2645 70.3304 23.0815C68.3059 22.9144 66.4165 23.7232 64.8971 24.3729C63.6149 24.9218 62.3275 25.4521 61.0428 25.9812C58.1723 27.1638 55.2037 28.3876 52.3743 29.7851C50.9039 30.5103 49.5422 31.2501 48.2747 32.0112C48.1938 31.8892 48.1249 31.7619 48.0665 31.632C47.6423 30.684 47.7722 29.5676 48.1487 28.4062C54.4015 26.9159 61.7853 19.3479 65.9405 14.5615C67.0794 13.2502 68.339 11.687 68.8773 9.73269C69.4077 7.80489 69.0987 5.19558 67.2147 3.70929C65.2471 2.15803 62.5516 2.55049 60.7511 3.62974C59.0261 4.66391 57.87 6.22711 56.7403 7.87516C52.9775 13.3656 49.6098 19.1901 46.7301 25.1883C46.5855 25.4906 46.4423 25.7995 46.3058 26.1124C46.1096 26.1204 45.9186 26.1177 45.7343 26.1045C44.4297 26.0077 43.4035 25.3461 42.5947 24.0799C41.7833 22.807 41.3484 21.3022 40.8949 19.7072C42.3786 17.0249 42.6398 14.0325 41.648 11.0453C40.3169 7.03323 36.8444 3.38048 32.5857 1.51233C27.9359 -0.526846 22.3408 -0.502981 17.2322 1.57863C11.9062 3.74907 7.57994 8.06608 5.66141 13.1243C3.67924 18.3495 4.25998 24.239 7.15169 28.6965C4.58083 32.7484 4.7174 38.3011 7.65551 41.9393C10.7806 45.8095 16.5746 47.3634 23.1562 46.0959C27.2014 45.3176 31.2426 44.1415 35.2003 42.9138V58.8334H16.3611C14.3273 58.8334 12.4114 59.7271 11.1054 61.285C9.79811 62.8428 9.25185 64.8847 9.60586 66.8881L11.1598 75.6746C9.64696 75.1137 8.07846 75.0037 6.56167 75.3855C1.57112 76.6464 -1.16016 82.9337 0.473305 89.3986C1.24496 92.456 2.86914 95.121 5.04488 96.9017C6.78972 98.3283 8.73079 99.0694 10.6559 99.0694C11.2698 99.0694 11.8824 98.9939 12.4856 98.8414C13.4098 98.608 14.2689 98.201 15.0432 97.6402L15.7499 101.64C16.3306 104.923 19.172 107.306 22.5052 107.306H53.4681C56.8013 107.306 59.6427 104.923 60.2234 101.64L60.9314 97.6402C61.7057 98.201 62.5649 98.608 63.489 98.8427C64.0817 98.9925 64.6809 99.0641 65.2776 99.0641C69.7073 99.0641 74.0628 95.0972 75.5013 89.3999C77.1348 82.9337 74.4035 76.6464 69.4116 75.3855L69.4183 75.3842ZM39.4126 53.0951C45.4002 48.6336 49.8008 50.7815 51.6503 52.1617C45.8099 56.9069 40.3102 53.994 39.1939 53.3099C39.2376 53.2489 39.3079 53.1733 39.4126 53.0951ZM53.5052 32.0709C56.2577 30.7118 59.1852 29.5053 62.0173 28.3372C63.3113 27.8042 64.6093 27.2686 65.9021 26.7157C67.2279 26.1482 68.7354 25.5065 70.1236 25.6219C71.1684 25.708 72.3511 26.477 72.3789 27.4409C72.4187 28.7999 70.4259 29.7904 69.2353 30.2597C64.6637 32.0629 59.8667 33.2389 54.9783 33.7534C53.3554 33.9244 52.0242 33.9735 50.7952 33.6592C50.7289 33.642 50.6626 33.6234 50.5989 33.6049C51.5071 33.0891 52.4724 32.5813 53.5052 32.0709ZM58.8458 9.31505C59.8084 7.90963 60.7802 6.58509 62.0637 5.81476C62.6497 5.46341 63.3988 5.23403 64.1135 5.23403C64.6743 5.23403 65.2153 5.3759 65.6382 5.71002C66.6008 6.46974 66.7188 7.97725 66.4218 9.0565C66.0254 10.4964 64.974 11.7904 64.018 12.8896C58.5793 19.1543 53.4655 23.4779 49.5422 25.2374C52.2496 19.7284 55.376 14.3759 58.8458 9.31505ZM47.1411 40.2554C47.8478 40.795 48.0891 42.0785 47.6383 42.8979C47.0642 43.94 45.5142 44.3934 44.3846 43.8512C43.2444 43.3023 42.5642 41.8518 42.8267 40.5365C42.9567 40.4967 43.0866 40.4583 43.2165 40.4185C44.7201 39.9677 46.2607 39.5832 47.1411 40.2554ZM22.6789 43.5913C20.5655 43.9983 13.3806 44.9649 9.64298 40.3363C7.5985 37.8026 7.3625 33.8992 8.86603 30.8537C12.3544 34.4813 17.7944 36.429 22.4919 35.5698C24.6597 35.1734 27.0821 33.6287 27.6071 31.0725C28.3045 27.6769 25.2855 24.7455 22.0902 23.7113C17.4762 22.217 12.2178 23.4103 8.87265 26.6056C6.82287 22.9396 6.4808 18.1612 8.04797 14.0272C9.71988 9.61867 13.5145 5.84658 18.1975 3.93867C22.6709 2.1156 27.5435 2.08113 31.5662 3.84586C35.1301 5.40905 38.1398 8.55002 39.2336 11.8474C39.6778 13.1866 39.8037 14.4952 39.6102 15.7587C38.5839 13.1587 37.0181 10.3466 34.4817 8.41213C31.0809 5.81609 25.4433 5.23006 22.2652 8.80724C20.7458 10.5189 20.0351 12.9864 20.3162 15.5771C20.8187 20.1911 24.4821 24.2244 29.0284 25.1658C32.5831 25.9016 36.3923 24.6898 38.9817 22.1971C39.3463 23.3135 39.7905 24.4193 40.4494 25.4521C41.6838 27.3866 43.3677 28.4592 45.4546 28.6395C45.1576 29.9879 45.1549 31.3642 45.7423 32.6755C45.8523 32.9194 45.9823 33.1567 46.1308 33.3848C45.387 33.8913 44.6776 34.4097 44.0014 34.9414C42.9739 35.7475 41.6533 36.9169 40.8737 38.4695C39.7268 38.8235 38.5747 39.1854 37.4198 39.5501C32.5924 41.0721 27.6018 42.6446 22.6789 43.5939V43.5913ZM10.3616 28.7191C13.0186 25.9454 17.4324 24.882 21.3053 26.1363C23.4784 26.8403 25.4963 28.6873 25.1105 30.5607C24.8255 31.9449 23.3153 32.8292 22.0332 33.0639C17.9827 33.8051 13.2467 32.0019 10.3603 28.7204L10.3616 28.7191ZM38.1332 19.3107C36.2279 21.8975 32.6958 23.3215 29.5469 22.6692C26.1102 21.9572 23.2318 18.7897 22.8526 15.3C22.651 13.4517 23.1456 11.6565 24.1731 10.4977C25.1967 9.34554 26.6737 8.84436 28.2117 8.84436C29.8863 8.84436 31.6311 9.43968 32.9384 10.4367C35.8315 12.6443 37.2395 16.297 38.1345 19.3107H38.1332ZM11.7882 96.0584C10.1945 96.4601 8.44705 95.9709 6.86795 94.6795C5.16554 93.286 3.88475 91.1607 3.2616 88.6959C2.01528 83.7637 3.81448 79.0409 7.26968 78.1685C7.6343 78.077 8.00554 78.0319 8.38209 78.0319C9.51835 78.0319 10.6917 78.4456 11.7962 79.2438L14.4519 94.2632C13.7227 95.1833 12.8105 95.7999 11.7882 96.0584ZM57.4033 101.139C57.0652 103.048 55.4131 104.434 53.4747 104.434H22.5118C20.5734 104.434 18.9214 103.048 18.5833 101.139L15.7207 84.9503L14.4347 77.674L12.4392 66.3869C12.2337 65.2214 12.5506 64.0348 13.3103 63.1279C14.07 62.2223 15.1851 61.7026 16.3678 61.7026H59.6228C60.8054 61.7026 61.9192 62.2223 62.6789 63.1292C63.4386 64.0361 63.7568 65.2228 63.5513 66.3882L59.3178 90.324L58.5037 94.9261L57.4046 101.14L57.4033 101.139ZM72.725 88.6959C71.48 93.6281 67.6549 96.9295 64.1983 96.0584C63.1761 95.7999 62.2639 95.1833 61.5347 94.2632L63.1469 85.1452L64.1917 79.2425C65.6634 78.1791 67.2544 77.7986 68.7169 78.1672C72.1734 79.0409 73.9713 83.7637 72.7263 88.6959H72.725Z" fill="#0346C8"/>
<path d="M32.7223 72.5296L29.8544 72.6423C29.9114 74.1803 29.6131 78.6352 27.5673 80.7605C26.7638 81.5945 25.7681 82.0002 24.5205 82.0002C23.2728 82.0002 22.2639 81.5932 21.4471 80.7539C18.9452 78.187 19.0566 72.6807 19.0579 72.625L17.6233 72.5866L16.1887 72.5455C16.1808 72.8199 16.0376 79.3074 19.3841 82.7507C20.751 84.1574 22.48 84.8707 24.5205 84.8707C26.561 84.8707 28.2873 84.1561 29.6423 82.7454C32.9556 79.2968 32.7355 72.804 32.7236 72.5296H32.7223Z" fill="#0346C8"/>
<path d="M55.4437 72.6423C55.5007 74.1803 55.2024 78.6352 53.1566 80.7605C52.3531 81.5945 51.3573 82.0002 50.1097 82.0002C48.8621 82.0002 47.8531 81.5932 47.0364 80.7539C44.5345 78.187 44.6458 72.6807 44.6471 72.625L43.2126 72.5866L41.778 72.5455C41.77 72.8199 41.6268 79.3074 44.9733 82.7507C46.3403 84.1574 48.0692 84.8707 50.1097 84.8707C52.1502 84.8707 53.8765 84.1561 55.2315 82.7454C58.5449 79.2968 58.3248 72.804 58.3128 72.5296L55.445 72.6423H55.4437Z" fill="#0346C8"/>
<path d="M39.2356 91.6659C38.3301 92.0769 36.0761 92.7213 35.2846 91.9655C35.2077 91.8926 35.1321 91.7984 35.1347 91.7547C35.1573 91.4643 35.6757 90.8876 36.1013 90.5893L36.7245 90.1623V81.8664H33.854V88.7198C33.2255 89.2886 32.3743 90.2764 32.2722 91.5214C32.2192 92.1723 32.3544 93.1363 33.2984 94.0392C34.2027 94.905 35.3668 95.1847 36.4924 95.1847C38.3632 95.1847 40.1293 94.4131 40.4276 94.2765L39.2343 91.6659H39.2356Z" fill="#0346C8"/>
<path d="M45.421 98.5356C43.993 99.1269 42.1951 98.635 40.8401 97.28L38.8102 99.3099C40.3336 100.833 42.2707 101.651 44.1548 101.651C44.9649 101.651 45.7657 101.5 46.5188 101.187C49.026 100.149 50.5229 97.5544 50.5229 94.2464H47.6524C47.6524 96.3837 46.8383 97.9482 45.4196 98.5356H45.421Z" fill="#0346C8"/>
<path d="M45.1874 19.739C45.4605 19.849 45.7416 19.9034 46.0227 19.9034C46.4722 19.9034 46.923 19.7642 47.3406 19.491C48.2183 18.9156 55.8049 13.575 51.9758 3.24388L51.5555 2.11027L50.4034 2.47886C47.0555 3.55149 41.3039 8.08594 43.4969 17.5765C43.7329 18.6014 44.3654 19.4088 45.1874 19.739ZM50.0242 5.42493C52.0236 12.6801 47.147 16.545 46.0717 17.2941C46.0346 17.2291 45.9922 17.135 45.963 17.0077C44.2818 9.73134 48.0181 6.56518 50.0242 5.42493Z" fill="#0346C8"/>
<path d="M79.9321 12.1288C76.8216 10.4926 69.5546 9.57116 64.324 17.7889C63.7592 18.6759 63.6266 19.6928 63.9674 20.5109C64.2617 21.2162 64.861 21.7002 65.6539 21.8725C65.9416 21.9348 66.871 22.1125 68.1611 22.1125C71.4598 22.1125 77.1226 20.9564 80.489 13.7874L81.0034 12.6922L79.9321 12.1301V12.1288ZM66.3301 19.4263C66.35 19.3534 66.3871 19.2579 66.4573 19.1479C70.4668 12.8487 75.3446 13.2915 77.5641 13.924C73.792 20.4366 67.6175 19.6689 66.3287 19.4263H66.3301Z" fill="#0346C8"/>
<path d="M54.6957 38.8251C53.6443 38.8556 52.7281 39.317 52.2428 40.0581C51.8239 40.6985 51.7602 41.4649 52.0638 42.2193C52.4192 43.1036 55.5416 50.1824 64.2631 50.1824C65.1448 50.1824 66.0862 50.1095 67.0859 49.9504L68.2805 49.7608L68.1453 48.5582C67.7515 45.0659 64.4236 38.5294 54.6957 38.8237V38.8251ZM54.4676 41.4052C54.5392 41.3813 54.64 41.3588 54.7699 41.3548C62.2412 41.1307 64.6065 45.4186 65.3304 47.6102C57.8247 48.1432 54.99 42.6064 54.4676 41.4052Z" fill="#0346C8"/>
</svg>
