<svg width="1170" height="513" viewBox="0 0 1170 513" fill="none" xmlns="http://www.w3.org/2000/svg">
<path d="M321.662 85.7649C285.486 82.1188 275.497 80.776 244.366 76.4281C0.71582 42.3976 30.6205 151.454 34.0945 164.124L34.1395 164.288C38.6172 180.642 39.6848 187.836 76.4114 204.818C215.216 269 -112.961 342.641 73.3511 387.923C129.333 401.529 261.157 376.923 255.756 428.008C252.523 458.592 294.298 480.735 294.298 480.735C294.298 480.735 330.931 497.513 358.639 498.415C393.194 499.539 428.844 489.169 428.844 489.169C428.844 489.169 460.964 481.828 484.022 456.37C496.956 442.087 531.912 388.426 538.756 380.41C608.101 299.192 681.887 270.969 752.61 287.506C808.946 300.68 900.772 351.563 954.934 368.975C1009.46 386.504 1065.03 382.08 1104.7 360.961C1132.7 346.057 1141.46 330.35 1143.86 327.322C1155.7 312.381 1156.11 285.169 1154.04 272.398C1148.29 237.058 1111.97 206.873 1090.78 198.525C1078.43 193.66 1063.63 189.683 1058.37 187.78C1052.51 185.657 1031.38 182.103 997.373 175.192L997.057 175.128C964.407 168.494 944.346 164.417 938.875 159.836C932.591 154.573 913.368 120.452 881.177 75.6874C865.805 54.3111 858.965 46.8574 847.131 38.5154C823.413 21.7968 807.743 15.7087 787.678 14.8915C768.814 14.1231 733.837 13.0716 671.552 26.9891C630.729 36.1111 573.164 51.9243 532.456 62.5149C491.748 73.1054 468.598 78.3155 448.694 82.0215C428.79 85.7275 412.623 87.8647 394.74 88.7834C376.858 89.7021 357.837 89.4111 321.662 85.7649Z" stroke="#0346C8" stroke-width="29" stroke-linecap="round"/>
</svg>
