<?xml version="1.0" encoding="UTF-8"?>
<svg id="Layer_1" data-name="Layer 1" xmlns="http://www.w3.org/2000/svg" viewBox="0 0 768.74 373.15">
  <defs>
    <style>
      .cls-1 {
        fill: #f2f9f9;
      }

      .cls-2 {
        fill: #c5b3ff;
      }

      .cls-3 {
        fill: #84e2f7;
      }

      .cls-4 {
        fill: #d5f48c;
      }
    </style>
  </defs>
  <g>
    <g>
      <path class="cls-3" d="M465.38,95.04c-3.22-1.41-6.51-.14-7.92,3.11-1.42,3.27-.15,6.56,3.1,7.97,3.22,1.41,6.51.11,7.93-3.16,1.41-3.22.11-6.51-3.11-7.92h0Z"/>
      <path class="cls-3" d="M496.87,65.11l-11.09,14.66-23.4-17.7-4.24,5.61,28.09,21.23,15.32-20.25-4.69-3.56h.01Z"/>
      <path class="cls-3" d="M515.18,45.26l-5.29,4.63c1.55,2.51,1.02,5.22-1.26,7.19-2.46,2.15-5.55,2.49-9.65-1.52l14.53-12.67c-.54-.78-1.06-1.38-1.5-1.88-4.87-5.57-12.35-7.46-18.61-1.98-6.25,5.46-6.37,13.63-.91,19.88,6.26,7.21,13.66,6.91,19.27,2,4.82-4.18,6.54-9.96,3.41-15.64h0ZM496.43,42.94c2.54-2.21,5.51-1.76,8.67,1.17l-9,7.85c-2.47-3.78-2.13-6.87.33-9.02h0Z"/>
      <path class="cls-3" d="M532.8,39.81c-3.18,2.31-4.33,2.31-5.91.15-.39-.57-.82-1.24-1.31-2l-6.59-10.68,4.77-2.96-2.46-3.94-4.77,2.96-3.52-5.69-5.99,3.72,3.52,5.69-3.38,2.09,2.43,3.94,3.4-2.09,7.04,11.36c.8,1.32,1.43,2.31,2.14,3.28,2.3,3.12,4.79,3.59,9.26.81,1.35-.82,2.55-1.7,3.76-2.76l-2.42-3.88h.03Z"/>
      <path class="cls-3" d="M538.83,28.04c-3.01-6.63-1.43-10.2,4.07-12.25l-2.33-5.17c-.65.12-1.17.3-1.9.63-1.42.63-2.77,1.93-3.49,3.61l-.38,4.31-2.04-4.49-6.41,2.89,11.23,24.74,6.41-2.92-5.16-11.34h0Z"/>
      <path class="cls-3" d="M574.91,29.38c-1.19-2.82-1.75-4.56-2.27-6.54l-2.27-8.47c-.38-1.41-.81-2.78-1.24-4.01-1.61-4.41-5.24-6.9-12.58-4.91-6.25,1.67-10.14,6.3-8.76,12.26l6.59-1.81c-.55-2.91.49-4.88,3.2-5.62,2.67-.69,4.19.3,4.88,2.07.35.87.55,1.65.77,2.46l.15.54-1.68.43c-9.52,2.55-13.59,7.11-12.03,12.89,1.33,4.99,5.93,6.62,10.47,5.4,2.46-.66,4.56-1.75,6.05-3.49l.52-3.16,1.53,3.72,6.66-1.76h.01ZM561.49,28.59c-2.43.64-4.29-.01-4.9-2.33-.92-3.45,2.4-5.67,7.91-6.74l.57,2.13c.96,3.63-.81,6.17-3.58,6.93h0Z"/>
      <path class="cls-3" d="M618.19,11.69c0-2.19-.05-3.58-.27-4.95-.6-3.74-3.57-6.74-8.71-6.74-2.47.01-4.28.52-5.81,1.61l-2.67,3.56c-1.07-2.96-3.87-5.16-8.31-5.15-2.45.02-4.23.54-5.75,1.59l-2.01,3.27V.75h-7.04s.03,27.14.03,27.14h7.05v-13.94c-.01-6.26,1.71-8.98,4.88-8.96,2.7-.01,4.29,1.53,4.64,4.31.14,1.38.2,2.86.2,4.46l.02,14.13h6.99v-13.93c-.01-6.29,1.77-9,4.92-8.98,2.72,0,4.26,1.52,4.61,4.33.14,1.36.2,2.86.21,4.43l.02,14.13h7.04l-.02-16.16-.02-.02Z"/>
      <path class="cls-3" d="M648.49,22.09c1.92-7.16-.68-14.4-8.72-16.54-8.03-2.17-14.88,2.3-17.05,10.34-2.46,9.22,1.92,15.18,9.11,17.11,6.16,1.65,11.91-.14,14.89-5.89l-6.8-1.81c-1.19,2.68-3.75,3.74-6.68,2.97-3.13-.85-5.16-3.23-4.11-8.87l18.63,4.99c.35-.87.55-1.66.73-2.29h0ZM630.52,14.99c1.75-4.17,4.52-5.6,7.68-4.74,3.24.85,4.51,3.58,3.86,7.85l-11.54-3.11h0Z"/>
      <path class="cls-3" d="M673.44,18.92c-2.29-1.21-4.31-1.65-6.67-1.3l-3.32,1.88,2.02-3.88-6.28-3.22-12.38,24.17,6.26,3.22,5.68-11.04c3.44-6.71,7.18-8.12,10.23-6.56,3.04,1.56,3.56,4.02,2.44,6.64-.54,1.27-1.13,2.42-1.62,3.42l-6.55,12.77,6.29,3.2,6.96-13.62c1.01-1.94,1.6-3.2,2.08-4.49,1.66-4.48.02-8.56-5.12-11.17l-.02-.02Z"/>
      <path class="cls-3" d="M695.21,34.19l4.04-5.36-5.65-4.22-4,5.34-3.17-2.41-2.82,3.72,3.2,2.39-8.07,10.68c-.92,1.23-1.62,2.16-2.27,3.2-2.05,3.23-1.61,5.75,2.61,8.92,1.25.95,2.49,1.76,3.91,2.5l2.77-3.64c-3.32-2.13-3.73-3.22-2.31-5.45.4-.6.86-1.22,1.41-1.96l7.57-10.02,4.48,3.37,2.79-3.7-4.48-3.37h0Z"/>
      <path class="cls-3" d="M713.45,49.47c-6.23-6.53-14.07-6.03-20.05-.34-5.94,5.68-6.85,13.51-.62,20.06,6.23,6.53,14.11,5.99,20.05.31,5.97-5.7,6.85-13.51.62-20.03ZM707.78,64.23c-4.19,4.03-8.51,4.6-11.44,1.55-2.9-3.07-2.13-7.34,2.08-11.36,4.25-4.04,8.51-4.6,11.43-1.52,2.92,3.07,2.17,7.3-2.08,11.34h.01Z"/>
      <path class="cls-3" d="M738.92,84.72c-3.9-7.33-11.85-9.28-19.18-5.35-8.4,4.51-9.79,11.75-6.26,18.34,3,5.62,8.25,8.59,14.47,6.83l-3.31-6.2c-2.79.97-5.32-.18-6.72-2.83-1.54-2.88-1.17-5.99,3.66-9.07l9.09,16.99c.87-.35,1.58-.71,2.16-1.04,6.52-3.48,10.03-10.34,6.1-17.68h0ZM731.32,94.98l-5.62-10.53c4.23-1.57,7.18-.54,8.72,2.33,1.57,2.97.47,5.76-3.1,8.2Z"/>
      <path class="cls-3" d="M756.04,134.93c-.57-2.38-1.47-4.07-2.85-5.3l-4.08-1.79c2.64-1.71,4.16-4.93,3.17-9.27-.54-2.38-1.43-4-2.83-5.27l-3.61-1.19,4.02-.92-1.57-6.87-26.45,6.07,1.57,6.87,13.57-3.13c6.12-1.39,9.14-.31,9.85,2.78.59,2.64-.55,4.53-3.2,5.5-1.29.44-2.73.82-4.27,1.17l-13.77,3.17,1.56,6.81,13.56-3.1c6.13-1.42,9.16-.28,9.87,2.81.61,2.65-.54,4.47-3.19,5.45-1.32.46-2.76.84-4.28,1.2l-13.79,3.13,1.57,6.87,15.76-3.6c2.14-.49,3.47-.86,4.77-1.36,3.49-1.42,5.77-4.99,4.64-10.01l-.02-.02Z"/>
      <path class="cls-1" d="M768.49,181.36c1.3-11.14-2.48-16.47-9.92-17.37-5.65-.66-10.21,2.02-13.91,9.9-2.42,5.16-3.63,7.84-7.4,7.39-1.37-.14-2.89-.57-3.3-.75-.3-1.06-.49-2.45-.22-4.71.19-1.44.56-3.32,1.21-4.59,2.5-.71,5.25-1.49,7.26-2.15l.73-6.19c-2.63-1.29-7.64-2.72-10.62-2.72-1.75,3.14-3.63,7.84-4.45,14.72-1.24,10.42,3.29,15.66,10.9,16.57,7.45.87,10.8-3.5,14-10.61,2.7-5.96,4.31-7.28,7.29-6.94.95.12,2.28.56,2.97.95.16,1.05.22,2.64.03,4.36-.13,1.12-.39,2.18-.61,3.08-2.66,1.12-4.24,1.6-6.34,2.63l-.7,5.84c2.89,1.13,7.52,2.41,10.4,2.13.92-2.36,2.11-6.64,2.69-11.53h-.01Z"/>
      <path class="cls-1" d="M751.43,201.15c-1.33-.75-4.2-1.65-5.5-1.94-.97,1.11-2.58,3.41-4.05,6.11,1.56,1.53,2.9,2.73,4.31,3.95.03.46-.26,1.62-.52,2.34-1.21,3.33-3.77,3.37-7.23,2.1l-1.86-.65c4.07-9.95,5.01-17.33-2.26-19.98-4.85-1.75-9.47.26-11.77,6.58-1.6,4.46-.28,8.02,1.49,10.19-4.4-.38-5.56,1.95-6.14,3.52-.78,2.14-.03,4.82,1.25,6.82l3.94,1.44c.57-.7,1.86-2.32,2.39-3.09,3.04,1.11,7.74,3.13,9.73,3.84,7.51,2.71,11.36.15,14.22-7.74,2.25-6.21,2.53-10.89,2.01-13.49h0ZM732.44,211.29l-5.13-1.85c-.51-.88-.83-2.34-.24-3.93,1.04-2.86,3.01-3.7,5.3-2.86.9.33,1.85.93,2.28,1.35-.04,2.01-1.05,4.96-2.21,7.29Z"/>
      <path class="cls-1" d="M740.03,232.66l-3.26-2.17c-.97.52-2.51,1.52-3.28,2.14-2-1.33-6.39-4.4-8.49-5.79-6.22-4.16-11.38-4.87-15.69,1.57-2.93,4.39-1.78,8.18-.57,11.15-1.98-.51-5.07-.49-6.89.39-1.13,2.22-1.44,6.78-1.12,8.79l3.5,2.32c.72-.53,2.35-1.81,3.02-2.38l12.43,8.49c1.96,1.38,2.67,1.95,4.12,2.89.76-.71,2.09-2.13,2.91-3.16,1.63-2.88,2.99-7.38,3.31-9.27l-3.26-2.17c-.96.49-2.64,1.71-3.68,2.75l-10.6-7.29c-.21-.87-.51-2.06-.58-3.12.18-.6.62-1.48,1.15-2.27,1.81-2.7,3.99-2.76,7.85-.18,4.03,2.7,6.91,4.67,9.16,6.26,1.96,1.38,2.67,1.92,4.12,2.89.76-.71,2.1-2.15,2.86-3.09,1.59-2.81,2.64-6.88,2.96-8.76h.03ZM740.99,245.59l-4.27.02c-1.82,6.85-2.72,11.88-2.11,14.45,1.48.48,5,1.03,6.7.94.65-1.16,1.9-4.42,2.16-5.39-.68-2.83-2.49-10.01-2.49-10.01h.01Z"/>
      <path class="cls-1" d="M710.69,285.47c-1.3.24-3.18,1.05-4.39,1.65l-4.61-5.12c1.27-.59,2.76-1.51,4.59-3.14,7.46-6.71,6.5-15.76.75-22.19-5.74-6.38-13.16-7.38-19.46-1.71-3.85,3.44-4.09,7.28-3.84,9.73-1.79-.49-4.35-.93-6.38-.3-1.14,1.57-2.45,5.97-2.39,7.47l2.81,3.1c1.16-.47,2.5-1.04,3.68-1.62,11.27,12.56,13.08,14.77,22.89,25.71.98-.55,2.69-1.59,3.67-2.38,2.45-2.77,4.37-6.37,5.29-8.3l-2.61-2.88v-.02ZM698.2,278.11l-11-12.27c0-1.06.77-2.81,2.03-3.94,3.21-2.89,7.4-1.89,11.12,2.28,2.35,2.57,3.95,5.63,4.35,7.78-.25.81-1.35,2.2-2.64,3.34-1.22,1.08-2.84,2.31-3.86,2.82h0Z"/>
      <path class="cls-1" d="M679.27,281.02c-3.55-6.6-10.9-10.73-20.51-5.56-5.44,2.94-7.33,7.92-7.66,10.73.69.39,2.16,1.17,3.5,1.53.9-1.86,2.43-3.84,5.34-5.4,3.73-2.03,7.98-1.39,10.99,3.73l-14.5,7.84c-.07.99.07,3.16.42,4.46,3.49,5.68,9.33,7.54,16.29,3.77,8.87-4.79,10.32-13.33,6.13-21.1h0ZM671.72,297.36c-2.78,1.51-4.95.27-6.86-3.39l7.86-4.25c.83,1.55,1.53,3.97,1.41,5.93-.4.49-1.51,1.23-2.41,1.71Z"/>
      <path class="cls-3" d="M641.83,300.34c-.91-3.4-3.98-5.19-7.43-4.26-3.4.91-5.16,3.99-4.25,7.38.91,3.4,3.96,5.15,7.35,4.25,3.45-.9,5.24-3.97,4.33-7.36h0Z"/>
    </g>
    <g>
      <path class="cls-3" d="M419.89,189.49l-.87,1.02c-2.68,3.17-5.56,6.43-8.71,9.1-1.18-12.75-7.63-18.13-13.04-20.36-2.23-.94-4.59-1.42-7.03-1.42-3.52,0-7.08,1-10.31,2.91-5.9,3.52-9.84,9.5-10.52,15.98-1.13,10.91,6.43,21.96,17.6,25.63.92.31,1.89.58,2.86.79-1.18,5.33-2.7,9.47-4.83,12.88-2.7,4.41-8.21,9.16-13.93,9.16-.81,0-1.57-.1-2.34-.29-7.74-1.99-11.68-13.07-13.62-21.99-1.97-9-3.25-18.31-3.8-27.65,20.94-24.01,36.05-52.76,43.76-83.2,3.17-12.54,1.36-21.86-5.35-27.71-3.49-3.02-7.87-4.62-12.67-4.62s-10.1,1.71-14.12,4.7c-6.06,4.49-9.5,10.86-12.33,17.11-12.2,27.02-18.31,57.09-17.68,87.03-8,8.5-16.82,16.24-26.21,23.01-4.22,3.04-8.63,5.93-13.04,8.58l-1.13.66,9.31,15.56,1.13-.68c11.28-6.74,21.99-14.67,31.83-23.61.68,4.99,1.55,9.92,2.6,14.69,3.02,13.88,10.13,31.35,26.81,35.66,2.07.55,4.3.81,6.58.81,11.75,0,22.83-6.64,29.65-17.74,4.96-8.11,6.98-17,8.13-24.01,2.12-.79,4.25-1.78,6.27-2.99,7.22-4.22,12.83-10.28,17.37-15.61l1.44-1.73-13.83-11.68h.02ZM367.15,109.03c1.71-3.75,3.73-7.9,6.59-10.02,1.13-.84,2.41-1.13,3.28-1.13.55,0,.81.13.87.16.03.03,1.71,1.57-.32,9.58-5.14,20.28-13.7,39.43-25.48,56.99,2.07-19.34,7.14-38.02,15.06-55.57h0ZM392.36,205.05c-5.39.03-8.81-3.88-8.43-6.98.34-2.8,3.82-5.34,5.95-4.69,2.32.7,3.69,5.37,2.49,11.68h-.01Z"/>
      <path class="cls-3" d="M629.34,146.57c-5.06-8.05-14.67-12.7-26.32-12.7-1.08,0-2.18.05-3.31.13-4.41.34-8.55,1.18-12.65,2.02l-.29.05c-.26-4.78-1.31-8.92-3.2-12.67-4.8-9.42-13.49-12.78-20.02-12.78-2.34,0-4.57.39-6.64,1.21-5.51,2.13-9.66,6.82-11.39,12.93-1.92,6.87-.52,14.56,3.67,20.04,3.96,5.14,9.81,8.66,16.98,10.23-3.28,12.91-9.29,25.21-17.47,35.68l-.81,1.02,14.27,11.15.81-1.02c10.7-13.7,18.24-29.94,21.83-46.96,1.94-.34,3.86-.73,5.9-1.15,3.44-.71,6.98-1.44,10.34-1.68.58-.05,1.18-.08,1.78-.08,1.99,0,8.71.31,11.15,4.22,1.55,2.41,1.63,6.38,1.6,11.28l-.52,94.98,18.1.1.55-95c.03-5.88.05-13.93-4.38-21.02l.02.02ZM562.77,134.3c-.54-.74-1.48-2.15-1.25-3.93.45-3.44,3.93-4.57,6-2.67,2.59,2.37,1.89,8.34,1.75,9.35-.01.09-.07.15-.17.15-.76,0-4.32-.13-6.34-2.89h.01Z"/>
      <path class="cls-2" d="M288.23,245.35c-1.57,0-2.57-.29-3.2-.92-.94-.94-1.39-2.99-1.39-6.27v-54.1c0-29.78-16.58-46.89-45.47-46.89-13.93,0-25.21,3.23-35.47,10.18-6.77,4.85-10.47,10.18-10.47,14.98,0,5.59,4.12,9.34,10.28,9.34,5.01,0,8.5-3.38,12.17-6.95,5.17-5.04,11.05-10.76,23.25-10.76,16.11,0,23.95,10.08,23.95,30.83,0,4.28-1.02,5.04-3.88,5.04h-17.95c-35.42,0-54.91,13.41-54.91,37.7,0,19.94,16.84,35.55,38.38,35.55,12.07,0,22.51-3.54,30.12-10.23,6.24-5.06,7.77-5.93,8.63-6.03.18.08.37.16.55.21.13.21.32.55.47,1.18,1,9.18,7.45,14.88,16.9,14.88s14.77-4.41,14.77-11.23c0-3.83-2.78-6.51-6.74-6.51h.01ZM261.89,211.95c0,8.21-3.57,16.69-9.76,23.3-6.58,7.01-15.22,11.05-23.64,11.05-12.2,0-20.41-7.92-20.41-19.7,0-14.9,9.24-20.41,34.11-20.41h16.53c2.54,0,2.91.92,3.1,1.97.05.34.08.76.08,1.18v2.62h-.01Z"/>
      <path class="cls-4" d="M535.51,203.11c3.04,0,8.16-1.29,8.16-9.81,0-34.08-20.44-56.12-52.08-56.12-33.66,0-55.39,23.8-55.39,60.61v.89c.03,2.83.16,5.59.39,8.19,3.12,35.21,24.9,56.23,58.3,56.23,16.61,0,30.36-5.46,39.72-15.82,1.65-1.92,2.68-4.59,2.68-6.98,0-2.15-.71-3.65-2.26-4.96-1.31-1.29-3.12-2.02-4.96-2.02-1.63,0-3.36.66-6.59,2.54-9.05,5.56-16.71,7.84-26.47,7.84-22.67,0-37.89-16.27-37.89-40.48v-.1h76.39ZM491.36,153.97c18.13,0,29.39,12.36,29.39,32.25v.08l-61.6-.08c0-18.68,13.54-32.25,32.22-32.25h-.01Z"/>
      <path class="cls-3" d="M174.6,244.12c-1.08-1.57-2.18-3.1-3.33-4.59-2.15-2.83-4.51-5.67-7.01-8.42,1.94-3.59,3.31-7.43,3.99-11.33.92-5.17.71-10.57-.63-16.03-3.75-15.43-16.35-29.18-33.69-36.76-12.54-5.51-25.61-7.4-38.46-9.29-10.78-1.57-20.96-3.07-30.43-6.66-2.47-.92-14.69-5.98-15.82-14.4-1.08-8.08,8.19-15.69,16.45-19.73,11.15-5.48,26.95-8.87,41.24-8.87,9.42,0,17.81,1.36,24.95,4.09,9.6,3.65,16.11,9.55,19.39,17.58l.5,1.21,17.21-7.01-.5-1.23c-5.22-12.78-15.58-22.46-29.99-27.92-9.21-3.52-19.84-5.3-31.56-5.3-17.24,0-35.73,4.01-49.43,10.76-14.46,7.08-29.07,21.02-26.71,38.88,1.71,12.57,11.75,23.25,27.63,29.31,11.44,4.36,23.19,6.06,34.63,7.74,11.91,1.71,23.19,3.36,33.45,7.84,12.07,5.3,20.7,14.33,23.09,24.16.18.79.45,2.07.5,3.73.08,1.81-.08,3.62-.47,5.4-6.3-5.12-13.14-9.73-20.44-13.8-22.35-12.54-47.49-19.15-72.68-19.15-4.43,0-8.92.21-13.28.63-17.19,1.65-36.52,9.94-39.25,28.2-2.15,14.43,7.58,28.52,26.03,37.65,17.74,8.79,37.73,13.41,57.77,13.41,14.4,0,28.55-2.34,42.03-6.95,7.48-2.57,14.48-6.17,20.23-10.42.97-.13,1.94-.31,2.91-.5,2.28,2.7,4.43,5.51,6.38,8.34l.76,1.08,15.3-10.57-.76-1.08h0ZM123.75,239.69c-4.59,1.57-9.37,2.86-14.14,3.8-7.16,1.44-14.54,2.15-21.88,2.15-17.19,0-34.29-3.96-49.48-11.49-8.63-4.28-16.9-11.54-15.9-18.23.16-1.13.68-4.59,6.59-7.9,4.17-2.36,9.87-3.96,16.06-4.57,3.8-.37,7.71-.55,11.62-.55,7.77,0,15.64.73,23.38,2.2,21.51,4.01,42.29,13.64,58.69,27.23-3.99,2.83-9,5.3-14.93,7.35h0Z"/>
    </g>
  </g>
  <g>
    <path class="cls-1" d="M266.06,290.65l-.45,2.54c-.05.32-.29.52-.63.52h-.05c-.97-.08-2.38-.21-3.83-.21-1.81,0-3.41.94-4.04,4.43l-.61,3.31c-.1.6-.15,1.13-.15,1.6,0,2.18,1.15,2.83,2.65,2.83s2.88-.13,3.91-.21h.08c.26,0,.45.13.45.39,0,.03-.03.08-.03.13l-.47,2.54c-.08.37-.29.5-.68.61-.57.18-2.15.45-3.99.45-3.43,0-6.48-2.1-6.48-6.4,0-.61.05-1.26.18-1.94l.6-3.31c1.26-6.89,5.03-8.31,9.23-8.31,1.84,0,3.31.26,3.83.44.32.11.47.18.47.45v.13h0Z"/>
    <path class="cls-1" d="M272.92,297.73c-1.52,0-2.49.89-2.91,3.2l-.34,1.83c-.08.47-.13.89-.13,1.26,0,1.36.63,1.97,1.94,1.97,1.7,0,2.49-1.1,2.89-3.23l.34-1.83c.08-.45.13-.87.13-1.21,0-1.36-.63-1.99-1.91-1.99M278.93,300.93l-.34,1.83c-.84,4.46-3.12,6.82-7.76,6.82-3.57,0-5.51-2.25-5.51-5.34,0-.47.02-.97.13-1.47l.35-1.83c.89-4.74,3.4-6.82,7.76-6.82,3.54,0,5.53,2.1,5.53,5.3,0,.5-.1,1.2-.16,1.52"/>
    <path class="cls-1" d="M294.01,300.06l-1.52,8.74c-.06.29-.37.55-.66.55h-3.17c-.26,0-.42-.21-.42-.45v-.1l1.52-8.74c.08-.45.13-.84.13-1.15,0-.97-.63-1.29-1.41-1.29-1,0-2.26.5-2.84.84l-1.81,10.34c-.05.29-.34.55-.63.55h-3.17c-.26,0-.45-.21-.45-.48v-.08l2.47-13.95c.05-.29.31-.52.6-.52h2.85c.27,0,.45.18.45.44v.08l-.11.63c1.18-.89,2.7-1.37,4.09-1.37,2.26,0,4.22,1.26,4.22,4.35,0,.5-.05,1.02-.16,1.6"/>
    <path class="cls-1" d="M307.37,295.32l-.37,2.13c-.05.29-.24.5-.53.5h-.08c-.73-.1-2.96-.34-4.3-.34h-.11c-.68,0-1.44.02-1.44.92,0,.32.21.55.63.81l2.91,1.86c1.63,1.05,2.07,2.23,2.07,3.25,0,3.81-3.09,5.14-6.48,5.14-1.44,0-3.38-.21-4.67-.58-.26-.08-.39-.23-.39-.47v-.13l.39-2.12c.05-.32.29-.5.61-.5h.08c1.39.18,3.25.37,4.41.37.89,0,1.73-.08,1.73-1.18,0-.34-.21-.68-.79-1.05l-3.07-1.97c-1.18-.76-1.7-1.97-1.7-3.12,0-3.67,2.99-4.72,6.14-4.72,1.83,0,3.28.26,4.56.61.26.08.39.23.39.47v.13h0Z"/>
    <path class="cls-1" d="M315.63,297.52c-1.78,0-2.62,1.21-3.02,3.01h4.93c.08-.42.13-.81.13-1.15,0-1.21-.58-1.86-2.05-1.86M321.51,301.01l-.26,1.52c-.08.39-.32.63-.65.63h-8.42c-.05.39-.1.76-.1,1.08,0,1.36.66,1.83,2.34,1.83s4.01-.16,5.09-.24c.41-.02.55.06.49.42l-.37,1.99c-.08.42-.18.6-.65.71-1.76.42-3.23.63-5.51.63-2.83,0-5.51-1.62-5.51-5.27,0-.45.06-.95.13-1.47l.32-1.83c.79-4.56,3.54-6.9,7.84-6.9,3.54,0,5.41,2.41,5.41,5.48,0,.45-.06.95-.13,1.42"/>
    <path class="cls-1" d="M329.8,289.76l-3.36,19.04c-.05.29-.31.55-.6.55h-3.2c-.26,0-.44-.21-.44-.47v-.08l3.36-19.04c.05-.29.34-.53.63-.53h3.2c.26,0,.42.18.42.42v.11h-.01Z"/>
    <path class="cls-1" d="M343.4,299.65l-1.6,9.17c-.06.29-.34.53-.63.53h-3.2c-.26,0-.42-.18-.42-.42v-.11l1.6-9.15c.05-.29.08-.53.08-.74,0-1.03-.58-1.36-1.99-1.36-.79,0-1.58.08-2.15.21l-1.94,11.02c-.05.29-.34.55-.63.55h-3.17c-.26,0-.44-.21-.44-.47v-.08l3.36-19.04c.05-.29.32-.53.6-.53h3.2c.26,0,.44.18.44.45v.08l-.84,4.69c.74-.16,1.78-.34,2.81-.34,3.41,0,5.03,1.83,5.03,4.38,0,.37-.02.76-.1,1.16"/>
    <path class="cls-1" d="M352.35,297.73c-1.52,0-2.49.89-2.91,3.2l-.34,1.83c-.08.47-.13.89-.13,1.26,0,1.36.63,1.97,1.94,1.97,1.7,0,2.49-1.1,2.89-3.23l.34-1.83c.08-.45.13-.87.13-1.21,0-1.36-.63-1.99-1.91-1.99M358.36,300.93l-.34,1.83c-.84,4.46-3.12,6.82-7.76,6.82-3.57,0-5.51-2.25-5.51-5.34,0-.47.02-.97.13-1.47l.35-1.83c.89-4.74,3.4-6.82,7.76-6.82,3.54,0,5.53,2.1,5.53,5.3,0,.5-.1,1.2-.16,1.52"/>
    <path class="cls-1" d="M383.85,290.36l-3.17,17.99c-.1.55-.6,1-1.15,1h-2.2c-.55,0-1.16-.1-1.45-.82l-4.35-10.33c-.08-.16-.13-.21-.21-.21s-.13.05-.15.21l-1.86,10.62c-.06.29-.34.53-.63.53h-3.09c-.26,0-.42-.18-.42-.45v-.08l3.15-17.96c.1-.55.63-1,1.18-1h1.99c.53,0,1.16.16,1.42.81l4.51,10.8c.08.16.08.21.16.21.06,0,.16-.05.18-.24l1.97-11.09c.06-.29.32-.49.61-.49h3.09c.27,0,.45.18.45.42v.08h-.03Z"/>
    <path class="cls-1" d="M391.28,297.6c-1.87,0-2.62,1.1-2.99,3.22l-.47,2.76c-.05.29-.08.57-.08.86,0,.87.32,1.6,1.5,1.6.89,0,1.92-.42,2.78-.92l1.28-7.37c-.47-.08-1.28-.16-2.02-.16M397.25,294.77c.61.16.76.26.68.79l-2.3,13.27c-.06.29-.18.53-.6.53h-2.68c-.29,0-.5-.18-.44-.53l.1-.75c-1.42,1.1-2.68,1.52-4.07,1.52-3.14,0-4.4-2.41-4.4-5.04,0-.49.06-.97.13-1.47,0,0,.34-1.97.42-2.47.78-4.56,3.62-6.5,7.74-6.5,1.78,0,3.72.21,5.43.65"/>
    <path class="cls-1" d="M409.55,294.51c.47.13.5.26.45.6l-.42,2.33c-.05.29-.1.5-.63.45-1-.1-1.67-.18-3.17-.18-1.28,0-2.23.6-2.68,3.04l-.39,2.2c-.08.5-.13.92-.13,1.26,0,1.42.66,1.78,1.76,1.78,1.5,0,2.23-.08,3.23-.18.39-.06.52.16.47.45l-.42,2.33c-.08.39-.24.5-.66.6-.76.18-1.91.39-3.48.39-3.07,0-5.17-1.83-5.17-5.08,0-.5.05-1,.15-1.55l.39-2.2c.87-4.9,3.47-6.64,7.27-6.64,1.57,0,2.73.21,3.43.39"/>
    <path class="cls-1" d="M412.51,292.09l.42-2.44c.05-.29.21-.52.63-.52h3.41c.31,0,.49.13.41.52l-.41,2.44c-.06.29-.21.52-.63.52h-3.4c-.32,0-.47-.21-.42-.52M416.39,294.84l-2.47,13.98c-.05.29-.18.53-.63.53h-3.2c-.31,0-.47-.21-.42-.53l2.46-13.98c.05-.29.32-.52.61-.52h3.2c.29,0,.5.15.45.52"/>
    <path class="cls-1" d="M424.59,297.73c-1.52,0-2.49.89-2.91,3.2l-.34,1.83c-.08.47-.13.89-.13,1.26,0,1.36.63,1.97,1.94,1.97,1.7,0,2.49-1.1,2.88-3.23l.34-1.83c.08-.45.13-.87.13-1.21,0-1.36-.63-1.99-1.91-1.99M430.59,300.93l-.34,1.83c-.84,4.46-3.12,6.82-7.76,6.82-3.57,0-5.51-2.25-5.51-5.34,0-.47.02-.97.13-1.47l.34-1.83c.89-4.74,3.4-6.82,7.76-6.82,3.54,0,5.54,2.1,5.54,5.3,0,.5-.11,1.2-.16,1.52"/>
    <path class="cls-1" d="M445.67,300.06l-1.52,8.74c-.05.29-.36.55-.65.55h-3.17c-.26,0-.42-.21-.42-.45v-.1l1.52-8.74c.08-.45.13-.84.13-1.15,0-.97-.63-1.29-1.41-1.29-1,0-2.26.5-2.84.84l-1.81,10.34c-.05.29-.34.55-.63.55h-3.17c-.26,0-.45-.21-.45-.48v-.08l2.47-13.95c.05-.29.31-.52.6-.52h2.86c.26,0,.45.18.45.44v.08l-.11.63c1.18-.89,2.7-1.37,4.09-1.37,2.26,0,4.22,1.26,4.22,4.35,0,.5-.05,1.02-.16,1.6"/>
    <path class="cls-1" d="M454.58,297.6c-1.87,0-2.62,1.1-2.99,3.22l-.47,2.76c-.06.29-.08.57-.08.86,0,.87.32,1.6,1.49,1.6.89,0,1.92-.42,2.78-.92l1.28-7.37c-.47-.08-1.28-.16-2.02-.16M460.55,294.77c.61.16.76.26.68.79l-2.3,13.27c-.06.29-.18.53-.6.53h-2.67c-.29,0-.5-.18-.45-.53l.1-.75c-1.42,1.1-2.68,1.52-4.07,1.52-3.15,0-4.41-2.41-4.41-5.04,0-.49.06-.97.13-1.47,0,0,.34-1.97.42-2.47.78-4.56,3.62-6.5,7.74-6.5,1.78,0,3.72.21,5.42.65"/>
    <path class="cls-1" d="M468.74,289.76l-3.36,19.04c-.05.29-.31.55-.6.55h-3.2c-.26,0-.44-.21-.44-.47v-.08l3.36-19.04c.05-.29.34-.53.63-.53h3.2c.26,0,.42.18.42.42v.11h-.01Z"/>
    <path class="cls-1" d="M253.19,328.19c-2.57,0-3.73,1.86-4.2,4.41l-.34,1.89c-.11.63-.18,1.2-.18,1.7,0,1.78.79,2.75,2.81,2.75.9,0,2.18-.08,3.1-.15l1.83-10.41c-.84-.16-2.17-.18-3.01-.18M258.01,321.06h1.34c.29,0,.42.13.37.49l-3.23,18.36c-.05.34-.18.52-.66.6-1.68.32-3.3.45-4.9.45-3.2,0-4.74-1.97-4.74-4.83,0-.52.05-1.07.16-1.65l.34-1.89c.81-4.51,3.01-6.42,6.84-6.42.81,0,2.05.08,3.02.26l.86-4.88c.08-.37.32-.49.61-.49"/>
    <path class="cls-1" d="M266.79,328.19c-2.28,0-3.86,1.71-4.3,4.38l-.34,2c-.1.58-.16,1.07-.16,1.54,0,1.86.84,2.83,2.88,2.83,2.31,0,3.88-1.81,4.33-4.38l.34-2c.11-.55.13-1.04.13-1.5,0-1.88-.84-2.88-2.88-2.88M271.84,332.57l-.34,2c-.68,3.98-2.84,6.39-6.98,6.39-3.14,0-4.82-2.04-4.82-4.96,0-.47.05-.94.13-1.44l.34-2c.74-4.25,3.05-6.4,6.95-6.4,3.22,0,4.85,2.05,4.85,4.93,0,.47-.06.97-.13,1.47"/>
    <path class="cls-1" d="M293.03,321.42c.34.05.42.13.37.45l-.18,1.13c-.05.32-.13.47-.58.42-1.15-.08-2.99-.16-4.51-.16-2.12,0-4.35.37-4.35,2.68,0,1.26.6,1.89,2.33,3.04l2.15,1.44c2.44,1.63,3.3,3.02,3.3,4.93,0,3.7-3.12,5.61-7.32,5.61-1.44,0-3.33-.18-4.46-.37-.31-.05-.47-.16-.42-.47l.18-1.05c.05-.37.16-.47.6-.42,1.18.11,3.09.16,4.3.16,2.83,0,4.59-.97,4.59-3.47,0-1.26-.69-1.88-2.52-3.14l-2.28-1.55c-1.78-1.2-2.86-2.7-2.86-4.59,0-3.65,3.17-4.96,6.74-4.96,1.55,0,3.94.16,4.9.32"/>
    <path class="cls-1" d="M300.62,328.19c-2.28,0-3.8,1.81-4.27,4.22l-.03.13h6.95l.02-.13c.1-.52.16-1.02.16-1.45,0-1.86-.97-2.78-2.84-2.78M305.6,332.62l-.21,1.1c-.08.34-.18.58-.58.58h-8.84l-.05.31c-.1.6-.16,1.13-.16,1.6,0,1.97,1.23,2.81,3.25,2.81,1.52,0,3.3-.18,4.54-.37.39-.05.55.03.49.37l-.16.89c-.06.37-.18.52-.63.6-1.55.29-2.84.44-4.59.44-2.6,0-5.17-1.31-5.17-4.85,0-.49.06-1.04.16-1.62l.34-1.84c.79-4.17,3.22-6.47,6.95-6.47,3.25,0,4.8,2.12,4.8,4.88,0,.5-.05,1.02-.16,1.57"/>
    <path class="cls-1" d="M308.97,340.25c-.05.29-.34.52-.63.52h-1.28c-.29,0-.45-.26-.4-.52l2.33-13.38c.05-.29.31-.52.6-.52h1.23c.31,0,.44.26.39.52l-.1.61c1.42-1.1,2.67-1.31,3.88-1.31h.06c.44,0,.52.18.47.47l-.18,1.1c-.05.29-.27.45-.63.45h-.08c-1.5,0-2.46.26-3.75,1.08l-1.91,10.99h0Z"/>
    <path class="cls-1" d="M328.34,326.98l-5.45,11.9c-.76,1.66-1.86,2.07-2.91,2.07s-1.99-.41-2.18-2.07l-1.26-11.9c-.05-.47.18-.63.5-.63h1.34c.21,0,.39.16.42.5l.92,11.38c.05.65.24.81.49.81s.47-.16.76-.81l4.96-11.38c.16-.34.29-.5.68-.5h1.47c.21,0,.34.13.34.32,0,.1-.03.21-.08.31"/>
    <path class="cls-1" d="M333.67,320.89c.37,0,.47.16.42.53l-.37,2.09c-.08.37-.21.53-.63.53h-1.34c-.39,0-.47-.26-.42-.53l.37-2.09c.05-.29.24-.53.63-.53h1.34ZM332.64,326.35c.32,0,.5.11.42.52l-2.33,13.38c-.06.29-.19.52-.63.52h-1.26c-.37,0-.48-.26-.42-.52l2.34-13.38c.08-.47.34-.52.63-.52h1.26-.01Z"/>
    <path class="cls-1" d="M340.09,342.01l-3.57,3.31c-.29.26-.36.39-.65.39h-1.42c-.13,0-.21-.05-.21-.16,0-.08.06-.18.16-.29l3.12-3.25c.29-.29.39-.39.71-.39h1.73c.16,0,.26.05.26.16,0,.05-.02.13-.13.23M345.07,327.04l-.16.94c-.06.27-.32.39-.55.39h-.08c-1.13-.13-1.92-.18-3.2-.18-2.1,0-3.62,1.66-4.06,4.36l-.34,2.04c-.11.6-.16,1.1-.16,1.58,0,1.99.95,2.78,2.65,2.78,1.29,0,2.15-.05,3.31-.18h.08c.21,0,.39.1.39.32v.08l-.15.94c-.06.37-.21.5-.63.57-.89.16-2.09.29-3.33.29-3.07,0-4.59-2.12-4.59-4.93,0-.47.06-.95.13-1.44l.34-2.04c.71-4.25,3.15-6.37,6.71-6.37,1.23,0,2.39.13,3.23.29.31.05.44.16.44.4,0,.05-.03.1-.03.18"/>
    <path class="cls-1" d="M351.61,328.19c-2.28,0-3.86,1.71-4.3,4.38l-.34,2c-.1.58-.16,1.07-.16,1.54,0,1.86.84,2.83,2.89,2.83,2.3,0,3.88-1.81,4.33-4.38l.34-2c.11-.55.13-1.04.13-1.5,0-1.88-.84-2.88-2.88-2.88M356.67,332.57l-.34,2c-.68,3.98-2.84,6.39-6.98,6.39-3.14,0-4.82-2.04-4.82-4.96,0-.47.05-.94.13-1.44l.34-2c.74-4.25,3.05-6.4,6.95-6.4,3.22,0,4.85,2.05,4.85,4.93,0,.47-.06.97-.13,1.47"/>
    <path class="cls-1" d="M377.86,321.42c.34.05.42.13.37.45l-.18,1.13c-.05.32-.13.47-.58.42-1.15-.08-2.98-.16-4.51-.16-2.13,0-4.36.37-4.36,2.68,0,1.26.61,1.89,2.33,3.04l2.15,1.44c2.44,1.63,3.3,3.02,3.3,4.93,0,3.7-3.12,5.61-7.32,5.61-1.44,0-3.33-.18-4.46-.37-.31-.05-.47-.16-.41-.47l.18-1.05c.05-.37.16-.47.6-.42,1.18.11,3.09.16,4.3.16,2.84,0,4.59-.97,4.59-3.47,0-1.26-.69-1.88-2.52-3.14l-2.28-1.55c-1.78-1.2-2.86-2.7-2.86-4.59,0-3.65,3.17-4.96,6.74-4.96,1.54,0,3.93.16,4.9.32"/>
    <path class="cls-1" d="M385.4,328.19c-2.28,0-3.86,1.71-4.3,4.38l-.34,2c-.1.58-.16,1.07-.16,1.54,0,1.86.84,2.83,2.88,2.83,2.31,0,3.88-1.81,4.33-4.38l.34-2c.11-.55.13-1.04.13-1.5,0-1.88-.84-2.88-2.88-2.88M390.45,332.57l-.34,2c-.68,3.98-2.84,6.39-6.98,6.39-3.14,0-4.82-2.04-4.82-4.96,0-.47.05-.94.13-1.44l.34-2c.74-4.25,3.05-6.4,6.95-6.4,3.22,0,4.85,2.05,4.85,4.93,0,.47-.06.97-.13,1.47"/>
    <path class="cls-1" d="M394.69,332.54l-.34,2.05c-.11.6-.16,1.1-.16,1.57,0,1.99.95,2.78,2.65,2.78,1.28,0,2.15-.06,3.3-.18.42-.08.53.1.47.39l-.15.94c-.06.37-.21.5-.63.57-.87.16-2.1.29-3.33.29-3.07,0-4.59-2.13-4.59-4.93,0-.47.05-.95.13-1.44l.34-2.05c.71-4.25,3.12-6.37,6.71-6.37,1.21,0,2.39.13,3.23.29.47.08.47.24.42.58l-.16.94c-.05.29-.16.47-.63.4-1.13-.13-1.91-.18-3.2-.18-2.1,0-3.62,1.66-4.06,4.36"/>
    <path class="cls-1" d="M408.21,320.89c.37,0,.47.16.42.53l-.37,2.09c-.08.37-.21.53-.63.53h-1.34c-.39,0-.47-.26-.42-.53l.37-2.09c.05-.29.23-.53.63-.53h1.34ZM407.18,326.35c.32,0,.5.11.42.52l-2.33,13.38c-.06.29-.18.52-.63.52h-1.26c-.37,0-.47-.26-.42-.52l2.34-13.38c.08-.47.34-.52.63-.52h1.26-.01Z"/>
    <path class="cls-1" d="M415.96,328.11c-2.7,0-4.06,1.5-4.56,4.27l-.47,2.7c-.08.39-.11.81-.11,1.21,0,2.02,1.03,2.73,2.29,2.73s2.36-.55,3.8-1.52l1.6-9.12c-.71-.13-1.44-.26-2.55-.26M420.55,326.77c.47.11.5.27.45.61l-2.25,12.88c-.06.29-.19.52-.6.52h-1.05c-.4,0-.45-.21-.4-.58l.13-.81c-1.55,1.1-2.47,1.57-4.22,1.57-2.23,0-4.09-1.42-4.09-4.64,0-.5.06-1.03.16-1.57l.47-2.6c.81-4.54,3.67-5.98,6.82-5.98,1.57,0,3.25.26,4.59.6"/>
    <path class="cls-1" d="M427.06,321.06c.29,0,.45.13.37.49l-3.28,18.7c-.05.29-.16.52-.58.52h-1.36c-.29,0-.42-.26-.37-.52l3.28-18.7c.05-.29.18-.49.58-.49h1.36Z"/>
    <path class="cls-1" d="M247.95,359.62c-2.57,0-3.73,1.86-4.2,4.41l-.34,1.89c-.11.63-.18,1.2-.18,1.7,0,1.78.79,2.76,2.81,2.76.9,0,2.18-.08,3.1-.16l1.83-10.41c-.84-.16-2.18-.18-3.01-.18M252.78,352.49h1.34c.29,0,.42.13.37.49l-3.23,18.36c-.05.34-.18.52-.65.6-1.68.32-3.3.45-4.9.45-3.2,0-4.74-1.97-4.74-4.83,0-.52.05-1.07.16-1.65l.34-1.89c.81-4.51,3.01-6.42,6.84-6.42.81,0,2.05.08,3.02.26l.86-4.88c.08-.37.32-.49.61-.49"/>
    <path class="cls-1" d="M261.57,359.54c-2.7,0-4.06,1.5-4.56,4.27l-.47,2.7c-.08.39-.11.81-.11,1.2,0,2.02,1.03,2.73,2.29,2.73s2.36-.55,3.8-1.52l1.6-9.13c-.71-.13-1.44-.26-2.54-.26M266.16,358.2c.47.1.5.27.45.61l-2.26,12.88c-.05.29-.19.52-.6.52h-1.05c-.39,0-.45-.21-.39-.57l.13-.81c-1.55,1.1-2.47,1.57-4.22,1.57-2.23,0-4.09-1.42-4.09-4.64,0-.5.05-1.03.16-1.57l.47-2.6c.82-4.54,3.67-5.98,6.82-5.98,1.57,0,3.25.26,4.59.6"/>
    <path class="cls-1" d="M279.43,352.72c.34,0,.45.16.39.5l-3.25,18.46c-.06.37-.21.52-.58.52h-1.44c-.34,0-.42-.26-.37-.52l3.25-18.46c.06-.26.16-.5.55-.5h1.45Z"/>
    <path class="cls-1" d="M292.53,363.05l-1.52,8.63c-.05.29-.34.52-.63.52h-1.26c-.32,0-.48-.26-.42-.52l1.52-8.63c.08-.49.13-1.02.13-1.44,0-1.26-.52-1.99-2.44-1.99-1,0-2.02.21-3.7,1l-1.94,11.07c-.05.26-.34.52-.63.52h-1.28c-.32,0-.45-.29-.39-.52l2.33-13.37c.05-.29.21-.52.68-.52h1.11c.42,0,.55.16.5.52l-.08.55c1.26-.71,2.44-1.26,4.22-1.26,2.81,0,3.93,1.78,3.93,4.04,0,.45-.06.97-.13,1.41"/>
    <path class="cls-1" d="M301.25,359.62c-2.57,0-3.73,1.86-4.2,4.41l-.34,1.89c-.1.63-.18,1.2-.18,1.7,0,1.78.79,2.76,2.81,2.76.9,0,2.18-.08,3.1-.16l1.83-10.41c-.84-.16-2.17-.18-3.01-.18M306.07,352.49h1.34c.29,0,.42.13.37.49l-3.23,18.36c-.05.34-.18.52-.65.6-1.68.32-3.3.45-4.9.45-3.2,0-4.74-1.97-4.74-4.83,0-.52.05-1.07.16-1.65l.34-1.89c.81-4.51,3.01-6.42,6.84-6.42.81,0,2.05.08,3.02.26l.86-4.88c.08-.37.32-.49.61-.49"/>
    <path class="cls-1" d="M320.29,352.17l-3.57,3.3c-.29.26-.37.39-.66.39h-1.41c-.13,0-.21-.05-.21-.16,0-.08.05-.18.16-.29l3.15-3.25c.29-.29.37-.4.68-.4h1.73c.16,0,.27.06.27.16,0,.05-.03.13-.13.24M320.74,358.3l-2.33,13.38c-.05.29-.31.52-.6.52h-1.23c-.26,0-.39-.19-.39-.42v-.1l.08-.47c-1.57.81-2.8,1.18-4.35,1.18-2.26,0-3.83-1.39-3.83-4.14,0-.5.05-1.02.15-1.6l1.47-8.34c.05-.29.34-.52.63-.52h1.26c.27,0,.42.18.42.42v.1l-1.52,8.63c-.11.58-.16,1.07-.16,1.49,0,1.47.71,1.94,2.44,1.94,1.1,0,2.41-.37,3.72-.97l1.94-11.09c.05-.29.34-.52.63-.52h1.29c.26,0,.39.21.39.42v.1h-.01Z"/>
    <path class="cls-1" d="M331.87,357.94c.39.08.45.16.39.53l-.13.86c-.05.32-.21.5-.6.45-.89-.1-2.39-.21-3.86-.21-1.2,0-2.75.34-2.75,1.86,0,.66.52,1.15,1.41,1.73l2.34,1.55c1.81,1.21,2.33,2.12,2.33,3.51,0,3.1-2.75,4.17-5.64,4.17-1.1,0-2.94-.11-4.09-.4-.26-.05-.5-.24-.45-.52l.16-.92c.08-.34.21-.44.66-.39,1.23.16,3.12.29,4.06.29,1.55,0,2.96-.55,2.96-2.23,0-.6-.31-1.07-1.52-1.86l-2.36-1.54c-1.44-.95-2.2-2-2.2-3.41,0-2.91,2.81-3.8,5.43-3.8,2.02,0,2.73.1,3.86.34"/>
    <path class="cls-1" d="M341.69,357.78c.31,0,.47.16.42.52l-.16.9c-.08.47-.32.52-.61.52h-2.83l-1.63,9.2c-.05.32-.08.55-.08.76,0,.76.37.84,1.21.84h1.6c.29,0,.42.08.37.37l-.16.92c-.05.24-.18.39-.55.45-.53.08-1.16.13-1.66.13-1.78,0-3.15-.68-3.15-2.49,0-.34.03-.61.11-1.02l1.63-9.16-2.5-.29c-.26-.03-.47-.21-.41-.47l.13-.71c.08-.37.29-.47.58-.47h2.54l.42-2.57c.05-.26.29-.47.58-.53l1.39-.21c.37-.05.45.18.39.45l-.48,2.86h2.85Z"/>
    <path class="cls-1" d="M343.91,371.68c-.05.29-.34.52-.63.52h-1.28c-.29,0-.45-.26-.4-.52l2.33-13.38c.05-.29.31-.52.6-.52h1.24c.31,0,.44.26.39.52l-.11.61c1.42-1.1,2.67-1.31,3.88-1.31h.06c.44,0,.52.18.47.47l-.18,1.1c-.06.29-.27.44-.63.44h-.08c-1.5,0-2.46.26-3.75,1.08l-1.91,10.99h0Z"/>
    <path class="cls-1" d="M355.4,352.32c.37,0,.47.16.42.53l-.37,2.09c-.08.37-.21.53-.63.53h-1.34c-.39,0-.47-.26-.42-.53l.37-2.09c.05-.29.24-.53.63-.53h1.34ZM354.38,357.78c.32,0,.5.11.42.52l-2.33,13.38c-.06.29-.19.52-.63.52h-1.26c-.37,0-.48-.26-.42-.52l2.34-13.38c.08-.47.34-.52.63-.52h1.26-.01Z"/>
    <path class="cls-1" d="M363.16,359.54c-2.7,0-4.06,1.5-4.56,4.27l-.47,2.7c-.08.39-.11.81-.11,1.2,0,2.02,1.03,2.73,2.29,2.73s2.36-.55,3.8-1.52l1.6-9.13c-.71-.13-1.44-.26-2.55-.26M367.75,358.2c.47.1.5.27.45.61l-2.25,12.88c-.06.29-.19.52-.6.52h-1.05c-.39,0-.45-.21-.39-.57l.13-.81c-1.55,1.1-2.47,1.57-4.22,1.57-2.23,0-4.09-1.42-4.09-4.64,0-.5.05-1.03.16-1.57l.47-2.6c.82-4.54,3.67-5.98,6.82-5.98,1.57,0,3.25.26,4.59.6"/>
  </g>
  <g>
    <path class="cls-1" d="M227.58,291.79c.22-1.44-.67-2.11-1.89-2.11h-18.18c-1.22,0-2.33.89-2.55,2.11l-3.47,19.68,24.65-11.55,1.43-8.13h.01Z"/>
    <path class="cls-1" d="M199.94,320.29l-8.73,49.56c-.22,1.11.44,2.22,1.78,2.22h18.18c1.66,0,2.44-1,2.66-2.22l10.77-61.11-24.66,11.55h0Z"/>
    <path class="cls-1" d="M66.75,293.53l-2.44,13.86c-.22,1.22-1.11,2.11-2.33,2.11h-.22c-4.44-.33-16.97-1.44-24.95-1.44-3.1,0-6.32,1-6.32,4.66,0,1.55,1.11,2.55,4.88,4.77l13.53,7.98c7.98,4.66,11.09,10.75,11.09,18.52,0,20.73-17.41,29.16-36.26,29.16-9.09,0-16.19-1.22-21.84-2.88-1-.33-1.89-.89-1.89-1.89v-.33l2.33-13.64c.22-1.22,1.22-2.22,2.55-2.22h.22c4.55.45,16.3,1.66,22.18,1.66,4.44,0,8.09-1.55,8.09-6.54,0-1.66-1.11-2.88-4.32-4.99l-14.3-9.43c-6.43-4.21-9.54-11.42-9.54-18.3,0-19.96,15.63-25.95,33.27-25.95,8.76,0,20.29,1.44,24.62,2.77.89.33,1.66.78,1.66,1.77v.35Z"/>
    <path class="cls-1" d="M129.73,292.2l-2.33,13.53c-.22,1.22-1.44,2.22-2.66,2.22h-22.4c-3.99,0-5.54,1.33-6.32,5.54l-1.44,8.09h27.28c1.11,0,1.89.78,1.89,1.88v.33l-2.33,13.09c-.22,1.22-1.33,2.22-2.55,2.22h-27.28l-1.66,9.2c-.11.89-.22,1.55-.22,2.22,0,2.55,1.33,3.33,4.55,3.33h22.4c1.11,0,1.88.78,1.88,1.89v.33l-2.44,13.53c-.22,1.33-1.11,2-2.55,2.22-4.33.56-11.09,1.33-21.84,1.33-12.97,0-24.84-4.66-24.84-19.18,0-1.78.22-3.66.55-5.66l6.1-34.82c3.88-22.4,17.19-24.84,32.82-24.84,10.76,0,17.52.78,21.62,1.33,1.22.11,1.77.67,1.77,1.77v.44h0Z"/>
    <path class="cls-1" d="M193.16,293.53l-2.44,13.86c-.22,1.22-1.11,2.11-2.33,2.11h-.22c-4.44-.33-16.97-1.44-24.95-1.44-3.11,0-6.32,1-6.32,4.66,0,1.55,1.11,2.55,4.88,4.77l13.53,7.98c7.99,4.66,11.09,10.75,11.09,18.52,0,20.73-17.41,29.16-36.26,29.16-9.09,0-16.19-1.22-21.84-2.88-1-.33-1.89-.89-1.89-1.89v-.33l2.33-13.64c.22-1.22,1.22-2.22,2.55-2.22h.22c4.55.45,16.3,1.66,22.18,1.66,4.43,0,8.09-1.55,8.09-6.54,0-1.66-1.11-2.88-4.32-4.99l-14.3-9.43c-6.43-4.21-9.54-11.42-9.54-18.3,0-19.96,15.63-25.95,33.27-25.95,8.76,0,20.29,1.44,24.61,2.77.89.33,1.66.78,1.66,1.77v.35Z"/>
  </g>
</svg>