<svg width="353" height="353" viewBox="0 0 353 353" fill="none" xmlns="http://www.w3.org/2000/svg">
<path d="M199.198 288.68C200.199 293.328 203.42 297.182 207.788 299.035C209.832 299.888 258.443 319.906 321.881 298.211C325.249 297.049 328.087 294.711 329.852 291.607C331.823 288.151 338.266 273.589 338.266 231.377C338.266 191.252 332.323 177.485 328.779 172.837C327.749 171.499 326.514 170.337 325.087 169.425C322.116 167.513 305.084 157.953 260.503 157.953C250.207 157.953 241.426 158.423 233.954 159.188C234.351 151.996 234.954 144.744 235.749 137.508C238.558 111.768 257.737 91.7062 282.403 88.691C294.494 87.2055 303.098 76.2036 301.627 64.0987C300.259 52.9203 290.743 44.7278 279.756 44.7278C278.859 44.7278 277.961 44.7867 277.05 44.8896C231.954 50.4052 196.933 86.5289 191.888 132.728C190.109 149.025 189.211 165.38 189.211 181.324C189.211 181.78 189.226 182.221 189.255 182.663C189.358 242.731 198.786 286.827 199.198 288.68Z" fill="#D5F48C"/>
<path d="M14.7798 182.692C14.8828 242.731 24.3255 286.812 24.7374 288.68C25.7375 293.328 28.9587 297.182 33.3271 299.035C35.3715 299.888 83.9826 319.906 147.42 298.211C150.788 297.049 153.627 294.711 155.392 291.607C157.362 288.151 163.805 273.589 163.805 231.377C163.805 191.252 157.863 177.485 154.318 172.837C153.303 171.499 152.053 170.337 150.626 169.425C147.655 167.513 130.623 157.953 86.0417 157.953C75.7459 157.953 66.965 158.423 59.4932 159.188C59.905 151.981 60.4933 144.744 61.2876 137.508C64.0969 111.768 83.2766 91.7062 107.942 88.691C120.033 87.2055 128.637 76.2036 127.166 64.1134C125.798 52.9203 116.282 44.7278 105.295 44.7278C104.398 44.7278 103.501 44.7867 102.589 44.8896C57.4929 50.4052 22.4723 86.5289 17.4273 132.728C15.6476 148.995 14.7357 165.351 14.7357 181.324C14.7357 181.795 14.7504 182.251 14.7798 182.707V182.692Z" fill="#D5F48C"/>
</svg>
