<svg width="100" height="100" viewBox="0 0 100 100" fill="none" xmlns="http://www.w3.org/2000/svg">
<path d="M56.4323 81.7801C56.7156 83.0968 57.6281 84.1885 58.8656 84.7135C59.4448 84.9551 73.2156 90.626 91.1865 84.4801C92.1406 84.151 92.9448 83.4885 93.4448 82.6093C94.0031 81.6301 95.8281 77.5051 95.8281 65.5468C95.8281 54.1801 94.1448 50.2801 93.1406 48.9635C92.849 48.5843 92.499 48.2551 92.0948 47.9968C91.2531 47.4551 86.4281 44.7468 73.799 44.7468C70.8823 44.7468 68.3948 44.8801 66.2781 45.0968C66.3906 43.0593 66.5615 41.0051 66.7865 38.9551C67.5823 31.6635 73.0156 25.9801 80.0031 25.126C83.4281 24.7051 85.8656 21.5885 85.449 18.1593C85.0615 14.9926 82.3656 12.6718 79.2531 12.6718C78.999 12.6718 78.7448 12.6885 78.4865 12.7176C65.7115 14.2801 55.7906 24.5135 54.3615 37.601C53.8573 42.2176 53.6031 46.851 53.6031 51.3676C53.6031 51.4968 53.6073 51.6218 53.6156 51.7468C53.6448 68.7635 56.3156 81.2551 56.4323 81.7801Z" fill="#C5B3FF"/>
<path d="M4.18958 51.7551C4.21875 68.7635 6.89375 81.251 7.01041 81.7801C7.29375 83.0968 8.20625 84.1885 9.44375 84.7135C10.0229 84.9551 23.7937 90.626 41.7646 84.4801C42.7187 84.151 43.5229 83.4885 44.0229 82.6093C44.5812 81.6301 46.4062 77.5051 46.4062 65.5468C46.4062 54.1801 44.7229 50.2801 43.7187 48.9635C43.4312 48.5843 43.0771 48.2551 42.6729 47.9968C41.8313 47.4551 37.0063 44.7468 24.3771 44.7468C21.4604 44.7468 18.9729 44.8801 16.8563 45.0968C16.9729 43.0551 17.1396 41.0051 17.3646 38.9551C18.1604 31.6635 23.5938 25.9801 30.5813 25.126C34.0063 24.7051 36.4437 21.5885 36.0271 18.1635C35.6396 14.9926 32.9438 12.6718 29.8313 12.6718C29.5771 12.6718 29.3229 12.6885 29.0646 12.7176C16.2896 14.2801 6.36875 24.5135 4.93958 37.601C4.43542 42.2093 4.17709 46.8426 4.17709 51.3676C4.17709 51.501 4.18125 51.6301 4.18958 51.7593V51.7551Z" fill="#C5B3FF"/>
</svg>
