<svg width="162" height="184" viewBox="0 0 162 184" fill="none" xmlns="http://www.w3.org/2000/svg">
<path d="M79.0699 1.38835C79.6665 -0.462191 82.2847 -0.462193 82.8813 1.38835L103.409 65.0595C103.587 65.6126 103.997 66.0609 104.532 66.2881L160.733 90.1575C162.359 90.8481 162.359 93.1528 160.733 93.8434L104.532 117.713C103.997 117.94 103.587 118.388 103.409 118.941L82.8813 182.613C82.2847 184.463 79.6665 184.463 79.0699 182.613L58.5427 118.941C58.3644 118.388 57.9546 117.94 57.4198 117.713L1.21856 93.8434C-0.407528 93.1528 -0.407529 90.8481 1.21856 90.1575L57.4198 66.2881C57.9546 66.0609 58.3644 65.6126 58.5427 65.0595L79.0699 1.38835Z" fill="#84E2F7"/>
</svg>
