<svg width="46" height="49" viewBox="0 0 46 49" fill="none" xmlns="http://www.w3.org/2000/svg">
<path d="M21.0866 1.36609C21.7114 -0.454914 24.2869 -0.454909 24.9117 1.36609L29.8378 15.7229C30.029 16.2802 30.4537 16.7263 31.0009 16.9447L44.7281 22.4226C46.4248 23.0997 46.4248 25.5015 44.7281 26.1786L31.0009 31.6565C30.4537 31.8749 30.029 32.321 29.8378 32.8783L24.9117 47.2351C24.2869 49.0561 21.7114 49.0561 21.0866 47.2351L16.1605 32.8783C15.9693 32.321 15.5446 31.8749 14.9974 31.6565L1.27022 26.1786C-0.426522 25.5015 -0.426526 23.0997 1.27022 22.4226L14.9974 16.9447C15.5446 16.7263 15.9693 16.2802 16.1605 15.7229L21.0866 1.36609Z" fill="#D5F48C"/>
</svg>
