<svg width="144" height="144" viewBox="0 0 144 144" fill="none" xmlns="http://www.w3.org/2000/svg">
<path d="M115.954 73.9567C114.877 72.7007 113.438 72.0087 111.901 72.0087H101.4C102.333 64.1207 101.009 56.0634 97.5223 48.8354C93.1716 39.814 85.713 32.67 76.5223 28.7207C67.3316 24.7714 57.017 24.2767 47.477 27.3287C38.0383 30.3487 29.9503 36.6287 24.7036 45.01C23.565 46.8287 23.2436 49.0607 23.8436 50.9807C24.337 52.5594 25.3863 53.7634 26.7983 54.37L67.8436 72.0087H40.785C39.2476 72.0087 37.809 72.7007 36.7316 73.9567C35.4223 75.4847 34.837 77.6607 35.1636 79.782C36.6756 89.5554 41.6263 98.5167 49.1063 105.018C56.665 111.589 66.3383 115.207 76.341 115.207C86.3436 115.207 96.017 111.589 103.576 105.018C111.054 98.5167 116.006 89.554 117.518 79.782C117.846 77.662 117.26 75.4847 115.95 73.9567H115.954ZM27.8076 52.022C27.0916 51.7154 26.5503 51.074 26.2836 50.218C25.9036 49.0007 26.1223 47.5607 26.8703 46.366C31.797 38.4954 39.393 32.598 48.257 29.762C52.1316 28.522 56.141 27.906 60.145 27.906C65.3903 27.906 70.6236 28.9647 75.5156 31.0674C84.1396 34.774 91.1396 41.478 95.2223 49.9447C98.541 56.826 99.7703 64.5047 98.8236 72.0087H74.317L27.8076 52.022ZM98.4103 74.5647C98.2596 75.342 98.0943 76.118 97.8956 76.8887C97.5436 78.2527 96.6503 79.4034 95.505 79.966C94.6996 80.3607 93.8623 80.4087 93.1463 80.102L80.2636 74.566H98.4103V74.5647ZM114.996 79.3914C113.577 88.5687 108.926 96.9847 101.902 103.09C94.8076 109.257 85.7303 112.653 76.3436 112.653C66.957 112.653 57.8796 109.257 50.785 103.09C43.761 96.9847 39.1103 88.5687 37.6916 79.3914C37.4756 77.9994 37.8436 76.5887 38.6743 75.6207C39.2583 74.9407 40.0076 74.5647 40.7876 74.5647H73.793L92.1383 82.4487C92.777 82.7234 93.4516 82.8594 94.1383 82.8594C94.9703 82.8594 95.817 82.658 96.6316 82.2594C98.4383 81.3727 99.8356 79.6034 100.372 77.5274C100.625 76.546 100.832 75.558 101.012 74.566H111.904C112.682 74.566 113.433 74.9407 114.017 75.622C114.848 76.59 115.214 78.0007 115 79.3927L114.996 79.3914Z" fill="#0346C8"/>
<path d="M101.126 83.7285C97.8089 83.7285 94.4609 84.6939 94.4609 86.8525C94.4609 89.0112 97.8089 89.9765 101.126 89.9765C104.444 89.9765 107.228 87.8725 107.341 87.7832L108.52 86.8525L107.341 85.9219C107.228 85.8325 104.525 83.7285 101.126 83.7285ZM101.126 87.6032C99.0743 87.6032 97.6543 87.1845 97.0596 86.8512C97.6543 86.5192 99.0743 86.1005 101.126 86.1005C102.318 86.1005 103.426 86.4632 104.272 86.8512C103.426 87.2405 102.32 87.6032 101.126 87.6032Z" fill="#0346C8"/>
<path d="M57.3477 86.8525C57.3477 84.6938 53.9997 83.7285 50.6824 83.7285C47.3651 83.7285 44.5811 85.8312 44.4677 85.9218L43.2891 86.8525L44.4677 87.7832C44.5811 87.8725 47.2837 89.9765 50.6824 89.9765C54.0811 89.9765 57.3477 89.0112 57.3477 86.8525ZM50.6824 87.6045C49.4891 87.6045 48.3824 87.2418 47.5371 86.8525C48.3824 86.4645 49.4891 86.1018 50.6824 86.1018C52.7344 86.1018 54.1544 86.5205 54.7491 86.8525C54.1544 87.1845 52.7344 87.6045 50.6824 87.6045Z" fill="#0346C8"/>
<path d="M75.4177 93.2109C73.4284 93.2109 71.9844 95.6976 71.9844 99.1229C71.9844 102.21 74.4964 104.612 74.603 104.712L75.4164 105.479L76.2297 104.712C76.3364 104.612 78.8497 102.21 78.8497 99.1229C78.8497 95.6976 77.4057 93.2109 75.4164 93.2109H75.4177ZM75.4177 102.008C74.9124 101.288 74.3577 100.244 74.3577 99.1243C74.3577 96.9056 75.1417 95.6763 75.3964 95.5829C75.6937 95.6763 76.4777 96.9056 76.4777 99.1243C76.4777 100.244 75.923 101.29 75.4177 102.008Z" fill="#0346C8"/>
<path d="M92.9027 92.129C90.6641 90.1984 87.5134 88.757 85.8894 90.157C85.4214 90.561 85.1641 91.153 85.1641 91.8237C85.1641 93.229 86.2894 95.0397 88.1761 96.6664C90.6027 98.7597 94.2161 98.9197 94.3694 98.925L95.6654 98.9744L95.5987 97.6797C95.5921 97.5424 95.3987 94.2824 92.9027 92.1304V92.129ZM89.7254 94.869C88.1987 93.553 87.6481 92.425 87.5521 91.9664H87.5561C88.1174 91.9664 89.6294 92.4397 91.3521 93.9264C92.1774 94.6384 92.6427 95.5584 92.9027 96.325C91.9214 96.1064 90.6667 95.6824 89.7241 94.8704L89.7254 94.869Z" fill="#0346C8"/>
<path d="M57.9345 92.1286C55.4399 94.2806 55.2465 97.5406 55.2385 97.678L55.1719 98.9726L56.4679 98.9233C56.6199 98.918 60.2345 98.758 62.6612 96.6646C64.5465 95.038 65.6732 93.2273 65.6732 91.822C65.6732 91.1513 65.4159 90.5593 64.9479 90.1553C63.3239 88.7553 60.1745 90.1953 57.9345 92.1273V92.1286ZM61.1119 94.8686C60.1705 95.6806 58.9145 96.1046 57.9345 96.3233C58.1945 95.558 58.6599 94.6366 59.4852 93.9246C61.2079 92.4393 62.7199 91.9646 63.2812 91.9646H63.2852C63.1892 92.422 62.6385 93.5513 61.1119 94.8673V94.8686Z" fill="#0346C8"/>
<path d="M43.7845 42.1153C40.6618 40.7727 37.3485 41.6393 37.2085 41.6767L35.7578 42.0673L36.4738 43.3873C36.5431 43.514 38.1951 46.514 41.3178 47.8567C42.8871 48.5313 44.5645 48.9727 45.9391 48.9727C47.2351 48.9727 48.2618 48.5793 48.6765 47.618C49.5285 45.6353 46.8338 43.426 43.7858 42.1153H43.7845ZM42.2538 45.6753C41.1578 45.2047 40.2831 44.434 39.6605 43.7433C40.5871 43.718 41.7498 43.8233 42.8458 44.2953C44.7311 45.106 45.8698 46.0513 46.2858 46.5913C45.6058 46.6607 44.1378 46.486 42.2525 45.6753H42.2538Z" fill="#0346C8"/>
<path d="M94.9699 66.4998C94.9006 66.3732 93.2486 63.3732 90.1259 62.0305C88.6606 61.4012 87.1779 61.0092 85.9526 60.9278C83.8553 60.7905 83.0646 61.5798 82.7686 62.2678C82.4726 62.9558 82.4446 64.0758 83.9873 65.5012C84.8899 66.3345 86.1939 67.1412 87.6593 67.7705C89.0099 68.3505 90.3966 68.5185 91.5473 68.5185C93.0553 68.5185 94.1566 68.2305 94.2353 68.2092L95.6859 67.8198L94.9699 66.4985V66.4998ZM88.5953 65.5918C86.7099 64.7812 85.5699 63.8358 85.1553 63.2958C85.8326 63.2252 87.3019 63.4012 89.1886 64.2118C90.2846 64.6825 91.1593 65.4532 91.7819 66.1438C90.8459 66.1652 89.6913 66.0625 88.5953 65.5918Z" fill="#0346C8"/>
<path d="M73.5246 38.0228L72.4753 38.4055C72.3379 38.4562 69.0806 39.6708 67.8619 42.5068C67.2953 43.8255 67.0073 45.1895 67.0513 46.3495C67.1273 48.3335 68.1046 49.0455 68.6819 49.2935C68.9059 49.3895 69.2219 49.4815 69.6113 49.4815C70.2273 49.4815 71.0273 49.2521 71.9393 48.4495C72.8113 47.6828 73.6033 46.5348 74.1699 45.2161C75.3886 42.3801 74.0286 39.1815 73.9699 39.0468L73.5246 38.0215V38.0228ZM71.9899 44.2815C71.1139 46.3188 69.9139 47.1335 69.6366 47.1255C69.3993 46.9228 69.1659 45.4841 70.0419 43.4455C70.4846 42.4161 71.4059 41.6761 72.1539 41.2148C72.3353 42.0761 72.4313 43.2535 71.9899 44.2828V44.2815Z" fill="#0346C8"/>
<path d="M53.5269 36.5612L52.3562 36.0039L51.9056 37.2199C51.8576 37.3492 50.7482 40.4212 52.1909 43.3839C53.3482 45.7612 55.3296 48.0652 57.1976 48.0652C57.4189 48.0652 57.6389 48.0332 57.8549 47.9639C58.4442 47.7772 58.9149 47.3359 59.1802 46.7186C59.7349 45.4266 59.4162 43.3199 58.3256 41.0812C56.9229 38.1999 53.6656 36.6266 53.5269 36.5612ZM57.0429 45.6452C56.5296 45.4266 55.3229 44.3946 54.3242 42.3439C53.8469 41.3639 53.7829 40.3346 53.8456 39.5279C54.6602 40.1172 55.6469 41.0012 56.1909 42.1199C57.0736 43.9319 57.1336 45.1866 57.0416 45.6452H57.0429Z" fill="#0346C8"/>
<path d="M84.3181 57.1926C87.4608 56.2006 88.9261 53.282 88.9861 53.158L89.5582 51.994L88.3475 51.5273C88.2048 51.4726 84.8208 50.194 81.7662 51.1566C79.3915 51.906 77.6421 53.1246 77.0875 54.4166C76.8221 55.0326 76.8248 55.6793 77.0968 56.234C77.6422 57.354 79.0382 57.7953 80.6648 57.7953C81.8395 57.7953 83.1355 57.5646 84.3181 57.1913V57.1926ZM79.3382 55.2286C79.6075 54.846 80.5595 54.0273 82.4808 53.4206C83.6675 53.046 84.9888 53.1526 85.9755 53.338C85.4342 53.9393 84.6421 54.6006 83.6035 54.9286C81.4288 55.6153 79.8488 55.4513 79.3382 55.2286Z" fill="#0346C8"/>
</svg>
