<svg width="267" height="301" viewBox="0 0 267 301" fill="none" xmlns="http://www.w3.org/2000/svg">
<path d="M212.939 159.031H192.849C193.828 150.358 193.643 141.598 192.293 132.955C190.847 123.697 188.106 114.812 184.143 106.554C180.141 98.2122 175.001 90.7346 168.867 84.3327C162.52 77.708 155.243 72.3792 147.236 68.4912C137.657 63.8425 127.55 61.4846 117.199 61.4846C104.358 61.4846 91.5785 65.1998 80.2476 72.2287C68.7563 79.3579 59.0096 89.7507 52.061 102.287C50.045 105.927 49.4726 110.386 50.5336 114.218C51.3948 117.331 53.2208 119.703 55.6735 120.893L134.242 159.028H81.3284C78.6585 159.028 76.1515 160.394 74.2713 162.869C71.9567 165.918 70.9228 170.271 71.5052 174.513C74.2811 194.786 83.3765 213.381 97.1132 226.867C103.919 233.548 111.612 238.765 119.982 242.374C128.648 246.109 137.783 248.004 147.133 248.004C156.482 248.004 165.617 246.109 174.283 242.374C182.653 238.765 190.349 233.548 197.152 226.867C210.889 213.381 219.984 194.786 222.76 174.513C223.34 170.271 222.306 165.918 219.994 162.869C218.114 160.391 215.607 159.028 212.937 159.028L212.939 159.031Z" fill="#D5F48C"/>
<path d="M214.583 154.592C212.589 151.967 209.927 150.52 207.082 150.52H187.647C189.375 134.032 186.924 117.19 180.472 102.082C172.42 83.2245 158.617 68.2916 141.608 60.0364C124.599 51.7812 105.511 50.7472 87.8554 57.1267C70.3877 63.4393 55.4197 76.5663 45.7099 94.0856C43.6027 97.8871 43.008 102.553 44.1184 106.566C45.0314 109.866 46.9733 112.382 49.5864 113.651L125.547 150.52H75.4708C72.6258 150.52 69.9633 151.967 67.9695 154.592C65.5464 157.786 64.4632 162.334 65.0677 166.769C67.8659 187.198 77.0279 205.929 90.8707 219.519C104.859 233.253 122.761 240.817 141.273 240.817C159.784 240.817 177.686 233.253 191.674 219.519C205.515 205.929 214.679 187.195 217.477 166.769C218.084 162.337 216.999 157.786 214.576 154.592H214.583ZM51.4544 108.743C50.1293 108.102 49.1275 106.761 48.634 104.972C47.9307 102.427 48.3354 99.4172 49.7197 96.92C58.8372 80.4681 72.8947 68.1411 89.2989 62.2131C96.4696 59.6211 103.889 58.3335 111.299 58.3335C121.007 58.3335 130.692 60.5464 139.745 64.9416C155.705 72.6895 168.66 86.7027 176.215 104.4C182.357 118.784 184.632 134.835 182.88 150.52H137.527L51.4544 108.743ZM182.115 155.863C181.836 157.488 181.53 159.11 181.163 160.721C180.511 163.572 178.858 165.977 176.738 167.153C175.248 167.978 173.698 168.079 172.373 167.437L148.532 155.866H182.115V155.863ZM212.809 165.952C210.183 185.135 201.577 202.727 188.578 215.489C175.448 228.379 158.649 235.477 141.277 235.477C123.906 235.477 107.107 228.379 93.9773 215.489C80.9784 202.727 72.3716 185.135 69.7462 165.952C69.3464 163.042 70.0275 160.094 71.5647 158.07C72.6455 156.649 74.0323 155.863 75.4758 155.863H136.557L170.508 172.343C171.69 172.917 172.938 173.201 174.209 173.201C175.749 173.201 177.316 172.78 178.823 171.947C182.167 170.094 184.753 166.395 185.745 162.056C186.214 160.004 186.596 157.939 186.929 155.866H207.087C208.528 155.866 209.917 156.649 210.998 158.073C212.535 160.096 213.213 163.045 212.816 165.955L212.809 165.952Z" fill="#74AA27"/>
<path d="M187.144 175.017C181.004 175.017 174.808 177.035 174.808 181.547C174.808 186.06 181.004 188.077 187.144 188.077C193.283 188.077 198.435 183.68 198.645 183.493L200.826 181.547L198.645 179.602C198.435 179.415 193.433 175.017 187.144 175.017ZM187.144 183.117C183.346 183.117 180.718 182.241 179.618 181.545C180.718 180.851 183.346 179.976 187.144 179.976C189.35 179.976 191.4 180.734 192.964 181.545C191.4 182.359 189.352 183.117 187.144 183.117Z" fill="#74AA27"/>
<path d="M106.137 181.546C106.137 177.033 99.9409 175.015 93.8017 175.015C87.6624 175.015 82.5102 179.411 82.3005 179.6L80.1192 181.546L82.3005 183.491C82.5102 183.678 87.5119 188.076 93.8017 188.076C100.091 188.076 106.137 186.058 106.137 181.546ZM93.8017 183.117C91.5932 183.117 89.5452 182.359 87.9808 181.546C89.5452 180.734 91.5932 179.976 93.8017 179.976C97.5992 179.976 100.227 180.852 101.328 181.546C100.227 182.239 97.5992 183.117 93.8017 183.117Z" fill="#74AA27"/>
<path d="M139.571 194.836C135.889 194.836 133.217 200.034 133.217 207.194C133.217 213.646 137.866 218.668 138.063 218.877L139.568 220.48L141.073 218.877C141.271 218.668 145.922 213.646 145.922 207.194C145.922 200.034 143.25 194.836 139.568 194.836H139.571ZM139.571 213.225C138.635 211.72 137.609 209.538 137.609 207.197C137.609 202.559 139.06 199.989 139.531 199.794C140.081 199.989 141.532 202.559 141.532 207.197C141.532 209.538 140.506 211.723 139.571 213.225Z" fill="#74AA27"/>
<path d="M171.934 192.577C167.791 188.541 161.96 185.528 158.954 188.455C158.088 189.299 157.612 190.537 157.612 191.938C157.612 194.876 159.695 198.661 163.186 202.061C167.677 206.437 174.364 206.771 174.648 206.782L177.046 206.885L176.923 204.179C176.911 203.892 176.553 197.078 171.934 192.579V192.577ZM166.053 198.304C163.228 195.553 162.209 193.195 162.031 192.237H162.039C163.078 192.237 165.876 193.226 169.064 196.334C170.591 197.822 171.452 199.745 171.934 201.348C170.117 200.89 167.796 200.004 166.051 198.307L166.053 198.304Z" fill="#74AA27"/>
<path d="M107.212 192.576C102.595 197.074 102.237 203.889 102.223 204.176L102.099 206.882L104.498 206.779C104.779 206.768 111.468 206.433 115.959 202.058C119.448 198.657 121.533 194.873 121.533 191.935C121.533 190.533 121.057 189.296 120.191 188.451C117.186 185.525 111.357 188.535 107.212 192.573V192.576ZM113.092 198.303C111.35 200.001 109.026 200.887 107.212 201.344C107.693 199.744 108.554 197.818 110.082 196.33C113.27 193.225 116.068 192.233 117.107 192.233H117.114C116.936 193.189 115.917 195.55 113.092 198.301V198.303Z" fill="#74AA27"/>
<path d="M81.0291 88.0359C75.2501 85.2293 69.1183 87.0409 68.8592 87.1189L66.1745 87.9355L67.4996 90.6947C67.6279 90.9595 70.6852 97.2303 76.4642 100.037C79.3684 101.447 82.4726 102.37 85.0166 102.37C87.4151 102.37 89.3151 101.547 90.0825 99.538C91.6592 95.3936 86.6723 90.7755 81.0316 88.0359H81.0291ZM78.1964 95.4773C76.1681 94.4934 74.5493 92.8825 73.397 91.4388C75.1119 91.3859 77.2636 91.6061 79.2919 92.5927C82.781 94.2872 84.8883 96.2632 85.6582 97.3919C84.3997 97.5369 81.683 97.1718 78.1939 95.4773H78.1964Z" fill="#74AA27"/>
<path d="M175.758 139.005C175.63 138.74 172.573 132.469 166.794 129.663C164.082 128.347 161.338 127.528 159.07 127.358C155.189 127.071 153.726 128.721 153.178 130.159C152.63 131.597 152.578 133.938 155.433 136.917C157.104 138.659 159.517 140.345 162.229 141.661C164.728 142.873 167.295 143.224 169.424 143.224C172.215 143.224 174.253 142.622 174.399 142.578L177.083 141.764L175.758 139.002V139.005ZM163.961 137.107C160.472 135.412 158.362 133.436 157.595 132.308C158.848 132.16 161.567 132.528 165.059 134.222C167.087 135.206 168.706 136.817 169.858 138.261C168.126 138.305 165.989 138.091 163.961 137.107Z" fill="#74AA27"/>
<path d="M136.067 79.4791L134.125 80.279C133.871 80.3849 127.843 82.9238 125.588 88.8519C124.539 91.6082 124.006 94.4594 124.087 96.8841C124.228 101.031 126.037 102.519 127.105 103.038C127.52 103.239 128.104 103.431 128.825 103.431C129.965 103.431 131.446 102.951 133.133 101.274C134.747 99.6711 136.213 97.2715 137.262 94.5151C139.517 88.5871 137 81.901 136.891 81.6195L136.067 79.4763V79.4791ZM133.227 92.5614C131.606 96.82 129.385 98.5229 128.872 98.5061C128.433 98.0825 128.001 95.0753 129.622 90.8139C130.441 88.6623 132.146 87.1155 133.531 86.1512C133.866 87.9516 134.044 90.4126 133.227 92.5642V92.5614Z" fill="#74AA27"/>
<path d="M99.0507 76.4243L96.8842 75.2593L96.0502 77.8011C95.9614 78.0714 93.9084 84.4927 96.5783 90.6855C98.7201 95.6548 102.387 100.471 105.844 100.471C106.253 100.471 106.661 100.404 107.06 100.259C108.151 99.8688 109.022 98.9463 109.513 97.6559C110.54 94.9553 109.95 90.5517 107.931 85.8723C105.336 79.8495 99.3073 76.5608 99.0507 76.4243ZM105.558 95.4123C104.608 94.9552 102.374 92.7981 100.526 88.5116C99.6429 86.4632 99.5245 84.3116 99.6405 82.6254C101.148 83.8573 102.974 85.7051 103.981 88.0434C105.614 91.831 105.725 94.4536 105.555 95.4123H105.558Z" fill="#74AA27"/>
<path d="M156.045 119.55C161.861 117.477 164.573 111.376 164.684 111.117L165.743 108.683L163.502 107.708C163.238 107.594 156.976 104.921 151.322 106.933C146.928 108.5 143.69 111.047 142.664 113.747C142.173 115.035 142.178 116.387 142.681 117.546C143.69 119.887 146.274 120.81 149.284 120.81C151.458 120.81 153.857 120.328 156.045 119.547V119.55ZM146.829 115.445C147.327 114.645 149.089 112.934 152.645 111.666C154.841 110.882 157.286 111.105 159.112 111.493C158.111 112.75 156.645 114.132 154.723 114.818C150.698 116.253 147.774 115.91 146.829 115.445Z" fill="#74AA27"/>
</svg>
