<svg width="307" height="269" viewBox="0 0 307 269" fill="none" xmlns="http://www.w3.org/2000/svg">
<path d="M219.049 179.985C217.864 179.724 216.642 179.592 215.414 179.592C212.944 179.592 210.473 180.114 208.105 181.127L211.767 163.012C212.472 159.516 211.383 155.95 208.776 153.23C206.17 150.51 202.349 148.95 198.293 148.95H105.558C101.502 148.95 97.6814 150.51 95.0748 153.23C92.4681 155.95 91.3794 159.516 92.0843 163.012L95.7456 181.127C93.3777 180.114 90.9075 179.592 88.4373 179.592C87.2093 179.592 85.987 179.724 84.8016 179.988C79.7702 181.1 75.7337 184.407 73.434 189.294C71.2224 193.997 70.8899 199.646 72.4903 205.197C75.4096 215.318 84.1847 222.663 93.3635 222.663C94.5915 222.663 95.8139 222.531 96.9992 222.268C99.387 221.74 101.564 220.71 103.443 219.232L105.263 228.232C106.42 233.965 112.088 238.123 118.737 238.123H185.117C191.766 238.123 197.431 233.963 198.591 228.232L200.41 219.232C202.289 220.707 204.467 221.738 206.855 222.268C208.04 222.529 209.262 222.663 210.49 222.663C219.666 222.663 228.444 215.318 231.364 205.197C232.967 199.646 232.631 193.997 230.42 189.294C228.123 184.404 224.084 181.1 219.052 179.988L219.049 179.985Z" fill="#C5B3FF"/>
<path d="M86.6266 91.4853C80.9784 98.9628 81.237 109.26 87.4197 115.966C92.3999 121.366 100.706 124.339 110.812 124.339C113.828 124.339 116.917 124.076 119.993 123.558C130.818 121.734 141.654 118.743 152.132 115.851C153.86 115.374 155.625 114.888 157.388 114.406C157.223 118.255 159.659 122.065 163.548 123.702C164.852 124.252 166.348 124.543 167.863 124.543C171.609 124.543 175.111 122.824 176.786 120.161C178.883 116.829 177.806 112.109 174.435 109.854C172.905 108.832 170.998 108.314 168.761 108.314C167.453 108.314 166.149 108.486 164.867 108.737C165.839 107.859 166.873 107.102 167.752 106.5C169.528 105.281 171.376 104.121 173.372 102.979C174.79 103.823 176.425 104.465 178.178 104.858C179.864 105.236 181.695 105.42 183.77 105.42C185.589 105.42 187.352 105.281 188.833 105.144C199.743 104.139 210.448 101.842 220.653 98.3184C228.885 95.4766 230.508 91.6868 230.42 89.0094C230.355 87.0261 229.252 85.1549 227.319 83.739C225.63 82.5023 223.399 81.7035 221.196 81.5442C220.826 81.5169 220.448 81.5044 220.073 81.5044C216.329 81.5044 212.75 82.8457 209.871 83.9206C207.122 84.9508 204.313 85.9636 201.599 86.944C195.456 89.1611 189.103 91.4529 183.056 94.0657C179.671 95.5289 176.624 96.9871 173.787 98.5025C173.423 98.1044 173.124 97.6838 172.897 97.2434C171.982 95.4567 172.07 93.2769 173.173 90.4451C179.281 89.2731 186.621 85.4385 195.015 79.0384C201.67 73.9622 207.56 68.3683 211.326 64.571C213.72 62.1598 216.363 59.2882 217.48 55.7423C218.558 52.3158 217.947 47.6825 214.149 45.0622C212.446 43.8852 210.286 43.2656 207.901 43.2656C205.516 43.2656 203.142 43.8653 201.064 44.9552C197.483 46.8339 195.055 49.713 192.679 52.7488C184.631 63.0258 177.428 73.9323 171.271 85.1648C170.856 85.9188 170.509 86.5907 170.205 87.2152C169.887 87.2376 169.577 87.2476 169.273 87.2476C165.864 87.2476 163.229 85.9063 161.219 83.1492C159.395 80.6484 158.448 77.7271 157.444 74.6365C157.436 74.6066 157.425 74.5768 157.416 74.5494C160.623 69.61 161.211 64.0783 159.119 58.5542C157.717 54.8539 155.122 51.2309 151.614 48.0806C148.28 45.0846 144.283 42.6435 140.062 41.0211C135.264 39.1797 130.013 38.2441 124.456 38.2441C118.899 38.2441 113.003 39.2494 107.673 41.1505C102.221 43.0964 97.1329 46.0252 92.9543 49.6209C88.6392 53.3335 85.2821 57.7803 83.2468 62.4783C81.1432 67.3282 80.3871 72.6533 81.0551 77.8789C81.6947 82.8606 83.6106 87.5437 86.6209 91.4903L86.6266 91.4853Z" fill="#C5B3FF"/>
<path d="M170.026 128.065C164.116 128.065 158.093 130.041 152.118 133.938C150.483 135.003 149.539 136.518 149.593 137.991C149.639 139.231 150.364 140.313 151.637 141.04C153.573 142.142 158.86 144.71 166.152 144.71C173.605 144.71 180.521 142.057 186.706 136.824L188.116 135.632L186.817 134.346C186.559 134.09 180.365 128.065 170.026 128.065Z" fill="#C5B3FF"/>
<path d="M169.143 74.4082C169.999 74.4082 170.829 74.1817 171.611 73.7314C173.541 72.624 178.348 69.419 181.278 63.5763C184.277 57.5992 184.28 50.9851 181.29 43.9231L180.607 42.3132L178.74 42.8357C178.529 42.8954 173.566 44.3213 169.322 48.4719C162.256 55.3871 162.73 64.2606 164.373 70.489C164.99 72.8306 166.906 74.4032 169.14 74.4032L169.143 74.4082Z" fill="#C5B3FF"/>
<path d="M231.449 58.9628C220.281 58.9628 213.046 65.6889 208.941 71.3325C207.847 72.838 207.58 74.5475 208.228 75.9062C208.774 77.0508 209.891 77.8372 211.375 78.1183C212.992 78.4269 214.817 78.5886 216.656 78.5886C219.957 78.5886 224.954 78.0636 230.022 75.5578C235.281 72.9575 239.46 68.8218 242.442 63.2652L243.274 61.71L241.538 60.9112C241.364 60.8316 237.234 58.9628 231.446 58.9628H231.449Z" fill="#C5B3FF"/>
<path d="M208.365 131.228C210.244 131.228 212.205 131.088 214.195 130.809L216.131 130.541L215.909 128.834C215.886 128.65 215.284 124.268 211.648 119.891C205.588 112.592 196.034 111.062 189.086 111.062C188.643 111.062 188.205 111.067 187.75 111.079C185.715 111.131 183.947 111.9 183.026 113.132C182.25 114.17 182.136 115.421 182.702 116.656C185.792 123.377 194.365 131.228 208.359 131.228H208.365Z" fill="#C5B3FF"/>
<path d="M212.552 172.104C209.3 171.388 205.94 171.597 202.697 172.647L206.028 156.156C206.787 152.399 205.616 148.567 202.813 145.64C200.011 142.714 195.903 141.039 191.545 141.039H144.662V134.587C146.001 135.331 151.8 138.287 159.58 138.287C165.715 138.287 173.068 136.446 180.417 130.23L182.281 128.652L180.564 126.95C175.578 122.003 161.718 115.541 144.975 126.463C144.864 126.535 144.765 126.614 144.659 126.691V109.664C144.966 109.579 145.279 109.494 145.586 109.407C147.047 109.004 148.505 108.601 149.964 108.203C150.148 111.99 152.658 115.608 156.505 117.228C157.966 117.845 159.549 118.136 161.124 118.136C164.973 118.136 168.77 116.402 170.635 113.441C172.886 109.865 171.727 104.796 168.102 102.373C165.709 100.773 162.878 100.539 160.257 100.8C160.66 100.496 161.058 100.218 161.431 99.9614C163.082 98.8267 164.802 97.7393 166.624 96.6817C168.003 97.4506 169.575 98.0503 171.266 98.4286C174.891 99.2423 178.646 99.0531 182.162 98.7297C193.132 97.7194 203.899 95.4102 214.161 91.8667C222.76 88.8981 224.454 84.8545 224.358 81.9879C224.207 77.3869 219.229 74.2864 214.508 73.943C210.167 73.6294 206.117 75.1473 202.859 76.3666C200.11 77.3968 197.35 78.3922 194.595 79.385C188.441 81.6047 182.077 83.9014 176.01 86.5242C172.858 87.8853 169.939 89.2738 167.221 90.7022C167.048 90.4732 166.9 90.2343 166.775 89.9905C165.865 88.2113 166.144 86.1161 166.951 83.9363C180.357 81.1393 196.187 66.9357 205.096 57.9527C207.538 55.4917 210.238 52.5579 211.392 48.89C212.529 45.2719 211.867 40.3748 207.828 37.5853C203.609 34.6739 197.83 35.4105 193.97 37.436C190.272 39.377 187.793 42.3108 185.371 45.4038C177.304 55.7082 170.084 66.6396 163.91 77.897C163.6 78.4643 163.293 79.0441 163 79.6314C162.579 79.6463 162.17 79.6413 161.775 79.6165C158.978 79.4348 156.777 78.1931 155.043 75.8167C153.304 73.4279 152.371 70.6036 151.399 67.6101C154.58 62.5761 155.14 56.9598 153.014 51.3535C150.16 43.8237 142.715 36.9682 133.585 33.4621C123.616 29.635 111.62 29.6798 100.667 33.5865C89.2484 37.66 79.973 45.7621 75.8597 55.2553C71.61 65.062 72.8551 76.1153 79.0548 84.4812C73.543 92.0857 73.8358 102.507 80.135 109.335C86.835 116.599 99.2572 119.515 113.368 117.136C122.041 115.675 130.705 113.468 139.19 111.164V141.042H98.7996C94.439 141.042 90.3314 142.719 87.5315 145.643C84.7287 148.567 83.5575 152.399 84.3165 156.159L87.648 172.649C84.4046 171.597 81.0418 171.39 77.7899 172.107C67.0903 174.473 61.2345 186.273 64.7366 198.406C66.391 204.145 69.8732 209.146 74.5379 212.488C78.2788 215.166 82.4404 216.557 86.5678 216.557C87.884 216.557 89.1972 216.415 90.4906 216.129C92.4719 215.691 94.3139 214.927 95.974 213.874L97.4891 221.382C98.7342 227.543 104.826 232.014 111.972 232.014H178.356C185.502 232.014 191.594 227.543 192.839 221.382L194.357 213.874C196.017 214.927 197.859 215.691 199.84 216.131C201.111 216.412 202.396 216.547 203.675 216.547C213.172 216.547 222.51 209.101 225.594 198.409C229.096 186.273 223.24 174.473 212.538 172.107L212.552 172.104ZM148.221 130.272C161.058 121.899 170.493 125.93 174.458 128.52C161.937 137.426 150.146 131.959 147.752 130.675C147.846 130.561 147.997 130.419 148.221 130.272ZM178.435 90.8141C184.336 88.2636 190.613 85.9991 196.685 83.8069C199.459 82.8066 202.242 81.8012 205.014 80.7636C207.856 79.6986 211.088 78.4942 214.064 78.7107C216.304 78.8724 218.84 80.3157 218.9 82.1247C218.985 84.6753 214.713 86.5341 212.16 87.415C202.359 90.7992 192.074 93.0064 181.593 93.9719C178.114 94.2929 175.26 94.3849 172.625 93.7952C172.483 93.7629 172.341 93.728 172.204 93.6932C174.151 92.7252 176.221 91.7722 178.435 90.8141ZM189.885 48.1062C191.949 45.4685 194.033 42.9826 196.784 41.5369C198.041 40.8775 199.647 40.447 201.179 40.447C202.381 40.447 203.541 40.7132 204.448 41.3403C206.512 42.7661 206.765 45.5954 206.128 47.621C205.278 50.3233 203.024 52.752 200.974 54.8148C189.314 66.5724 178.35 74.687 169.939 77.9891C175.743 67.6499 182.446 57.6043 189.885 48.1062ZM164.791 106.175C166.306 107.188 166.823 109.596 165.857 111.134C164.626 113.09 161.303 113.941 158.881 112.923C156.436 111.893 154.978 109.171 155.541 106.702C155.819 106.628 156.098 106.556 156.377 106.481C159.6 105.635 162.903 104.913 164.791 106.175ZM112.345 112.436C107.813 113.2 92.4094 115.014 84.3961 106.327C80.0128 101.571 79.5068 94.2456 82.7303 88.5298C90.2092 95.338 101.872 98.9934 111.944 97.381C116.591 96.6369 121.785 93.738 122.911 88.9404C124.406 82.5677 117.933 77.0659 111.082 75.1249C101.19 72.3205 89.9164 74.5601 82.7445 80.5571C78.3498 73.6767 77.6165 64.7086 80.9764 56.9499C84.5609 48.676 92.6965 41.5966 102.737 38.0158C112.328 34.5943 122.774 34.5296 131.399 37.8417C139.04 40.7754 145.492 46.6704 147.837 52.859C148.79 55.3722 149.06 57.8283 148.645 60.1997C146.445 55.32 143.087 50.0421 137.65 46.4116C130.358 41.5394 118.271 40.4395 111.458 47.1531C108.2 50.3656 106.676 54.9965 107.279 59.8588C108.356 68.5183 116.211 76.0879 125.958 77.8547C133.579 79.2357 141.746 76.9614 147.297 72.2832C148.079 74.3784 149.031 76.4537 150.444 78.3922C153.091 82.0227 156.701 84.0358 161.175 84.3742C160.538 86.9049 160.532 89.4878 161.792 91.9488C162.028 92.4067 162.306 92.8521 162.625 93.2801C161.03 94.2307 159.509 95.2036 158.059 96.2015C155.856 97.7144 153.025 99.9091 151.354 102.823C148.895 103.487 146.425 104.167 143.949 104.851C133.599 107.708 122.899 110.659 112.345 112.441V112.436ZM85.9368 84.5235C91.6334 79.3179 101.096 77.3222 109.4 79.6762C114.059 80.9975 118.385 84.4638 117.558 87.9799C116.947 90.5777 113.709 92.2375 110.96 92.6779C102.276 94.0689 92.1223 90.6847 85.9339 84.526L85.9368 84.5235ZM145.478 66.866C141.393 71.7208 133.821 74.3934 127.069 73.1691C119.701 71.8328 113.53 65.8881 112.717 59.3387C112.285 55.8699 113.345 52.5007 115.548 50.3258C117.743 48.1634 120.909 47.2228 124.207 47.2228C127.797 47.2228 131.538 48.3401 134.341 50.2114C140.543 54.3545 143.562 61.21 145.481 66.866H145.478ZM88.9954 210.906C85.5786 211.659 81.832 210.741 78.4465 208.318C74.7966 205.702 72.0506 201.713 70.7146 197.088C68.0426 187.831 71.9 178.967 79.3078 177.33C80.0895 177.158 80.8855 177.074 81.6928 177.074C84.1289 177.074 86.6446 177.85 89.0125 179.348L94.7062 207.536C93.1428 209.263 91.1871 210.42 88.9954 210.906ZM186.792 220.441C186.068 224.024 182.526 226.625 178.37 226.625H111.986C107.831 226.625 104.289 224.024 103.564 220.441L97.4266 190.058L94.6693 176.402L90.3911 155.218C89.9505 153.031 90.6299 150.804 92.2587 149.102C93.8875 147.402 96.2782 146.427 98.8138 146.427H191.551C194.087 146.427 196.474 147.402 198.103 149.104C199.732 150.806 200.414 153.033 199.974 155.221L190.897 200.143L189.152 208.78L186.795 220.443L186.792 220.441ZM219.642 197.088C216.972 206.344 208.772 212.54 201.361 210.906C199.169 210.42 197.214 209.263 195.65 207.536L199.107 190.424L201.347 179.345C204.502 177.35 207.913 176.636 211.048 177.327C218.459 178.967 222.314 187.831 219.645 197.088H219.642Z" fill="#7248D8"/>
<path d="M133.886 166.747L127.737 166.959C127.859 169.845 127.22 178.206 122.834 182.195C121.111 183.76 118.976 184.522 116.301 184.522C113.626 184.522 111.463 183.758 109.712 182.182C104.348 177.365 104.587 167.031 104.59 166.926L101.514 166.854L98.4384 166.777C98.4213 167.292 98.1143 179.468 105.289 185.93C108.22 188.57 111.927 189.909 116.301 189.909C120.676 189.909 124.377 188.568 127.282 185.92C134.386 179.448 133.914 167.262 133.889 166.747H133.886Z" fill="#7248D8"/>
<path d="M182.594 166.959C182.716 169.845 182.076 178.206 177.69 182.195C175.968 183.76 173.833 184.522 171.158 184.522C168.483 184.522 166.32 183.758 164.569 182.182C159.205 177.365 159.444 167.031 159.446 166.926L156.371 166.854L153.295 166.777C153.278 167.292 152.971 179.468 160.146 185.93C163.076 188.57 166.783 189.909 171.158 189.909C175.533 189.909 179.234 188.568 182.139 185.92C189.243 179.448 188.771 167.262 188.745 166.747L182.597 166.959H182.594Z" fill="#7248D8"/>
<path d="M147.835 202.662C145.894 203.433 141.061 204.643 139.364 203.224C139.2 203.087 139.038 202.911 139.043 202.829C139.092 202.284 140.203 201.201 141.115 200.641L142.451 199.84V184.27H136.297V197.133C134.95 198.2 133.125 200.054 132.906 202.391C132.792 203.612 133.082 205.422 135.106 207.116C137.045 208.741 139.541 209.266 141.954 209.266C145.965 209.266 149.751 207.818 150.391 207.562L147.833 202.662H147.835Z" fill="#7248D8"/>
<path d="M161.106 215.554C158.045 216.664 154.19 215.741 151.285 213.198L146.933 217.008C150.199 219.867 154.352 221.402 158.392 221.402C160.129 221.402 161.845 221.118 163.46 220.531C168.835 218.583 172.045 213.713 172.045 207.504H165.891C165.891 211.516 164.145 214.452 161.104 215.554H161.106Z" fill="#7248D8"/>
<path d="M160.605 67.6728C161.19 67.8793 161.793 67.9813 162.396 67.9813C163.359 67.9813 164.326 67.72 165.221 67.2074C167.103 66.1275 183.368 56.1043 175.159 36.7149L174.258 34.5873L171.788 35.2791C164.61 37.2922 152.279 45.8024 156.98 63.6142C157.486 65.5377 158.842 67.0531 160.605 67.6728ZM170.975 40.8083C175.261 54.4247 164.806 61.6783 162.501 63.0842C162.421 62.9623 162.33 62.7856 162.268 62.5467C158.663 48.8905 166.674 42.9483 170.975 40.8083Z" fill="#7248D8"/>
<path d="M235.095 53.3883C228.426 50.3177 212.846 48.5882 201.632 64.0112C200.421 65.6759 200.137 67.5845 200.867 69.1198C201.498 70.4436 202.783 71.3519 204.483 71.6754C205.1 71.7923 207.093 72.1258 209.858 72.1258C216.931 72.1258 229.072 69.9559 236.289 56.5013L237.392 54.4459L235.095 53.3908V53.3883ZM205.933 67.0843C205.975 66.9475 206.055 66.7683 206.206 66.5618C214.802 54.7395 225.26 55.5706 230.018 56.7576C221.931 68.9805 208.693 67.5397 205.93 67.0843H205.933Z" fill="#7248D8"/>
<path d="M180.984 103.493C178.73 103.551 176.766 104.416 175.725 105.807C174.827 107.009 174.691 108.448 175.342 109.864C176.103 111.523 182.798 124.809 201.496 124.809C203.387 124.809 205.405 124.672 207.548 124.373L210.109 124.017L209.819 121.76C208.975 115.206 201.84 102.938 180.984 103.491V103.493ZM180.495 108.336C180.649 108.291 180.865 108.249 181.143 108.241C197.161 107.821 202.233 115.868 203.785 119.981C187.693 120.982 181.615 110.59 180.495 108.336Z" fill="#7248D8"/>
</svg>
