<svg width="399" height="415" viewBox="0 0 399 415" fill="none" xmlns="http://www.w3.org/2000/svg">
<g clip-path="url(#clip0_195_327)">
<path d="M298.565 126.881L273.504 96.1009C270.654 92.5981 266.116 91.3022 261.948 92.7957C260.627 93.2692 259.422 94.0016 258.367 94.9742L226.003 124.838C225.548 125.256 225.157 125.735 224.836 126.253C221.364 121.464 217.987 117.143 215.106 113.798C209.329 107.099 206.952 105.917 205.668 105.613C204.897 105.429 204.132 105.473 203.39 105.739C201.164 106.536 198.304 109.323 195.902 123.909C194.581 131.931 193.786 141.104 193.34 147.675L153.864 148.524C153.114 148.54 152.381 148.675 151.686 148.924C146.501 150.782 144.331 158.613 146.75 166.755L149.81 176.906C150.031 177.63 150.483 178.261 151.085 178.688C152.418 179.62 153.482 181.135 154.082 182.947C154.73 184.905 154.741 186.972 154.107 188.613C153.832 189.331 153.8 190.136 154.024 190.884L158.638 206.195C158.904 207.071 159.515 207.812 160.322 208.226C161.926 209.042 163.3 210.787 164 212.9C164.756 215.183 164.645 217.567 163.702 219.269C163.242 220.096 163.133 221.085 163.404 221.998L167.533 235.683C167.851 236.736 168.63 237.566 169.622 237.908C171.475 238.548 173.123 240.442 173.92 242.848C174.766 245.403 174.506 248.128 173.252 249.789C172.598 250.663 172.397 251.819 172.717 252.88L176.49 265.388C176.85 266.586 177.808 267.474 178.988 267.706C181.015 268.109 182.961 270.154 183.837 272.798C184.838 275.822 184.268 279.038 182.483 280.451L181.275 281.408L181.76 282.872L182.059 283.868C183.565 288.945 186.554 293.08 190.051 294.925C192.145 296.032 194.279 296.249 196.221 295.553C196.303 295.523 196.389 295.493 196.469 295.457L196.506 296.534C196.57 298.343 197.415 299.965 198.89 301.099C201.339 302.981 205.273 303.416 209.412 302.262C209.485 302.242 209.557 302.22 209.626 302.195C210.936 301.725 211.826 300.448 211.834 299.015C211.849 296.711 213.935 294.298 216.795 293.273C219.655 292.248 222.751 292.817 224.119 294.636C224.968 295.773 226.426 296.22 227.742 295.748L238.426 291.919C239.742 291.448 240.626 290.162 240.624 288.727C240.624 286.416 242.71 283.99 245.583 282.96C248.457 281.93 251.542 282.503 252.907 284.323C253.756 285.46 255.213 285.904 256.529 285.432L267.213 281.604C268.529 281.132 269.413 279.847 269.411 278.412C269.411 276.1 271.499 273.673 274.373 272.643C277.247 271.614 280.326 272.189 281.699 274.015C282.553 275.144 284.006 275.589 285.319 275.119C290.07 273.416 293.442 269.26 294.819 263.414C296.043 258.218 295.635 252.085 293.668 246.146C291.23 238.784 286.756 232.743 281.066 229.129C274.307 224.84 266.199 224.197 257.616 227.272L250.687 229.755L245.369 224.924C245.088 223.129 244.207 221.463 242.871 220.25C241.539 219.039 239.834 218.355 238.088 218.306L235.829 216.254L235.049 213.676C237.203 212.459 238.703 210.195 238.981 207.618C239.251 205.104 238.384 202.678 236.6 200.958C234.951 199.365 232.779 198.634 230.57 198.907L228.149 190.916L266.754 200.246L267.05 200.229C267.162 200.224 268.164 200.159 269.403 199.715C271.686 198.897 273.359 197.342 274.239 195.22C275.484 192.222 275.053 188.256 272.961 183.433C268.344 172.794 257.177 174.023 251.111 175.625C251.055 173.819 250.536 171.204 249.005 167.248C249.571 167.205 250.137 167.085 250.689 166.888C250.964 166.789 251.238 166.669 251.5 166.533L295.197 143.904C298.135 142.382 300.199 139.593 300.862 136.248C301.524 132.902 300.687 129.491 298.565 126.888L298.565 126.881Z" fill="#FFE885"/>
<path d="M166.664 257.151C171.347 252.487 174.035 246.434 174.04 240.536C174.046 235.246 171.781 230.14 167.667 226.162C163.26 221.901 157.275 219.614 151.658 220.044C150.441 220.138 149.215 220.344 148.005 220.662L135.931 207.996C138.133 206.19 139.601 203.439 140.052 200.17C140.678 195.639 139.219 191.046 136.243 188.186C132.204 184.304 126.035 183.205 120.144 185.316C118.738 185.82 117.419 186.488 116.209 187.308L102.308 172.726L101.764 177.16C100.848 184.625 103.015 192.458 107.726 198.853C106.766 201.476 106.139 204.297 105.86 207.259C104.539 221.128 111.273 235.053 122.233 241.123C124.337 242.288 126.608 243.143 129.01 243.676C128.556 247.288 128.737 251.047 129.543 254.79L99.5591 241.025L98.7002 241.438C96.4308 242.53 94.7464 244.636 93.9538 247.366C92.9922 250.681 93.4686 254.551 95.1957 257.465C98.2735 262.658 104.001 265.066 108.043 266.424C117 269.433 126.716 270.495 136.23 269.509C136.94 270.473 137.689 271.4 138.467 272.272C144.977 279.588 154.344 284.867 165.552 287.54C175.699 289.959 186.15 290.063 195.933 289.816L196.729 285.639L152.961 265.543C158.72 263.342 163.212 260.591 166.664 257.151Z" fill="#FFE885"/>
<path d="M301.56 120.746L276.496 89.9669C274.512 87.5316 271.738 86.0672 268.678 85.84C265.623 85.6145 262.672 86.6528 260.379 88.7692L228.015 118.633C227.756 118.872 227.522 119.132 227.303 119.396C221.47 111.406 212.686 100.287 208.291 99.2467C206.853 98.9051 205.429 99.2363 204.176 100.203C202.553 101.456 197.663 105.233 195.168 141.302L156.32 142.137C153.773 142.196 151.499 143.484 149.911 145.773C147.338 149.483 146.82 155.427 148.565 161.302L151.626 171.456C151.895 172.332 152.44 173.095 153.174 173.613C154.383 174.461 155.351 175.844 155.903 177.513C156.499 179.311 156.514 181.195 155.94 182.683C155.607 183.55 155.571 184.519 155.839 185.43L160.455 200.744C160.776 201.806 161.514 202.698 162.492 203.202C163.934 203.938 165.18 205.528 165.822 207.466C166.503 209.524 166.408 211.742 165.58 213.244C165.023 214.243 164.892 215.444 165.219 216.544L169.347 230.226C169.732 231.499 170.677 232.506 171.874 232.918C173.53 233.492 175.009 235.212 175.738 237.413C176.51 239.745 176.291 242.202 175.179 243.681C174.384 244.74 174.144 246.143 174.532 247.424L178.301 259.93C178.735 261.38 179.896 262.456 181.326 262.737C183.119 263.092 184.856 264.951 185.653 267.357C186.681 270.461 185.867 273.154 184.532 274.211L182.976 275.443L183.871 278.406C185.431 283.663 188.55 287.958 192.208 289.892C194.249 290.97 196.338 291.264 198.283 290.752L198.288 290.888C198.359 292.922 199.305 294.738 200.95 296.003C203.567 298.013 207.718 298.491 212.059 297.281C213.771 296.789 214.975 295.181 214.989 293.347C215.002 291.623 216.55 289.328 219.484 288.277C222.418 287.226 225.02 288.045 226.041 289.403C227.071 290.779 228.836 291.32 230.43 290.749L241.114 286.92C242.708 286.349 243.778 284.792 243.776 283.051C243.778 281.32 245.32 279.016 248.273 277.957C251.227 276.899 253.811 277.725 254.832 279.082C255.863 280.459 257.628 281 259.221 280.429L269.906 276.6C271.499 276.029 272.57 274.472 272.568 272.73C272.569 271 274.114 268.694 277.065 267.637C280.015 266.579 282.597 267.406 283.628 268.773C284.662 270.142 286.422 270.678 288.01 270.109C298.848 266.225 300.62 251.814 296.783 240.227C294.293 232.707 289.715 226.531 283.887 222.832C276.948 218.426 268.639 217.762 259.856 220.909L247.047 225.499C247.859 224.322 248.408 222.943 248.567 221.456C248.861 218.716 247.917 216.069 245.971 214.192C244.183 212.467 241.829 211.68 239.437 211.965L238.326 208.293C240.408 206.914 241.847 204.614 242.127 202.007C242.421 199.267 241.476 196.617 239.531 194.743C237.874 193.147 235.736 192.349 233.528 192.466L231.63 186.205L269.156 195.276L269.549 195.253C269.775 195.242 270.819 195.163 272.107 194.701C273.643 194.151 275.53 193.056 276.805 190.882C278.741 187.579 278.49 183.059 276.054 177.448C271.781 167.597 261.716 167.181 254.193 168.992C254.023 167.32 253.511 165.105 252.415 162.119C252.743 162.052 253.072 161.979 253.388 161.866C253.688 161.758 253.983 161.63 254.271 161.479L297.968 138.85C301.096 137.231 303.296 134.259 304 130.697C304.705 127.136 303.813 123.503 301.554 120.729L301.56 120.746ZM273.369 144.519C273.31 144.585 273.189 144.702 272.96 144.854L267.912 147.402L267.679 147.533C266.865 148.046 266.482 148.096 266.433 148.114C266.43 148.115 266.427 148.116 266.427 148.116C266.367 148.074 266.183 147.887 265.952 147.442C261.029 137.94 248.582 120.528 243.35 113.339L249.54 107.325L272.743 143.244C273.21 143.966 273.332 144.363 273.365 144.518L273.369 144.519ZM200.615 143.235C202.38 116.322 205.639 106.655 207.299 105.012C209.487 106.191 216.418 113.59 226.154 127.503C226.432 128.146 226.796 128.763 227.255 129.331C227.682 129.862 228.087 130.379 228.494 130.901C234.527 139.786 239.825 148.591 243.437 155.741L243.463 155.792C243.692 156.362 243.904 156.9 244.08 157.377C244.359 158.135 244.75 158.832 245.231 159.45C248.934 167.516 248.766 170.265 248.64 170.879L228.468 178.773C228.297 178.84 228.136 178.921 227.981 179.011L227.671 179.122C225.632 179.853 224.545 182.1 225.192 184.241L227.987 193.47C225.552 193.949 222.967 194.46 220.456 194.96C220.375 194.976 220.294 194.993 220.211 195.01C219.684 195.116 219.162 195.219 218.645 195.321C218.38 195.375 218.118 195.427 217.858 195.479C217.443 195.56 217.037 195.642 216.633 195.723C216.428 195.764 216.224 195.805 216.022 195.846C215.397 195.971 214.783 196.095 214.192 196.214C211.512 196.752 209.263 198.639 208.181 201.245C207.369 203.202 207.293 205.375 207.923 207.352C208.029 207.681 208.151 208.005 208.296 208.321C208.44 208.637 208.602 208.947 208.785 209.249L209.846 210.998C211.824 214.251 215.676 215.748 219.217 214.636L233.087 210.292L233.912 213.015C232.261 213.34 230.551 213.678 228.846 214.015C228.286 214.125 227.732 214.235 227.179 214.346C227.147 214.351 227.119 214.358 227.087 214.364C225.953 214.588 224.84 214.81 223.756 215.026C223.751 215.028 223.745 215.03 223.74 215.032C223.203 215.138 222.676 215.244 222.16 215.349C221.636 215.454 221.126 215.556 220.631 215.657C217.95 216.202 215.702 218.082 214.62 220.692C213.539 223.301 213.764 226.293 215.223 228.693L216.285 230.444C216.779 231.258 217.39 231.96 218.085 232.539C218.114 232.561 218.145 232.579 218.174 232.603L206.922 235.136L208.1 240.798L227.889 236.344L215.538 244.246L218.455 249.183L244.43 232.566L247.235 231.561C244.831 238.158 242.397 249.434 245.335 264.489L207.305 276.268L200.993 268.603L167.034 147.698L196.751 147.059C198.804 147.011 200.464 145.37 200.607 143.231L200.615 143.235ZM280.984 227.783C285.705 230.781 289.446 235.87 291.515 242.118C294.374 250.752 293.442 261.065 287.15 264.224C284.323 261.452 279.628 260.592 275.249 262.162C270.869 263.731 267.621 267.418 267.078 271.484L258.415 274.588C255.582 271.732 250.94 270.873 246.456 272.479C241.972 274.086 238.851 277.775 238.294 281.799L229.626 284.905C226.793 282.048 222.15 281.189 217.669 282.795C213.188 284.401 210.138 287.943 209.527 291.935C207.057 292.401 205.108 291.993 204.256 291.339C203.86 291.037 203.854 290.812 203.849 290.676L203.762 288.14C203.714 286.651 202.892 285.299 201.622 284.61C200.349 283.922 198.814 284.002 197.602 284.816C196.652 285.464 195.471 285.119 194.722 284.723C193.002 283.814 190.738 281.406 189.38 277.314C191.687 274.339 192.338 269.77 190.913 265.469C189.592 261.479 186.684 258.377 183.339 257.297L180.078 246.482C181.915 243.493 182.277 239.386 180.996 235.519C179.802 231.912 177.383 229.064 174.425 227.732L170.728 215.472C172.06 212.597 172.2 208.956 171.079 205.569C170.037 202.423 168.043 199.825 165.561 198.335L161.312 184.24C162.178 181.576 162.129 178.54 161.161 175.617C160.287 172.979 158.737 170.708 156.768 169.163L153.878 159.571C152.495 154.912 153.155 150.983 154.421 149.155C155.258 147.95 156.142 147.93 156.429 147.923L161.272 147.819L195.989 271.423L205.435 282.892L251.947 268.485L251.33 265.813C246.613 245.442 252.79 232.15 254.539 228.94L261.666 226.386C268.93 223.783 275.429 224.252 280.982 227.777L280.984 227.783ZM242.183 218.446C242.816 219.06 243.127 219.924 243.03 220.819C242.914 221.89 242.206 222.805 241.228 223.156L224.053 228.537C222.898 228.9 221.642 228.41 220.996 227.35L219.933 225.598C219.448 224.803 219.376 223.85 219.735 222.986C219.819 222.784 219.927 222.601 220.046 222.431C220.086 222.375 220.132 222.329 220.176 222.275C220.263 222.167 220.358 222.063 220.46 221.972C220.516 221.92 220.581 221.874 220.643 221.83C220.744 221.755 220.85 221.685 220.962 221.623C221.032 221.585 221.103 221.55 221.179 221.519C221.346 221.447 221.515 221.383 221.697 221.347C226.588 220.358 232.911 219.109 238.028 218.103L239.851 217.744C240.699 217.578 241.549 217.833 242.182 218.444L242.183 218.446ZM236.59 201.37C236.476 202.437 235.772 203.354 234.689 203.742L234.684 203.744L217.611 209.091C216.456 209.454 215.2 208.964 214.554 207.904L213.492 206.155C213.007 205.36 212.935 204.408 213.294 203.544C213.378 203.341 213.485 203.156 213.609 202.983C213.643 202.936 213.685 202.895 213.719 202.851C213.816 202.733 213.917 202.621 214.031 202.519C214.078 202.476 214.133 202.438 214.182 202.401C214.295 202.315 214.414 202.238 214.539 202.171C214.599 202.139 214.662 202.107 214.727 202.081C214.897 202.007 215.072 201.941 215.256 201.904C215.673 201.818 216.117 201.73 216.558 201.642C221.41 200.664 227.333 199.495 232.109 198.557L233.413 198.301C234.261 198.134 235.111 198.389 235.744 199C236.377 199.614 236.688 200.478 236.591 201.373L236.59 201.37ZM270.979 179.842C272.553 183.472 272.941 186.313 272.066 187.848C271.434 188.957 270.135 189.32 269.554 189.432L237.446 181.672C242.109 179.908 247.066 177.94 251.047 176.123L251.055 176.12C251.681 175.839 266.455 169.416 270.977 179.843L270.979 179.842ZM251.794 156.308C251.155 156.633 250.597 156.491 250.314 156.378C250.193 156.328 250.024 156.235 249.857 156.101C249.446 155.231 249.027 154.348 248.57 153.441L248.515 153.33C246.006 147.134 241.372 138.164 232.928 127.381C232.339 126.512 231.744 125.654 231.151 124.798C231.015 124.147 231.204 123.437 231.712 122.967L238.692 116.527C243.067 122.536 256.196 140.81 261.058 150.194C261.247 150.561 261.463 150.88 261.678 151.193L251.797 156.31L251.794 156.308ZM298.547 129.544C298.19 131.35 297.075 132.856 295.487 133.677L278.542 142.451C278.281 141.665 277.913 140.861 277.368 140.011L253.414 102.932L264.069 93.0997C265.232 92.0274 266.726 91.4986 268.279 91.6134C269.829 91.7292 271.237 92.4717 272.245 93.7059L297.309 124.485C298.453 125.891 298.907 127.733 298.549 129.54L298.547 129.544Z" fill="#F9B60D"/>
<path d="M224.12 184.225L225.874 178.727C213.794 174.555 211.745 166.874 211.662 166.548L206.247 167.904C206.349 168.353 208.903 178.97 224.116 184.223L224.12 184.225Z" fill="#F9B60D"/>
<path d="M133.298 271.118C136.516 270.476 139.696 269.602 142.8 268.489L142.809 268.486C149.243 266.181 154.2 263.237 157.96 259.492C162.777 254.697 165.544 248.452 165.549 242.36C165.553 236.869 163.214 231.578 158.959 227.46C154.414 223.064 148.234 220.707 142.429 221.154C132.578 221.905 123.499 229.961 120.253 240.371C118.559 239.942 116.904 239.326 115.349 238.464C106.088 233.335 100.409 221.459 101.539 209.583C101.666 208.258 101.87 206.973 102.152 205.737C105.702 208.996 109.962 211.382 114.634 212.449C118.794 213.401 122.384 213.115 125.304 211.611C128.68 209.871 130.958 206.404 131.557 202.094C132.215 197.334 130.676 192.501 127.535 189.483C121.998 184.161 112.441 184.025 105.779 189.171C103.826 190.68 102.113 192.588 100.684 194.805C98.0849 190.205 96.7937 184.839 97.4338 179.625L91.9103 178.89C90.9567 186.665 93.3132 194.553 97.7812 200.788C96.8849 203.334 96.2774 206.103 96.0011 209.009C94.6528 223.158 101.535 237.371 112.736 243.576C114.764 244.697 116.904 245.49 119.089 246.037C118.384 252.844 119.884 260.076 123.251 266.543C115.531 266.933 107.746 265.893 100.369 263.411C95.1123 261.644 91.8754 259.488 90.1763 256.622C89.174 254.932 88.8896 252.588 89.4527 250.65C89.724 249.715 90.3122 248.475 91.5736 247.866L89.2358 242.607C86.7862 243.785 84.9691 246.047 84.1197 248.977C83.1039 252.48 83.6081 256.574 85.4343 259.658C88.6307 265.05 94.5099 267.528 98.6558 268.92C107.703 271.961 117.311 273.013 126.745 272.081C127.388 272.938 128.069 273.768 128.783 274.571C135.386 281.991 144.874 287.345 156.219 290.052C166.437 292.49 176.943 292.594 186.772 292.346L186.636 286.553C177.17 286.793 167.083 286.699 157.462 284.404C150.451 282.731 140.631 279.073 133.298 271.108L133.298 271.118ZM109.096 193.824C113.601 190.339 120.178 190.303 123.754 193.741C125.539 195.458 126.438 198.413 126.042 201.272C125.709 203.665 124.539 205.542 122.83 206.423C121.067 207.327 118.714 207.453 115.825 206.794C111.423 205.788 107.428 203.236 104.282 199.788C105.535 197.354 107.163 195.316 109.094 193.825L109.096 193.824ZM124.613 246.836C128.225 246.98 131.841 246.446 135.204 245.241C140.613 243.302 145.366 239.697 148.397 234.694L143.683 231.607C140.076 237.567 133.044 240.966 125.905 241.04C128.725 233.332 135.524 227.497 142.84 226.934C147.129 226.605 151.736 228.388 155.167 231.705C158.275 234.713 159.984 238.493 159.982 242.356C159.978 246.875 157.839 251.597 154.113 255.308C150.944 258.464 146.655 260.982 140.998 263.009L140.993 263.011C137.21 264.367 133.312 265.342 129.363 265.935C125.71 260.025 123.994 253.19 124.616 246.838L124.613 246.836Z" fill="#F9B60D"/>
<ellipse cx="51.0044" cy="165.184" rx="5.10144" ry="5.21607" fill="#C5B3FF"/>
</g>
<defs>
<clipPath id="clip0_195_327">
<rect width="314.786" height="324.735" fill="white" transform="matrix(0.942598 -0.337777 0.314745 0.950536 0 106.327)"/>
</clipPath>
</defs>
</svg>
