<svg width="297" height="309" viewBox="0 0 297 309" fill="none" xmlns="http://www.w3.org/2000/svg">
<path d="M58.45 102.598C58.9564 95.3036 63.8576 89.1418 70.6472 87.2623C72.4108 86.7741 74.2351 86.5957 76.0706 86.7337L105.942 88.9751C110.331 89.3038 114.335 91.3938 117.216 94.8546C120.097 98.3155 121.508 102.74 121.192 107.306L119.037 138.38C118.531 145.675 113.63 151.837 106.84 153.716C105.076 154.205 103.252 154.383 101.417 154.245L71.5454 152.004C67.1563 151.675 63.1517 149.585 60.2709 146.124C57.3902 142.663 55.9794 138.239 56.2954 133.673L58.45 102.598Z" fill="#84E2F7"/>
<path d="M105.398 230.245L108.491 229.388C108.86 229.286 109.084 228.89 108.993 228.504C108.676 227.193 108.376 225.876 108.097 224.583C108.041 224.318 107.87 224.177 107.775 224.116C107.68 224.055 107.483 223.965 107.231 224.034L105.454 224.526C103.349 225.109 101.182 223.802 100.623 221.615L97.4443 209.188C96.8843 206.998 98.1409 204.746 100.246 204.164L104.613 202.955C104.931 202.867 105.15 202.559 105.136 202.224C104.728 192.054 105.807 182.707 108.343 174.437C110.383 167.782 113.365 161.808 117.206 156.685C122.34 149.834 127.601 146.36 129.802 145.1C129.813 144.216 130.009 143.01 130.722 141.623C133.086 137.025 139.499 133.248 149.79 130.4C160.081 127.551 167.453 127.511 171.699 130.28C172.979 131.113 173.726 132.06 174.158 132.822C176.719 132.776 183.13 133.082 191.06 136.551C196.965 139.133 202.507 142.949 207.525 147.891C213.487 153.763 218.725 161.246 223.108 170.153L228.021 168.793C230.126 168.211 232.291 169.518 232.85 171.705L236.029 184.132C236.589 186.322 235.332 188.574 233.23 189.156L231.453 189.648C231.201 189.717 231.073 189.898 231.02 190C230.965 190.102 230.886 190.313 230.964 190.572C231.339 191.838 231.708 193.136 232.059 194.437C232.162 194.82 232.548 195.047 232.917 194.945L236.01 194.089C238.115 193.506 240.28 194.814 240.839 197.001L242.283 202.645C242.842 204.832 241.586 207.087 239.484 207.669C239.11 207.772 238.722 207.819 238.33 207.804C237.42 207.773 236.551 207.871 235.75 208.092C232.937 208.871 230.95 211.202 229.845 215.021C228.409 219.982 222.952 224.981 213.627 229.878C205.647 234.068 195.129 238.028 183.207 241.328C170.455 244.858 157.293 247.301 146.146 248.204C137.602 248.898 126.302 248.977 120.984 245.414C117.486 243.07 114.245 242.291 111.35 243.092C110.785 243.248 110.236 243.466 109.717 243.74C109.468 243.872 109.204 243.977 108.934 244.051C107.929 244.329 106.874 244.188 105.965 243.656C105.037 243.11 104.374 242.217 104.099 241.143L102.597 235.269C102.037 233.079 103.293 230.827 105.396 230.245L105.398 230.245Z" fill="#84E2F7"/>
<path d="M59.0141 125.818L61.1687 94.7433C61.8528 84.8518 70.1462 77.3856 79.6567 78.0966L109.528 80.3381C119.037 81.052 126.214 89.6796 125.53 99.5711L123.376 130.648C122.832 138.497 117.495 144.821 110.565 146.739C108.762 147.238 106.851 147.441 104.889 147.292L75.0159 145.051C65.507 144.337 58.33 135.71 59.0162 125.817L59.0141 125.818ZM66.8649 135.57C69.0371 138.18 72.054 139.754 75.3647 140.004L105.238 142.245C108.549 142.495 111.753 141.385 114.262 139.128C116.771 136.868 118.284 133.729 118.524 130.285L120.678 99.2083C121.17 92.1016 116.014 85.9003 109.18 85.3894L79.3091 83.148C77.8983 83.0425 76.526 83.1877 75.2315 83.546C70.2512 84.9247 66.4153 89.4681 66.0255 95.1094L63.8709 126.184C63.633 129.628 64.697 132.96 66.8676 135.572L66.8649 135.57Z" fill="#397BFF"/>
<path d="M89.9841 103.775C94.7125 102.467 99.5848 105.403 100.844 110.324C102.102 115.245 99.2794 120.312 94.5488 121.621C89.8182 122.931 84.9481 119.994 83.6893 115.073C82.4305 110.151 85.2535 105.085 89.9841 103.775ZM93.297 116.727C95.4342 116.135 96.7094 113.847 96.1407 111.623C95.572 109.4 93.372 108.073 91.2348 108.665C89.0976 109.257 87.8224 111.545 88.3911 113.769C88.9598 115.992 91.1597 117.319 93.297 116.727Z" fill="#397BFF"/>
<path d="M108.718 221.636L111.709 220.808C111.406 219.552 111.123 218.309 110.86 217.087L109.19 217.55C106.655 218.251 104.042 216.676 103.368 214.039L100.189 201.612C99.5148 198.975 101.029 196.257 103.564 195.556L107.849 194.37C106.313 155.132 126.668 140.253 132.539 136.793C132.613 135.866 132.875 134.716 133.535 133.433C136.007 128.621 142.595 124.705 153.111 121.793C163.628 118.882 171.213 118.875 175.659 121.772C176.845 122.545 177.621 123.407 178.129 124.173C184.879 124.139 209.658 126.522 227.061 161.37L231.344 160.184C233.879 159.483 236.491 161.058 237.165 163.695L240.344 176.122C241.019 178.759 239.504 181.477 236.97 182.178L235.302 182.64C235.656 183.836 236.002 185.061 236.342 186.308L239.331 185.481C241.865 184.779 244.478 186.354 245.152 188.991L246.596 194.635C246.987 196.163 246.669 197.748 245.724 198.983C244.776 200.222 243.358 200.905 241.833 200.853C238.041 200.725 235.458 202.954 234.15 207.471C231.514 216.577 216.638 223.978 204.622 228.584C199.155 230.68 193.181 232.617 187.021 234.322C161.661 241.342 133.164 244.421 124.073 238.331C119.139 235.025 115.661 235.62 113.613 236.7C112.318 237.382 110.816 237.421 109.496 236.806C108.182 236.195 107.216 235.013 106.847 233.567L105.344 227.692C104.669 225.055 106.184 222.338 108.718 221.636ZM111.515 232.132C114.16 230.771 119.567 229.288 126.711 234.076C135.637 240.056 174.105 234.89 202.94 223.835C218.233 217.974 227.909 211.477 229.49 206.012C231.004 200.783 234.117 197.366 238.267 196.217C239.39 195.907 240.59 195.761 241.854 195.791L240.475 190.4L237.486 191.227C234.986 191.919 232.384 190.375 231.683 187.786C231.336 186.506 230.98 185.249 230.616 184.024C230.609 183.997 230.608 183.968 230.599 183.939L222.851 186.084L221.6 181.192L235.609 177.314L232.486 165.104L218.477 168.982L217.225 164.09L222.219 162.708C206.595 132.286 185.374 129.373 178.852 129.238L180.378 135.201L175.675 136.503L172.983 125.978C170.748 124.615 165.391 123.628 154.357 126.682C143.323 129.736 139.144 133.363 137.856 135.702L140.547 146.224L135.845 147.526L134.32 141.565C128.719 145.061 111.718 158.567 112.685 193.026L117.687 191.641L118.938 196.533L104.916 200.415L108.039 212.625L120.735 209.111L121.986 214.003L115.552 215.784C115.559 215.811 115.573 215.836 115.578 215.864C115.847 217.117 116.138 218.39 116.449 219.68C117.077 222.291 115.557 224.974 113.057 225.666L110.066 226.494L111.507 232.127L111.515 232.132Z" fill="#397BFF"/>
<path d="M130.492 221.17C161.891 221.194 192.604 212.123 219.308 194.937L221.867 199.242C207.307 208.612 191.589 215.637 175.22 220.168C160.703 224.186 145.674 226.242 130.489 226.233L124.462 226.229L124.465 221.167L130.492 221.17Z" fill="#397BFF"/>
<path d="M133.041 108.834L137.661 110.422L129.89 134.882L125.27 133.294L133.041 108.834Z" fill="#397BFF"/>
<path d="M141.703 116.698L144.955 120.464L138.53 126.469L135.278 122.704L141.703 116.698Z" fill="#397BFF"/>
<path d="M111.081 148.433L112.483 153.281L90.656 160.111L89.2544 155.263L111.081 148.433Z" fill="#397BFF"/>
<path d="M109.249 156.612L112.13 160.692L104.848 166.256L101.968 162.177L109.249 156.612Z" fill="#397BFF"/>
<path d="M94.3768 160.928L97.629 164.693L92.4999 169.488L89.2477 165.722L94.3768 160.928Z" fill="#397BFF"/>
<path d="M145.997 100.934L149.859 104.014L143.078 113.218L139.216 110.139L145.997 100.934Z" fill="#397BFF"/>
<path d="M125.126 183.394L120.308 182.68C121.891 171.112 125.766 161.146 131.83 153.058L135.666 156.17C130.133 163.554 126.587 172.711 125.126 183.394Z" fill="#397BFF"/>
<path d="M175.877 210.819C164.086 214.083 151.941 206.758 148.804 194.493C145.667 182.228 152.706 169.593 164.497 166.329C176.289 163.065 188.433 170.388 191.571 182.655C194.708 194.921 187.667 207.555 175.877 210.819ZM165.971 172.091C157.235 174.509 152.02 183.869 154.344 192.957C156.669 202.045 165.667 207.473 174.403 205.055C183.139 202.636 188.356 193.276 186.031 184.186C183.706 175.096 174.709 169.672 165.971 172.091Z" fill="#397BFF"/>
<path d="M114.366 260.265C115.185 258.905 117.23 259.347 117.46 260.933C117.531 261.429 117.813 261.87 118.228 262.14C119.563 263.01 119.144 265.104 117.587 265.348C117.103 265.424 116.676 265.712 116.42 266.137C115.602 267.497 113.557 267.055 113.327 265.468C113.255 264.973 112.974 264.531 112.559 264.261C111.224 263.392 111.642 261.298 113.2 261.054C113.683 260.978 114.111 260.689 114.366 260.265Z" fill="#FFE885"/>
<ellipse cx="2.27424" cy="2.35354" rx="2.27424" ry="2.35354" transform="matrix(0.966426 -0.267522 0.248496 0.971492 90.7193 233.908)" fill="#D5F48C"/>
<ellipse cx="0.826997" cy="0.855833" rx="0.826997" ry="0.855833" transform="matrix(0.966426 -0.267522 0.248496 0.971492 86.3479 250.256)" fill="#84E2F7"/>
</svg>
