<svg width="157" height="16" viewBox="0 0 157 16" fill="none" xmlns="http://www.w3.org/2000/svg">
<path d="M156.362 12.6086L155.722 14.5112L156.046 14.6203L156.388 14.616L156.362 12.6086ZM154.899 12.116L155.54 10.2135L154.899 12.116ZM152.69 12.0142L153.621 13.7928L152.69 12.0142ZM151.943 12.4049L152.874 14.1836L151.943 12.4049ZM151.196 12.7957L150.266 11.017L151.196 12.7957ZM149.699 13.2475L149.537 11.2466L149.699 13.2475ZM148.949 13.3085L148.786 11.3076L148.949 13.3085ZM148.199 13.3696L148.362 15.3704L148.199 13.3696ZM146.694 13.356L146.891 11.3582L146.694 13.356ZM145.185 13.2068L144.987 15.2045L145.185 13.2068ZM143.677 13.1028L143.599 15.1088L143.677 13.1028ZM142.924 13.0734L143.002 11.0675L142.924 13.0734ZM140.664 12.7414L139.98 14.6286L140.664 12.7414ZM139.157 12.1947L139.841 10.3075L139.157 12.1947ZM137.653 12.3567L138.66 14.093L137.653 12.3567ZM136.903 12.792L135.895 11.0558L136.903 12.792ZM136.153 13.2274L135.145 11.4911L136.153 13.2274ZM134.647 13.6324L134.728 11.6265L134.647 13.6324ZM133.892 13.602L133.812 15.6079L133.892 13.602ZM133.137 13.5717L133.218 11.5658L133.137 13.5717ZM131.631 13.5826L131.742 15.5871L131.631 13.5826ZM130.881 13.6239L130.77 11.6195L130.881 13.6239ZM130.13 13.6652L130.24 15.6697L130.13 13.6652ZM128.627 13.7458L128.523 11.741L128.627 13.7458ZM127.123 13.8243L127.228 15.829L127.123 13.8243ZM125.617 13.6316L126.208 11.7129L125.617 13.6316ZM124.11 13.168L123.52 15.0867L124.11 13.168ZM122.603 12.9498L122.639 14.9569L122.603 12.9498ZM121.85 12.9634L121.814 10.9563L121.85 12.9634ZM119.591 12.7584L119 14.6768L119.591 12.7584ZM118.838 12.5261L119.429 10.6078L118.838 12.5261ZM118.084 12.2938L118.676 10.3754L118.084 12.2938ZM115.073 12.1973L115.194 14.2012L115.073 12.1973ZM113.569 12.5742L112.759 10.7373L113.569 12.5742ZM112.064 13.2374L112.874 15.0744L112.064 13.2374ZM110.558 13.1835L109.644 14.9706L110.558 13.1835ZM109.052 12.4125L109.966 10.6254L109.052 12.4125ZM107.545 11.9999L107.473 14.0061L107.545 11.9999ZM104.53 12.2013L103.826 10.3212L104.53 12.2013ZM103.021 12.7662L102.317 10.8861L103.021 12.7662ZM101.514 13.0713L101.574 15.0779L101.514 13.0713ZM100.009 13.1166L99.9482 11.11L100.009 13.1166ZM98.5051 13.014L98.1746 14.994L98.5051 13.014ZM97.0037 12.7633L97.3342 10.7832L97.0037 12.7633ZM95.4902 12.7916L95.0938 10.8237L95.4902 12.7916ZM93.9645 13.0989L94.3609 15.0669L93.9645 13.0989ZM91.682 13.5784L91.2611 11.6155L91.682 13.5784ZM90.9221 13.7413L91.343 15.7042L90.9221 13.7413ZM89.4266 13.5423L90.3126 11.741L89.4266 13.5423ZM87.9551 12.8186L87.069 14.6199L87.9551 12.8186ZM86.458 12.5864L86.7952 14.5654L86.458 12.5864ZM83.4268 12.8162L83.0082 14.7796L83.4268 12.8162ZM82.6795 12.6569L83.0981 10.6936L82.6795 12.6569ZM81.9323 12.4976L81.5138 14.461L81.9323 12.4976ZM80.4457 12.0332L81.2115 10.1775L80.4457 12.0332ZM79.7064 11.7281L78.9406 13.5838L79.7064 11.7281ZM77.467 11.2848L77.0367 9.32398L77.467 11.2848ZM75.9458 11.6187L75.5154 9.65786L75.9458 11.6187ZM74.443 11.5738L74.9939 9.64339L74.443 11.5738ZM72.9586 11.1501L72.4076 13.0805L72.9586 11.1501ZM71.4408 11.3941L72.458 13.1249L71.4408 11.3941ZM70.6652 11.85L69.648 10.1193L70.6652 11.85ZM69.8895 12.3058L68.8724 10.5751L69.8895 12.3058ZM68.3767 12.4066L67.5054 14.2151L68.3767 12.4066ZM66.9025 11.6963L67.7739 9.88779L66.9025 11.6963ZM65.4026 11.5063L65.8272 13.4684L65.4026 11.5063ZM63.8768 11.8365L63.4522 9.87446L63.8768 11.8365ZM62.3824 11.5701L61.3625 13.2992L62.3824 11.5701ZM60.9193 10.7071L59.8994 12.4362L60.9193 10.7071ZM59.4213 10.512L60.013 12.4303L59.4213 10.512ZM58.6547 10.7485L59.2465 12.6668L58.6547 10.7485ZM57.8882 10.9849L57.2964 9.06663L57.8882 10.9849ZM56.3597 11.363L56.7266 13.3367L56.3597 11.363ZM55.5978 11.5046L55.9647 13.4783L55.5978 11.5046ZM54.8359 11.6462L54.4691 9.67255L54.8359 11.6462ZM53.3336 11.5483L53.9514 9.63829L53.3336 11.5483ZM51.8527 11.0693L51.2349 12.9794L51.8527 11.0693ZM50.3759 10.5381L49.6364 12.4044L50.3759 10.5381ZM49.6395 10.2463L48.9 12.1127L49.6395 10.2463ZM48.9031 9.95456L49.6426 8.08822L48.9031 9.95456ZM47.4085 9.75453L47.1674 7.76157L47.4085 9.75453ZM45.892 9.93801L45.6508 7.94505L45.892 9.93801ZM44.3605 10.3262L45.0791 12.2006L44.3605 10.3262ZM43.5872 10.6226L44.3059 12.4971L43.5872 10.6226ZM42.814 10.9191L42.0954 9.04461L42.814 10.9191ZM41.31 10.8244L42.2572 9.05442L41.31 10.8244ZM40.5791 10.4333L41.5264 8.66331L40.5791 10.4333ZM39.8483 10.0422L40.7955 8.27219L39.8483 10.0422ZM38.3674 9.58674L38.5389 7.58659L38.3674 9.58674ZM36.8674 9.45812L36.6959 11.4583L36.8674 9.45812ZM35.363 9.43129L35.2634 7.42627L35.363 9.43129ZM34.6087 9.46878L34.7083 11.4738L34.6087 9.46878ZM33.8543 9.50626L33.7547 7.50124L33.8543 9.50626ZM32.3508 9.43054L32.0509 11.4155L32.3508 9.43054ZM30.8525 9.20413L30.5526 11.1891L30.8525 9.20413ZM29.3721 8.83877L28.7177 10.7366L29.3721 8.83877ZM27.9097 8.33444L28.5642 6.43663L27.9097 8.33444ZM25.6273 8.52251L26.1754 10.4537L25.6273 8.52251ZM24.8517 8.74262L24.3036 6.8114L24.8517 8.74262ZM23.3297 8.85771L23.05 10.8456L23.3297 8.85771ZM22.5833 8.75269L22.863 6.76478L22.5833 8.75269ZM21.8369 8.64767L22.1166 6.65976L21.8369 8.64767ZM20.3486 8.42666L20.0385 10.4101L20.3486 8.42666ZM18.8649 8.1947L19.175 6.2113L18.8649 8.1947ZM17.3245 8.32078L16.7422 6.39959L17.3245 8.32078ZM16.5259 8.56283L17.1082 10.484L16.5259 8.56283ZM13.0584 7.06193L11.5973 8.4386L13.0584 7.06193ZM11.7265 6.17228L12.3414 4.2613L11.7265 6.17228ZM11.0181 5.9443L10.4031 7.85528L11.0181 5.9443ZM10.3096 5.71632L9.69466 7.6273L10.3096 5.71632ZM8.88314 5.26695L9.47462 3.34858L8.88314 5.26695ZM6.11666 4.13492L4.89781 5.73004L6.11666 4.13492ZM3.27198 2.31685L4.03556 0.460249L3.27198 2.31685ZM2.16471 2.11831L0.341287 1.27857L2.16471 2.11831ZM2.06525 2.33427L0.241832 1.49453L0.152878 1.68768L0.106366 1.89519L2.06525 2.33427ZM1.96087 2.79992L1.28606 4.6906L3.42339 5.45345L3.91976 3.23901L1.96087 2.79992ZM156.463 12.6074L156.437 10.6L156.337 10.6013L156.362 12.6086L156.388 14.616L156.488 14.6147L156.463 12.6074ZM156.362 12.6086L157.003 10.7061L155.54 10.2135L154.899 12.116L154.259 14.0185L155.722 14.5112L156.362 12.6086ZM154.899 12.116L155.54 10.2135C154.439 9.84284 153.016 9.57788 151.759 10.2355L152.69 12.0142L153.621 13.7928C153.471 13.8712 153.402 13.844 153.523 13.8496C153.647 13.8554 153.884 13.8923 154.259 14.0185L154.899 12.116ZM152.69 12.0142L151.759 10.2355L151.012 10.6263L151.943 12.4049L152.874 14.1836L153.621 13.7928L152.69 12.0142ZM151.943 12.4049L151.012 10.6263L150.266 11.017L151.196 12.7957L152.127 14.5744L152.874 14.1836L151.943 12.4049ZM151.196 12.7957L150.266 11.017C149.978 11.1676 149.738 11.2302 149.537 11.2466L149.699 13.2475L149.862 15.2484C150.661 15.1834 151.419 14.9448 152.127 14.5744L151.196 12.7957ZM149.699 13.2475L149.537 11.2466L148.786 11.3076L148.949 13.3085L149.112 15.3094L149.862 15.2484L149.699 13.2475ZM148.949 13.3085L148.786 11.3076L148.036 11.3687L148.199 13.3696L148.362 15.3704L149.112 15.3094L148.949 13.3085ZM148.199 13.3696L148.036 11.3687C147.657 11.3995 147.276 11.3962 146.891 11.3582L146.694 13.356L146.496 15.3537C147.118 15.4152 147.74 15.421 148.362 15.3704L148.199 13.3696ZM146.694 13.356L146.891 11.3582L146.137 11.2836L145.939 13.2814L145.742 15.2791L146.496 15.3537L146.694 13.356ZM145.939 13.2814L146.137 11.2836L145.382 11.209L145.185 13.2068L144.987 15.2045L145.742 15.2791L145.939 13.2814ZM145.185 13.2068L145.382 11.209C144.84 11.1554 144.297 11.118 143.755 11.0968L143.677 13.1028L143.599 15.1088C144.061 15.1268 144.523 15.1587 144.987 15.2045L145.185 13.2068ZM143.677 13.1028L143.755 11.0968L143.002 11.0675L142.924 13.0734L142.846 15.0794L143.599 15.1088L143.677 13.1028ZM142.924 13.0734L143.002 11.0675L142.249 11.0381L142.171 13.0441L142.093 15.05L142.846 15.0794L142.924 13.0734ZM142.171 13.0441L142.249 11.0381C141.967 11.0271 141.669 10.9703 141.349 10.8541L140.664 12.7414L139.98 14.6286C140.665 14.8769 141.371 15.0219 142.093 15.05L142.171 13.0441ZM140.664 12.7414L141.349 10.8541L140.595 10.5808L139.91 12.468L139.226 14.3553L139.98 14.6286L140.664 12.7414ZM139.91 12.468L140.595 10.5808L139.841 10.3075L139.157 12.1947L138.472 14.0819L139.226 14.3553L139.91 12.468ZM139.157 12.1947L139.841 10.3075C138.73 9.90461 137.611 10.0597 136.645 10.6204L137.653 12.3567L138.66 14.093C138.703 14.0683 138.686 14.0873 138.619 14.0945C138.587 14.0979 138.555 14.0974 138.526 14.0936C138.496 14.0899 138.478 14.084 138.472 14.0819L139.157 12.1947ZM137.653 12.3567L136.645 10.6204L135.895 11.0558L136.903 12.792L137.91 14.5283L138.66 14.093L137.653 12.3567ZM136.903 12.792L135.895 11.0558L135.145 11.4911L136.153 13.2274L137.16 14.9636L137.91 14.5283L136.903 12.792ZM136.153 13.2274L135.145 11.4911C134.925 11.6188 134.797 11.6293 134.728 11.6265L134.647 13.6324L134.567 15.6382C135.505 15.6759 136.38 15.4164 137.16 14.9636L136.153 13.2274ZM134.647 13.6324L134.728 11.6265L133.973 11.5961L133.892 13.602L133.812 15.6079L134.567 15.6382L134.647 13.6324ZM133.892 13.602L133.973 11.5961L133.218 11.5658L133.137 13.5717L133.056 15.5775L133.812 15.6079L133.892 13.602ZM133.137 13.5717L133.218 11.5658C132.651 11.543 132.085 11.5471 131.521 11.5782L131.631 13.5826L131.742 15.5871C132.178 15.5631 132.616 15.5599 133.056 15.5775L133.137 13.5717ZM131.631 13.5826L131.521 11.5782L130.77 11.6195L130.881 13.6239L130.991 15.6284L131.742 15.5871L131.631 13.5826ZM130.881 13.6239L130.77 11.6195L130.02 11.6608L130.13 13.6652L130.24 15.6697L130.991 15.6284L130.881 13.6239ZM130.13 13.6652L130.02 11.6608C129.521 11.6882 129.022 11.715 128.523 11.741L128.627 13.7458L128.732 15.7506C129.235 15.7243 129.738 15.6974 130.24 15.6697L130.13 13.6652ZM128.627 13.7458L128.523 11.741L127.771 11.7803L127.875 13.785L127.98 15.7898L128.732 15.7506L128.627 13.7458ZM127.875 13.785L127.771 11.7803L127.019 11.8195L127.123 13.8243L127.228 15.829L127.98 15.7898L127.875 13.785ZM127.123 13.8243L127.019 11.8195C126.763 11.8328 126.496 11.8016 126.208 11.7129L125.617 13.6316L125.027 15.5504C125.744 15.7708 126.481 15.868 127.228 15.829L127.123 13.8243ZM125.617 13.6316L126.208 11.7129L125.454 11.481L124.864 13.3998L124.273 15.3186L125.027 15.5504L125.617 13.6316ZM124.864 13.3998L125.454 11.481L124.7 11.2492L124.11 13.168L123.52 15.0867L124.273 15.3186L124.864 13.3998ZM124.11 13.168L124.7 11.2492C124.004 11.0352 123.291 10.9295 122.567 10.9426L122.603 12.9498L122.639 14.9569C122.919 14.9519 123.21 14.9916 123.52 15.0867L124.11 13.168ZM122.603 12.9498L122.567 10.9426L121.814 10.9563L121.85 12.9634L121.887 14.9706L122.639 14.9569L122.603 12.9498ZM121.85 12.9634L121.814 10.9563L121.061 10.9699L121.097 12.9771L121.134 14.9843L121.887 14.9706L121.85 12.9634ZM121.097 12.9771L121.061 10.9699C120.782 10.975 120.491 10.9352 120.183 10.8401L119.591 12.7584L119 14.6768C119.696 14.8914 120.409 14.9974 121.134 14.9843L121.097 12.9771ZM119.591 12.7584L120.183 10.8401L119.429 10.6078L118.838 12.5261L118.246 14.4445L119 14.6768L119.591 12.7584ZM118.838 12.5261L119.429 10.6078L118.676 10.3754L118.084 12.2938L117.493 14.2121L118.246 14.4445L118.838 12.5261ZM118.084 12.2938L118.676 10.3754C117.954 10.1528 117.211 10.0575 116.458 10.1029L116.578 12.1068L116.699 14.1106C116.949 14.0956 117.21 14.125 117.493 14.2121L118.084 12.2938ZM116.578 12.1068L116.458 10.1029L115.705 10.1482L115.826 12.1521L115.947 14.1559L116.699 14.1106L116.578 12.1068ZM115.826 12.1521L115.705 10.1482L114.953 10.1935L115.073 12.1973L115.194 14.2012L115.947 14.1559L115.826 12.1521ZM115.073 12.1973L114.953 10.1935C114.193 10.2392 113.459 10.4289 112.759 10.7373L113.569 12.5742L114.378 14.4112C114.682 14.2775 114.951 14.2159 115.194 14.2012L115.073 12.1973ZM113.569 12.5742L112.759 10.7373L112.007 11.0689L112.816 12.9058L113.626 14.7428L114.378 14.4112L113.569 12.5742ZM112.816 12.9058L112.007 11.0689L111.254 11.4005L112.064 13.2374L112.874 15.0744L113.626 14.7428L112.816 12.9058ZM112.064 13.2374L111.254 11.4005C111.252 11.4016 111.264 11.396 111.29 11.3908C111.316 11.3855 111.348 11.3823 111.383 11.3836C111.46 11.3863 111.495 11.4077 111.473 11.3964L110.558 13.1835L109.644 14.9706C110.666 15.4935 111.801 15.5474 112.874 15.0744L112.064 13.2374ZM110.558 13.1835L111.473 11.3964L110.719 11.0109L109.805 12.798L108.891 14.5851L109.644 14.9706L110.558 13.1835ZM109.805 12.798L110.719 11.0109L109.966 10.6254L109.052 12.4125L108.137 14.1996L108.891 14.5851L109.805 12.798ZM109.052 12.4125L109.966 10.6254C109.235 10.251 108.447 10.0235 107.617 9.99372L107.545 11.9999L107.473 14.0061C107.647 14.0124 107.864 14.0599 108.137 14.1996L109.052 12.4125ZM107.545 11.9999L107.617 9.99372L106.863 9.9667L106.791 11.9729L106.719 13.9791L107.473 14.0061L107.545 11.9999ZM106.791 11.9729L106.863 9.9667L106.11 9.93968L106.038 11.9459L105.966 13.9521L106.719 13.9791L106.791 11.9729ZM106.038 11.9459L106.11 9.93968C105.325 9.91156 104.56 10.0466 103.826 10.3212L104.53 12.2013L105.234 14.0814C105.506 13.9794 105.746 13.9442 105.966 13.9521L106.038 11.9459ZM104.53 12.2013L103.826 10.3212L103.072 10.6037L103.776 12.4837L104.479 14.3638L105.234 14.0814L104.53 12.2013ZM103.776 12.4837L103.072 10.6037L102.317 10.8861L103.021 12.7662L103.725 14.6462L104.479 14.3638L103.776 12.4837ZM103.021 12.7662L102.317 10.8861C102.006 11.0026 101.721 11.0566 101.454 11.0647L101.514 13.0713L101.574 15.0779C102.311 15.0557 103.03 14.9063 103.725 14.6462L103.021 12.7662ZM101.514 13.0713L101.454 11.0647L100.701 11.0874L100.761 13.0939L100.822 15.1005L101.574 15.0779L101.514 13.0713ZM100.761 13.0939L100.701 11.0874L99.9482 11.11L100.009 13.1166L100.069 15.1232L100.822 15.1005L100.761 13.0939ZM100.009 13.1166L99.9482 11.11C99.5786 11.1211 99.2084 11.0961 98.8357 11.0339L98.5051 13.014L98.1746 14.994C98.8028 15.0989 99.4349 15.1423 100.069 15.1232L100.009 13.1166ZM98.5051 13.014L98.8357 11.0339L98.085 10.9085L97.7544 12.8886L97.4239 14.8687L98.1746 14.994L98.5051 13.014ZM97.7544 12.8886L98.085 10.9085L97.3342 10.7832L97.0037 12.7633L96.6732 14.7434L97.4239 14.8687L97.7544 12.8886ZM97.0037 12.7633L97.3342 10.7832C96.5873 10.6585 95.8364 10.6741 95.0938 10.8237L95.4902 12.7916L95.8865 14.7596C96.161 14.7043 96.4191 14.701 96.6732 14.7434L97.0037 12.7633ZM95.4902 12.7916L95.0938 10.8237L94.331 10.9773L94.7273 12.9453L95.1237 14.9132L95.8865 14.7596L95.4902 12.7916ZM94.7273 12.9453L94.331 10.9773L93.5682 11.1309L93.9645 13.0989L94.3609 15.0669L95.1237 14.9132L94.7273 12.9453ZM93.9645 13.0989L93.5682 11.1309C93.0515 11.235 92.5357 11.3422 92.021 11.4526L92.4419 13.4154L92.8627 15.3783C93.3611 15.2715 93.8605 15.1676 94.3609 15.0669L93.9645 13.0989ZM92.4419 13.4154L92.021 11.4526L91.2611 11.6155L91.682 13.5784L92.1029 15.5413L92.8627 15.3783L92.4419 13.4154ZM91.682 13.5784L91.2611 11.6155L90.5013 11.7784L90.9221 13.7413L91.343 15.7042L92.1029 15.5413L91.682 13.5784ZM90.9221 13.7413L90.5013 11.7784C90.4615 11.7869 90.422 11.7948 90.3126 11.741L89.4266 13.5423L88.5405 15.3437C89.4121 15.7724 90.3696 15.9129 91.343 15.7042L90.9221 13.7413ZM89.4266 13.5423L90.3126 11.741L89.5769 11.3791L88.6908 13.1804L87.8048 14.9818L88.5405 15.3437L89.4266 13.5423ZM88.6908 13.1804L89.5769 11.3791L88.8412 11.0172L87.9551 12.8186L87.069 14.6199L87.8048 14.9818L88.6908 13.1804ZM87.9551 12.8186L88.8412 11.0172C87.9966 10.6017 87.0711 10.4455 86.1209 10.6074L86.458 12.5864L86.7952 14.5654C86.8601 14.5543 86.9327 14.5529 87.069 14.6199L87.9551 12.8186ZM86.458 12.5864L86.1209 10.6074L85.3595 10.7371L85.6967 12.7161L86.0339 14.6951L86.7952 14.5654L86.458 12.5864ZM85.6967 12.7161L85.3595 10.7371L84.5982 10.8668L84.9354 12.8458L85.2725 14.8248L86.0339 14.6951L85.6967 12.7161ZM84.9354 12.8458L84.5982 10.8668C84.3385 10.9111 84.0921 10.9055 83.8453 10.8529L83.4268 12.8162L83.0082 14.7796C83.7578 14.9394 84.5171 14.9535 85.2725 14.8248L84.9354 12.8458ZM83.4268 12.8162L83.8453 10.8529L83.0981 10.6936L82.6795 12.6569L82.261 14.6203L83.0082 14.7796L83.4268 12.8162ZM82.6795 12.6569L83.0981 10.6936L82.3509 10.5343L81.9323 12.4976L81.5138 14.461L82.261 14.6203L82.6795 12.6569ZM81.9323 12.4976L82.3509 10.5343C81.9769 10.4545 81.5974 10.3368 81.2115 10.1775L80.4457 12.0332L79.6799 13.8889C80.2798 14.1365 80.8914 14.3283 81.5138 14.461L81.9323 12.4976ZM80.4457 12.0332L81.2115 10.1775L80.4722 9.87242L79.7064 11.7281L78.9406 13.5838L79.6799 13.8889L80.4457 12.0332ZM79.7064 11.7281L80.4722 9.87242L79.7329 9.5673L78.967 11.423L78.2012 13.2787L78.9406 13.5838L79.7064 11.7281ZM78.967 11.423L79.7329 9.5673C78.8722 9.21214 77.9553 9.12238 77.0367 9.32398L77.467 11.2848L77.8974 13.2456C77.993 13.2247 78.0761 13.227 78.2012 13.2787L78.967 11.423ZM77.467 11.2848L77.0367 9.32398L76.2761 9.49092L76.7064 11.4517L77.1367 13.4126L77.8974 13.2456L77.467 11.2848ZM76.7064 11.4517L76.2761 9.49092L75.5154 9.65786L75.9458 11.6187L76.3761 13.5795L77.1367 13.4126L76.7064 11.4517ZM75.9458 11.6187L75.5154 9.65786C75.3298 9.69858 75.1662 9.69255 74.9939 9.64339L74.443 11.5738L73.892 13.5042C74.7093 13.7375 75.5475 13.7614 76.3761 13.5795L75.9458 11.6187ZM74.443 11.5738L74.9939 9.64339L74.2518 9.43156L73.7008 11.362L73.1498 13.2924L73.892 13.5042L74.443 11.5738ZM73.7008 11.362L74.2518 9.43156L73.5096 9.21973L72.9586 11.1501L72.4076 13.0805L73.1498 13.2924L73.7008 11.362ZM72.9586 11.1501L73.5096 9.21973C72.3986 8.90262 71.3288 9.13147 70.4237 9.66341L71.4408 11.3941L72.458 13.1249C72.5374 13.0782 72.5584 13.0822 72.5268 13.0873C72.5115 13.0897 72.4903 13.0913 72.4656 13.0898C72.4409 13.0884 72.4208 13.0843 72.4076 13.0805L72.9586 11.1501ZM71.4408 11.3941L70.4237 9.66341L69.648 10.1193L70.6652 11.85L71.6823 13.5807L72.458 13.1249L71.4408 11.3941ZM70.6652 11.85L69.648 10.1193L68.8724 10.5751L69.8895 12.3058L70.9066 14.0366L71.6823 13.5807L70.6652 11.85ZM69.8895 12.3058L68.8724 10.5751C68.8332 10.5981 68.8773 10.5634 68.9901 10.5559C69.0441 10.5523 69.0986 10.5562 69.1491 10.5665C69.1987 10.5766 69.2323 10.5905 69.2481 10.598L68.3767 12.4066L67.5054 14.2151C68.6674 14.775 69.8802 14.6398 70.9066 14.0366L69.8895 12.3058ZM68.3767 12.4066L69.2481 10.598L68.511 10.2429L67.6396 12.0515L66.7683 13.86L67.5054 14.2151L68.3767 12.4066ZM67.6396 12.0515L68.511 10.2429L67.7739 9.88779L66.9025 11.6963L66.0312 13.5049L66.7683 13.86L67.6396 12.0515ZM66.9025 11.6963L67.7739 9.88779C66.9005 9.46702 65.9457 9.33481 64.9779 9.54425L65.4026 11.5063L65.8272 13.4684C65.8766 13.4577 65.9218 13.4521 66.0312 13.5049L66.9025 11.6963ZM65.4026 11.5063L64.9779 9.54425L64.2151 9.70935L64.6397 11.6714L65.0643 13.6335L65.8272 13.4684L65.4026 11.5063ZM64.6397 11.6714L64.2151 9.70935L63.4522 9.87446L63.8768 11.8365L64.3015 13.7986L65.0643 13.6335L64.6397 11.6714ZM63.8768 11.8365L63.4522 9.87446C63.4465 9.87569 63.448 9.87489 63.4549 9.87474C63.462 9.8746 63.4691 9.87524 63.4741 9.87614C63.4789 9.87701 63.4767 9.87717 63.4663 9.8732C63.4556 9.8691 63.4343 9.85988 63.4024 9.84103L62.3824 11.5701L61.3625 13.2992C62.2435 13.8189 63.2538 14.0253 64.3015 13.7986L63.8768 11.8365ZM62.3824 11.5701L63.4024 9.84103L62.6708 9.40952L61.6509 11.1386L60.6309 12.8677L61.3625 13.2992L62.3824 11.5701ZM61.6509 11.1386L62.6708 9.40952L61.9393 8.978L60.9193 10.7071L59.8994 12.4362L60.6309 12.8677L61.6509 11.1386ZM60.9193 10.7071L61.9393 8.978C60.9972 8.42226 59.9152 8.25881 58.8295 8.59372L59.4213 10.512L60.013 12.4303C60.0149 12.4297 60.0052 12.4329 59.9856 12.4346C59.9657 12.4365 59.9428 12.4362 59.9199 12.4332C59.8971 12.4303 59.8818 12.4256 59.8759 12.4235C59.8705 12.4216 59.8782 12.4237 59.8994 12.4362L60.9193 10.7071ZM59.4213 10.512L58.8295 8.59372L58.063 8.83017L58.6547 10.7485L59.2465 12.6668L60.013 12.4303L59.4213 10.512ZM58.6547 10.7485L58.063 8.83017L57.2964 9.06663L57.8882 10.9849L58.4799 12.9032L59.2465 12.6668L58.6547 10.7485ZM57.8882 10.9849L57.2964 9.06663C56.8567 9.20229 56.4222 9.30951 55.9929 9.38931L56.3597 11.363L56.7266 13.3367C57.3131 13.2277 57.8976 13.0828 58.4799 12.9032L57.8882 10.9849ZM56.3597 11.363L55.9929 9.38931L55.231 9.53093L55.5978 11.5046L55.9647 13.4783L56.7266 13.3367L56.3597 11.363ZM55.5978 11.5046L55.231 9.53093L54.4691 9.67255L54.8359 11.6462L55.2028 13.6199L55.9647 13.4783L55.5978 11.5046ZM54.8359 11.6462L54.4691 9.67255C54.291 9.70565 54.1286 9.69561 53.9514 9.63829L53.3336 11.5483L52.7158 13.4584C53.5258 13.7204 54.365 13.7756 55.2028 13.6199L54.8359 11.6462ZM53.3336 11.5483L53.9514 9.63829L53.211 9.39879L52.5931 11.3088L51.9753 13.2189L52.7158 13.4584L53.3336 11.5483ZM52.5931 11.3088L53.211 9.39879L52.4705 9.15928L51.8527 11.0693L51.2349 12.9794L51.9753 13.2189L52.5931 11.3088ZM51.8527 11.0693L52.4705 9.15928C52.0186 9.01311 51.5669 8.85066 51.1153 8.67174L50.3759 10.5381L49.6364 12.4044C50.1667 12.6145 50.6995 12.8062 51.2349 12.9794L51.8527 11.0693ZM50.3759 10.5381L51.1153 8.67174L50.379 8.37998L49.6395 10.2463L48.9 12.1127L49.6364 12.4044L50.3759 10.5381ZM49.6395 10.2463L50.379 8.37998L49.6426 8.08822L48.9031 9.95456L48.1637 11.8209L48.9 12.1127L49.6395 10.2463ZM48.9031 9.95456L49.6426 8.08822C48.8525 7.77515 48.0177 7.65869 47.1674 7.76157L47.4085 9.75453L47.6496 11.7475C47.8103 11.7281 47.972 11.7449 48.1637 11.8209L48.9031 9.95456ZM47.4085 9.75453L47.1674 7.76157L46.4091 7.85331L46.6502 9.84627L46.8913 11.8392L47.6496 11.7475L47.4085 9.75453ZM46.6502 9.84627L46.4091 7.85331L45.6508 7.94505L45.892 9.93801L46.1331 11.931L46.8913 11.8392L46.6502 9.84627ZM45.892 9.93801L45.6508 7.94505C44.9688 8.02756 44.2982 8.20008 43.6418 8.45173L44.3605 10.3262L45.0791 12.2006C45.4537 12.057 45.8041 11.9708 46.1331 11.931L45.892 9.93801ZM44.3605 10.3262L43.6418 8.45173L42.8686 8.74817L43.5872 10.6226L44.3059 12.4971L45.0791 12.2006L44.3605 10.3262ZM43.5872 10.6226L42.8686 8.74817L42.0954 9.04461L42.814 10.9191L43.5327 12.7935L44.3059 12.4971L43.5872 10.6226ZM42.814 10.9191L42.0954 9.04461C42.0852 9.04853 42.0894 9.04586 42.1065 9.04307C42.1242 9.04018 42.1488 9.03828 42.1775 9.04009C42.2062 9.04189 42.2303 9.04686 42.2472 9.05187C42.2636 9.05672 42.2672 9.05977 42.2572 9.05442L41.31 10.8244L40.3627 12.5944C41.3632 13.1298 42.4724 13.2 43.5327 12.7935L42.814 10.9191ZM41.31 10.8244L42.2572 9.05442L41.5264 8.66331L40.5791 10.4333L39.6319 12.2032L40.3627 12.5944L41.31 10.8244ZM40.5791 10.4333L41.5264 8.66331L40.7955 8.27219L39.8483 10.0422L38.9011 11.8121L39.6319 12.2032L40.5791 10.4333ZM39.8483 10.0422L40.7955 8.27219C40.0925 7.89594 39.3368 7.655 38.5389 7.58659L38.3674 9.58674L38.1959 11.5869C38.3981 11.6042 38.6297 11.6669 38.9011 11.8121L39.8483 10.0422ZM38.3674 9.58674L38.5389 7.58659L37.7889 7.52228L37.6174 9.52243L37.4459 11.5226L38.1959 11.5869L38.3674 9.58674ZM37.6174 9.52243L37.7889 7.52228L37.0389 7.45797L36.8674 9.45812L36.6959 11.4583L37.4459 11.5226L37.6174 9.52243ZM36.8674 9.45812L37.0389 7.45797C36.4484 7.40734 35.8563 7.39681 35.2634 7.42627L35.363 9.43129L35.4626 11.4363C35.8754 11.4158 36.2863 11.4232 36.6959 11.4583L36.8674 9.45812ZM35.363 9.43129L35.2634 7.42627L34.509 7.46376L34.6087 9.46878L34.7083 11.4738L35.4626 11.4363L35.363 9.43129ZM34.6087 9.46878L34.509 7.46376L33.7547 7.50124L33.8543 9.50626L33.954 11.5113L34.7083 11.4738L34.6087 9.46878ZM33.8543 9.50626L33.7547 7.50124C33.3858 7.51958 33.0184 7.50114 32.6508 7.44558L32.3508 9.43054L32.0509 11.4155C32.6821 11.5109 33.3171 11.5429 33.954 11.5113L33.8543 9.50626ZM32.3508 9.43054L32.6508 7.44558L31.9016 7.33238L31.6017 9.31734L31.3017 11.3023L32.0509 11.4155L32.3508 9.43054ZM31.6017 9.31734L31.9016 7.33238L31.1524 7.21917L30.8525 9.20413L30.5526 11.1891L31.3017 11.3023L31.6017 9.31734ZM30.8525 9.20413L31.1524 7.21917C30.7761 7.1623 30.4012 7.07014 30.0266 6.94095L29.3721 8.83877L28.7177 10.7366C29.318 10.9436 29.93 11.095 30.5526 11.1891L30.8525 9.20413ZM29.3721 8.83877L30.0266 6.94095L29.2954 6.68879L28.6409 8.5866L27.9864 10.4844L28.7177 10.7366L29.3721 8.83877ZM28.6409 8.5866L29.2954 6.68879L28.5642 6.43663L27.9097 8.33444L27.2552 10.2323L27.9864 10.4844L28.6409 8.5866ZM27.9097 8.33444L28.5642 6.43663C27.6716 6.12882 26.749 6.11741 25.8548 6.37117L26.4029 8.30239L26.951 10.2336C27.0909 10.1939 27.1728 10.2038 27.2552 10.2323L27.9097 8.33444ZM26.4029 8.30239L25.8548 6.37117L25.0792 6.59128L25.6273 8.52251L26.1754 10.4537L26.951 10.2336L26.4029 8.30239ZM25.6273 8.52251L25.0792 6.59128L24.3036 6.8114L24.8517 8.74262L25.3998 10.6738L26.1754 10.4537L25.6273 8.52251ZM24.8517 8.74262L24.3036 6.8114C24.0365 6.8872 23.8112 6.8982 23.6094 6.8698L23.3297 8.85771L23.05 10.8456C23.8434 10.9573 24.6328 10.8915 25.3998 10.6738L24.8517 8.74262ZM23.3297 8.85771L23.6094 6.8698L22.863 6.76478L22.5833 8.75269L22.3036 10.7406L23.05 10.8456L23.3297 8.85771ZM22.5833 8.75269L22.863 6.76478L22.1166 6.65976L21.8369 8.64767L21.5572 10.6356L22.3036 10.7406L22.5833 8.75269ZM21.8369 8.64767L22.1166 6.65976C21.6291 6.59116 21.1431 6.519 20.6587 6.44326L20.3486 8.42666L20.0385 10.4101C20.5433 10.489 21.0495 10.5641 21.5572 10.6356L21.8369 8.64767ZM20.3486 8.42666L20.6587 6.44326L19.9169 6.32728L19.6068 8.31068L19.2967 10.2941L20.0385 10.4101L20.3486 8.42666ZM19.6068 8.31068L19.9169 6.32728L19.175 6.2113L18.8649 8.1947L18.5548 10.1781L19.2967 10.2941L19.6068 8.31068ZM18.8649 8.1947L19.175 6.2113C18.3503 6.08236 17.5311 6.16048 16.7422 6.39959L17.3245 8.32078L17.9068 10.242C18.1827 10.1583 18.3905 10.1524 18.5548 10.1781L18.8649 8.1947ZM17.3245 8.32078L16.7422 6.39959L15.9436 6.64165L16.5259 8.56283L17.1082 10.484L17.9068 10.242L17.3245 8.32078ZM16.5259 8.56283L15.9436 6.64165L15.145 6.88371L15.7273 8.80489L16.3096 10.7261L17.1082 10.484L16.5259 8.56283ZM15.7273 8.80489L15.145 6.88371C15.205 6.86552 15.356 6.84111 15.5406 6.89559C15.714 6.94675 15.7852 7.02867 15.7663 7.0086L14.3052 8.38527L12.8441 9.76195C13.2409 10.183 13.757 10.5554 14.4043 10.7464C15.063 10.9408 15.7172 10.9056 16.3096 10.7261L15.7273 8.80489ZM14.3052 8.38527L15.7663 7.0086L15.1429 6.34692L13.6818 7.7236L12.2207 9.10027L12.8441 9.76195L14.3052 8.38527ZM13.6818 7.7236L15.1429 6.34692L14.5194 5.68525L13.0584 7.06193L11.5973 8.4386L12.2207 9.10027L13.6818 7.7236ZM13.0584 7.06193L14.5194 5.68525C13.9225 5.05166 13.2005 4.53775 12.3414 4.2613L11.7265 6.17228L11.1115 8.08326C11.197 8.11077 11.363 8.18996 11.5973 8.4386L13.0584 7.06193ZM11.7265 6.17228L12.3414 4.2613L11.633 4.03332L11.0181 5.9443L10.4031 7.85528L11.1115 8.08326L11.7265 6.17228ZM11.0181 5.9443L11.633 4.03332L10.9246 3.80535L10.3096 5.71632L9.69466 7.6273L10.4031 7.85528L11.0181 5.9443ZM10.3096 5.71632L10.9246 3.80535C10.4444 3.65082 9.96109 3.49857 9.47462 3.34858L8.88314 5.26695L8.29166 7.18533C8.7626 7.33054 9.23027 7.47786 9.69466 7.6273L10.3096 5.71632ZM8.88314 5.26695L9.47462 3.34858L8.75655 3.12718L8.16508 5.04556L7.5736 6.96394L8.29166 7.18533L8.88314 5.26695ZM8.16508 5.04556L8.75655 3.12718L8.03849 2.90579L7.44701 4.82417L6.85554 6.74255L7.5736 6.96394L8.16508 5.04556ZM7.44701 4.82417L8.03849 2.90579C7.79216 2.82984 7.5602 2.71148 7.33551 2.53979L6.11666 4.13492L4.89781 5.73004C5.48951 6.18217 6.14445 6.52331 6.85554 6.74255L7.44701 4.82417ZM6.11666 4.13492L7.33551 2.53979L6.72322 2.07193L5.50437 3.66706L4.28552 5.26218L4.89781 5.73004L6.11666 4.13492ZM5.50437 3.66706L6.72322 2.07193L6.11093 1.60408L4.89208 3.1992L3.67323 4.79433L4.28552 5.26218L5.50437 3.66706ZM4.89208 3.1992L6.11093 1.60408C5.61579 1.22573 5.0896 0.893756 4.53946 0.667496L3.77588 2.5241L3.0123 4.3807C3.13404 4.43077 3.35199 4.54886 3.67323 4.79433L4.89208 3.1992ZM3.77588 2.5241L4.53946 0.667496L4.03556 0.460249L3.27198 2.31685L2.50839 4.17345L3.0123 4.3807L3.77588 2.5241ZM3.27198 2.31685L4.03556 0.460249L3.53165 0.253003L2.76807 2.1096L2.00449 3.96621L2.50839 4.17345L3.27198 2.31685ZM2.76807 2.1096L3.53165 0.253003C3.28235 0.150473 2.84614 -0.00648456 2.3363 0.000875224C1.71236 0.00988191 0.790634 0.302859 0.341287 1.27857L2.16471 2.11831L3.98812 2.95806C3.83239 3.29622 3.56491 3.5993 3.2061 3.79636C2.87506 3.97818 2.57128 4.01289 2.39425 4.01544C2.08553 4.0199 1.91784 3.93057 2.00449 3.96621L2.76807 2.1096ZM2.16471 2.11831L0.341287 1.27857L0.241832 1.49453L2.06525 2.33427L3.88867 3.17401L3.98812 2.95806L2.16471 2.11831ZM2.06525 2.33427L0.106366 1.89519L0.00198935 2.36084L1.96087 2.79992L3.91976 3.23901L4.02414 2.77335L2.06525 2.33427ZM1.96087 2.79992L2.63569 0.909249L2.54116 0.875509L1.86634 2.76618L1.19153 4.65686L1.28606 4.6906L1.96087 2.79992Z" fill="#FFD505"/>
</svg>
