<svg width="156" height="14" viewBox="0 0 156 14" fill="none" xmlns="http://www.w3.org/2000/svg">
<path d="M145.245 1.22324C145.151 1.23602 144.766 1.18871 144.595 1.19072C144.792 1.03408 145.6 1.17717 145.245 1.22324ZM127.598 12.5674C127.741 12.5303 127.883 12.4932 128.025 12.4561C127.624 12.422 127.081 12.4403 126.718 12.3951C126.658 12.3875 126.817 12.275 126.674 12.2669C126.532 12.2589 126.557 12.4176 126.348 12.4303C126.12 12.4442 125.028 12.3122 124.67 12.3077C123.288 12.2909 121.89 12.3538 120.49 12.261C121.94 12.1722 120.479 12.0247 120.081 12.0677C119.991 12.0778 120.008 12.372 118.565 12.2703C117.646 12.2057 118.496 11.8016 116.973 11.9832C118.136 12.2993 116.992 12.2569 116.066 12.2492C115.902 12.2478 114.627 12.1796 114.061 12.182C113.867 12.1829 113.568 12.3313 113.309 12.3306C113.132 12.3299 112.996 12.2432 112.735 12.2426C111.522 12.2391 110.302 12.2231 109.085 12.1724C109.808 11.7899 108.526 11.9936 108.468 11.9736C108.177 11.8609 109.5 11.8544 108.979 11.7777C108.248 11.7766 107.512 11.7755 106.786 11.7746C107.383 11.834 105.988 12.0935 105.732 11.9594C105.835 12.3108 102.409 11.5956 101.882 11.7032C101.772 11.726 102.483 11.9113 100.829 11.8031C100.65 11.7912 100.719 11.6869 100.625 11.6951C100.569 11.7 100.221 12.0292 99.8598 11.8376C99.7294 11.7677 100.578 11.5622 98.7161 11.6183C99.4537 11.9724 96.1252 11.7582 95.5163 11.6623C95.6379 11.7102 95.7593 11.7582 95.8808 11.8061C95.2779 11.6721 95.1664 11.7862 95.0301 11.7776C94.4802 11.7427 93.7266 11.613 93.2151 11.615C92.616 11.6171 92.6105 11.8292 91.9131 11.7349C92.0781 11.7845 92.2431 11.8341 92.4081 11.8838C91.926 11.8643 91.4426 11.8449 90.9612 11.8255C92.0822 11.5634 90.7206 11.8081 90.631 11.8127C90.4882 11.8205 90.6951 11.7089 90.4563 11.7192C90.4316 11.7212 90.4654 11.8301 90.0975 11.8361C89.3286 11.8483 89.4523 11.7142 89.1296 11.7103C89.1 11.7106 89.2019 11.8098 88.6442 11.8236C86.8716 11.8678 88.6542 11.749 88.7224 11.7367C88.8119 11.7204 88.2114 11.3026 89.7137 11.4722C89.2092 11.4177 89.1614 11.2365 89.1046 11.2311C89.0543 11.2265 88.1784 11.2374 88.1301 11.2428C87.6987 11.297 88.0753 11.4265 87.9911 11.4472C87.9222 11.4639 86.8703 11.2858 86.6172 11.6526C86.1184 11.3023 86.9124 11.3466 87.7595 11.3081C87.884 11.2399 86.956 11.1563 86.9072 11.1557C85.709 11.1367 86.3678 11.4289 86.1029 11.6044C85.964 11.6963 85.4786 11.4964 85.9254 11.756C84.8365 11.7648 85.499 11.6294 85.4291 11.6067C85.3234 11.5731 84.9415 11.6392 84.894 11.6288C84.8243 11.6134 85.0689 11.53 84.7936 11.4948C84.7478 11.4896 84.301 11.6326 84.8728 11.7138C84.1077 11.68 84.1688 11.8092 83.9135 11.5467C83.3789 12.0268 83.536 11.2517 83.3291 11.2209C82.7789 11.1399 82.9321 11.5261 82.9028 11.5443C82.6993 11.6609 81.1728 11.5046 80.7947 11.5539C80.9479 11.28 82.0051 11.5703 82.2438 11.5205C83.0389 11.3549 81.1298 11.3644 81.7105 11.0265C81.4679 11.118 81.2255 11.2095 80.9832 11.301C80.545 11.0707 81.1746 10.9833 79.9829 11.046C79.7853 11.2356 80.825 11.0289 80.6145 11.1774C80.4918 11.2645 79.7998 11.2727 79.7856 11.3194C79.771 11.3757 80.3969 11.3187 80.297 11.4041C80.0779 11.5882 77.8066 11.3737 79.5397 11.2986C79.0564 11.2942 78.8136 10.9171 78.3936 11.0268C78.122 11.098 79.6354 11.6373 77.3542 11.507C77.3096 11.33 78.2677 11.4692 78.2929 11.4562C78.3282 11.4373 78.1607 11.0369 78.1309 11.0168C78.0294 10.9505 75.6847 11.1269 75.1994 10.9197C75.3941 11.1525 73.4316 10.9335 73.2194 11.0004C73.1624 11.0188 73.3723 11.1629 73.3114 11.1768C72.9317 11.2597 71.9147 10.993 71.4362 10.9793C70.9035 10.9639 70.9695 11.0865 70.9397 11.0858C70.7059 11.0755 70.894 10.9959 70.751 10.994C70.5346 10.9911 69.0549 10.9522 68.9766 10.9683C68.9546 10.9733 69.1959 11.1158 68.8706 11.1374C68.8147 11.1411 68.8509 10.9769 67.892 11.034C66.7393 11.1027 68.6893 11.2505 68.2082 11.416C67.4709 11.1595 67.4924 11.4033 67.2923 11.3812C67.2241 11.3733 66.7088 11.1588 66.1428 11.1637C66.5481 11.136 66.9575 11.1083 67.3576 11.0806C66.967 11.0386 66.186 11.0722 65.8605 11.0265C65.7011 11.0043 65.8349 10.8362 65.4883 10.8358C65.4151 10.8366 65.1162 11.2465 66.028 11.0738C66.0986 11.2227 65.667 11.1202 65.4663 11.1591C65.4359 11.1652 65.3128 11.4105 65.0599 11.2533C64.9982 11.2147 65.6795 10.5036 63.9465 11.0006C63.8904 11.0166 64.0835 11.1096 64.0286 11.1275C63.9909 11.1397 63.5486 11.0969 63.4998 11.109C63.4496 11.122 63.6618 11.2236 63.602 11.2421C63.2956 11.3377 62.9018 10.9413 63.5293 10.98C63.3198 10.9287 63.1108 10.8775 62.9023 10.8262C63.1221 11.1238 62.5723 10.9044 62.2844 10.9095C60.4275 10.9416 61.6675 11.1505 61.3468 11.2451C60.8286 11.3971 61.2284 10.8985 60.4632 11.0395C60.3938 11.0527 61.3064 11.2791 59.5177 11.134C59.7811 11.1292 60.0454 11.1245 60.3106 11.1198C60.1609 10.8328 59.3563 11.1263 59.2956 11.1295C58.5827 11.1589 59.0628 11.0627 58.0097 11.1953C57.9158 11.2072 57.713 11.1342 57.5133 11.1666C56.6848 11.3001 58.6039 11.2688 58.6593 11.3849C58.677 11.4292 57.4214 11.4134 56.8425 11.3915L56.8649 11.3917C56.6948 11.3861 56.5796 11.3797 56.5636 11.3736C56.4172 11.3153 56.6297 11.3029 56.8659 11.2893L56.8439 11.289C57.0929 11.2752 57.3694 11.26 57.248 11.1815C57.2296 11.1699 57.0775 11.164 56.8455 11.1613L56.8671 11.1616C55.9959 11.1547 54.0839 11.1934 53.631 11.1442C52.9652 11.0713 52.6417 10.6821 52.6364 11.116C52.4443 10.6883 52.2692 10.9773 52.1808 10.9736C51.1155 10.9244 51.115 10.9201 50.2155 10.9528C50.0174 10.9598 49.8522 10.8291 49.7823 10.8503C49.7417 10.8631 49.8161 11.0021 49.6173 11.043C49.3399 11.0988 47.6299 10.9412 47.512 10.8638C47.3869 10.7862 48.225 10.837 48.0761 10.7099C47.4674 10.6918 46.8894 10.7177 46.2896 10.6992C46.0407 10.6911 46.1694 10.6042 46.062 10.6015C46.0218 10.6001 45.1258 10.6697 45.1654 10.7025C45.2714 10.7788 47.9425 10.7518 47.2374 10.8995C47.1002 10.9281 46.6221 10.7211 46.6963 10.9683C44.2817 10.8909 41.8459 10.8138 39.4663 10.7376C40.8112 10.5647 42.4405 10.7437 43.8519 10.7387C44.0491 10.7383 44.7236 10.768 44.6429 10.6427C43.41 10.5996 41.8751 10.6512 40.6856 10.5598C40.6478 10.5568 40.7875 10.446 40.6461 10.427C40.3798 10.3916 39.5285 10.5649 39.3843 10.517C39.3634 10.5059 39.8451 10.3625 39.6995 10.2674C39.3293 10.0235 39.2131 10.5557 38.88 10.5465C38.615 10.5392 36.9008 10.2669 36.4867 10.4263C36.0371 10.5962 37.7326 10.5376 37.6094 10.6785C36.4698 10.8115 35.253 10.6491 34.1695 10.6579C34.1504 10.6582 34.3157 10.7708 34.0731 10.7844C33.6501 10.808 33.5497 10.6494 33.3365 10.6224C33.1058 10.5936 32.3039 10.6097 32.1994 10.5514C32.1859 10.5437 32.3484 10.3885 32.373 10.3843C32.7213 10.3227 32.8449 10.5268 32.8766 10.5296C32.9964 10.5383 33.1151 10.4615 33.225 10.467C33.4075 10.4762 33.503 10.549 33.7321 10.5572C33.8907 10.5632 33.7386 10.4237 33.8916 10.4313C33.9471 10.4346 34.5545 10.7552 34.6152 10.4336C34.6506 10.3321 29.6037 10.1607 29.0896 10.2381C29.5196 10.2803 29.9549 10.3225 30.3956 10.3647C29.4981 10.2632 28.4576 10.5124 28.3883 10.1311C25.129 10.0743 21.882 10.0187 18.6306 9.96452C18.0379 9.92789 18.3565 9.6854 17.4024 9.74995C17.6465 9.82961 17.8934 9.9093 18.1432 9.98902C17.6515 9.9308 15.4733 9.80895 15.136 9.85722C15.0865 9.86351 15.0453 10.0847 14.4814 10.1C13.9917 10.1135 13.9182 9.94708 13.663 9.9136C13.4493 9.88597 13.2133 9.92791 13.1514 9.91835C13.1043 9.9107 13.0852 9.8091 12.9629 9.79062C12.5798 9.73342 12.8873 10.0211 12.5124 9.69062C12.6038 9.6787 12.6958 9.66679 12.7883 9.65489C12.3262 9.60441 11.7188 9.45159 12.3814 9.38234C12.4965 9.3704 12.397 9.46793 12.483 9.46831C15.8062 9.4718 13.1885 9.26369 11.9869 9.4085C11.7143 9.26125 9.99076 9.33934 9.96055 9.31054C9.88231 9.26854 10.176 9.15408 9.79022 9.05135C9.69356 9.02942 7.45483 9.0977 8.26786 8.90915C8.46358 8.87039 9.49214 8.91841 9.77744 8.91447C9.1504 8.6023 7.721 9.03567 7.56425 9.02349C6.92593 8.97179 8.79723 8.76338 7.35642 8.71929C6.21115 8.68534 7.2864 8.89725 6.84449 8.98265C6.59999 9.03054 5.32361 8.79685 5.35964 9.09076C4.93314 9.11987 5.18398 8.96569 5.13124 8.95423C5.09086 8.94416 4.20656 9.02752 3.93853 8.96432C3.90303 8.95645 4.01573 8.80436 3.97902 8.79168C3.88827 8.76983 3.10139 8.79654 3.04322 8.80922C3.02041 8.8181 3.22874 8.95273 3.14254 8.98474C3.02648 9.02153 2.25843 8.98658 2.19667 9.02454C2.14525 9.08204 3.1145 9.04841 2.95587 9.19715C2.50338 9.15738 1.78039 9.25394 1.46042 9.37297C1.53176 9.33885 1.97995 9.3358 2.12619 9.34858C2.06072 9.56712 1.11102 9.56022 1.4335 9.38831C1.23745 9.48055 1.37004 9.53045 1.26266 9.61782C1.22498 9.63991 0.924181 9.64333 0.878167 9.68106C0.866266 9.68856 1.16608 9.77229 1.10677 9.81652C0.999585 9.89637 0.12034 9.8752 0.0540992 9.85411C-0.15615 9.79377 0.577994 9.72366 0.618203 9.63157C0.637513 9.61742 0.0116156 9.43446 0.0113479 9.41861C-0.0292913 9.24692 0.663083 9.37271 0.575477 9.21809C0.501834 9.20153 0.407012 9.1849 0.322065 9.16833C0.249997 9.15179 0.144732 9.13517 0.0767445 9.11869C0.703838 8.96401 1.9454 9.04969 2.23661 8.87321C1.26092 8.92172 0.276892 8.91211 0.267426 8.51175C0.266727 8.42743 0.36381 8.36085 0.481223 8.3101C0.569509 8.25924 0.673707 8.22418 0.66544 8.20271C0.613338 8.04907 0.0226837 8.21382 0.00982114 8.20582C-0.0029152 8.19645 0.000344785 8.18735 0 8.17849C0 8.17849 0 8.17848 0 8.17848C-0.0364817 8.08834 0.802437 8.02645 0.853234 7.9857C0.932608 7.91313 0.540232 7.61181 0.552536 7.54554C0.556164 7.53889 0.704546 7.51833 0.839702 7.48496C0.951265 7.45149 1.05031 7.40519 0.953475 7.34695C0.767776 7.22928 0.223977 7.22487 0.230733 7.21279C0.109294 7.14237 1.03661 7.08179 1.04827 7.04061C1.05551 7.0302 0.936377 6.99244 0.829369 6.95275C0.692891 6.91295 0.574299 6.87124 0.568394 6.85278C0.549918 6.81568 0.929751 6.73628 1.06685 6.61999C1.17463 6.53361 0.863925 6.46587 0.919855 6.45248C0.951947 6.44353 1.80755 6.44846 1.857 6.43346C1.91865 6.41115 1.72041 6.30657 1.74772 6.28075C1.80526 6.24368 2.05127 6.28218 2.02182 6.24367C2.01904 6.21499 0.922041 5.85291 0.940599 5.75754C0.949999 5.5946 2.07912 5.97398 1.03026 5.32689C1.01758 5.32261 0.787987 5.36744 0.765662 5.36341C0.6125 5.24457 1.43108 5.06553 0.425708 5.09377C2.30798 4.89527 0.644069 4.84958 0.933686 4.57634C1.03741 4.47124 1.75579 4.43067 1.77167 4.41495C1.69433 4.28085 1.46054 4.38363 1.38908 4.31776C1.3338 4.28086 2.00863 4.14224 1.85431 4.04976C1.76394 4.00202 1.09445 4.01616 1.0545 4.0068C0.789488 3.91872 1.11454 3.82617 1.05724 3.76411C1.02202 3.72249 0.601107 3.71766 0.594126 3.71018C0.57752 3.69457 1.12865 3.52905 1.2665 3.47073C1.36143 3.42579 1.00598 3.35341 1.07343 3.33392C1.44814 3.2172 2.26695 3.52197 1.47838 3.09649C1.43542 3.07042 1.14764 3.07974 1.13359 3.07452C0.952358 2.95413 1.49136 2.9459 1.58394 2.84833C1.7441 2.68016 0.993069 2.77122 1.62022 2.65505C1.16838 2.5428 0.863514 2.54616 0.312426 2.57514C1.89607 2.49489 2.40619 2.06028 0.691041 2.06453C1.23497 2.07334 1.19639 1.8266 1.3506 1.82287C1.43704 1.82077 2.24348 2.06944 1.88635 1.51765C1.8449 1.44873 1.34469 1.534 1.50063 1.39396C2.66502 1.43476 1.53048 1.30453 1.52419 1.28594C1.54228 0.961521 4.39195 1.24023 4.86652 1.20604C5.43055 1.16609 5.92876 0.913379 6.06369 0.913789C6.46078 0.915842 6.13175 1.04373 6.21973 1.09189C6.2881 1.13947 7.48237 0.89772 7.51526 0.911583C7.73195 0.967627 7.51069 1.12003 7.53329 1.12792C7.79954 1.22355 9.3399 1.11228 9.78562 1.15076C9.76807 1.05095 8.89626 1.0378 9.44144 0.880959C10.0879 0.698184 10.1152 1.13784 10.1315 1.15728C12.9955 1.17064 15.9136 1.18605 18.8022 1.20239C18.7546 0.968209 16.8623 1.13127 16.8343 1.10034C16.5666 0.916139 19.7636 0.941969 20.151 1.02745C19.8516 0.974783 19.5558 0.922155 19.2637 0.869564C19.7527 0.604243 20.9231 0.961937 21.6264 0.848444C21.8615 0.811701 21.4115 0.704645 21.4214 0.697635C21.684 0.595161 22.1105 0.678739 21.7909 0.816558C22.4412 0.687048 22.3459 0.834533 22.8532 0.849433C22.8796 0.850097 22.6609 0.739991 23.0655 0.698035C23.2557 0.678462 24.22 0.685367 24.3579 0.591543C24.4121 0.552006 23.9164 0.127607 23.8534 0.489179C22.7982 0.304773 23.5194 0.651649 23.1029 0.64021C23.0396 0.637849 23.1816 0.436793 22.1225 0.524072C22.3229 0.161119 23.5527 0.442789 23.745 0.400104C24.1743 0.312585 22.4135 0.1112 22.0826 0.39286C22.2364 0.109618 21.956 0.353595 21.5678 0.339056C21.1442 0.323269 21.3295 0.239947 21.1017 0.237821C20.4681 0.231083 20.7223 0.43367 20.1948 0.248882C20.7061 0.812809 19.2883 0.31626 18.8976 0.16677C19.5483 0.142957 20.2176 0.119336 20.9056 0.0959115C20.8665 0.066207 20.8275 0.036503 20.7885 0.00679949C20.9748 0.0123239 21.1362 0.0176698 21.3113 0.0231195C21.2834 0.0511094 21.2555 0.0790993 21.2277 0.107089C22.1208 -0.0696783 22.3511 0.138082 22.4241 0.140908C23.4185 0.17218 24.4506 0.178187 25.4522 0.186523C25.6031 0.187787 25.4964 0.00356996 26.5387 0.155162C26.8732 0.203462 26.5552 0.34365 26.9365 0.325198C27.418 -0.0586855 27.4083 0.250416 27.5516 0.252022C27.9661 0.255207 28.218 0.161163 28.252 0.160418C28.7424 0.14928 29.4733 0.17109 30.0326 0.161262C30.0431 0.159883 29.7536 0.0384843 30.116 0.076609C30.254 0.0902884 31.3605 0.607494 32.35 0.449827C32.0926 0.413414 31.8369 0.377022 31.5829 0.34065C31.8708 0.390898 34.0214 0.280329 33.4978 0.139978C33.1724 0.0541369 32.3882 0.375434 32.3068 0.0596637C33.0299 0.159715 36.925 0.0509222 37.2029 0.126578C37.2441 0.137373 36.989 0.237476 37.046 0.251031C37.0886 0.261347 37.973 0.244565 38.0927 0.284851C38.1628 0.308772 37.7688 0.368111 37.8007 0.405214C37.8262 0.431682 38.9444 0.48493 39.0122 0.357366C38.7333 0.406433 37.9629 0.354996 38.3683 0.250407C38.4204 0.237433 38.6902 0.322375 38.7541 0.305896C39.3442 0.153877 37.5847 0.176659 37.3236 0.173194C38.4123 0.019066 40.1191 0.22605 41.3799 0.130508C41.8935 0.241597 40.6169 0.287105 41.1973 0.380474C42.4058 0.574075 41.5202 0.23576 41.5577 0.222508C41.8553 0.117457 42.8968 0.703214 42.8879 0.264188C43.3162 0.333994 43.1756 0.388108 43.7861 0.336009C43.7059 0.304908 43.6259 0.273809 43.546 0.242711C44.2205 -0.00568244 45.6778 0.648641 45.5692 0.696624C45.2708 0.824947 44.5149 0.614023 44.4512 0.618382C44.3569 0.624826 44.0839 1.06783 43.0606 0.660654C42.6345 0.955674 44.6947 0.876557 43.7546 1.07197C44.3842 1.04401 47.0341 1.27536 47.3984 1.14753C47.4438 1.13082 47.2355 0.831291 47.8833 0.988576C48.1911 1.06347 47.4475 1.06029 47.5881 1.12936C48.0245 1.34118 53.9536 1.26181 55.0459 1.26111C55.1186 1.26145 55.0911 1.35358 55.1627 1.3534C55.3819 1.35284 56.1893 1.22256 56.5894 1.26881C56.0897 1.16055 56.4808 1.11847 56.9608 1.10719C56.9642 1.10748 56.9746 1.10707 56.978 1.10738C57.2808 1.10112 57.6208 1.10806 57.7788 1.11757C58.388 1.15434 58.3491 1.31642 58.6133 1.35454C59.6448 1.50162 61.2037 1.13702 62.002 1.50902C61.9629 1.15031 63.3584 1.70355 64.0058 1.71592C64.516 1.72571 65.2377 1.49903 64.5672 1.34509C65.4274 1.37384 66.345 1.32026 67.163 1.31042C67.2967 1.30871 67.1111 1.41191 67.3394 1.40567C67.3602 1.40433 67.3902 1.30099 67.5866 1.29306C69.2115 1.22641 68.4191 1.43536 68.7222 1.50465C68.8923 1.54346 69.0182 1.56338 69.1107 1.5707C68.1563 1.57686 67.0746 1.60186 66.7763 1.60048C67.0268 1.83326 68.8721 1.58708 69.4207 1.65693C69.4395 1.65945 69.3718 1.78477 69.391 1.78595C69.3914 1.78595 69.3918 1.78596 69.3922 1.78597C69.6006 1.79871 70.8867 1.77127 70.6246 1.61674C70.552 1.57542 69.9648 1.56671 69.2518 1.56984C69.4445 1.54444 69.303 1.40084 69.337 1.39531C69.7532 1.33151 70.7443 1.4844 71.102 1.50841C71.1833 1.51372 71.1788 1.42299 71.1922 1.42297C71.5158 1.44842 71.3789 1.70524 71.7157 1.44334C72.2981 1.77473 70.6148 1.47469 70.7315 1.68601C70.8207 1.8485 74.5614 1.81858 74.5565 1.56451C74.569 1.59188 74.6201 1.62641 74.7254 1.6664C74.9619 1.75531 75.9971 1.74461 76.1786 1.7006C76.209 1.69185 76.2007 1.44504 76.2384 1.44335C76.3312 1.4391 77.6056 1.65235 78.0813 1.51401C77.8263 1.47545 77.5692 1.43685 77.3124 1.39827C78.8636 1.42039 78.6227 1.34326 78.1092 1.26142C78.0834 1.26035 78.0585 1.2506 78.0339 1.24921C77.6365 1.18844 77.1203 1.12786 77.1135 1.1083C77.0881 1.03357 79.7144 1.03352 79.206 1.2544C79.1347 1.28454 77.9212 1.16356 78.5202 1.33628C78.6248 1.36653 79.4068 1.33225 79.4478 1.3509C79.7201 1.47485 78.0123 1.60693 78.2184 1.78023C78.6342 1.62486 79.164 1.71847 79.6402 1.68421C79.8568 1.66875 79.912 1.54594 79.9387 1.54403C80.3385 1.51808 80.1124 1.64417 80.2458 1.64306C80.3183 1.64197 81.1062 1.37852 80.9521 1.75653C83.5423 1.5181 81.6719 1.48832 80.0846 1.48456C80.5911 1.35401 81.5689 1.43663 82.0116 1.41157C82.1702 1.40244 82.0783 1.27401 82.3463 1.25291C82.8998 1.20949 85.5223 1.39786 86.2077 1.44355C85.7867 1.48151 85.9074 1.62178 86.2318 1.61754C86.5563 1.61324 86.2869 1.42424 86.3505 1.40543C86.4185 1.38598 87.9395 1.49815 88.1933 1.47845C87.0459 1.52636 87.3022 1.66849 88.2749 1.69901C88.1336 1.73639 87.9923 1.77377 87.851 1.81116C88.4221 1.76476 89.6178 1.99501 89.9484 1.93794C90.0003 1.92874 89.8164 1.80972 89.8456 1.80455C90.1356 1.76011 91.117 1.89481 91.1633 1.85603C91.2027 1.82376 90.7849 1.71953 90.9414 1.6743C90.9742 1.66477 91.3753 1.82823 91.7749 1.79644C91.923 1.78475 91.8358 1.67363 91.8732 1.66789C92.1846 1.6204 91.9983 1.80192 92.5662 1.78184C92.9822 1.76691 93.2948 1.59166 93.8675 1.6612C91.9869 1.39914 93.5698 1.52209 94.3584 1.4658C94.4851 1.45684 94.3803 1.25595 95.1344 1.36577C93.5194 1.69816 95.5903 1.5638 96.0116 1.575C96.0347 1.57662 96.0404 1.708 96.2473 1.71367C96.2648 1.71385 96.2412 1.62472 96.4336 1.62124C98.2594 1.58859 97.0912 1.66867 97.4365 1.76212C97.5841 1.80195 98.4749 1.69193 98.7137 1.69306C98.7687 1.6937 98.7418 1.78543 98.9544 1.78552C99.3307 1.78545 99.6672 1.69318 99.9169 1.68977C99.9459 1.68983 99.9448 1.83526 100.418 1.79637C100.551 1.78551 100.7 1.73649 100.513 1.69138C99.8874 1.54285 98.7061 1.7603 98.0019 1.61082C97.3611 1.47466 99.3887 1.49807 99.4926 1.4992C99.5312 1.49941 99.1351 1.56473 99.536 1.58602C99.877 1.60387 100.514 1.36377 101.024 1.42745C101.063 1.4322 101.468 1.65234 101.449 1.66443C101.432 1.6732 100.803 1.70838 100.893 1.77161C100.904 1.77882 101.303 1.78441 101.354 1.83121C101.417 1.88819 101.579 2.43932 101.664 2.45456C101.882 2.49236 101.742 2.36485 101.883 2.37604C102.183 2.39966 103.236 2.58046 103.274 2.39109C103.1 2.37672 102.925 2.36236 102.751 2.34799C103.722 2.34566 103.309 2.25745 103.447 2.22426C103.596 2.18834 103.551 2.35459 103.877 2.37608C103.949 2.3808 105.308 2.37021 105.286 2.29975C104.531 2.39778 104.815 2.19643 104.78 2.19211C104.648 2.17631 104.478 2.28906 104.301 2.2836C103.055 2.24327 104.315 2.08296 104.022 2.03073C103.921 2.01311 103.717 2.10833 103.674 2.10251C103.535 2.08366 103.535 1.95421 103.441 1.96302C103.223 1.98343 103.474 2.17107 103.457 2.18029C103.26 2.29142 102.498 2.13529 102.978 1.94449C102.693 1.86762 102.655 2.10916 102.431 2.00836C101.987 1.80877 102.656 1.86985 102.841 1.84129C103.498 1.7381 103.691 1.83449 104.615 1.81916C104.947 1.81387 105.342 1.70329 105.498 1.69964C105.597 1.69733 106.511 2.12315 106.549 1.48314C106.905 1.55156 107.456 1.98373 107.822 1.97107C108.155 1.95948 108.053 1.73098 108.085 1.72278C108.132 1.70987 108.534 1.73503 108.67 1.70547C108.829 1.67053 108.751 1.5826 109.004 1.55194C109.631 1.47587 109.61 1.70686 109.674 1.72306C110.414 1.91042 110.094 1.57548 110.26 1.55211C110.412 1.53059 112.58 1.69726 113.027 1.62236C112.843 1.66527 112.658 1.70818 112.473 1.75109C112.8 1.90147 113.152 1.67263 113.155 1.93148C113.231 1.51508 113.913 1.80708 114.119 1.80013C114.2 1.79721 114.195 1.72592 114.296 1.72475C114.694 1.7197 115.574 1.79293 115.794 1.76098C116.726 1.62313 114.361 1.32002 114.174 1.30097C114.548 1.31252 116.663 1.25882 115.692 1.03964C115.541 1.0058 115.275 1.18777 115.19 1.1935C114.621 1.23094 115.071 1.07185 115.027 1.05508C114.952 1.02794 114.574 1.18283 114.475 1.16168C114.441 1.15488 114.658 1.00721 114.113 0.993806C114.387 0.851828 115.903 1.00016 116.113 0.969618C116.184 0.958643 115.743 0.635961 117.05 0.966024C117.035 0.936568 117.02 0.907111 117.006 0.877654C117.733 0.879442 118.463 0.881364 119.197 0.883454C119.116 0.949129 118.703 1.07622 119.221 1.05751C119.519 1.04665 119.301 0.892745 119.329 0.888924C119.583 0.852304 124.33 0.99466 125.225 0.996182C125.541 0.997041 126.416 0.894242 126.481 0.893318C126.872 0.8891 128.275 0.99584 128.557 0.984631C128.731 0.977298 128.568 0.848789 128.724 0.857837C128.868 0.86642 128.716 0.984294 128.759 0.99023C129.108 1.04105 131.811 0.938308 132.467 1.06644C132.056 1.02342 130.116 1.22478 130.143 1.31072C130.152 1.3226 130.63 1.42453 130.729 1.3817C130.89 1.48978 131.45 1.18253 131.746 1.25137C131.78 1.25921 131.639 1.43513 132.189 1.47915C132.377 1.49421 132.873 1.36521 133.355 1.53177C133.916 1.48343 136.454 1.67484 137.539 1.65774C137.826 1.65375 138.018 1.63662 138.071 1.59941C138.08 1.58945 137.544 1.51125 137.909 1.44054C138.391 1.34652 137.955 1.68989 138.507 1.73284C138.585 1.73911 140.127 1.73876 140.178 1.7182C140.649 1.53091 139.303 1.41932 139.315 1.39664C139.37 1.33982 140.494 1.33076 140.533 1.34541C140.575 1.36064 139.671 1.60214 140.751 1.52783C140.629 1.49358 140.507 1.45932 140.384 1.42505C140.892 1.37583 140.931 1.55852 141.062 1.57269C141.458 1.61724 141.885 1.35142 142.484 1.70698C142.651 1.80154 142.367 1.89508 142.391 1.90923C142.586 2.03576 142.856 1.71663 143.146 1.96684C143.165 1.98549 142.48 2.11385 143.675 2.14416C143.594 2.11883 143.513 2.09349 143.432 2.06815C143.586 2.01987 144.837 2.02108 144.987 2.0375C145.455 2.08584 145.036 2.24193 145.529 2.2351C145.231 1.99773 146.683 2.00748 146.602 2.20277C146.825 1.961 148.072 2.18819 148.649 2.21246C149.033 2.22781 149.775 2.14412 149.905 2.16135C150.052 2.18189 150.004 2.34926 150.264 2.39596C150.333 2.40911 151.119 2.31261 151.8 2.51553C151.935 2.55472 152.198 2.85267 151.95 2.91403C151.503 3.01788 150.739 2.7585 150.73 2.92781C150.745 3.10924 151.819 3.04228 152.108 3.07892C153.454 3.24766 152.663 3.40592 152.697 3.46554C152.771 3.61018 153.525 3.64288 153.547 3.65735C153.67 3.72034 153.148 3.80575 153.131 3.89177C153.124 4.00365 153.808 4.2429 153.65 4.27271C153.427 4.31403 152.766 4.11261 152.735 4.1196C152.201 4.20468 152.903 4.49665 153.112 4.63531C153.174 4.67767 152.917 4.72988 152.969 4.74397C153.752 4.95812 153.154 4.38653 153.671 4.44988C154.148 4.50849 153.52 4.64487 153.542 4.65582C153.566 4.66704 154.125 4.70775 154.206 4.77387C154.25 4.80414 152.791 5.05989 152.844 5.21364C153.311 5.20289 153.766 5.19372 154.224 5.1891C154.235 5.38391 153.605 5.20406 153.524 5.22046C153.385 5.25327 153.767 5.37236 153.748 5.43299C153.737 5.47142 153.267 5.58573 153.681 5.66577C153.821 5.69363 154.125 5.57296 154.615 5.74601C152.85 5.81453 154.064 5.99886 154.102 6.06949C154.149 6.14133 153.309 6.25303 154.326 6.28617C154.346 6.66669 154.296 6.40358 153.999 6.45233C153.649 6.51458 154.452 6.68219 153.174 6.51914C153.232 6.69799 154.263 6.74359 154.323 6.76357C154.37 6.77939 154.133 6.85154 154.214 6.88627C155.155 7.29279 154.505 7.09215 154.768 7.32981C154.781 7.34803 155.692 7.50885 154.995 7.48042C153.743 7.44248 153.226 7.17684 152.989 7.69987C153.907 7.97592 155.035 7.70905 155.317 7.73397C155.755 7.76942 155.295 7.83282 155.344 7.86881C155.368 7.88022 155.723 7.90972 155.732 7.92073C155.939 8.3412 154.114 7.776 153.485 7.82573C153.651 7.89607 153.807 7.96642 153.956 8.03677C153.753 8.02697 153.516 8.01617 153.303 8.0075C154.351 8.18876 153.323 8.05407 153.065 8.37376C153.004 8.44518 153.688 8.35215 152.9 8.51949C153.473 8.59626 153.287 8.65409 153.808 8.59014C153.793 8.72065 152.613 8.80833 152.147 8.85787C153.774 9.08442 152.873 8.54831 154.252 8.88898C154.518 8.74154 153.853 8.73052 153.904 8.70713C154.12 8.62274 154.554 8.80297 155.124 8.51013C155.217 8.46271 154.859 8.2545 155.411 8.31613C155.469 8.32196 155.798 8.51067 155.781 8.52053C155.734 8.62927 155.399 8.547 155.381 8.59474C155.363 8.63769 155.741 8.65357 155.733 8.66684C155.733 8.81184 155.418 8.68443 155.463 8.73575C155.505 8.78873 155.856 8.93623 155.92 9.03109C155.976 9.12973 156.01 9.15477 155.121 9.02242C156.53 9.02037 155.357 8.87023 154.74 8.89291C154.595 8.89765 154.541 8.9803 154.326 8.99563C154.054 9.01605 153.722 8.95503 153.578 8.96295C153.421 8.97225 154.298 9.22397 153.016 9.09445C153.659 9.32947 154.831 9.18187 155.393 9.3903C155.916 9.60061 155.725 9.66337 155.366 9.67627C154.997 9.68984 154.407 9.67093 154.289 9.67725C154.231 9.68081 154.419 9.81094 154.38 9.81547C154.333 9.81991 153.083 9.69309 152.964 9.78629C152.842 9.87674 153.406 9.80447 153.45 9.9083C153.466 9.97498 151.969 10.0231 152.776 10.1084C153.33 10.1652 154.365 9.95575 154.511 10.2629C153.72 10.2292 152.884 10.2126 152.063 10.2007C152.521 10.3324 152.96 10.465 153.397 10.6007C152.477 10.5861 151.685 10.4276 150.793 10.5534C152.909 10.9945 150.079 10.8102 150.056 10.8555C150.038 10.8806 150.88 11.2016 151.003 11.2599C150.251 11.3406 148.005 11.323 149.303 11.7238C149.077 11.6352 148.476 11.8158 148.481 11.8311C148.567 11.9917 149.818 11.9305 149.615 12.0669C149.351 12.2239 149.056 11.9889 148.673 11.9947C146.775 12.0297 147.265 12.8711 145.369 12.6878C145.406 12.7183 145.444 12.7487 145.481 12.7792C143.405 12.6761 141.319 12.579 139.243 12.4844C138.82 12.6013 138.102 12.6867 137.292 12.7351C136.542 12.7843 135.705 12.7972 135.185 12.772C134.978 12.762 133.924 12.6068 133.841 12.5818C133.693 12.5342 134.512 12.5348 134.144 12.4434C134.055 12.4243 132.29 12.3311 132.41 12.4749C132.611 12.4955 133.233 12.4377 133.332 12.4731C134.064 12.7256 128.535 12.4202 128.28 12.5113C128.401 12.5597 128.522 12.608 128.642 12.6563C128.297 12.6267 127.949 12.597 127.598 12.5674ZM143.821 1.58652C144.033 1.4502 144.571 1.57044 144.874 1.53866C145.28 1.49352 146.06 0.969075 145.721 1.50677C145.06 1.53206 144.476 1.55999 143.821 1.58652ZM134.655 1.16383C135.074 1.24897 134.743 1.54719 134.398 1.41283C134.359 1.39757 134.085 1.04913 134.655 1.16383ZM139.059 1.40624C139.042 1.40989 138.684 1.39366 138.671 1.38858C138.352 1.25871 139.431 1.30834 139.059 1.40624ZM117.753 1.12505C118.212 1.12063 117.885 0.836784 117.597 0.945533C117.579 0.952441 117.722 1.12512 117.753 1.12505ZM118.079 1.13863C118.437 1.39406 119.176 0.904399 118.595 0.944003C118.54 0.948053 118.061 1.12618 118.079 1.13863ZM136.15 1.31769C136.102 1.41191 135.654 1.35612 135.479 1.32953C135.483 1.24261 135.963 1.32424 136.15 1.31769ZM125.142 1.11517C125.118 1.18957 126.642 1.21592 126.741 1.11924C126.508 1.15639 125.157 1.04812 125.142 1.11517ZM121.279 1.14436C121.317 1.15806 121.839 1.14854 121.825 1.08218C121.573 0.990559 121.107 1.08241 121.279 1.14436ZM113.593 0.993657C113.564 1.00973 113.948 1.43745 113.024 1.14343C112.888 1.10037 113.377 0.999581 113.329 0.983602C113.228 0.952286 113.148 0.937075 113.083 0.933415C113.518 0.906647 113.967 0.898632 114.01 0.924945C114.211 1.0492 113.606 0.986967 113.593 0.993657ZM109.554 1.23244C109.464 1.29939 108.899 1.2524 108.77 1.22181C108.748 1.21609 108.848 1.03761 108.592 1.04644C108.386 1.05382 108.69 1.24401 108.29 1.20719C107.886 1.17018 108.429 1.04845 108.394 1.03842C108.347 1.02525 107.718 1.09675 107.741 0.989787C107.754 0.910475 108.427 0.976475 108.592 0.962583C108.805 0.944726 108.55 0.807558 108.904 0.842472C109.126 0.864301 108.998 1.09503 109.045 1.10765C109.084 1.11786 109.862 0.997949 109.553 1.23168C109.553 1.23193 109.553 1.23218 109.554 1.23244ZM112.968 0.94156C113 0.934286 113.038 0.9308 113.083 0.933415C113.044 0.935854 113.006 0.938811 112.968 0.94156ZM142.602 1.65838C142.379 1.58102 143.049 1.50527 143.288 1.60549C143.293 1.68151 142.64 1.67046 142.602 1.65838ZM112.567 1.12391C111.931 1.05374 112.402 0.982161 112.968 0.94156C112.788 0.982083 112.781 1.14737 112.567 1.12391ZM130.729 1.3817C130.702 1.36376 130.685 1.33632 130.684 1.29177C130.754 1.34192 130.76 1.36819 130.729 1.3817ZM129.234 1.27142C128.726 1.39663 129.751 1.41216 129.75 1.31512C129.742 1.27832 129.256 1.26647 129.234 1.27142ZM117.162 1.10056C117.208 1.11471 116.476 1.51034 117.533 1.22311C116.973 1.1642 117.566 1.13087 117.558 1.09485C117.537 0.991373 116.592 1.0725 116.381 1.02397C116.213 1.20523 117.009 1.05392 117.16 1.10054C117.161 1.10054 117.161 1.10055 117.162 1.10056ZM102.283 1.00241C102.412 0.896609 102.82 0.938604 103.095 0.949845C102.965 1.05561 102.555 1.01357 102.283 1.00241ZM30.4702 0.0448696C32.3387 -0.0400399 32.568 0.4019 30.8751 0.214334C30.8485 0.210466 30.3528 0.0885341 30.4702 0.0448696ZM46.5963 0.295307C46.7657 0.488605 46.2023 0.514442 45.8059 0.431728C45.7172 0.413129 45.3917 0.215987 45.7659 0.181305C45.7551 0.41368 46.323 0.507508 46.5963 0.295307ZM112.205 1.24004C112.017 1.36448 111.446 1.26286 111.143 1.23807C111.33 1.13619 111.94 1.19508 112.205 1.24004ZM36.6465 0.32491C36.8405 0.341057 36.9739 0.175314 36.9403 0.161149C36.7898 0.096205 36.4262 0.228076 36.6465 0.32491ZM114.055 1.29433C114.08 1.37124 113.317 1.43057 113.266 1.24063C113.43 1.25734 114.038 1.24603 114.055 1.29433ZM102.8 1.06893C102.917 1.10987 102.304 1.1686 102.122 1.12682C102.138 1.04574 102.722 1.04228 102.8 1.06893ZM39.8342 0.295233C40.008 0.31121 40.4461 0.319381 40.4957 0.252351C40.5563 0.168554 39.9137 0.191786 39.8342 0.295233ZM6.81155 0.197872C6.78776 0.167428 7.49137 -0.0470127 7.78246 0.00994187C8.35577 0.118974 6.84857 0.219433 6.81155 0.197872ZM34.7579 0.395259C34.2027 0.231982 34.8191 0.390758 34.7964 0.223471C34.4193 0.21433 33.4993 0.198537 34.1316 0.368032C34.2548 0.400831 34.5828 0.382995 34.7579 0.395259ZM35.2739 0.455427C35.3343 0.401795 35.7424 0.234531 35.3909 0.24384C35.2286 0.248403 34.9666 0.435854 35.2739 0.455427ZM11.0685 0.148837C11.5654 0.299821 9.2746 0.206323 9.20189 0.180077C9.1672 0.166185 9.14459 0.153152 9.13174 0.142149C9.04578 0.188514 8.62485 0.194473 8.576 0.0756035C8.70241 0.0861343 9.04841 0.0777582 9.09043 0.0911541C9.10799 0.0968538 9.12113 0.102181 9.13016 0.107572C9.28686 0.00551103 10.966 0.120101 11.0685 0.148837ZM14.8887 0.325861C14.2961 0.540125 14.2017 0.168475 14.2505 0.156853C14.8856 0.00921984 14.4703 0.280092 14.4893 0.293035C14.5326 0.314643 14.9903 0.190742 14.8869 0.325849C14.8875 0.325853 14.8881 0.325857 14.8887 0.325861ZM11.8513 0.214814C11.8287 0.219499 11.3571 0.205041 11.3298 0.199016C10.9368 0.0718368 12.2912 0.11233 11.8513 0.214814ZM106.509 1.43681C106.164 1.39372 106.505 1.26333 106.733 1.31655C106.752 1.32173 106.812 1.47488 106.509 1.43681ZM35.5516 0.420957C35.6424 0.447475 37.6747 0.561763 37.5531 0.354585C37.3892 0.377498 35.0559 0.251914 35.5516 0.420957ZM50.8344 0.603996C50.4761 0.599154 50.8682 0.408254 51.0595 0.482474C51.1304 0.510045 50.9247 0.605094 50.8344 0.603996ZM115.074 1.48996C115.448 1.39016 115.364 1.74702 115.044 1.61813C115.031 1.61308 115.059 1.49386 115.074 1.48996ZM47.9528 0.466258C49.2074 0.359657 48.8958 0.973307 47.2837 0.750809C47.3343 0.723801 47.3849 0.696793 47.4355 0.669786C45.5877 0.560876 47.3051 0.625161 47.7649 0.594762C47.9388 0.583197 47.7939 0.479001 47.9516 0.465512C47.952 0.465761 47.9524 0.466009 47.9528 0.466258ZM52.7402 0.633122C53.9547 1.0818 51.6293 0.775561 50.9834 0.826734C51.6184 0.651807 52.4516 0.686747 51.3236 0.491493C52.9767 0.47077 52.29 0.638798 52.3545 0.653868C52.4329 0.670831 52.6884 0.613861 52.7402 0.633122ZM49.5872 0.607433C49.5198 0.619586 48.9869 0.525718 48.7976 0.538549C49.0684 0.3915 50.0448 0.524748 49.5872 0.607433ZM18.8818 0.251974C18.8416 0.368802 18.7286 0.454255 18.3094 0.407521C18.4372 0.349576 18.7142 0.300924 18.8818 0.251974ZM144.209 2.21295C144.5 2.2288 145.056 2.28755 144.888 2.15997C144.872 2.14901 144.214 2.14391 144.209 2.21295ZM41.4895 0.566132C41.546 0.581003 43.1331 0.604432 42.5858 0.470444C42.4167 0.42999 40.9867 0.434192 41.4895 0.566132ZM33.4268 0.483608C33.5631 0.485945 34.0773 0.468104 34.0907 0.440511C34.1246 0.345031 33.492 0.392484 33.4268 0.483608ZM145.643 2.37062C145.686 2.38383 146.543 2.3859 146.448 2.32649C146.28 2.21422 145.516 2.32529 145.643 2.37062ZM105.245 1.68848C105.172 1.69149 105.08 1.56261 105.055 1.56075C104.997 1.55788 103.673 1.58319 104.181 1.42892C104.265 1.403 106.172 1.4999 106.421 1.52055C106.514 1.69689 105.701 1.5161 105.501 1.5305C105.466 1.53328 105.441 1.67895 105.246 1.68775C105.246 1.68799 105.245 1.68824 105.245 1.68848ZM16.7358 0.360499C16.6643 0.471002 15.1036 0.533885 15.1318 0.399572C15.6517 0.386403 16.1863 0.373377 16.7358 0.360499ZM17.5147 0.384292C17.844 0.465132 17.071 0.485719 16.851 0.449553C16.8478 0.374835 17.4652 0.372454 17.5147 0.384292ZM36.3797 0.922843C36.5398 0.897029 36.0494 0.73093 36.1597 0.700359C36.2315 0.681344 36.5842 0.745013 36.691 0.695237C36.7219 0.679393 36.3752 0.524208 36.2652 0.529869C36.1156 0.537406 36.2595 0.658448 36.0965 0.657908C35.5558 0.655976 35.0832 0.566586 34.5881 0.564492C34.5433 0.564536 34.8894 0.652022 34.5081 0.647679C34.4493 0.647175 34.0964 0.518211 33.6473 0.533221C32.6168 0.91516 31.8699 0.525785 30.602 0.656384C30.6609 0.693611 31.5956 0.799726 31.6559 0.803865C32.7337 0.876736 34.6474 0.899472 35.7854 0.909799C36.0784 0.912575 35.9369 0.82877 36.0633 0.826796C36.1636 0.825399 36.0427 0.977385 36.3797 0.922843ZM144.052 2.29355C144.188 2.44987 144.672 2.36559 144.968 2.3813C144.868 2.24077 144.358 2.33519 144.052 2.29355ZM24.5091 0.553707C24.6608 0.548955 25.1372 0.598607 25.1778 0.552908C25.2282 0.493206 24.5408 0.45008 24.5091 0.553707ZM97.774 1.51345C97.7592 1.51736 97.3935 1.50285 97.3797 1.4978C97.0549 1.36953 98.1519 1.41364 97.774 1.51345ZM89.0374 1.33578C88.7601 1.35003 88.4799 1.39315 88.3889 1.26764C88.5651 1.28955 89.0713 1.24997 89.0374 1.33578ZM76.983 1.14525C77.0376 1.30848 76.205 1.19037 76.0482 1.17339C76.1073 1.10213 76.9426 1.02761 76.983 1.14525ZM18.9366 0.762058C18.4294 0.74885 18.5267 0.995488 18.2013 0.881884C18.1486 0.862703 17.9767 0.349351 18.5465 0.545262C18.6473 0.580471 18.2523 0.699372 18.9366 0.762058ZM47.0223 0.743334C46.8928 0.849596 46.4929 0.814162 46.2247 0.803184C46.2852 0.723913 46.8288 0.749272 47.0223 0.743334ZM147.212 2.53727C147.432 2.69504 148.569 2.61684 148.291 2.50824C148.256 2.49393 147.357 2.54703 147.212 2.53727ZM110.899 1.70582C110.439 1.8168 111.385 1.8712 111.684 1.76003C111.55 1.76519 110.93 1.69853 110.899 1.70582ZM79.8774 1.27899C79.8554 1.28354 79.3733 1.26439 79.3519 1.25818C78.9586 1.12724 80.3228 1.18077 79.8774 1.27899ZM91.9071 1.58093C91.7311 1.67623 90.5922 1.57781 90.3379 1.47515C90.5865 1.33558 92.1243 1.46183 91.9071 1.58093ZM21.0351 0.707312C20.6734 0.709761 20.3133 0.676884 19.9806 0.631997C20.0464 0.549727 21.0067 0.645296 21.0351 0.707312ZM78.1092 1.26142C78.0834 1.26035 78.0585 1.2506 78.0339 1.24921C78.0595 1.25312 78.0847 1.25751 78.1092 1.26142ZM29.1587 0.827299C29.4621 0.86238 29.4006 0.710297 29.3818 0.705503C29.1528 0.654593 28.8163 0.78771 29.1587 0.827299ZM144.401 2.52765C144.508 2.66724 145.012 2.57424 145.308 2.61472C145.216 2.50416 144.646 2.51959 144.401 2.52765ZM54.0153 0.925046C54.3904 1.07683 52.8585 1.23507 52.5129 1.13633C52.496 1.04452 53.9641 0.904263 54.0153 0.925046ZM112.307 1.93707C112.336 2.04481 112.988 1.92754 112.851 1.87434C112.765 1.8405 112.29 1.87014 112.307 1.93707ZM51.7236 1.06662C51.5763 1.09799 51.2362 0.98911 51.3569 0.92574C51.5117 0.844506 51.7617 1.05759 51.7236 1.06662ZM38.6 1.03714C38.6631 1.05405 39.5391 0.951469 39.1784 0.839058C38.9281 0.760941 38.8874 0.915558 38.8286 0.915519C38.7608 0.914442 37.375 0.71308 38.6 1.03714ZM62.7631 1.12467C62.4374 1.16132 62.054 1.10812 61.7092 1.10629C61.8546 1.04199 62.6248 1.03466 62.7631 1.12467ZM109.784 1.91929C109.857 1.96394 112.013 2.02974 110.79 1.87375C110.715 1.86481 109.549 1.78365 109.784 1.91929ZM18.9366 0.762058C18.9993 0.763715 19.0716 0.769347 19.1559 0.780536C19.0722 0.775769 18.9996 0.767989 18.9366 0.762058ZM24.7135 0.820771C24.5942 0.8979 25.1913 0.923302 25.3713 0.88315C25.4258 0.788221 24.7286 0.809971 24.7135 0.820771ZM61.6817 1.21477C61.4836 1.25667 61.127 1.20409 60.8841 1.20595C60.9258 1.13397 61.5969 1.13988 61.6817 1.21477ZM75.4285 1.49849C75.0433 1.44942 74.5607 1.46184 74.5525 1.55047C74.5446 1.53648 74.5259 1.52147 74.4948 1.50619C74.4632 1.49105 74.0452 1.52592 73.8647 1.49286C72.7851 1.29626 78.0477 1.45159 74.9962 1.65512C75.141 1.60292 75.2843 1.5507 75.4285 1.49849ZM93.448 1.8159C93.6667 1.92764 94.2861 1.80281 94.1266 1.75755C94.0157 1.72651 93.2291 1.70341 93.448 1.8159ZM84.9566 1.73867C85.0222 1.75902 85.6271 1.69322 85.6436 1.6366C85.2974 1.57099 84.6576 1.64423 84.9566 1.73867ZM95.1421 1.97128C95.2803 1.98995 95.4601 1.81882 95.4439 1.81095C95.3043 1.74496 94.9109 1.87034 95.1421 1.97128ZM19.9774 1.23875C20.1806 1.29009 20.8575 1.16893 20.9981 1.05493C21.0238 1.07736 21.0934 1.10687 21.2219 1.14262C21.2215 1.14261 21.2211 1.14261 21.2207 1.14261C21.3853 1.19005 26.6824 1.28067 23.1536 1.03261C23.0395 1.02466 23.1934 1.12905 22.7308 1.10741C22.7003 1.10586 22.6857 1.02145 22.5919 1.01665C22.3716 1.00609 21.2436 0.944735 21.0253 1.011C21.0235 0.995359 21.0092 0.98039 20.9789 0.96653C20.695 0.84287 19.8148 1.19912 19.9774 1.23875ZM83.7606 1.73471C83.8814 1.7679 84.266 1.74447 84.307 1.67074C84.117 1.63118 83.4803 1.65729 83.7606 1.73471ZM109.845 2.22567C110.09 2.29135 110.717 2.18846 110.529 2.1242C110.413 2.08465 109.563 2.15024 109.845 2.22567ZM87.6105 1.7579C86.1937 1.64662 87.2719 1.75943 87.0529 1.86493C87.2388 1.82925 87.4246 1.79358 87.6105 1.7579ZM13.422 0.911885C13.6432 0.938437 13.3812 1.15198 13.1401 1.03361C13.0634 0.996014 13.2989 0.897439 13.422 0.911885ZM3.21131 0.919808C3.40423 1.11158 2.44662 0.994972 2.8175 0.865748C2.83167 0.861395 3.19382 0.912457 3.21131 0.919808ZM10.3416 1.03721C10.4937 0.908179 10.5892 0.893344 11.0264 0.928188C10.3825 0.960799 10.974 1.07941 10.3416 1.03721ZM74.5565 1.56451C74.5541 1.55922 74.552 1.5553 74.5525 1.55047C74.5552 1.55529 74.5564 1.55984 74.5565 1.56451ZM96.4757 1.96034C96.6512 2.07346 97.1477 2.07393 97.0018 1.96058C96.9877 1.95007 96.5498 1.88025 96.4757 1.96034ZM20.9981 1.05493C20.9753 1.03504 20.987 1.02237 21.0253 1.011C21.0269 1.02572 21.017 1.03954 20.9981 1.05493ZM93.8023 2.00434C93.8215 1.92251 93.0651 1.87772 93.0345 1.88686C92.5975 2.02193 93.4899 2.00396 93.8023 2.00434ZM114.851 2.43398C114.891 2.42614 114.644 2.20943 114.488 2.2896C114.367 2.3518 114.705 2.46386 114.851 2.43398ZM8.87334 1.08129C8.64734 1.07981 8.29422 1.07784 8.2325 0.976765C8.40242 0.993211 8.88082 1.00743 8.87334 1.08129ZM3.56883 1.05979C3.86183 0.942795 4.48972 0.946263 4.92141 0.968028C4.91416 1.12382 3.84655 1.02444 3.56883 1.05979ZM19.3307 1.17601C19.3488 1.18247 19.9468 1.23327 19.8663 1.12836C19.746 0.974506 19.1634 1.11807 19.3307 1.17601ZM113.685 2.2996C113.414 2.36639 114.032 2.59876 114.318 2.43354C114.466 2.34895 113.731 2.28842 113.685 2.2996ZM98.0277 2.13132C98.384 2.07712 97.5054 1.95432 97.3802 2.06127C97.5439 2.07285 97.9012 2.15051 98.0277 2.13132ZM85.9501 2.03808C87.0629 2.37097 86.4634 1.78713 86.2643 1.83433C86.2362 1.84107 85.923 2.03024 85.9501 2.03808ZM149.987 3.25327C150.151 3.21512 149.547 3.03613 149.476 3.13822C149.426 3.2018 149.876 3.27727 149.987 3.25327ZM69.1107 1.5707C69.1581 1.57039 69.2052 1.57005 69.2518 1.56984C69.2168 1.57446 69.1709 1.57545 69.1107 1.5707ZM101.242 2.60896C100.463 2.15098 100.539 2.49475 100.47 2.49169C100.323 2.48431 99.9795 2.35817 99.7006 2.37302C100.021 2.3286 100.342 2.28421 100.662 2.23981C100.408 2.20322 98.2252 2.00161 98.1771 2.07286C98.1097 2.17428 98.7991 2.15407 98.8189 2.16345C98.8475 2.17683 98.9501 2.46384 99.0137 2.47579C99.1164 2.49488 100.951 2.53289 101.242 2.60896ZM88.2893 2.02731C88.11 1.99043 88.0607 1.87662 87.9767 1.90224C87.9481 1.91101 87.9418 2.01869 87.8441 2.04495C87.9925 2.03907 88.1409 2.03319 88.2893 2.02731ZM102.657 2.23451C102.877 2.3701 101.88 2.30246 101.849 2.28716C101.68 2.19491 102.475 2.12368 102.657 2.23451ZM94.1782 2.10636C94.2139 2.11465 94.9823 2.16889 94.9771 2.09572C94.7745 2.03653 93.7487 2.00283 94.1782 2.10636ZM87.724 2.05033C87.4546 2.0333 86.9468 1.91641 87.0026 2.07963C87.003 2.07963 87.0034 2.07964 87.0038 2.07965C87.2438 2.06987 87.4839 2.06009 87.724 2.05033ZM112.756 2.62509C113.247 2.89272 113.019 2.56183 112.581 2.4703C112.445 2.58384 112.676 2.58153 112.756 2.62509ZM114.355 2.84764C114.495 2.89676 115.916 2.87252 115.705 2.73178C115.625 2.68151 114.808 2.78908 114.769 2.7789C114.712 2.76381 114.977 2.61746 114.538 2.63922C114.563 2.69095 114.308 2.83121 114.355 2.84764ZM113.165 2.79821C113.662 3.00405 113.78 2.64368 113.405 2.63569C113.258 2.63232 113.095 2.76853 113.165 2.79821ZM111.141 2.72983C111.32 2.76751 111.796 2.82645 112.125 2.71196C111.688 2.69356 111.248 2.67514 110.807 2.65673C110.755 2.72408 110.985 2.69673 111.143 2.72985C111.142 2.72984 111.142 2.72984 111.141 2.72983ZM0.580817 1.97589C0.968191 2.08004 0.0713265 2.1163 0.0215289 2.09113C-0.0930494 2.00695 0.404336 1.92929 0.580817 1.97589ZM152.959 6.66898C153.07 6.71547 153.139 6.85375 153.377 6.79545C153.154 6.684 152.883 6.57107 152.663 6.46124C152.471 6.68065 152.827 6.61714 152.959 6.66898ZM153.844 7.55051C153.808 7.55409 153.98 7.91475 153.547 7.65602C153.261 7.4799 154.894 7.42136 155.173 7.60995C154.837 7.65118 154.143 7.52202 153.844 7.55051ZM155.146 8.4432C155.124 8.38731 155.176 8.58767 155.339 8.81016C155.536 9.06321 155.631 9.11566 155.756 9.20084C155.956 9.31903 155.973 9.31022 155.965 9.3181C155.937 9.32103 155.789 9.30101 155.768 9.28847C155.617 9.21443 155.764 9.18312 155.895 9.18807C155.963 9.19036 156.028 9.20824 155.983 9.20564C155.945 9.19461 155.917 9.20747 155.734 9.1076C155.646 9.05427 155.577 9.01454 155.448 8.88646C155.316 8.75327 155.205 8.57369 155.146 8.4432ZM154.612 9.055C154.884 9.14359 154.262 9.14117 154.082 9.09166C154.071 9.02507 154.566 9.04096 154.612 9.055ZM4.54946 7.0728C4.86414 7.31276 5.16142 6.80122 4.66293 6.90202C4.63934 6.90676 4.53602 7.06106 4.54946 7.0728ZM155.766 9.59647C155.672 9.5474 155.746 9.52953 155.833 9.53027C155.879 9.53087 155.919 9.53693 155.905 9.53368C155.898 9.53147 155.874 9.52701 155.81 9.50367C155.757 9.48359 155.643 9.44108 155.478 9.32636C155.425 9.31233 155.68 9.50092 155.753 9.535C155.857 9.59228 155.891 9.60539 155.889 9.61143C155.884 9.62052 155.773 9.60216 155.766 9.59647ZM4.7707 7.64173C5.20564 7.81549 5.04674 7.23904 4.99962 7.2156C4.75916 7.12272 4.06172 7.34512 3.89249 7.40047C4.98105 7.31953 4.57436 7.55991 4.7707 7.64173ZM6.68866 7.30635C7.06941 7.24706 6.10796 7.12426 5.90613 7.28367C6.11842 7.27713 6.57063 7.32344 6.68866 7.30635ZM9.03258 7.50448C9.23379 7.52628 9.86652 7.57947 9.97397 7.48956C9.73809 7.50451 9.11655 7.41178 9.03258 7.50448ZM9.50196 7.77869C9.83247 7.90375 9.91514 7.54568 9.53138 7.65015C9.51656 7.6542 9.4899 7.77177 9.50196 7.77869ZM11.3338 7.91942C11.557 8.06343 11.7836 7.7176 11.45 7.70613C11.3437 7.70332 11.3107 7.90293 11.3338 7.91942ZM5.28763 8.2637C5.58618 8.32651 5.98378 8.07996 5.33453 8.04919C5.55899 8.01238 5.79096 7.97562 6.03054 7.93892C5.15193 7.79478 5.23829 8.14017 4.99614 8.12464C4.6383 8.10251 4.67228 7.81811 4.74192 7.7291C4.44909 7.90192 3.29146 7.89891 2.58328 7.92894C3.19338 8.00485 4.16625 8.13648 4.76419 8.18595C4.94322 8.20029 5.10701 8.1231 5.24626 8.13257C5.47405 8.14818 5.27088 8.25949 5.28646 8.26369C5.28684 8.2637 5.28724 8.2637 5.28763 8.2637ZM13.7234 7.93996C14.3466 8.10561 13.9516 7.75423 13.6022 7.81413C13.5872 7.81882 13.708 7.93591 13.7234 7.93996ZM155.026 5.38667C154.987 5.41414 154.914 5.46126 154.812 5.54032C154.761 5.57969 154.704 5.62679 154.64 5.68522C154.559 5.75729 154.452 5.86129 154.34 5.99658C154.225 6.13953 154.115 6.28461 153.978 6.554C153.823 6.85962 153.688 7.27989 153.67 7.74475C153.636 8.73389 154.072 9.4224 154.396 9.78493C154.59 9.99537 154.642 10.0267 154.743 10.11C154.834 10.1803 154.913 10.2332 154.983 10.276C155.118 10.3588 155.241 10.414 155.283 10.4291C155.398 10.4738 155.469 10.4899 155.521 10.4996C155.686 10.5188 155.684 10.4816 155.686 10.4682C155.667 10.4359 155.519 10.4206 154.699 10.501C155.377 10.3508 154.757 10.3554 154.891 10.283C154.996 10.2246 155.367 10.3176 155.163 10.1627C155.233 10.2062 155.355 10.2434 155.489 10.278C155.603 10.307 155.797 10.3587 155.674 10.3348C155.644 10.3263 155.551 10.3062 155.354 10.2115C155.232 10.1498 155.014 10.0379 154.743 9.78172C154.387 9.4858 153.76 8.49342 153.973 7.42192C154.219 6.37467 154.527 6.23805 154.704 6.01427C154.905 5.82253 154.956 5.79847 155.038 5.73882C155.187 5.64061 155.207 5.6361 155.242 5.61636C155.321 5.57781 155.224 5.61872 155.223 5.61164C155.223 5.61152 155.223 5.6114 155.224 5.61128C155.21 5.60897 155.191 5.52498 155.182 5.44486C155.156 5.3749 155.221 5.25783 155.026 5.38667ZM9.03011 8.41646C9.23496 8.84086 9.31794 8.16968 9.73656 8.52294C10.2804 8.0169 8.24318 8.51388 7.97417 8.08223C10.2258 8.14537 6.49664 7.64739 8.05699 8.30041C6.78627 8.05938 7.64002 8.37777 7.4431 8.45869C7.24926 8.54497 6.48937 8.44574 6.53505 8.60362C6.53546 8.60362 6.53584 8.60363 6.53625 8.60363C6.98079 8.59506 7.43312 8.58659 7.86792 8.57807C7.43351 8.23554 8.34958 8.34278 8.65798 8.62166C8.78063 8.55325 8.90466 8.48485 9.03011 8.41646ZM6.51835 8.08281C6.55408 8.09077 7.54685 8.04871 7.47143 7.98005C7.35886 7.93584 5.96274 7.98028 6.51835 8.08281ZM2.27082 8.13568C2.62083 8.13804 3.16622 8.20693 3.34504 8.07959C2.9921 8.07703 2.48097 8.00832 2.27082 8.13568ZM20.1271 8.26964C20.5719 8.16763 19.2071 8.12664 19.6008 8.25408C19.6192 8.26008 20.1044 8.27438 20.1271 8.26964ZM10.0456 8.35861C10.4825 8.49061 10.2762 8.0777 9.95416 8.183C9.93555 8.18921 10.0255 8.35259 10.0456 8.35861ZM155.635 10.7002C155.639 10.7523 155.525 10.7359 155.241 10.7002C154.971 10.6655 154.641 10.6226 154.551 10.6162C154.605 10.5734 154.952 10.5625 155.245 10.584C155.553 10.6065 155.668 10.6479 155.635 10.7002ZM1.65978 8.51034C2.33406 8.87576 3.30945 8.46153 3.38821 8.47107C3.48706 8.48087 3.33123 8.63865 3.35386 8.64301C3.39551 8.65206 4.49486 8.64421 4.54149 8.63345C4.57933 8.62504 4.38305 8.40127 4.60881 8.33225C4.19385 8.45655 2.20303 8.36794 2.08079 8.39226C2.00158 8.41164 2.59801 8.64812 1.66103 8.51035C1.66062 8.51035 1.66019 8.51035 1.65978 8.51034ZM3.64078 8.52083C3.36116 8.42609 4.15618 8.41829 4.31757 8.45359C4.72147 8.53273 3.6837 8.53207 3.64078 8.52083ZM5.47186 8.61624C5.55526 8.63761 6.35743 8.66098 6.41298 8.55735C6.07188 8.42059 5.26399 8.56632 5.47186 8.61624ZM14.2092 8.65512C14.4128 8.64315 14.9938 8.72693 15.0155 8.63624C14.8241 8.6482 14.2372 8.56446 14.2092 8.65512ZM151.934 11.2346C152.263 11.3248 151.51 11.3233 151.273 11.2778C151.269 11.2168 151.915 11.2269 151.934 11.2346ZM10.1141 9.22763C10.2214 9.25581 12.6794 9.20237 13.0487 9.16233C12.6877 9.09118 10.2529 9.07056 10.1533 9.10357C10.1218 9.11342 10.0992 9.22319 10.1141 9.22763ZM4.78406 9.23926C4.55071 9.37182 4.40782 9.21066 4.37956 9.2085C4.12098 9.18671 3.51395 9.2139 3.64827 9.08572C4.16218 9.14017 5.23611 8.97595 4.78406 9.23926ZM14.3826 9.26158C15.2347 9.21762 13.6035 9.06582 13.8204 9.2071C13.8329 9.21564 14.2935 9.26619 14.3826 9.26158ZM9.841 9.26495C9.62749 9.37163 7.20492 9.26416 6.78764 9.26181C7.1556 9.0645 7.42948 9.21748 7.90265 9.21005C8.0315 9.20781 7.99781 9.12468 8.01162 9.12463C8.23685 9.12209 8.06746 9.2169 8.20711 9.21917C8.32102 9.22043 10.0851 9.11409 9.841 9.26495ZM4.65167 9.33125C4.50552 9.4071 3.00581 9.43244 2.91441 9.41171C2.45425 9.25792 4.53744 9.30382 4.65167 9.33125ZM10.0651 9.44356C9.79744 9.67361 8.56291 9.51104 9.40532 9.40058C9.48214 9.39053 9.84198 9.49315 10.0651 9.44356ZM14.2905 9.48161C14.3338 9.4887 15.2144 9.54092 15.2226 9.46726C15.1161 9.43787 13.8131 9.40348 14.2905 9.48161ZM13.8349 9.72792C13.8562 9.7263 13.6522 9.58295 14.0611 9.60365C14.0962 9.60558 14.1547 9.76571 14.6818 9.71075C14.7911 9.69944 14.9515 9.59483 14.9392 9.58818C14.3851 9.33371 12.7906 9.80343 13.8349 9.72792ZM4.62243 9.46054C4.70639 9.5284 4.50096 9.72749 4.3257 9.62525C4.25108 9.58111 4.38938 9.46169 4.62243 9.46054ZM17.0599 9.56516C16.5591 9.68306 18.1297 9.71694 18.222 9.68656C18.1662 9.61054 17.1054 9.55361 17.0599 9.56516ZM151.121 12.1388C151.121 12.1389 151.121 12.1389 151.122 12.1389C150.718 12.0956 150.972 12.0045 150.954 12.0006C150.064 11.8185 150.29 12.0565 150.153 12.0784C149.856 12.1263 149.917 11.8499 149.393 11.9476C150.255 11.8065 149.475 11.8513 149.451 11.7516C149.38 11.3448 150.568 11.9791 150.984 11.9112C151.043 11.9017 150.623 11.7568 150.772 11.7257C151.249 11.6241 152.721 12.3101 151.121 12.1388ZM4.19076 9.64222C3.98998 9.75973 2.48756 9.63758 2.88639 9.54176C2.97333 9.52642 4.48362 9.47077 4.19076 9.64222ZM74.2832 10.4767C73.92 10.5738 74.7563 10.7073 74.9134 10.6298C74.9913 10.5912 74.4425 10.4341 74.2832 10.4767ZM80.1386 11.0073C80.5686 10.9933 81.025 10.5725 80.4921 10.6304C80.4359 10.6368 80.0902 10.9471 80.1386 11.0073ZM52.0063 10.4012C52.4568 10.5583 52.4327 10.2739 52.1006 10.2748C51.9835 10.2751 51.9921 10.3963 52.0063 10.4012ZM69.0793 10.5807C69.1237 10.5913 69.6456 10.5809 69.6258 10.5153C69.4354 10.4732 68.7891 10.5083 69.0793 10.5807ZM51.8627 10.4404C52.1306 10.3916 51.6716 10.1818 51.3454 10.3798C51.5103 10.3648 51.835 10.4453 51.8627 10.4404ZM10.9779 10.0773C11.2121 9.96206 11.8295 10.0012 12.1879 9.98346C12.2207 10.1349 11.2548 10.0516 10.9779 10.0773ZM78.321 10.8064C78.7278 10.7063 77.8614 10.6054 77.9389 10.7475C77.9498 10.7553 78.305 10.8107 78.321 10.8064ZM37.5628 10.3302C37.8565 10.2425 36.9278 10.1134 37.1823 10.274C37.1946 10.2806 37.5464 10.3351 37.5628 10.3302ZM33.4892 10.2441C33.7055 10.2763 34.65 10.2747 34.2832 10.1837C34.2251 10.1697 33.5052 10.1616 33.4892 10.2441ZM150.125 12.1863C150.239 12.3456 149.555 12.2847 149.447 12.254C149.409 12.2414 149.985 11.979 150.125 12.1863ZM54.9099 10.4522C55.141 10.4349 55.7447 10.4774 55.8527 10.3969C55.5657 10.4111 54.8349 10.2891 54.9099 10.4522ZM76.4703 10.7782C76.821 10.9525 77.4267 10.9453 77.2805 10.7225C76.6119 10.7268 77.3595 10.9219 76.4703 10.7782ZM50.3717 10.6085C50.5555 10.623 50.6989 10.4125 50.6782 10.4024C50.479 10.3057 50.1898 10.5244 50.3717 10.6085ZM64.3014 10.5959C64.3118 10.6866 64.9029 10.6539 64.8251 10.5946C64.799 10.5746 64.295 10.5226 64.3014 10.5959ZM18.7832 10.1811C19.058 10.2657 18.2108 10.3404 17.9632 10.2422C17.8401 10.1024 18.7518 10.1714 18.7832 10.1811ZM45.2235 10.5095C45.1931 10.6436 46.1409 10.576 45.7685 10.4614C45.6749 10.4327 45.2335 10.4647 45.2235 10.5095ZM36.3252 10.5942C36.9575 10.4392 34.3062 10.3035 35.0016 10.5089C35.0479 10.5235 36.2666 10.6072 36.3252 10.5942ZM32.0296 10.4588C32.1375 10.4773 32.0786 10.9281 31.6369 10.7505C31.579 10.7275 31.852 10.6104 31.8047 10.5827C31.7749 10.5669 30.819 10.4958 30.7772 10.506C30.7302 10.5176 30.7843 10.6627 30.7366 10.6786C30.6879 10.6963 30.0734 10.5643 29.7607 10.5604C29.1682 10.5533 29.1067 10.6733 29.0581 10.6733C28.9182 10.673 28.6842 10.5856 28.4042 10.5835C26.9569 10.5731 24.7603 10.6583 23.6291 10.3946C24.6247 10.5045 25.6261 10.4034 26.6126 10.3776C26.3114 10.6266 28.1083 10.1956 27.0559 10.4774C27.5712 10.4183 31.6802 10.4007 32.0284 10.4588C32.0288 10.4588 32.0292 10.4588 32.0296 10.4588ZM81.8271 11.1607C81.5611 11.3106 82.9135 11.2976 83.0316 11.1213C82.8532 11.0936 81.8599 11.1438 81.8271 11.1607ZM75.5886 11.4383C75.4624 11.463 75.3411 11.7623 74.6847 11.5995C74.6841 11.5995 74.6835 11.5995 74.6829 11.5994C74.4905 11.5519 74.7117 11.4819 74.6767 11.4552C74.6639 11.4443 74.0644 11.2853 74.5646 11.2688C75.3277 11.2436 74.6342 11.494 75.0386 11.5034C75.0877 11.5044 75.8552 11.3532 75.8114 11.3167C75.8068 11.3125 75.576 11.3434 75.5382 11.328C75.3955 11.2698 75.4668 11.1769 75.4467 11.1721C75.3822 11.1596 74.1649 11.3011 73.9902 11.1585C73.9347 11.1125 75.9264 11.039 76.0028 11.0637C76.0516 11.0793 76.0269 11.34 76.0773 11.3665C76.103 11.3797 76.9056 11.2943 77.0096 11.3199C77.0397 11.3273 77.0627 11.3352 77.0796 11.3416C76.9592 11.2589 77.6868 11.2761 77.6624 11.3669C77.6499 11.4025 77.1491 11.374 77.1315 11.3674C77.1237 11.3647 77.1169 11.3609 77.1106 11.3583C77.2117 11.4583 75.5219 11.4276 75.8846 11.5797C75.3943 11.6524 75.9572 11.3659 75.5886 11.4383ZM73.2312 11.5633C73.2821 11.5366 73.3331 11.5099 73.384 11.4832C72.529 11.5374 71.5374 11.3902 70.5506 11.3764C70.3005 11.3727 70.5856 11.5449 70.2586 11.4942C69.9967 11.4535 69.7093 11.2934 69.8522 11.2608C69.8869 11.2527 70.4192 11.3621 70.6875 11.3557C71.4795 11.3367 71.2823 11.1897 71.3285 11.1865C71.3796 11.1832 71.8778 11.292 72.1516 11.2916C72.8339 11.2903 73.1456 11.2066 74.08 11.3364C73.5385 11.4231 73.8308 11.6337 73.2312 11.5633ZM41.2848 10.8827C41.2509 10.973 40.6901 10.8878 40.4883 10.8993C40.5204 10.8087 41.0793 10.8942 41.2848 10.8827ZM124.884 12.2767C125.059 12.1314 123.777 12.0691 124.113 12.1996C124.188 12.2285 124.725 12.2724 124.884 12.2767ZM119.09 12.0729C118.917 12.1107 119.61 12.2311 119.61 12.116C119.61 12.0791 119.113 12.068 119.09 12.0729ZM62.1532 11.2548C62.1206 11.259 61.6496 11.2194 61.6325 11.2116C61.3228 11.0493 62.8771 11.1622 62.1532 11.2548ZM112.032 12.1229C112.635 12.0366 110.825 11.9608 111.376 12.0953C111.404 12.1019 112.003 12.1271 112.032 12.1229ZM109.511 12.1037C109.656 12.1011 110.292 12.1612 110.301 12.116C110.315 12.043 109.587 11.9796 109.511 12.1037ZM50.2426 11.1692C50.3056 11.3374 49.4887 11.2031 49.1796 11.2214C49.1168 11.0532 49.9531 11.1878 50.2426 11.1692ZM55.5749 11.3416C52.0241 11.441 52.7982 11.09 55.7896 11.262C55.793 11.3695 55.8015 11.3354 55.5749 11.3416ZM51.0087 11.2799C51.1388 11.1737 51.5433 11.2092 51.8187 11.2203C51.7681 11.2945 51.2052 11.2624 51.0087 11.2799ZM126.423 12.5377C126.2 12.6689 125.207 12.4818 125.384 12.4294C125.428 12.4181 126.508 12.4648 126.423 12.5377ZM61.8549 11.3941C61.9386 11.5583 60.8598 11.4768 60.7799 11.4396C60.4497 11.2894 61.7681 11.4289 61.8549 11.3941ZM45.1817 11.2675C44.9889 11.3934 44.4489 11.323 44.1049 11.3183C44.2621 11.2105 44.8846 11.2625 45.1817 11.2675ZM47.6679 11.3896C47.6458 11.3943 47.166 11.3785 47.145 11.3724C46.7529 11.2442 48.1107 11.2882 47.6679 11.3896ZM151.652 13.3875C151.639 13.391 151.285 13.3683 151.27 13.3629C150.958 13.2274 152.019 13.2963 151.652 13.3875Z" fill="#84E2F7"/>
</svg>
