<svg width="93" height="6" viewBox="0 0 93 6" fill="none" xmlns="http://www.w3.org/2000/svg">
<path d="M7.11891 3.01055C7.17523 3.00728 7.40612 3.01873 7.50845 3.01811C7.39032 3.05722 6.914 3.02244 7.11891 3.01055ZM17.3482 0.197063C17.2653 0.206041 17.1826 0.215024 17.1003 0.224013C17.3335 0.233208 17.6516 0.229648 17.874 0.241728C17.9103 0.243744 17.8157 0.27144 17.9016 0.273744C17.987 0.276033 17.9745 0.236505 18.0933 0.233704C18.2263 0.230669 18.8493 0.265538 19.0705 0.267542C19.9075 0.274951 20.6982 0.262121 21.5298 0.288776C20.6844 0.307461 21.5405 0.347682 21.7681 0.337892C21.8214 0.335639 21.8067 0.262207 22.6578 0.2913C23.1971 0.309779 22.7154 0.408358 23.5956 0.367051C22.9182 0.285268 23.5811 0.298757 24.123 0.303229C24.2107 0.303907 24.9885 0.324854 25.3066 0.325725C25.4187 0.326041 25.5905 0.289911 25.7406 0.290848C25.8439 0.291522 25.9219 0.313496 26.0763 0.314433C26.8054 0.319176 27.5007 0.326666 28.2227 0.343311C27.7991 0.436249 28.5538 0.389691 28.5891 0.394879C28.7615 0.423919 27.9795 0.421169 28.2883 0.441995C28.7204 0.444665 29.1571 0.447428 29.5766 0.449993C29.2282 0.433229 30.0393 0.373205 30.1914 0.407506C30.1292 0.319545 32.1454 0.509729 32.4531 0.484923C32.5185 0.479682 32.0938 0.430803 33.0766 0.463989C33.1835 0.467648 33.1427 0.493359 33.1988 0.491683C33.2175 0.491123 33.2889 0.466015 33.3861 0.45219C33.4696 0.441638 33.5612 0.438291 33.6551 0.460664C33.7333 0.479067 33.2322 0.523976 34.3274 0.523573C33.8944 0.429881 35.8438 0.50787 36.209 0.536872C36.1368 0.523968 36.0646 0.511069 35.9926 0.498174C36.3509 0.536323 36.4132 0.508724 36.493 0.511945C36.8133 0.524876 37.2566 0.563235 37.5593 0.566939C37.9152 0.571365 37.9128 0.518446 38.3221 0.547689C38.2253 0.533969 38.1286 0.520257 38.0321 0.506551C38.3137 0.515316 38.5967 0.524146 38.8809 0.533038C38.2221 0.58894 39.0224 0.53939 39.0758 0.539047C39.1601 0.538311 39.0384 0.564344 39.1795 0.563807C39.1937 0.563527 39.1748 0.536138 39.39 0.537744C39.839 0.541196 39.7677 0.573589 39.9568 0.577304C39.9742 0.57751 39.9137 0.551881 40.2414 0.553267C41.2856 0.557797 40.2352 0.57174 40.1957 0.574258C40.1436 0.577567 40.4965 0.68676 39.6158 0.631654C39.9111 0.649508 39.9403 0.695096 39.9735 0.696933C40.0028 0.698476 40.5178 0.703374 40.5465 0.702465C40.8007 0.692769 40.578 0.657177 40.6276 0.65276C40.6699 0.649237 41.2853 0.702799 41.4326 0.613689C41.7266 0.705416 41.2608 0.687261 40.765 0.689481C40.6933 0.705386 41.2358 0.734322 41.2647 0.734922C41.9674 0.750315 41.58 0.671657 41.7348 0.63028C41.8161 0.608642 42.1025 0.662834 41.8386 0.594114C42.4793 0.601749 42.0901 0.629502 42.1312 0.635806C42.1934 0.645109 42.419 0.632141 42.4463 0.635153C42.4871 0.639618 42.3445 0.658186 42.5055 0.669456C42.5322 0.67117 42.7929 0.639568 42.4583 0.614171C42.9058 0.629524 42.87 0.596807 43.0207 0.664544C43.3328 0.549847 43.2436 0.741533 43.3654 0.751107C43.6896 0.776427 43.5977 0.678772 43.6149 0.6745C43.7354 0.647341 44.6293 0.700568 44.8523 0.691947C44.7628 0.75872 44.1417 0.67641 44.0028 0.686615C43.5367 0.720424 44.6558 0.735932 44.3166 0.814692C44.4584 0.794177 44.6003 0.773672 44.7424 0.753178C45.0008 0.814737 44.6313 0.830465 45.3315 0.826289C45.447 0.780946 44.8366 0.822459 44.9597 0.787487C45.0321 0.766956 45.4382 0.771561 45.4465 0.760059C45.4548 0.746164 45.0875 0.754376 45.1458 0.734063C45.2747 0.690251 46.6058 0.765655 45.5912 0.767622C45.8738 0.77337 46.0175 0.869687 46.2639 0.846459C46.4234 0.83139 45.5315 0.682125 46.8736 0.737049C46.901 0.78159 46.3362 0.737436 46.3216 0.740446C46.3009 0.744826 46.4008 0.846229 46.4184 0.85153C46.4808 0.869039 47.8524 0.848224 48.1406 0.904899C48.0272 0.84492 49.177 0.919356 49.3021 0.904947C49.3355 0.900932 49.2118 0.86289 49.2475 0.860034C49.4702 0.843267 50.0703 0.920328 50.3496 0.928721C50.6618 0.938121 50.6229 0.906891 50.6404 0.907371C50.7777 0.912393 50.6675 0.930254 50.7514 0.932235C50.8782 0.935195 51.7501 0.96068 51.794 0.95749C51.8068 0.956469 51.6653 0.918395 51.8556 0.916494C51.8886 0.916171 51.8667 0.956637 52.4302 0.952785C53.1088 0.948198 51.9606 0.890194 52.2434 0.854197C52.6774 0.926059 52.6648 0.865137 52.7828 0.872808C52.8236 0.875551 53.1267 0.934583 53.4571 0.939533C53.2198 0.942004 52.9824 0.944491 52.745 0.946993C52.978 0.96178 53.431 0.961828 53.6227 0.976813C53.7163 0.984112 53.638 1.02451 53.8418 1.02844C53.8851 1.02905 54.059 0.930206 53.5244 0.963193C53.4827 0.925319 53.7358 0.9556 53.854 0.948129C53.8719 0.946951 53.9437 0.8872 54.0932 0.929179C54.129 0.939495 53.7317 1.10903 54.7484 1.00458C54.7811 1.00122 54.6683 0.9759 54.7003 0.972044C54.7222 0.969435 54.9805 0.98502 55.0091 0.982553C55.0384 0.979867 54.9142 0.952199 54.9491 0.948247C55.128 0.927861 55.3595 1.03104 54.9921 1.01437C55.1148 1.02949 55.2369 1.04459 55.36 1.05973C55.23 0.983087 55.5541 1.04399 55.7245 1.04604C56.8158 1.05927 56.0865 0.993062 56.2747 0.973146C56.577 0.941197 56.3439 1.06081 56.7917 1.0345C56.8338 1.03206 56.2922 0.964897 57.3502 1.02203C57.194 1.0201 57.0376 1.01818 56.8811 1.01626C56.9696 1.08948 57.4457 1.02584 57.482 1.02578C57.8973 1.0267 57.6165 1.04505 58.2327 1.02439C58.2878 1.02253 58.4065 1.04311 58.5246 1.03743C59.0139 1.01409 57.8824 0.998989 57.8524 0.969518C57.8378 0.95503 59.0545 0.990025 59.0967 0.997842C59.2736 1.03206 58.5437 0.996546 58.6819 1.03692C58.7342 1.05127 60.4662 1.06959 60.816 1.0932C61.2171 1.12042 61.3943 1.22134 61.3998 1.11337C61.5099 1.2224 61.6112 1.15269 61.6626 1.15478C62.2861 1.18115 62.287 1.18225 62.8187 1.1863C62.936 1.18723 63.0339 1.22205 63.0755 1.21773C63.0996 1.21509 63.0556 1.17945 63.1737 1.17199C63.3402 1.16189 64.3309 1.22405 64.4024 1.24507C64.4753 1.26609 63.9852 1.24203 64.0722 1.27571C64.428 1.28849 64.7652 1.28989 65.1269 1.30305C65.2762 1.30859 65.1989 1.3284 65.2633 1.33059C65.2911 1.33161 65.8051 1.32637 65.7833 1.3177C65.7347 1.2975 64.1434 1.26684 64.5635 1.23991C64.6431 1.23465 64.9274 1.29289 64.8838 1.23029C66.3021 1.2828 67.7208 1.336 69.134 1.38982C68.3247 1.4129 67.4057 1.34617 66.5516 1.32692C66.4331 1.32417 66.0386 1.3074 66.0861 1.33975C66.8158 1.36783 67.7084 1.37643 68.4114 1.41639C68.4338 1.41769 68.351 1.44326 68.4345 1.45002C68.591 1.46265 69.0975 1.43193 69.1813 1.44594C69.1958 1.44906 68.908 1.47771 68.9946 1.50352C69.2161 1.56973 69.2786 1.43868 69.4741 1.44579C69.6292 1.45142 70.625 1.54401 70.8832 1.51089C71.1514 1.47532 70.1406 1.46451 70.2173 1.43136C70.8952 1.41516 71.5952 1.47328 72.2378 1.48756C72.2493 1.48778 72.1504 1.45719 72.296 1.45756C72.5491 1.45818 72.6135 1.49938 72.7355 1.50923C72.8676 1.51978 73.3294 1.52773 73.3898 1.54385C73.3975 1.54595 73.3034 1.58216 73.2892 1.58284C73.0883 1.593 73.0178 1.54033 72.9995 1.53915C72.9307 1.5352 72.8622 1.55258 72.7991 1.54958C72.6951 1.54461 72.6383 1.52501 72.5003 1.5194C72.405 1.51546 72.4961 1.55255 72.4041 1.54829C72.3714 1.54662 72.0051 1.45733 71.972 1.53664C71.9697 1.56156 74.9143 1.68084 75.2202 1.67023C74.9666 1.65294 74.7052 1.63544 74.4578 1.61841C74.9679 1.65711 75.5983 1.61206 75.6355 1.70807C77.2908 1.76498 78.9475 1.82346 80.5968 1.8846C80.8601 1.89432 81.1175 1.90394 81.3693 1.91345C81.7026 1.93281 81.5187 1.98747 82.0851 1.98912C81.9406 1.96472 81.7939 1.94029 81.6453 1.91582C81.9441 1.93933 83.2174 2.01048 83.4153 2.00532C83.4398 2.00457 83.4823 1.95085 83.8054 1.95794C84.0895 1.96421 84.1308 2.00714 84.278 2.02058C84.405 2.03188 84.5535 2.02669 84.5907 2.0304C84.6198 2.03334 84.6306 2.05903 84.7001 2.06612C84.9184 2.08816 84.7448 2.01024 84.9565 2.10023C84.9043 2.10131 84.8519 2.10239 84.799 2.10347C85.0564 2.12522 85.4239 2.17694 85.0291 2.17969C84.9636 2.18028 85.0208 2.15805 84.9719 2.15619C83.0118 2.08637 84.5798 2.19245 85.2647 2.18183C85.4427 2.22476 86.4356 2.24407 86.4613 2.25273C86.5062 2.26504 86.3366 2.28661 86.5568 2.32125C86.6127 2.32802 87.9322 2.37004 87.4549 2.3956C87.3505 2.40027 86.7261 2.36111 86.5634 2.35563C86.9309 2.44811 87.7656 2.37797 87.8684 2.38647C88.2565 2.41803 87.1206 2.41553 87.9935 2.46842C88.6461 2.50964 88.0366 2.42606 88.2886 2.41755C88.4426 2.41273 89.1905 2.51358 89.1714 2.43982C89.4326 2.44872 89.2783 2.47768 89.31 2.48249C89.3433 2.48665 89.8617 2.50043 90.0192 2.52918C90.0391 2.53267 89.9741 2.56567 89.9941 2.57037C90.0385 2.57826 90.538 2.61414 90.5597 2.61417C90.5731 2.61317 90.4561 2.56856 90.5063 2.56524C90.559 2.55929 91.0539 2.62148 91.0878 2.6185C91.1264 2.60608 90.507 2.54734 90.6182 2.52277C90.8984 2.55883 91.3596 2.5916 91.5948 2.61136C91.5404 2.60695 91.2348 2.55811 91.1409 2.54407C91.1795 2.48613 91.8633 2.61519 91.6147 2.61148C91.7872 2.62516 91.6756 2.58794 91.7743 2.58871C91.7846 2.58263 92.0856 2.66647 92.1993 2.71726C92.2046 2.71827 92.1001 2.66378 92.0157 2.62858C91.9475 2.59784 91.8907 2.57408 91.9223 2.57741C91.9529 2.58235 92.0204 2.59422 92.1722 2.6563C92.2335 2.68352 92.3577 2.73243 92.5267 2.86656C92.6333 2.9593 92.7308 3.03389 92.8669 3.28374C92.9959 3.52061 93.0397 3.87532 92.9721 4.13658C92.8281 4.63387 92.6562 4.71635 92.566 4.82063C92.4769 4.90243 92.4071 4.95088 92.3627 4.98146C92.2656 5.04697 92.2166 5.07246 92.201 5.08065C92.1245 5.11506 92.1951 5.07249 92.3546 4.95262C92.4359 4.88575 92.553 4.81004 92.7177 4.58552C92.8089 4.45419 92.8952 4.29405 92.9352 4.0579C92.9714 3.83644 92.9324 3.65333 92.9147 3.5893C92.9107 3.58019 92.9352 3.65681 92.9405 3.81063C92.9491 3.95742 92.9032 4.19686 92.8304 4.34144C92.674 4.65827 92.5097 4.76113 92.4211 4.83163C92.2248 4.96827 92.1276 4.99767 92.1184 5.00338C92.0992 4.98747 92.1935 4.94108 92.3714 4.8031C92.4557 4.7307 92.5878 4.63626 92.726 4.38266C92.855 4.15749 92.8561 3.8157 92.8316 3.99944C92.7669 4.36382 92.6377 4.48255 92.5613 4.58152C92.4836 4.66945 92.4153 4.7243 92.3674 4.76059C92.2592 4.84121 92.1911 4.87685 92.1265 4.91178C92.184 4.87035 92.2513 4.82768 92.3689 4.72808C92.4197 4.68197 92.5009 4.61654 92.6053 4.46733C92.6631 4.37825 92.7176 4.29657 92.7683 4.10391C92.8155 3.92299 92.8065 3.67778 92.7301 3.4858C92.649 3.28009 92.5527 3.17699 92.4734 3.09729C92.3864 3.01403 92.3231 2.97357 92.2722 2.94152C92.1592 2.87325 92.0894 2.84676 92.0231 2.82099C91.8917 2.7723 91.795 2.74992 91.7179 2.73229C91.3926 2.66256 91.1554 2.6444 91.0588 2.65279C91.3827 2.69735 91.6322 2.69537 92.0994 2.89611C92.1622 2.92657 92.2505 2.97422 92.3408 3.04601C92.4556 3.14371 92.5953 3.25708 92.6967 3.5612C92.7904 3.84143 92.7024 4.16665 92.6344 4.28377C92.5636 4.42214 92.4928 4.4954 92.4513 4.53739C92.2659 4.70762 92.2232 4.69151 92.2021 4.68122C92.195 4.65412 92.266 4.61208 92.4238 4.40194C92.469 4.33802 92.5175 4.25551 92.5525 4.15304C92.5956 4.03284 92.6116 3.88201 92.5937 3.75716C92.5551 3.50737 92.4558 3.40623 92.4711 3.42623C92.4885 3.4664 92.5352 3.55104 92.5616 3.69133C92.591 3.82775 92.5709 4.03395 92.5107 4.16764C92.3931 4.42699 92.2691 4.50387 92.2034 4.56692C92.055 4.68832 91.9744 4.73698 91.9635 4.74411C91.9503 4.74901 91.9438 4.75013 91.9427 4.74822C91.9427 4.74822 91.9427 4.74822 91.9427 4.74821C91.9469 4.72608 92.0357 4.69607 92.2727 4.47809C92.3335 4.41168 92.4309 4.32767 92.5091 4.10026C92.613 3.84387 92.4761 3.45573 92.3652 3.35293C92.139 3.11357 92.0923 3.14511 92.0662 3.12259C92.0185 3.11478 92.0836 3.14308 92.2485 3.32012C92.3228 3.39698 92.4519 3.61866 92.445 3.80929C92.4436 3.99863 92.3849 4.08465 92.3847 4.08303C92.3806 4.08028 92.4794 3.87781 92.3727 3.60742C92.2526 3.3442 92.103 3.28868 92.0308 3.24528C91.8734 3.17157 91.8001 3.16944 91.8839 3.21383C91.9254 3.23978 91.997 3.2693 92.1066 3.35684C92.1744 3.41776 92.2571 3.47829 92.3247 3.67227C92.3885 3.85143 92.3205 4.07661 92.2724 4.14823C92.0566 4.45468 91.9904 4.41928 91.9787 4.44296C91.9607 4.44949 91.9779 4.43483 92.0346 4.38672C92.0628 4.36186 92.0948 4.33529 92.1471 4.27746C92.1863 4.22262 92.2825 4.15218 92.3155 3.90431C92.3268 3.78575 92.2923 3.6568 92.2366 3.56676C92.1836 3.4813 92.1393 3.44255 92.0921 3.40374C92.0131 3.34251 91.9536 3.31749 91.9119 3.29937C91.8332 3.26717 91.7769 3.25388 91.7747 3.25546C91.7678 3.25813 91.8479 3.28319 91.9819 3.37006C92.0386 3.41224 92.1512 3.48099 92.2244 3.65939C92.2913 3.83665 92.2381 3.97284 92.2366 3.97822C92.2286 3.98806 92.2598 3.91804 92.2378 3.77913C92.2146 3.63267 92.1086 3.51006 92.0283 3.45751C91.8859 3.36511 91.7856 3.35647 91.7305 3.35124C91.6453 3.34449 91.8738 3.44318 91.8317 3.43334C91.7728 3.38874 91.2387 3.28173 91.221 3.28888C91.1837 3.28863 91.296 3.33271 91.2775 3.33639C91.2556 3.34159 91.0884 3.30723 91.108 3.32C91.1258 3.32113 91.7552 3.53464 91.7502 3.58674C91.7192 3.59767 91.074 3.35457 91.654 3.66508C91.6616 3.66467 91.8135 3.72184 91.8156 3.73457C91.8512 3.78256 91.7493 3.724 91.7112 3.72833C91.6931 3.72818 91.6896 3.73226 91.7207 3.75101C91.7405 3.76913 91.8857 3.82099 91.7678 3.93737C91.8839 3.82308 91.724 3.76768 91.6665 3.74951C91.5918 3.72657 91.5397 3.71946 91.5077 3.71576C91.4453 3.70991 91.4542 3.72063 91.4897 3.7381C91.572 3.77193 91.7159 3.85441 91.6419 3.8603C91.6001 3.85637 91.2017 3.78696 91.1935 3.79347C91.2307 3.83297 91.3556 3.82968 91.3987 3.85647C91.4158 3.86596 91.0619 3.83993 91.1368 3.87655C91.1776 3.89049 91.5455 3.96348 91.5402 3.97366C91.6356 4.03197 91.5022 4.00728 91.5204 4.0308C91.5235 4.03639 91.5775 4.06097 91.5714 4.06131C91.5711 4.06038 91.5336 4.04678 91.4951 3.96733C91.4592 3.88797 91.4731 3.81648 91.4724 3.81425C91.4756 3.80048 91.4464 3.88347 91.4927 3.98622C91.5394 4.07758 91.5697 4.08341 91.5561 4.08655C91.5337 4.08776 91.4421 4.07535 91.4157 4.07698C91.3752 4.07744 91.5125 4.13399 91.4821 4.131C91.3401 4.11215 90.9042 3.97098 91.2893 4.14429C91.3171 4.15541 91.4434 4.18388 91.4431 4.18657C91.5067 4.23476 91.2858 4.17776 91.2275 4.19532C91.1423 4.22059 91.511 4.27205 91.2013 4.23946C91.3099 4.27278 91.4086 4.3048 91.4394 4.31949C91.4455 4.32209 91.449 4.3254 91.4289 4.31447C91.413 4.3001 91.3605 4.29367 91.262 4.1424C91.2081 4.05583 91.1702 3.91173 91.1878 3.78606C91.2059 3.65553 91.2471 3.59368 91.2745 3.55113C91.3292 3.47654 91.3405 3.48062 91.3368 3.48236C91.3492 3.49497 91.2961 3.42197 91.1918 3.75005C91.1437 3.93272 91.2603 4.17685 91.3165 4.22459C91.3825 4.29815 91.4101 4.30865 91.4251 4.32037C91.47 4.34713 91.3955 4.32214 91.3507 4.31999C91.2461 4.30799 91.1629 4.31062 91.1277 4.31939C91.0948 4.32902 91.1197 4.34664 91.1987 4.3716C91.2332 4.38322 91.2936 4.39961 91.3403 4.41467C91.3684 4.42332 91.3906 4.4316 91.3967 4.43472C91.3971 4.43488 91.3968 4.43672 91.3675 4.42068C91.3443 4.40234 91.2778 4.3867 91.1639 4.2185C91.3128 4.42579 91.3574 4.40656 91.3783 4.42905C91.3979 4.44071 91.3953 4.44102 91.3927 4.44322C91.3836 4.44575 91.3689 4.44908 91.3562 4.45339C91.3281 4.46139 91.3175 4.47478 91.2863 4.468C91.2603 4.45697 90.8621 4.33345 91.0275 4.49773C91.049 4.51684 91.2737 4.53711 91.1988 4.55858C90.6433 4.45688 91.1958 4.57707 91.184 4.5831C91.232 4.64238 89.6508 4.41866 89.3607 4.41934C89.0242 4.40716 88.7457 4.45479 88.665 4.4501C88.4377 4.43698 88.6282 4.41564 88.5781 4.40085C88.5306 4.38581 87.8576 4.41156 87.8242 4.40688C87.6932 4.38656 87.8289 4.35513 87.8153 4.35251C87.6475 4.31987 86.7634 4.3081 86.5014 4.2882C86.5115 4.31339 87.0172 4.33811 86.6997 4.36374C86.3207 4.3934 86.3128 4.28375 86.3019 4.27841C84.6107 4.20679 82.9135 4.14812 81.2341 4.09247C81.2438 4.15091 82.367 4.14535 82.3822 4.15371C82.5189 4.19969 80.983 4.15 80.5231 4.1197C80.4818 4.11687 80.4501 4.11418 80.4307 4.11175C80.4615 4.11505 80.4923 4.11835 80.523 4.12164C80.6695 4.13678 80.8141 4.15188 80.957 4.16694C80.85 4.18719 80.6967 4.18644 80.5211 4.17768C80.2209 4.1624 79.8501 4.12094 79.5662 4.13082C79.4241 4.13581 79.6956 4.17044 79.6895 4.17201C79.5284 4.1928 79.2796 4.16474 79.4667 4.13585C79.0903 4.15719 79.1469 4.1221 78.8548 4.10999C78.8396 4.10939 78.965 4.14041 78.7321 4.1442C78.6211 4.14587 78.0411 4.12763 77.9659 4.14893C77.9343 4.15788 78.221 4.27171 78.2589 4.18271C78.8933 4.24676 78.4637 4.14808 78.7104 4.15798C78.7468 4.15963 78.6644 4.20727 79.274 4.20313C79.1586 4.29018 78.4492 4.19967 78.3217 4.20668C78.0672 4.22121 79.1143 4.3013 79.2965 4.23647C79.2094 4.30453 79.3609 4.24808 79.5998 4.25872C79.8556 4.27017 79.7433 4.28763 79.8808 4.29221C80.2537 4.30491 80.1015 4.24991 80.4026 4.30489C80.2739 4.23866 80.3622 4.231 80.5189 4.24679C80.7267 4.26694 81.0416 4.3239 81.1729 4.34863C80.958 4.34534 80.739 4.34198 80.5158 4.33853C80.3454 4.33607 80.1727 4.33357 79.9977 4.33102C80.0199 4.33908 80.042 4.34713 80.064 4.35518C79.9613 4.35078 79.8578 4.34638 79.7536 4.34195C79.7705 4.33548 79.7874 4.329 79.8043 4.32253C79.2571 4.35045 79.1456 4.29562 79.0991 4.29354C78.5394 4.26964 77.9002 4.24993 77.329 4.23201C77.2443 4.22937 77.2955 4.27658 76.6869 4.22204C76.4909 4.20462 76.6778 4.17483 76.4542 4.17329C76.1709 4.26118 76.1777 4.18437 76.0937 4.18168C75.8488 4.17422 75.7107 4.19396 75.6874 4.1935C75.3967 4.1884 74.9646 4.17137 74.6352 4.16507C74.6294 4.16527 74.7974 4.19997 74.5874 4.1849C74.5159 4.17962 73.8637 4.03347 73.2761 4.05745C73.4258 4.07042 73.5798 4.08352 73.7304 4.09653C73.5461 4.07905 72.3165 4.0749 72.6158 4.11759C72.8018 4.14374 73.2537 4.0754 73.2999 4.15527C72.898 4.1197 70.6112 4.08861 70.4331 4.06546C70.4089 4.06216 70.559 4.04099 70.5255 4.03677C70.5002 4.03356 69.9814 4.02478 69.9119 4.01303C69.8709 4.00605 70.1015 3.997 70.083 3.9873C70.0677 3.98031 69.4149 3.95085 69.3757 3.98168C69.5378 3.97345 69.9877 3.99743 69.7507 4.01761C69.7203 4.02008 69.5631 3.99503 69.5258 3.99821C69.1814 4.02755 70.2077 4.04729 70.3623 4.05207C69.7231 4.07446 68.7289 3.99838 67.9827 4.00406C67.681 3.96905 68.4317 3.97597 68.0905 3.94441C67.3812 3.87896 67.9005 3.97585 67.8784 3.97861C67.6972 4.00034 67.1126 3.84042 67.1075 3.94964C66.8523 3.92611 66.9359 3.91463 66.5732 3.91891C66.6207 3.9278 66.6681 3.93668 66.7156 3.94556C66.3083 3.99762 65.47 3.81484 65.5327 3.80437C65.7048 3.77645 66.1427 3.83937 66.18 3.83918C66.2355 3.8389 66.3965 3.73233 67.0052 3.84841C67.2586 3.78098 66.0346 3.77135 66.5931 3.73605C66.2136 3.73382 64.6772 3.64002 64.4542 3.6667C64.4276 3.67025 64.5488 3.74768 64.1701 3.69968C63.9903 3.67684 64.4251 3.68775 64.343 3.66863C64.0905 3.60963 60.6286 3.55038 59.9674 3.53617C59.9249 3.53514 59.9411 3.51255 59.8993 3.51167C59.7711 3.50895 59.3015 3.53101 59.0707 3.51443C59.5478 3.56944 58.6189 3.54859 58.3821 3.53781C58.025 3.52144 58.048 3.48155 57.8936 3.46896C57.2982 3.42041 56.3705 3.49288 55.9097 3.39133C55.9331 3.48113 55.1078 3.32729 54.7326 3.31711C54.4381 3.30907 54.0089 3.35737 54.4058 3.40327C53.8971 3.38641 53.3609 3.38971 52.8838 3.38333C52.8049 3.38229 52.9141 3.35861 52.7795 3.35766C52.7672 3.35777 52.7497 3.38319 52.6341 3.38302C51.6794 3.38203 52.145 3.33858 51.9668 3.31804C51.8672 3.30655 51.7935 3.30025 51.7395 3.29744C52.2958 3.30601 52.9376 3.31173 53.109 3.31526C52.9643 3.25455 51.8761 3.29577 51.5583 3.27267C51.5473 3.27184 51.5865 3.24133 51.5753 3.24084C51.5751 3.24083 51.5749 3.24083 51.5746 3.24082C51.4554 3.23547 50.6959 3.22859 50.8513 3.26989C50.893 3.28093 51.2424 3.28941 51.6571 3.29615C51.5447 3.30044 51.6276 3.33772 51.6078 3.33874C51.3673 3.35026 50.78 3.30155 50.5716 3.29186C50.524 3.28969 50.5268 3.31234 50.519 3.3122C50.3295 3.30248 50.4089 3.23992 50.2125 3.30167C49.8707 3.21303 50.8568 3.30534 50.7884 3.25151C50.7362 3.20993 48.542 3.17871 48.5468 3.24225C48.5394 3.2353 48.5094 3.22618 48.4477 3.21515C48.3107 3.19064 47.6999 3.1828 47.5945 3.19199C47.5767 3.19386 47.5823 3.25544 47.5603 3.25548C47.5055 3.25559 46.7601 3.18987 46.4801 3.21966C46.6305 3.23179 46.781 3.24392 46.9316 3.25607C46.0213 3.23527 46.1622 3.2569 46.4645 3.28232C46.4796 3.28284 46.4943 3.28551 46.5088 3.2861C46.7433 3.30517 47.0447 3.32533 47.0492 3.33028C47.065 3.34909 45.5231 3.32341 45.8211 3.27338C45.8623 3.26653 46.575 3.30852 46.2228 3.25964C46.161 3.25107 45.7033 3.25203 45.6795 3.247C45.5192 3.21346 46.5195 3.19714 46.3985 3.15198C46.1546 3.18661 45.8438 3.15814 45.5659 3.16211C45.4392 3.16388 45.4069 3.19394 45.3913 3.19416C45.1567 3.19678 45.289 3.16754 45.2108 3.16654C45.1687 3.16612 44.7062 3.22422 44.7955 3.13151C43.2796 3.16654 44.3725 3.19135 45.3058 3.20757C45.01 3.23524 44.4338 3.20532 44.1759 3.20745C44.0833 3.20824 44.1374 3.2411 43.981 3.24386C43.6547 3.24935 42.1198 3.17845 41.7149 3.16098C41.9621 3.1553 41.8906 3.11927 41.7 3.11741C41.5095 3.11558 41.6684 3.16508 41.6312 3.1692C41.5897 3.17337 40.7039 3.13212 40.5513 3.13476C41.2247 3.1329 41.0753 3.09526 40.5023 3.0791C40.5853 3.07102 40.6685 3.06295 40.7517 3.05489C40.4143 3.06136 39.7125 2.99371 39.5203 3.00516C39.4901 3.00701 39.5979 3.03823 39.5809 3.03927C39.4135 3.0479 38.8343 3.00601 38.8073 3.01529C38.7842 3.023 39.0308 3.0525 38.9388 3.06245C38.9196 3.06454 38.6822 3.02042 38.4485 3.02504C38.3618 3.02673 38.4134 3.05514 38.3915 3.05626C38.2096 3.06553 38.3175 3.02182 37.9862 3.02219C37.7452 3.02257 37.5596 3.06362 37.2223 3.04167C38.3337 3.12233 37.3967 3.07865 36.9348 3.08642C36.861 3.08766 36.9224 3.1385 36.4825 3.10526C37.4213 3.03506 36.2205 3.0524 35.967 3.04629C35.9533 3.0457 35.9492 3.01292 35.8272 3.0099C35.8169 3.00972 35.8312 3.03211 35.7179 3.03149C34.6476 3.02573 35.3325 3.01468 35.1298 2.98878C35.0449 2.97777 34.5235 2.99855 34.3815 2.9965C34.3491 2.99593 34.3644 2.97327 34.2392 2.97168C34.0178 2.96894 33.8203 2.98949 33.6755 2.98859C33.6587 2.98837 33.6582 2.95213 33.3846 2.95853C33.3714 2.95884 33.3579 2.95943 33.3451 2.96025C33.2883 2.96464 33.2433 2.97432 33.3362 2.98422C33.3411 2.98474 33.3461 2.98524 33.3511 2.98573C33.708 3.02409 34.3905 2.98029 34.8021 3.0223C35.1797 3.06099 33.9843 3.04003 33.9244 3.0391C33.9018 3.03877 34.1339 3.02536 33.8985 3.01716C33.7641 3.01252 33.5551 3.03581 33.3435 3.04592C33.2425 3.05157 33.1341 3.05389 33.0335 3.04801C33.0102 3.04668 32.7683 2.99031 32.7796 2.98737C32.7895 2.98524 33.1629 2.97886 33.109 2.96277C33.1024 2.96093 32.8652 2.95802 32.8346 2.94618C32.7969 2.93175 32.697 2.79384 32.6467 2.78973C32.5176 2.7795 32.6012 2.81179 32.5178 2.80848C32.338 2.80144 31.7241 2.75269 31.7043 2.79974C31.8053 2.80393 31.9065 2.80812 32.0081 2.81231C31.4443 2.80949 31.6848 2.83292 31.6048 2.8407C31.5192 2.84914 31.5436 2.80787 31.3553 2.80141C31.3221 2.80009 30.5067 2.79773 30.5229 2.81541C30.9705 2.79368 30.8044 2.84285 30.8249 2.84404C30.9035 2.84845 31.0045 2.82099 31.1106 2.823C31.8316 2.8373 31.1041 2.87294 31.2741 2.88695C31.3325 2.89168 31.4495 2.86865 31.4744 2.87025C31.5552 2.87543 31.5561 2.90768 31.6102 2.9058C31.7365 2.90147 31.5897 2.85386 31.5998 2.85163C31.7125 2.82461 32.1565 2.86619 31.8792 2.91203C32.045 2.93218 32.0654 2.87214 32.1973 2.89806C32.4599 2.9494 32.0655 2.93174 31.9594 2.93822C31.5756 2.96159 31.4743 2.93705 30.9262 2.93755C30.7275 2.93765 30.4935 2.9638 30.4024 2.96418C30.3441 2.9644 29.8063 2.85522 29.789 3.01454C29.5805 2.99631 29.257 2.88684 29.0454 2.88883C28.8512 2.89063 28.9109 2.94787 28.893 2.94981C28.8646 2.95286 28.6264 2.94525 28.5463 2.95216C28.4522 2.96034 28.4987 2.9825 28.3499 2.9893C27.9804 3.0062 27.9919 2.94875 27.954 2.9445C27.5179 2.89547 27.7083 2.97993 27.6115 2.98523C27.5272 2.99013 26.2544 2.94193 25.9863 2.95921C26.095 2.94908 26.2041 2.93896 26.3136 2.92885C26.1183 2.89037 25.9119 2.94631 25.9091 2.88183C25.868 2.98533 25.4704 2.91064 25.3521 2.91181C25.3053 2.91231 25.3087 2.93008 25.2502 2.93009C25.0298 2.93036 24.4886 2.90931 24.3647 2.91672C23.8123 2.94836 25.229 3.03086 25.3237 3.036C25.1214 3.03222 23.8514 3.03928 24.4302 3.0967C24.519 3.10555 24.6779 3.06103 24.7283 3.05985C25.0696 3.05224 24.8007 3.09052 24.8274 3.09483C24.8739 3.10183 25.0958 3.06435 25.1515 3.06987C25.1707 3.07166 25.0468 3.10784 25.3616 3.11269C25.2148 3.14741 24.3001 3.10584 24.1842 3.11297C24.143 3.11553 24.4018 3.19706 23.6382 3.11134C23.6469 3.11872 23.6557 3.1261 23.6644 3.13347C23.2455 3.13115 22.8096 3.12865 22.3786 3.12625C22.4255 3.1101 22.6678 3.07951 22.3633 3.08283C22.1884 3.08477 22.3173 3.12367 22.3013 3.12455C22.1425 3.1327 19.4 3.08655 18.84 3.08415C18.656 3.08329 18.1536 3.10727 18.1164 3.10739C17.8891 3.10767 17.0513 3.07831 16.8942 3.08072C16.793 3.08225 16.8888 3.11454 16.7985 3.11203C16.7147 3.10965 16.8019 3.08054 16.777 3.07899C16.5819 3.06574 14.9847 3.08689 14.6031 3.05425C14.8519 3.06555 15.9734 3.01818 15.9599 2.9968C15.9546 2.99383 15.6739 2.96768 15.6166 2.97821C15.5215 2.95103 15.1968 3.02674 15.0239 3.00918C15.0019 3.00716 15.0901 2.96361 14.7635 2.95183C14.6519 2.94781 14.3607 2.97925 14.0752 2.93714C13.6778 2.95127 11.4571 2.86942 11.3155 2.91591C11.3107 2.91838 11.6171 2.93811 11.4098 2.95556C11.1358 2.97876 11.3813 2.89341 11.065 2.88249C11.0197 2.88084 10.105 2.88022 10.0828 2.88546C9.81309 2.93203 10.5906 2.96006 10.5831 2.96574C10.5525 2.97985 9.90486 2.98191 9.88184 2.97828C9.85586 2.97447 10.3814 2.91445 9.74987 2.93278C9.82782 2.9414 9.89458 2.94989 9.96716 2.95845C9.67591 2.97069 9.63427 2.92503 9.56298 2.92154C9.33258 2.91045 9.08496 2.97667 8.73349 2.8883C8.63948 2.86483 8.7958 2.84137 8.78386 2.83788C8.67491 2.80647 8.5151 2.886 8.34211 2.8238C8.33021 2.81918 8.73355 2.78688 8.0276 2.77988C8.07559 2.78614 8.12382 2.79242 8.17228 2.79869C8.07379 2.81066 7.36277 2.81149 7.26231 2.8075C6.98187 2.79589 7.22547 2.75656 6.94675 2.75891C7.12913 2.81767 6.26753 2.81708 6.31667 2.76843C6.19954 2.82903 5.46261 2.77476 5.1291 2.77041C4.91956 2.76768 4.4628 2.7907 4.4019 2.78704C4.31915 2.78249 4.35046 2.74066 4.19603 2.73C4.14202 2.72687 3.71255 2.75414 3.30305 2.70734C3.22541 2.69833 3.06793 2.6257 3.20862 2.60897C3.45882 2.58039 3.91062 2.64159 3.90663 2.59938C3.90194 2.5542 3.27847 2.57599 3.11417 2.56884C2.34291 2.53566 2.78735 2.49112 2.76943 2.47643C2.71039 2.44068 2.31118 2.4388 2.28143 2.43542C2.20843 2.42079 2.50957 2.39508 2.51081 2.37356C2.52226 2.34559 2.1079 2.29195 2.20211 2.28319C2.34822 2.27081 2.70063 2.31563 2.73049 2.31385C3.04752 2.28907 2.61106 2.22094 2.50263 2.18832C2.46825 2.17827 2.6056 2.16321 2.57713 2.16012C2.14659 2.11334 2.48635 2.25048 2.18559 2.23929C1.92006 2.22936 2.26154 2.18925 2.25336 2.18685C2.23693 2.18414 1.92286 2.17957 1.87979 2.16421C1.84394 2.15636 2.67592 2.07962 2.63729 2.04225C2.38794 2.04855 2.10308 2.05465 1.85539 2.0611C1.83941 2.01257 2.20144 2.05078 2.24748 2.04614C2.32818 2.03671 2.10394 2.01058 2.11472 1.99536C2.11868 1.98564 2.38178 1.95281 2.14511 1.93678C2.06313 1.93125 1.90573 1.96404 1.60676 1.92733C2.62039 1.89012 1.91532 1.85797 1.895 1.84067C1.86215 1.82329 2.3432 1.78632 1.75744 1.78934C1.73002 1.69494 1.77649 1.75968 1.94003 1.74428C2.14241 1.72538 1.66283 1.69086 2.42054 1.71991C2.37086 1.6754 1.78609 1.67433 1.7416 1.67054C1.71302 1.66715 1.85182 1.64642 1.80234 1.63872C1.23852 1.54963 1.62526 1.5912 1.46661 1.5357C1.44737 1.53068 0.91572 1.50707 1.32029 1.50176C2.05921 1.49224 2.37759 1.55726 2.49298 1.42446C1.94294 1.36227 1.28245 1.44414 1.12055 1.44461C0.864231 1.44511 1.1355 1.41955 1.0999 1.41169C1.09677 1.4092 0.860379 1.40999 0.862726 1.40785C0.705351 1.30486 1.84552 1.41238 2.19312 1.39734C2.09628 1.38138 2.00283 1.36545 1.91273 1.34955C2.03512 1.3498 2.16369 1.35011 2.29851 1.35049C1.67762 1.31533 2.27306 1.33866 2.43303 1.25733C2.47218 1.23908 2.06193 1.26785 2.52147 1.21971C2.19164 1.20537 2.2806 1.18916 1.98158 1.21028C1.98663 1.17721 2.67469 1.1449 2.96298 1.1302C1.99003 1.08567 2.53825 1.21104 1.70358 1.14094C1.54308 1.18079 1.96037 1.1757 1.92024 1.18219C1.79394 1.20561 1.54008 1.16523 1.19381 1.24818C1.14127 1.26183 1.36295 1.30627 1.03452 1.30212C0.990793 1.30154 0.779707 1.26348 0.785337 1.26086C0.808507 1.23218 1.02312 1.24428 1.03571 1.23234C1.04102 1.22098 0.801294 1.22637 0.804355 1.22324C0.794995 1.18708 0.999496 1.21062 0.970824 1.19915C0.909365 1.17419 0.0525017 1.09139 1.1673 1.12089C0.251486 1.1561 1.05197 1.1599 1.41221 1.14666C1.50799 1.14337 1.52195 1.1219 1.65312 1.11531C1.82646 1.10681 2.01975 1.11853 2.10527 1.11519C2.20062 1.11152 1.6627 1.05665 2.44142 1.07753C2.04007 1.02383 1.35523 1.07313 0.970372 1.03522C0.204403 0.958677 1.51444 0.951158 1.64796 0.945304C1.68412 0.943662 1.56324 0.913725 1.58741 0.912106C1.62607 0.909578 2.37651 0.928365 2.45213 0.904883C2.52893 0.881375 2.17326 0.903939 2.15097 0.878686C2.14259 0.861671 3.0338 0.83837 2.55052 0.823192C2.21824 0.812746 1.58575 0.876271 1.49306 0.802673C1.99621 0.800002 2.46775 0.79741 2.97933 0.795317C2.69205 0.765318 2.4505 0.735725 2.16107 0.705853C2.7192 0.701082 3.194 0.73614 3.72647 0.70069C2.4558 0.601502 4.1326 0.63287 4.15853 0.622372C4.16124 0.615903 3.66182 0.53954 3.59002 0.525762C4.01724 0.501302 5.37454 0.499416 4.58316 0.403406C4.72122 0.424719 5.08518 0.378149 5.07338 0.374298C5.02758 0.334452 4.26991 0.353542 4.39637 0.319031C4.53495 0.278889 4.73221 0.336612 4.95939 0.334108C6.07574 0.320603 5.76834 0.112069 6.9023 0.155142C6.88048 0.14761 6.85872 0.14008 6.83702 0.13255C8.06679 0.155726 9.2845 0.179508 10.5068 0.203861C11.0031 0.146132 12.275 0.1214 12.8891 0.135104C13.0109 0.137775 13.65 0.177793 13.6878 0.184004C13.7763 0.196062 13.2956 0.194977 13.5139 0.218164C13.5607 0.222919 14.5964 0.248337 14.5268 0.212419C14.4074 0.206997 14.0405 0.220566 13.9817 0.211631C13.5498 0.147509 16.8093 0.231746 16.9518 0.20982C16.881 0.197576 16.8104 0.185335 16.7401 0.173098C16.9408 0.181052 17.1435 0.18904 17.3482 0.197063ZM7.94812 2.91886C7.83018 2.95299 7.52218 2.92352 7.3367 2.93166C7.08155 2.94309 6.66848 3.07506 6.84769 2.94059C7.19915 2.93314 7.60108 2.92623 7.94812 2.91886ZM13.3227 3.02734C13.0726 3.00565 13.2667 2.93174 13.4734 2.96563C13.4966 2.96948 13.6634 3.05661 13.3227 3.02734ZM10.7377 2.9635C10.748 2.9626 10.9662 2.9669 10.9742 2.96818C11.1692 3.00075 10.5122 2.98763 10.7377 2.9635ZM23.229 3.0699C22.9617 3.06981 23.1548 3.14137 23.3207 3.11502C23.3311 3.11334 23.2465 3.06996 23.229 3.0699ZM23.0363 3.06564C22.8212 3.00102 22.3908 3.12108 22.7325 3.11273C22.7654 3.11187 23.0461 3.06877 23.0363 3.06564ZM12.4444 2.98753C12.4716 2.9641 12.7222 2.97827 12.831 2.98514C12.8274 3.00676 12.5484 2.986 12.4444 2.98753ZM18.8884 3.05469C18.8965 3.03613 18.0219 3.02672 17.9642 3.05063C18.0995 3.04179 18.8757 3.07129 18.8884 3.05469ZM21.1622 3.05618C21.1391 3.05267 20.8293 3.05376 20.8384 3.07033C20.9885 3.09376 21.2649 3.07204 21.1622 3.05618ZM25.6624 3.1142C25.6793 3.11028 25.4518 3.0026 25.9917 3.07853C26.0711 3.08965 25.7868 3.11333 25.8151 3.11745C25.874 3.12555 25.9207 3.12957 25.9583 3.13067C25.7057 3.13607 25.4465 3.13681 25.4216 3.13013C25.3041 3.09861 25.6548 3.11582 25.6624 3.1142ZM28.0281 3.06711C28.0801 3.05071 28.414 3.06426 28.4906 3.07232C28.5037 3.07381 28.4458 3.11794 28.5972 3.1166C28.719 3.11544 28.5375 3.06705 28.7749 3.07756C29.0152 3.08814 28.6935 3.11664 28.7146 3.11926C28.7427 3.12269 29.1145 3.107 29.0995 3.13354C29.0954 3.15329 28.6952 3.13457 28.5976 3.13748C28.4721 3.14123 28.6236 3.17624 28.4143 3.16637C28.283 3.1602 28.3566 3.10315 28.3289 3.09985C28.3052 3.09717 27.8486 3.12453 28.0288 3.0673C28.0286 3.06724 28.0284 3.06717 28.0281 3.06711ZM26.0267 3.12899C26.0076 3.1307 25.9853 3.13146 25.9583 3.13067C25.9812 3.13018 26.0041 3.12956 26.0267 3.12899ZM8.66619 2.90045C8.79803 2.91965 8.40558 2.93871 8.26249 2.91387C8.25908 2.89492 8.64396 2.89744 8.66619 2.90045ZM26.2623 3.08479C26.6405 3.10426 26.3607 3.1206 26.0267 3.12899C26.1328 3.11945 26.1357 3.07829 26.2623 3.08479ZM15.6166 2.97821C15.6323 2.98271 15.6423 2.98958 15.6434 3.00068C15.6021 2.98808 15.5985 2.98152 15.6166 2.97821ZM16.4989 3.00816C16.795 2.97783 16.1908 2.97218 16.1901 2.99634C16.1912 3.00548 16.4913 3.00942 16.4989 3.00816ZM23.5721 3.07753C23.5452 3.07389 23.9671 2.97725 23.3555 3.04603C23.6807 3.06217 23.3372 3.06893 23.3423 3.07792C23.3544 3.10374 23.9035 3.08603 24.0271 3.0987C24.1235 3.054 23.6608 3.08954 23.5728 3.07754C23.5725 3.07754 23.5723 3.07754 23.5721 3.07753ZM32.2914 3.1492C32.2157 3.17507 31.9777 3.16316 31.8181 3.1594C31.893 3.13351 32.1302 3.14541 32.2914 3.1492ZM74.3857 4.18748C73.2868 4.17967 73.1414 4.0658 74.1521 4.13911C74.172 4.1406 74.4523 4.17836 74.3857 4.18748ZM64.928 3.8901C64.8248 3.83952 65.1707 3.84125 65.3958 3.86714C65.4468 3.87297 65.6342 3.9265 65.4184 3.93006C65.427 3.87237 65.0937 3.84115 64.928 3.8901ZM26.4765 3.05699C26.5849 3.02655 26.9354 3.05381 27.1037 3.0608C27.0024 3.0857 26.6333 3.06901 26.4765 3.05699ZM70.7655 4.02441C70.6484 4.01743 70.5677 4.05669 70.5879 4.06073C70.6785 4.07919 70.8984 4.05189 70.7655 4.02441ZM25.3925 3.03799C25.3771 3.01875 25.8188 3.00614 25.8496 3.05361C25.7543 3.04897 25.4029 3.05007 25.3925 3.03799ZM31.9886 3.13077C31.9198 3.12015 32.2769 3.1077 32.3856 3.1188C32.3764 3.13893 32.0334 3.13767 31.9886 3.13077ZM68.8952 3.98533C68.7922 3.97881 68.5331 3.97043 68.5038 3.98641C68.4677 4.0064 68.8477 4.00993 68.8952 3.98533ZM88.2199 4.60467C88.2235 4.61232 87.8425 4.64652 87.6537 4.62348C87.3165 4.58013 88.2088 4.59804 88.2199 4.60467ZM71.8647 4.03469C72.1897 4.08366 71.8283 4.03488 71.8419 4.0769C72.0598 4.08472 72.6168 4.10302 72.2368 4.05101C72.1636 4.04095 71.9642 4.04027 71.8647 4.03469ZM71.565 4.01208C71.5297 4.02455 71.2928 4.06021 71.4966 4.06306C71.5908 4.06431 71.7433 4.02148 71.565 4.01208ZM85.7403 4.50749C85.4503 4.4582 86.796 4.5351 86.8331 4.54412C86.853 4.54843 86.866 4.55224 86.8733 4.5553C86.9205 4.54572 87.1736 4.55538 87.2037 4.58641C87.1243 4.58018 86.9193 4.5733 86.8968 4.56902C86.8867 4.56716 86.8791 4.56551 86.874 4.56395C86.7846 4.58502 85.806 4.51679 85.7403 4.50749ZM83.5183 4.3838C83.8623 4.34196 83.914 4.43643 83.886 4.43835C83.5189 4.46266 83.7599 4.40335 83.749 4.39975C83.7243 4.39352 83.4589 4.41547 83.5194 4.38384C83.519 4.38383 83.5187 4.38381 83.5183 4.3838ZM85.2908 4.47399C85.3057 4.47335 85.585 4.48752 85.5953 4.48943C85.8231 4.52973 85.0314 4.48976 85.2908 4.47399ZM29.8127 3.02622C30.0141 3.03811 29.8157 3.06944 29.6824 3.05543C29.6715 3.05408 29.6353 3.01572 29.8127 3.02622ZM71.4039 4.01659C71.359 4.00881 70.1538 3.95001 70.228 4.00353C70.3234 4.00012 71.6965 4.06608 71.4039 4.01659ZM62.4396 3.7556C62.6509 3.76164 62.4193 3.80389 62.3068 3.78284C62.2652 3.77502 62.3863 3.75411 62.4396 3.7556ZM24.7958 2.98635C24.5723 3.01009 24.6195 2.92144 24.8127 2.95451C24.8203 2.9558 24.8046 2.98542 24.7958 2.98635ZM64.1287 3.82883C63.398 3.83847 63.5775 3.68968 64.5208 3.76708C64.4911 3.77312 64.4614 3.77915 64.4317 3.78519C65.5264 3.83798 64.504 3.79795 64.2387 3.79938C64.1371 3.7999 64.2216 3.82782 64.1294 3.82904C64.1292 3.82897 64.1289 3.8289 64.1287 3.82883ZM61.3262 3.72308C60.628 3.59562 61.9652 3.70194 62.3521 3.69811C61.9779 3.73314 61.4904 3.71339 62.1515 3.77705C61.1822 3.7602 61.5877 3.72758 61.5485 3.72292C61.5032 3.71767 61.3559 3.72855 61.3262 3.72308ZM63.1783 3.77171C63.2193 3.76963 63.5263 3.80007 63.6367 3.79943C63.4813 3.83246 62.9073 3.78606 63.1783 3.77171ZM81.1826 4.3277C81.2085 4.29939 81.2727 4.28004 81.5072 4.29888C81.4344 4.31108 81.2831 4.31858 81.1826 4.3277ZM7.72284 2.76319C7.55508 2.75947 7.21668 2.74526 7.32004 2.77691C7.32886 2.7796 7.72722 2.78043 7.72284 2.76319ZM67.9191 3.89399C67.8799 3.88929 66.972 3.86163 67.285 3.90253C67.3776 3.91479 68.2127 3.93398 67.9191 3.89399ZM72.6574 4.03305C72.5812 4.03051 72.2685 4.02688 72.2614 4.03358C72.2399 4.05681 72.6237 4.0549 72.6574 4.03305ZM6.88059 2.72532C6.86638 2.72215 6.34571 2.72267 6.40351 2.73736C6.51298 2.76512 6.95701 2.73645 6.88059 2.72532ZM30.5514 2.96783C30.5942 2.96734 30.6506 2.99978 30.6655 3.00033C30.702 3.00127 31.4834 2.99968 31.1863 3.03633C31.1374 3.04246 30.0044 3.01154 29.8634 3.00565C29.8076 2.9614 30.2844 3.00919 30.4021 3.0063C30.4228 3.00573 30.4364 2.96953 30.551 2.96801C30.5511 2.96795 30.5512 2.96789 30.5514 2.96783ZM82.4347 4.33973C82.4716 4.31321 83.3892 4.32749 83.3699 4.36046C83.0685 4.35371 82.7511 4.34661 82.4347 4.33973ZM81.9772 4.31931C81.7826 4.29305 82.2403 4.3023 82.3694 4.31546C82.3711 4.33411 82.0066 4.32316 81.9772 4.31931ZM70.9262 3.87951C70.8337 3.88361 71.1164 3.9321 71.0527 3.93811C71.012 3.94183 70.8059 3.92078 70.7394 3.93149C70.7206 3.93497 70.9306 3.97893 70.9913 3.97904C71.0778 3.97934 70.9949 3.9471 71.0891 3.94961C71.4016 3.95796 71.6757 3.98718 71.9639 3.99506C71.9904 3.99573 71.7874 3.96875 72.0119 3.97557C72.0471 3.97659 72.2579 4.01412 72.5278 4.01735C73.1224 3.93749 73.5599 4.04585 74.3124 4.03321C74.2854 4.02323 73.7225 3.98193 73.6881 3.98002C73.0562 3.94527 71.9238 3.91044 71.2696 3.89141C71.1001 3.88644 71.1818 3.90938 71.1086 3.90803C71.0507 3.90692 71.1208 3.87081 70.9262 3.87951ZM7.80887 2.74295C7.73805 2.70421 7.44663 2.72549 7.26949 2.72184C7.32824 2.75673 7.64608 2.73294 7.80887 2.74295ZM77.8779 4.15588C77.7897 4.15458 77.5132 4.13447 77.4895 4.1452C77.46 4.15924 77.8591 4.18115 77.8779 4.15588ZM34.9349 3.04824C34.9433 3.04737 35.1561 3.05369 35.1642 3.05506C35.3537 3.08942 34.7157 3.07031 34.9349 3.04824ZM40.0558 3.16297C40.2184 3.16181 40.383 3.15351 40.4371 3.18558C40.3332 3.17857 40.0363 3.18405 40.0558 3.16297ZM47.1256 3.32237C47.093 3.28115 47.5804 3.31883 47.6726 3.32464C47.6379 3.34179 47.1494 3.35207 47.1256 3.32237ZM81.152 4.19968C81.4479 4.21201 81.3841 4.14859 81.572 4.18269C81.6065 4.18855 81.6925 4.31905 81.3749 4.2605C81.3169 4.24996 81.5463 4.22734 81.152 4.19968ZM64.6743 3.77253C64.7514 3.74787 64.9904 3.76232 65.1512 3.76885C65.1147 3.78773 64.7894 3.77375 64.6743 3.77253ZM5.96385 2.68627C5.83352 2.6473 5.16785 2.6694 5.33258 2.69582C5.34864 2.6992 5.88682 2.68413 5.96385 2.68627ZM27.2406 2.945C27.5012 2.91868 26.9676 2.90246 26.7828 2.92911C26.8669 2.9283 27.2227 2.94672 27.2406 2.945ZM45.4282 3.26079C45.4416 3.25987 45.7232 3.26927 45.7358 3.27103C45.9665 3.30743 45.1677 3.28097 45.4282 3.26079ZM38.3721 3.07764C38.4735 3.0553 39.1453 3.08943 39.2952 3.11719C39.1492 3.1498 38.2444 3.10548 38.3721 3.07764ZM79.9227 4.17648C80.1343 4.18211 80.3317 4.19596 80.52 4.21259C80.5221 4.21277 80.5242 4.21295 80.5263 4.21313C80.5248 4.2138 80.5226 4.21439 80.5199 4.21492C80.4505 4.22968 79.9456 4.19206 79.9227 4.17648ZM46.4645 3.28232C46.4796 3.28284 46.4943 3.28551 46.5088 3.2861C46.4937 3.28488 46.4789 3.28353 46.4645 3.28232ZM75.1527 4.01296C74.9736 3.99942 75.0095 4.03827 75.0206 4.03976C75.1556 4.05606 75.3551 4.02825 75.1527 4.01296ZM7.60674 2.68496C7.54252 2.65026 7.23607 2.67376 7.06596 2.66405C7.11433 2.69141 7.46181 2.68713 7.60674 2.68496ZM60.5764 3.6335C60.3529 3.59066 61.2676 3.57182 61.4578 3.60069C61.4719 3.62388 60.6098 3.63941 60.5764 3.6335ZM26.4104 2.88303C26.3923 2.8561 26.0065 2.8833 26.0883 2.89698C26.1396 2.90567 26.4209 2.89976 26.4104 2.88303ZM61.9175 3.62846C62.0039 3.6226 62.2035 3.65427 62.1325 3.66844C62.0415 3.6866 61.8952 3.6302 61.9175 3.62846ZM69.6173 3.81831C69.5802 3.81317 69.0705 3.82616 69.28 3.85933C69.4254 3.88237 69.4495 3.84445 69.4838 3.8453C69.5228 3.84652 70.3319 3.91677 69.6173 3.81831ZM55.4613 3.47837C55.6522 3.47292 55.8822 3.49067 56.0814 3.49499C55.9999 3.50943 55.5419 3.50234 55.4613 3.47837ZM27.8875 2.89526C27.838 2.88379 26.5973 2.861 27.3015 2.90348C27.3414 2.90588 28.0266 2.9298 27.8875 2.89526ZM81.152 4.19968C81.1146 4.19812 81.0714 4.1954 81.0211 4.19108C81.0711 4.19379 81.1144 4.19705 81.152 4.19968ZM77.76 4.08603C77.8296 4.06876 77.4828 4.05272 77.3783 4.05982C77.3462 4.08257 77.7512 4.08846 77.76 4.08603ZM56.0972 3.46828C56.2123 3.46007 56.4201 3.47723 56.562 3.47955C56.5376 3.497 56.1464 3.48788 56.0972 3.46828ZM48.0356 3.24988C48.2633 3.26602 48.5444 3.26778 48.5492 3.24579C48.5539 3.24935 48.5649 3.25328 48.5832 3.25741C48.6017 3.2615 48.8463 3.25705 48.952 3.26713C49.5866 3.327 46.4976 3.23512 48.2894 3.21524C48.2048 3.22678 48.1202 3.23833 48.0356 3.24988ZM37.4688 3.00653C37.339 2.97689 36.9754 3.00302 37.0694 3.01558C37.1345 3.02419 37.5984 3.03634 37.4688 3.00653ZM42.4486 3.09876C42.4113 3.09311 42.0546 3.10399 42.0455 3.11796C42.25 3.13745 42.6237 3.12499 42.4486 3.09876ZM36.4751 2.95433C36.3945 2.94861 36.2909 2.98986 36.3003 2.99195C36.3817 3.00946 36.6102 2.98128 36.4751 2.95433ZM80.5305 4.06208C80.5287 4.06184 80.5269 4.06161 80.525 4.06138C80.4033 4.04634 80.0309 4.06506 79.9464 4.09057C79.9309 4.08452 79.8891 4.07593 79.8116 4.06474C79.8119 4.06475 79.8121 4.06476 79.8123 4.06476C79.7015 4.04902 76.5992 3.9384 78.6827 4.05943C78.7483 4.06329 78.6601 4.03474 78.9262 4.04776C78.9437 4.04865 78.9518 4.06992 79.0058 4.07266C79.1276 4.07874 79.7935 4.11344 79.9298 4.10102C79.9308 4.10495 79.9394 4.10893 79.9576 4.11292C80.0906 4.14177 80.4448 4.09888 80.5245 4.07477C80.5446 4.06913 80.5488 4.06451 80.5305 4.06208ZM43.1485 3.11065C43.0775 3.10127 42.8522 3.10358 42.8285 3.12158C42.9397 3.13316 43.3134 3.13253 43.1485 3.11065ZM27.8495 2.81874C27.7046 2.80159 27.3403 2.82529 27.4501 2.84187C27.5167 2.85206 28.016 2.83844 27.8495 2.81874ZM40.8926 3.07026C41.7207 3.11042 41.0903 3.07284 41.2178 3.04848C41.1093 3.05573 41.0008 3.06299 40.8926 3.07026ZM84.3756 4.26717C84.2402 4.25579 84.4026 4.20826 84.5481 4.24294C84.5938 4.25393 84.4514 4.27343 84.3756 4.26717ZM90.3 4.5632C90.1982 4.50485 90.717 4.58579 90.509 4.59707C90.4944 4.5964 90.3104 4.5658 90.3 4.5632ZM86.1772 4.3033C86.0864 4.33183 86.0304 4.33322 85.7704 4.31442C86.1532 4.32127 85.8033 4.27791 86.1772 4.3033ZM48.5468 3.24225C48.5483 3.24359 48.5495 3.24459 48.5492 3.24579C48.5476 3.24456 48.5469 3.24341 48.5468 3.24225ZM35.6914 2.94668C35.5874 2.91713 35.296 2.91324 35.3823 2.94259C35.3905 2.94531 35.6481 2.96605 35.6914 2.94668ZM79.9464 4.09057C79.9601 4.09593 79.9529 4.09887 79.9298 4.10102C79.9288 4.09733 79.9349 4.09406 79.9464 4.09057ZM37.2591 2.9567C37.2479 2.97692 37.6944 2.99425 37.7127 2.99224C37.9688 2.96215 37.4432 2.95931 37.2591 2.9567ZM24.9215 2.75185C24.8986 2.75369 25.0476 2.80841 25.1354 2.78885C25.2033 2.77368 25.0124 2.74489 24.9215 2.75185ZM87.0299 4.32799C87.1724 4.3346 87.3726 4.34416 87.4063 4.37092C87.316 4.36263 87.0229 4.34605 87.0299 4.32799ZM90.0952 4.51017C89.9348 4.52546 89.5555 4.49646 89.3272 4.47655C89.3235 4.43667 89.9427 4.50474 90.0952 4.51017ZM80.9181 4.08941C80.9075 4.08747 80.549 4.06399 80.5968 4.09158C80.6687 4.13206 81.0181 4.10688 80.9181 4.08941ZM25.5988 2.78861C25.7556 2.77274 25.3959 2.71309 25.232 2.75346C25.1474 2.77412 25.5719 2.79125 25.5988 2.78861ZM34.7845 2.89243C34.5763 2.90329 35.089 2.94037 35.1611 2.91466C35.0656 2.91056 34.8577 2.88857 34.7845 2.89243ZM41.8638 3.01516C41.209 2.92225 41.5635 3.07309 41.6801 3.06311C41.6965 3.06168 41.8798 3.01736 41.8638 3.01516ZM4.33897 2.51543C4.2484 2.52555 4.58503 2.56783 4.63196 2.54228C4.65907 2.52626 4.39521 2.50896 4.33897 2.51543ZM51.7395 3.29744C51.7118 3.29701 51.6843 3.2966 51.6571 3.29615C51.6775 3.29537 51.7044 3.29562 51.7395 3.29744ZM32.8956 2.75285C33.3544 2.86798 33.3167 2.78674 33.3539 2.78503C33.3492 2.78492 33.3498 2.78491 33.3504 2.78493C33.436 2.78779 33.635 2.8216 33.7979 2.81989C33.6472 2.82699 33.497 2.83411 33.3475 2.84126C33.3164 2.84324 33.2797 2.84513 33.2431 2.84702C33.2623 2.84831 33.3006 2.8504 33.3529 2.85303C33.6892 2.87251 34.671 2.92096 34.6965 2.90587C34.7357 2.8811 34.3285 2.88099 34.317 2.87852C34.3 2.87497 34.2381 2.80271 34.2006 2.79927C34.1611 2.79573 33.7101 2.7852 33.3488 2.7728C33.1417 2.7669 32.9587 2.76011 32.8956 2.75285ZM40.4924 2.99717C40.5982 3.00793 40.6277 3.03673 40.6771 3.03108C40.6939 3.02915 40.6972 3.00238 40.7547 2.99669C40.6672 2.99685 40.5798 2.99701 40.4924 2.99717ZM32.0638 2.84092C31.9335 2.80634 32.5192 2.8268 32.5388 2.83075C32.639 2.85435 32.1694 2.86915 32.0638 2.84092ZM37.0374 2.92826C37.0157 2.92589 36.5671 2.90633 36.5706 2.92461C36.6882 2.9409 37.29 2.95749 37.0374 2.92826ZM40.8252 2.99641C40.9822 3.00299 41.2796 3.03659 41.2464 2.99543C41.2461 2.99542 41.2459 2.99542 41.2457 2.99541C41.1053 2.99573 40.9651 2.99606 40.8252 2.99641ZM26.1387 2.71024C25.846 2.64207 25.9835 2.72519 26.244 2.74935C26.3235 2.72148 26.1867 2.72134 26.1387 2.71024ZM25.2077 2.65021C25.1374 2.63771 24.277 2.63937 24.409 2.67513C24.454 2.68784 24.9449 2.66352 24.9683 2.66618C25.0012 2.67009 24.8497 2.70582 25.1037 2.70162C25.089 2.68867 25.2351 2.65443 25.2077 2.65021ZM25.8965 2.66589C25.6067 2.61318 25.5412 2.70262 25.7587 2.70568C25.8439 2.70694 25.9379 2.67349 25.8965 2.66589ZM27.0937 2.68919C26.9952 2.67933 26.7065 2.66307 26.5126 2.69057C26.7735 2.69653 27.0357 2.70253 27.2864 2.70839C27.3159 2.69176 27.1835 2.69789 27.093 2.68918C27.0932 2.68918 27.0934 2.68919 27.0937 2.68919ZM91.0658 3.6559C91.0002 3.89237 91.0808 4.08679 91.1053 4.13514C91.1354 4.19207 91.1288 4.17817 91.1011 4.10543C91.0744 4.0367 91.0348 3.86583 91.0771 3.70032C91.1181 3.53734 91.1884 3.46158 91.2169 3.42894C91.3351 3.32647 91.1992 3.43786 91.2005 3.42627C91.1719 3.43053 91.2109 3.39715 91.2356 3.37362C91.2691 3.37183 91.2254 3.26678 91.0658 3.6559ZM2.53552 1.68084C2.46981 1.67014 2.44325 1.63636 2.28971 1.65283C2.44316 1.67874 2.56597 1.70444 2.71316 1.73035C2.82574 1.6744 2.60266 1.69259 2.53552 1.68084ZM1.99435 1.46937C2.01485 1.46814 1.90472 1.38001 2.16251 1.44017C2.33191 1.48071 1.39959 1.51249 1.21135 1.47266C1.40888 1.45592 1.82469 1.47936 1.99435 1.46937ZM0.324895 1.08081C0.310632 1.07375 0.670763 1.06549 0.720951 1.07072C0.946709 1.09791 0.382139 1.11835 0.324895 1.08081ZM1.48472 1.10447C1.32487 1.08644 1.67829 1.07786 1.80176 1.0885C1.80985 1.1048 1.50569 1.10707 1.48472 1.10447ZM89.622 2.97256C89.4466 2.90068 89.2736 3.01719 89.5547 3.01061C89.5677 3.01029 89.6287 2.97595 89.622 2.97256ZM0.679535 0.994653C0.851768 1.01261 0.484978 1.0214 0.358931 1.01102C0.34919 0.994712 0.649837 0.991981 0.679535 0.994653ZM89.5048 2.82263C89.2631 2.76345 89.3382 2.91233 89.3697 2.92016C89.4917 2.95064 89.9343 2.92645 90.0207 2.91992C89.3694 2.89177 89.6173 2.85122 89.5048 2.82263ZM88.3658 2.83958C88.1353 2.84227 88.716 2.90337 88.8299 2.87054C88.7102 2.86525 88.4366 2.83893 88.3658 2.83958ZM86.9891 2.72507C86.8735 2.71456 86.498 2.68561 86.4403 2.70574C86.5733 2.70735 86.9408 2.74603 86.9891 2.72507ZM86.7168 2.64513C86.5237 2.60589 86.4725 2.69302 86.6986 2.6764C86.7073 2.67576 86.7239 2.64715 86.7168 2.64513ZM85.6445 2.56722C85.5231 2.52672 85.3768 2.60738 85.5782 2.61786C85.6376 2.62081 85.6573 2.57182 85.6445 2.56722ZM89.2028 2.6481C89.0301 2.62187 88.7947 2.66951 89.1728 2.69979C89.0421 2.70098 88.9059 2.70218 88.7641 2.70338C89.2768 2.76868 89.2331 2.68098 89.384 2.69422C89.5865 2.71289 89.5625 2.78252 89.5222 2.80199C89.6918 2.76963 90.3994 2.82043 90.8199 2.86131C90.4529 2.80048 89.8717 2.72302 89.5162 2.68756C89.4174 2.67742 89.3163 2.69022 89.2262 2.68227C89.0918 2.67011 89.2128 2.64977 89.2034 2.64814C89.2032 2.64813 89.203 2.64811 89.2028 2.6481ZM84.2322 2.5108C83.8736 2.45716 84.0989 2.55244 84.3021 2.54459C84.3101 2.54369 84.2411 2.51212 84.2322 2.5108ZM0.191782 0.728124C0.686162 0.767024 0.328768 0.812858 1.3555 0.746263C0.92336 0.795193 1.32873 0.783282 1.24495 0.803605C1.17971 0.819682 0.926509 0.804431 1.07797 0.838625C0.872956 0.801027 0.0433275 0.806469 0.00225798 0.800807C0.0024757 0.800808 0.00269574 0.800808 0.00291879 0.800808C-0.0167325 0.797295 0.0329889 0.715819 0.191782 0.728124ZM86.9977 2.49812C86.8814 2.38733 86.8281 2.55228 86.5845 2.4541C86.2556 2.56625 87.4793 2.49422 87.6157 2.60916C86.2984 2.53341 88.4754 2.75735 87.5703 2.55266C88.3254 2.64862 87.8198 2.54524 87.9378 2.53067C88.0644 2.51513 88.4892 2.56177 88.4717 2.52164C88.4715 2.52163 88.4712 2.52162 88.471 2.5216C88.1939 2.50903 87.9528 2.49931 87.6808 2.48858C87.9261 2.58553 87.4101 2.53445 87.2221 2.4568C87.1421 2.47029 87.0719 2.48428 86.9977 2.49812ZM88.4763 2.65177C88.4456 2.64779 87.8828 2.62998 87.916 2.64894C87.9909 2.66296 88.8014 2.69451 88.4763 2.65177ZM91.0166 2.83261C90.7979 2.80406 90.4838 2.75714 90.3597 2.77828C90.5766 2.79747 90.8858 2.84747 91.0166 2.83261ZM80.4738 2.30863C80.356 2.31684 80.4596 2.32841 80.582 2.33469C80.7334 2.34231 80.9103 2.34273 80.7843 2.32182C80.7774 2.32072 80.6709 2.31587 80.5827 2.31231C80.5268 2.31002 80.4789 2.3083 80.4738 2.30863ZM86.4041 2.48766C86.1456 2.44431 86.2655 2.55202 86.457 2.53359C86.4681 2.53249 86.416 2.48964 86.4041 2.48766ZM0.590157 0.717752C0.620787 0.692733 1.30866 0.71459 1.45396 0.715409C1.36397 0.738071 0.580677 0.746398 0.590157 0.717752ZM91.4203 2.79738C90.9735 2.62836 90.4104 2.68823 90.3394 2.67863C90.2809 2.6711 90.377 2.64001 90.3646 2.63786C90.3371 2.6316 89.6876 2.58365 89.6495 2.58488C89.6267 2.58541 89.7419 2.6492 89.6059 2.65707C89.8693 2.6383 91.0596 2.76874 91.139 2.78411C91.1953 2.7885 90.8087 2.66975 91.4195 2.79723C91.4197 2.79728 91.42 2.79733 91.4203 2.79738ZM90.1905 2.6536C90.352 2.69036 89.8919 2.65503 89.7858 2.63937C89.5423 2.60193 90.1654 2.64754 90.1905 2.6536ZM89.1 2.5539C89.0519 2.54533 88.5819 2.51296 88.5446 2.53708C88.7515 2.58194 89.2195 2.57341 89.1 2.5539ZM83.9555 2.32307C83.8375 2.322 83.5022 2.28987 83.481 2.31176C83.6061 2.31296 83.9368 2.345 83.9555 2.32307ZM3.0272 0.53706C2.83611 0.516648 3.27858 0.512345 3.42149 0.522579C3.42609 0.537698 3.04044 0.538779 3.0272 0.53706ZM86.3697 2.26966C86.3051 2.25917 84.8413 2.21692 84.6475 2.22081C84.8365 2.24447 86.2847 2.30454 86.3455 2.2996C86.3643 2.29791 86.3785 2.27112 86.3697 2.26966ZM89.5198 2.42491C89.6504 2.40045 89.7423 2.44726 89.7588 2.44896C89.9251 2.46572 90.2755 2.48721 90.1962 2.51292C89.8963 2.47356 89.2499 2.47295 89.5198 2.42491ZM83.8583 2.16864C83.3639 2.16284 84.3086 2.23275 84.1833 2.19335C84.1762 2.19096 83.9101 2.16924 83.8583 2.16864ZM86.5284 2.26684C86.6487 2.24399 88.0969 2.33558 88.3258 2.34985C88.1167 2.38831 87.9504 2.34186 87.6666 2.33036C87.5929 2.32748 87.6115 2.34907 87.6036 2.34872C87.4746 2.34339 87.5724 2.32426 87.4924 2.32002C87.4381 2.31654 86.3787 2.29784 86.5284 2.26684ZM89.5962 2.40705C89.6818 2.39131 90.61 2.4593 90.6467 2.47189C90.9239 2.53337 89.6689 2.41355 89.5962 2.40705ZM86.4003 2.21708C86.5554 2.16577 87.2811 2.23734 86.7858 2.24376C86.7412 2.24436 86.5281 2.20988 86.4003 2.21708ZM83.9129 2.11567C83.8925 2.11317 83.3642 2.08238 83.3627 2.10075C83.4309 2.11023 84.1905 2.14456 83.9129 2.11567ZM84.1778 2.06337C84.1654 2.06336 84.2826 2.1031 84.0463 2.08982C84.0259 2.08865 83.9934 2.04757 83.687 2.05093C83.6247 2.05165 83.5262 2.07441 83.5332 2.0763C83.8588 2.15039 84.792 2.06595 84.1778 2.06337ZM89.6146 2.37603C89.5672 2.3559 89.6883 2.31429 89.7986 2.34775C89.8454 2.36217 89.7527 2.38514 89.6146 2.37603ZM82.2874 2.04155C82.5853 2.02157 81.6525 1.98371 81.5978 1.98971C81.6296 2.00958 82.2612 2.04354 82.2874 2.04155ZM3.49482 0.307397C3.49458 0.307395 3.49433 0.307394 3.49409 0.307392C3.74924 0.316293 3.58996 0.34016 3.60362 0.341059C4.12189 0.382204 3.99186 0.324216 4.07389 0.318164C4.25755 0.305157 4.23051 0.374185 4.52472 0.347959C4.03907 0.386264 4.47947 0.372201 4.49413 0.396971C4.55702 0.498045 3.81935 0.34421 3.58797 0.363462C3.55409 0.366104 3.80115 0.400201 3.71514 0.408633C3.42492 0.435829 2.53079 0.273604 3.49482 0.307397ZM89.8825 2.3496C89.9961 2.32501 90.9119 2.43966 90.6657 2.44123C90.6304 2.43771 89.7004 2.37734 89.8825 2.3496ZM48.6798 1.02454C48.8926 1.00405 48.4016 0.962278 48.3101 0.980012C48.2647 0.988845 48.5863 1.03353 48.6798 1.02454ZM45.2402 0.83444C44.9879 0.833807 44.7201 0.934278 45.0338 0.924949C45.0671 0.923907 45.2688 0.849889 45.2402 0.83444ZM61.764 1.29965C61.5012 1.25457 61.5157 1.32576 61.7086 1.32988C61.7771 1.33135 61.7722 1.30107 61.764 1.29965ZM51.7349 1.05296C51.7087 1.04985 51.4047 1.04693 51.4154 1.06347C51.5275 1.07596 51.9046 1.07408 51.7349 1.05296ZM61.8481 1.2918C61.6912 1.3004 61.9594 1.35872 62.1515 1.31379C62.0545 1.31531 61.8642 1.29093 61.8481 1.2918ZM85.8596 2.03766C85.7305 2.06137 85.3675 2.03784 85.1459 2.03415C85.1275 1.99566 85.7145 2.03835 85.8596 2.03766ZM46.3073 0.902068C46.0685 0.923043 46.5783 0.956669 46.5324 0.920515C46.5259 0.918456 46.3167 0.901154 46.3073 0.902068ZM70.2439 1.51879C70.0712 1.53633 70.6164 1.58212 70.4673 1.53837C70.46 1.53655 70.2535 1.51781 70.2439 1.51879ZM72.6457 1.60116C72.5153 1.58975 71.9488 1.5756 72.1686 1.60392C72.2032 1.60829 72.6357 1.62144 72.6457 1.60116ZM4.08924 0.291183C4.01861 0.25191 4.43443 0.264591 4.48793 0.271816C4.51004 0.274812 4.18922 0.342332 4.08924 0.291183ZM60.0571 1.24862C59.9217 1.24991 59.5702 1.23153 59.5076 1.2502C59.6739 1.25033 60.1007 1.29019 60.0571 1.24862ZM47.3943 0.927372C47.1889 0.880483 46.8327 0.876277 46.9194 0.933243C47.3116 0.938775 46.8731 0.882769 47.3943 0.927372ZM62.7258 1.26993C62.6171 1.26382 62.5322 1.31431 62.5445 1.31712C62.6619 1.3439 62.8333 1.29333 62.7258 1.26993ZM54.5424 1.10147C54.5367 1.07877 54.1869 1.08025 54.2332 1.09592C54.2484 1.10117 54.5471 1.11982 54.5424 1.10147ZM81.2823 1.85683C81.1275 1.83105 81.6001 1.8268 81.7537 1.85609C81.8196 1.89293 81.302 1.85983 81.2823 1.85683ZM65.7493 1.36496C65.7668 1.33197 65.2199 1.33593 65.4345 1.36953C65.4883 1.37794 65.7434 1.37598 65.7493 1.36496ZM70.9802 1.47153C70.6131 1.50083 72.1499 1.5735 71.7473 1.51216C71.7198 1.50781 71.0135 1.4691 70.9802 1.47153ZM73.4903 1.56953C73.4262 1.56325 73.4622 1.45186 73.7249 1.50299C73.7594 1.50963 73.5964 1.53453 73.6245 1.54216C73.642 1.54654 74.2123 1.57925 74.2375 1.57739C74.2657 1.57525 74.2337 1.53826 74.2623 1.53507C74.2959 1.53155 74.6372 1.57339 74.8242 1.57935C75.1743 1.59045 75.2113 1.56159 75.2401 1.56235C75.3229 1.56465 75.4612 1.59012 75.6274 1.59513C76.4684 1.62029 77.7711 1.63522 78.4252 1.71958C77.845 1.6757 77.2557 1.68445 76.6754 1.67495C76.8528 1.61775 75.7971 1.69629 76.4154 1.64296C76.1235 1.64938 73.708 1.58942 73.491 1.56955C73.4908 1.56955 73.4906 1.56954 73.4903 1.56953ZM44.2478 0.780143C44.4035 0.745305 43.6099 0.735851 43.5408 0.778713C43.6459 0.787245 44.2294 0.784063 44.2478 0.780143ZM47.9098 0.77173C47.9836 0.766856 48.0552 0.693508 48.441 0.740737C48.4414 0.740746 48.4417 0.740754 48.4421 0.740763C48.5549 0.754561 48.4256 0.769765 48.4461 0.776769C48.4536 0.779605 48.8055 0.825314 48.5124 0.824332C48.0655 0.822909 48.4716 0.767542 48.2335 0.761087C48.2044 0.760327 47.7531 0.790249 47.7792 0.799784C47.7818 0.800885 47.9175 0.795504 47.9398 0.799738C48.0239 0.815662 47.9822 0.838104 47.9941 0.839501C48.0328 0.843262 48.7468 0.820326 48.8495 0.857655C48.883 0.869663 47.7124 0.867769 47.6675 0.860902C47.6388 0.856541 47.6525 0.791827 47.6228 0.784731C47.6073 0.781172 47.1383 0.79449 47.0765 0.787065C47.0587 0.784919 47.0452 0.782737 47.0353 0.780968C47.1061 0.802748 46.6795 0.791294 46.6932 0.768916C46.7008 0.760168 46.9942 0.772212 47.0047 0.774021C47.0093 0.774789 47.0133 0.775793 47.017 0.776509C46.9579 0.750575 47.9482 0.775035 47.7353 0.733524C48.0232 0.720345 47.6932 0.786063 47.9098 0.77173ZM49.2935 0.764584C49.2636 0.770708 49.2338 0.776832 49.2039 0.782957C49.7072 0.778274 50.2888 0.825226 50.8682 0.839069C51.0153 0.842636 50.847 0.796709 51.0396 0.812828C51.1939 0.825746 51.364 0.868699 51.2798 0.875295C51.2592 0.87695 50.9452 0.844024 50.7878 0.842794C50.3228 0.839185 50.4394 0.877898 50.4122 0.878205C50.3821 0.878495 50.0899 0.846195 49.93 0.843466C49.528 0.836684 49.3439 0.854273 48.7964 0.812416C49.1133 0.796348 48.9412 0.740866 49.2935 0.764584ZM68.0589 1.32737C68.0789 1.30534 68.4091 1.33462 68.5286 1.33466C68.5093 1.35675 68.1797 1.32742 68.0589 1.32737ZM18.9429 0.274802C18.8393 0.310594 19.6069 0.329015 19.405 0.295751C19.3597 0.28836 19.0381 0.276206 18.9429 0.274802ZM22.3499 0.339098C22.4515 0.330124 22.0431 0.298353 22.044 0.327037C22.0443 0.336233 22.3365 0.340261 22.3499 0.339098ZM55.8014 0.961507C55.8207 0.960833 56.0996 0.976158 56.1083 0.978265C56.2924 1.02227 55.3737 0.976261 55.8014 0.961507ZM26.4951 0.346442C26.1362 0.36604 27.2163 0.390666 26.8864 0.355399C26.8695 0.353668 26.5119 0.34548 26.4951 0.346442ZM27.972 0.359046C27.8868 0.35922 27.513 0.342239 27.5083 0.353483C27.5002 0.371611 27.9283 0.389714 27.972 0.359046ZM62.803 1.13201C62.764 1.08921 63.2553 1.13399 63.4309 1.13346C63.4702 1.17629 62.9745 1.13132 62.803 1.13201ZM59.6701 1.01845C61.7651 1.04047 61.3004 1.11741 59.5452 1.03553C59.5433 1.0087 59.5383 1.01709 59.6701 1.01845ZM62.3507 1.0941C62.2739 1.1188 62.036 1.10454 61.8748 1.09811C61.9044 1.0803 62.2348 1.09581 62.3507 1.0941ZM18.0493 0.206804C18.1764 0.174526 18.7518 0.223037 18.6495 0.235751C18.6241 0.238448 18.0007 0.224798 18.0493 0.206804ZM55.9777 0.930248C55.9301 0.888429 56.5579 0.920938 56.6055 0.93118C56.7984 0.972356 56.0291 0.922573 55.9777 0.930248ZM65.7749 1.17675C65.8873 1.14802 66.1971 1.17289 66.4025 1.17897C66.3066 1.20352 65.947 1.18203 65.7749 1.17675ZM64.3119 1.11197C64.3247 1.1111 64.606 1.1216 64.6185 1.1234C64.8482 1.1607 64.0522 1.13116 64.3119 1.11197ZM3.14668 -0.00069445C3.15501 -0.00165695 3.3692 0.00205998 3.37771 0.00332582C3.56877 0.0353594 2.92738 0.0240669 3.14668 -0.00069445Z" fill="#FFE885"/>
</svg>
