<svg width="1859" height="1403" viewBox="0 0 1859 1403" fill="none" xmlns="http://www.w3.org/2000/svg">
<path d="M155.366 1381.54L552.247 850.997C558.482 844.047 555.463 833.24 546.458 830.24L189.607 754.305C178.919 750.782 169.765 743.784 163.729 734.595L7.61863 495.792C-4.25661 477.654 -2.07947 454.088 12.9625 438.234L367.636 64.0808C377.038 54.1783 390.348 48.5128 404.252 48.5128H661.054C678.817 48.5128 695.195 57.6536 704.052 72.4597L749.129 148.014C763.725 172.437 797.026 179.483 820.875 163.154L1046.31 8.85521C1054.72 3.09461 1064.76 0 1075.05 0H1422.7C1435.86 0 1448.43 4.99883 1457.73 13.9492L1844.47 385.77C1862.43 403.051 1863.92 430.617 1847.94 449.612L1604.1 738.594C1598.46 745.307 1591.03 750.401 1582.62 753.353L1159.81 901.986C1158.28 902.652 1155.76 903.7 1154.22 904.366L171.002 1401.82C157.84 1407.39 146.015 1391.92 155.416 1381.5L155.366 1381.54Z" fill="#D5F48C"/>
</svg>
