<svg width="415" height="19" viewBox="0 0 415 19" fill="none" xmlns="http://www.w3.org/2000/svg">
<path d="M384.73 0.928449C384.482 0.947554 383.458 0.884939 383.003 0.889637C383.53 0.666281 385.637 0.859044 384.73 0.928449ZM338.512 17.125C338.89 17.0714 339.267 17.0178 339.643 16.9643C338.568 16.9193 337.149 16.95 336.178 16.889C336.018 16.8788 336.434 16.7185 336.056 16.7083C335.677 16.6982 335.749 16.9222 335.197 16.9419C334.588 16.9634 331.693 16.786 330.743 16.7827C327.067 16.7703 323.374 16.8707 319.649 16.7508C323.498 16.6136 319.602 16.4169 318.564 16.481C318.325 16.4959 318.381 16.9116 314.547 16.7793C312.102 16.6954 314.354 16.1177 310.317 16.3863C313.414 16.8239 310.377 16.773 307.919 16.7694C307.482 16.7687 304.108 16.6824 302.601 16.6902C302.086 16.693 301.299 16.905 300.613 16.9059C300.142 16.9064 299.779 16.7849 299.091 16.7862C295.869 16.7905 292.639 16.7774 289.407 16.715C291.31 16.1689 287.917 16.4664 287.761 16.4387C286.987 16.2816 290.497 16.2624 289.11 16.158C287.17 16.162 285.224 16.166 283.297 16.1703C284.884 16.2497 281.192 16.6268 280.508 16.4392C280.792 16.9351 271.68 15.9499 270.29 16.1058C270 16.1388 271.894 16.3954 267.502 16.2547C267.026 16.2391 267.207 16.0913 266.957 16.1035C266.807 16.1109 265.898 16.5786 264.933 16.3105C264.584 16.2127 266.828 15.9162 261.893 16.0089C263.862 16.5039 255.03 16.2253 253.411 16.0942C253.735 16.161 254.059 16.2279 254.383 16.2948C252.779 16.1097 252.487 16.2717 252.126 16.2605C250.665 16.2152 248.664 16.0372 247.308 16.0436C245.719 16.0508 245.712 16.3507 243.859 16.2223C244.299 16.2912 244.738 16.3602 245.177 16.4291C243.898 16.4051 242.616 16.381 241.339 16.357C244.302 15.9788 240.7 16.334 240.463 16.3411C240.084 16.3532 240.629 16.1941 239.996 16.2103C239.931 16.2133 240.024 16.3669 239.049 16.3779C237.011 16.4005 237.334 16.2102 236.478 16.207C236.4 16.2075 236.673 16.3471 235.195 16.3704C230.497 16.445 235.219 16.2649 235.399 16.247C235.636 16.2234 234.029 15.6371 238.018 15.8664C236.679 15.793 236.546 15.5372 236.395 15.5299C236.261 15.5239 233.939 15.5453 233.811 15.5533C232.67 15.6328 233.673 15.8132 233.45 15.8431C233.268 15.8671 230.473 15.6227 229.814 16.1427C228.48 15.6511 230.587 15.7084 232.831 15.648C233.159 15.5508 230.695 15.4391 230.566 15.4386C227.389 15.4198 229.145 15.8283 228.449 16.0782C228.084 16.2089 226.789 15.9297 227.984 16.2935C225.096 16.3134 226.849 16.1176 226.662 16.0859C226.381 16.0392 225.371 16.1352 225.244 16.1208C225.059 16.0996 225.705 15.9801 224.973 15.9321C224.852 15.9251 223.672 16.1303 225.191 16.2411C223.161 16.1985 223.328 16.3806 222.642 16.0114C221.241 16.6935 221.631 15.5971 221.081 15.5551C219.618 15.4442 220.039 15.9889 219.961 16.0149C219.426 16.181 215.373 15.9704 214.373 16.0425C214.769 15.6544 217.582 16.0575 218.213 15.9856C220.316 15.7462 215.254 15.7725 216.783 15.2911C216.143 15.422 215.503 15.5529 214.864 15.6838C213.694 15.3613 215.362 15.2337 212.202 15.3301C211.684 15.5994 214.436 15.3005 213.882 15.5117C213.56 15.6356 211.724 15.6517 211.688 15.7178C211.651 15.7975 213.309 15.7127 213.047 15.834C212.472 16.0957 206.443 15.8075 211.036 15.6901C209.754 15.687 209.098 15.1557 207.988 15.3135C207.27 15.4159 211.302 16.1681 205.247 15.9988C205.122 15.749 207.67 15.9395 207.735 15.921C207.828 15.8939 207.371 15.3292 207.291 15.301C207.021 15.208 200.808 15.4726 199.515 15.1828C200.04 15.5106 194.827 15.2137 194.267 15.3095C194.117 15.336 194.678 15.5381 194.517 15.5583C193.514 15.6779 190.805 15.3073 189.537 15.2909C188.125 15.2725 188.304 15.4454 188.225 15.4446C187.604 15.4315 188.1 15.3178 187.721 15.316C187.149 15.3133 183.22 15.2675 183.014 15.2907C182.956 15.298 183.6 15.4979 182.739 15.5303C182.591 15.5359 182.681 15.3037 180.141 15.3902C177.087 15.4943 182.262 15.6913 180.991 15.928C179.029 15.5702 179.093 15.9144 178.562 15.8845C178.382 15.8737 177.005 15.5738 175.506 15.5841C176.578 15.5425 177.667 15.501 178.726 15.4593C177.691 15.4024 175.616 15.4545 174.753 15.3919C174.33 15.3614 174.679 15.1231 173.761 15.1247C173.566 15.1263 172.786 15.7072 175.199 15.4577C175.39 15.6677 174.243 15.5254 173.712 15.5817C173.632 15.5904 173.313 15.9378 172.637 15.7172C172.472 15.663 174.26 14.6542 169.676 15.3667C169.527 15.3897 170.042 15.5199 169.897 15.5456C169.797 15.563 168.624 15.5051 168.495 15.5225C168.362 15.5413 168.927 15.6835 168.769 15.71C167.96 15.8469 166.904 15.2891 168.569 15.34C168.012 15.2688 167.457 15.1976 166.902 15.1265C167.494 15.5457 166.03 15.2389 165.267 15.2478C160.339 15.3039 163.636 15.5918 162.788 15.7274C161.419 15.9451 162.464 15.2384 160.44 15.4419C160.256 15.461 162.682 15.7757 157.936 15.5808C158.634 15.5726 159.334 15.5644 160.037 15.5562C159.631 15.1516 157.511 15.5709 157.344 15.5757C155.454 15.6214 156.725 15.4827 153.936 15.6759C153.688 15.6933 153.148 15.5912 152.619 15.6382C150.427 15.8314 155.514 15.7765 155.664 15.9403C155.711 16.0009 152.578 15.9883 150.99 15.9621L151.002 15.9622C150.471 15.9544 150.103 15.9449 150.056 15.9355C149.636 15.8472 150.323 15.8327 151.003 15.8103L150.991 15.8103C151.608 15.7901 152.217 15.7631 151.917 15.6606C151.871 15.6456 151.526 15.6381 150.992 15.6351L151.003 15.6351C148.775 15.6256 143.507 15.6919 142.281 15.6226C140.518 15.5221 139.642 14.9733 139.639 15.5865C139.122 14.9828 138.664 15.3919 138.429 15.387C135.606 15.3216 135.604 15.3155 133.221 15.365C132.697 15.3758 132.256 15.1917 132.072 15.2219C131.964 15.2401 132.164 15.4363 131.638 15.4948C130.893 15.5747 126.366 15.3585 126.051 15.2494C125.718 15.1402 127.94 15.2089 127.543 15.0299C125.929 15.0065 124.398 15.0454 122.809 15.0213C122.149 15.0108 122.488 14.8876 122.204 14.8842C122.086 14.8823 119.721 14.9839 119.825 15.0301C120.104 15.1376 127.192 15.0896 125.324 15.301C124.961 15.3418 123.69 15.0511 123.891 15.4001C117.484 15.2997 111.025 15.1996 104.719 15.1004C108.277 14.8512 112.607 15.0983 116.345 15.0862C116.867 15.0849 118.655 15.1244 118.439 14.9476C115.174 14.8912 111.098 14.9697 107.946 14.8447C107.846 14.8406 108.214 14.6836 107.839 14.6573C107.132 14.6083 104.885 14.8562 104.493 14.789C104.442 14.7734 105.716 14.5689 105.328 14.4352C104.345 14.0919 104.038 14.8442 103.157 14.8325C102.455 14.823 97.9074 14.4443 96.8131 14.671C95.6246 14.9126 100.117 14.8239 99.7926 15.0234C96.7773 15.2154 93.541 14.99 90.6723 15.0063C90.6216 15.0068 91.0617 15.1653 90.4191 15.1853C89.2971 15.2201 89.0343 14.9964 88.4602 14.9589C87.8483 14.9191 85.7236 14.9445 85.4456 14.8624C85.4096 14.8516 85.8377 14.6318 85.9028 14.6258C86.8246 14.5375 87.1557 14.8255 87.2398 14.8294C87.5573 14.8413 87.8707 14.7323 88.162 14.7398C88.6434 14.7522 88.9066 14.8547 89.5114 14.8655C89.9317 14.8734 89.5264 14.6768 89.932 14.687C90.0789 14.6915 91.6943 15.1425 91.8495 14.6878C91.9458 14.5444 78.552 14.3192 77.1954 14.4302C78.3355 14.4883 79.4899 14.5465 80.6585 14.6047C78.2784 14.4643 75.5251 14.8199 75.3351 14.2812C66.691 14.2117 58.0849 14.1433 49.4566 14.0763C47.8854 14.0263 48.726 13.6827 46.1983 13.7767C46.8464 13.8886 47.5021 14.0005 48.1652 14.1124C46.8627 14.0316 41.0823 13.8657 40.1904 13.9348C40.0606 13.9438 39.9492 14.2565 38.4564 14.2796C37.1585 14.3001 36.9615 14.0651 36.2844 14.0186C35.7178 13.9801 35.0928 14.04 34.9287 14.0266C34.805 14.016 34.7479 13.8725 34.4249 13.8467C33.4087 13.7669 34.2275 14.1726 33.2294 13.7066C33.4716 13.6895 33.7152 13.6724 33.9602 13.6554C32.7346 13.5853 31.1226 13.3709 32.878 13.2713C33.1828 13.2541 32.9205 13.3922 33.1483 13.3925C41.9628 13.3884 35.0133 13.1015 31.8327 13.3093C31.1093 13.102 26.5374 13.2168 26.4582 13.1762C26.2495 13.117 27.0294 12.9546 26.0013 12.8104C25.7459 12.7797 19.8086 12.8816 21.9624 12.6132C22.4835 12.558 25.2093 12.6233 25.9657 12.617C24.3008 12.1775 20.5135 12.7933 20.0987 12.7765C18.406 12.7049 23.3639 12.406 19.5441 12.3471C16.5043 12.3018 19.3595 12.5988 18.1885 12.7205C17.5418 12.7887 14.1522 12.4614 14.2518 12.8766C13.1214 12.9187 13.7847 12.7003 13.6447 12.6842C13.5343 12.67 11.1944 12.7897 10.4799 12.701C10.3857 12.6899 10.6829 12.4748 10.5854 12.4569C10.3443 12.4262 8.25959 12.4656 8.10313 12.4836C8.0427 12.4962 8.59656 12.686 8.36825 12.7314C8.06145 12.7837 6.02201 12.7357 5.85905 12.7895C5.7227 12.8708 8.29518 12.8215 7.87532 13.0319C6.67589 12.9766 4.7552 13.1144 3.90793 13.2831C4.00308 13.2589 4.33977 13.2456 4.73813 13.2405C5.10116 13.2354 5.46637 13.2385 5.67508 13.2475C5.50408 13.5564 2.98184 13.5483 3.83664 13.3048C3.31709 13.4355 3.66943 13.5058 3.3851 13.6294C3.28393 13.6607 2.48618 13.666 2.36399 13.7194C2.33249 13.73 3.1294 13.8478 2.9722 13.9104C2.68852 14.0235 0.352816 13.9948 0.167957 13.965C-0.395678 13.88 1.56975 13.7801 1.67236 13.6499C1.72308 13.6298 0.0609025 13.3722 0.0469847 13.3497C-0.0497461 13.1072 1.78947 13.284 1.5557 13.0656C1.44593 13.054 1.35699 13.0423 1.24321 13.0307C1.11202 13.019 0.991322 13.0073 0.881012 12.9957C0.766642 12.984 0.684443 12.9724 0.568966 12.9608C0.428784 12.9491 0.314408 12.9375 0.225336 12.9258C1.90012 12.7066 5.19251 12.8255 5.96359 12.5755C3.37577 12.6459 0.759525 12.6337 0.731174 12.068C0.728932 11.9488 0.9862 11.8546 1.29859 11.7828C1.53279 11.7108 1.80917 11.6611 1.78705 11.6308C1.64711 11.4137 0.082721 11.6473 0.0372744 11.636C0.000522844 11.6228 0.00110666 11.6099 0 11.5974C0 11.5974 0 11.5974 0 11.5974C-0.0626552 11.4701 2.14486 11.3815 2.28438 11.3238C2.4947 11.2212 1.45 10.796 1.4824 10.7023C1.4922 10.6929 1.88511 10.6636 2.24452 10.6163C2.54029 10.5688 2.80257 10.5032 2.54527 10.4211C2.05099 10.2551 0.60761 10.2497 0.625067 10.2326C0.302322 10.1333 2.76449 10.0463 2.79422 9.98808C2.81334 9.97335 2.49707 9.92019 2.21294 9.86427C1.84951 9.80824 1.53542 9.74947 1.51939 9.72339C1.46989 9.67101 2.47783 9.55825 2.84004 9.3937C3.12511 9.27146 2.30074 9.17625 2.44895 9.15723C2.53395 9.14456 4.80235 9.15009 4.93454 9.12878C5.09819 9.09715 4.5701 8.94972 4.64271 8.91319C4.79659 8.86072 5.44784 8.91468 5.36966 8.86032C5.36283 8.81982 2.44912 8.31005 2.49839 8.17522C2.5215 7.94499 5.51903 8.47919 2.73252 7.56656C2.69922 7.56054 2.09004 7.62425 2.03116 7.61857C1.62385 7.45088 3.79366 7.19667 1.12801 7.23807C6.11513 6.95468 1.70518 6.89272 2.47065 6.50616C2.74417 6.35751 4.64798 6.29897 4.68952 6.27671C4.48347 6.08736 3.86518 6.233 3.67532 6.14003C3.52819 6.088 5.31593 5.89096 4.90591 5.76055C4.66481 5.69326 2.89174 5.71436 2.78602 5.7012C2.08361 5.57715 2.94352 5.44586 2.79132 5.35825C2.73549 5.32887 2.44712 5.31265 2.17552 5.30247C1.84472 5.29221 1.57787 5.28807 1.56439 5.28277C1.5329 5.27176 1.91213 5.20758 2.32403 5.13583C2.69086 5.06401 3.16936 4.98472 3.34289 4.94337C3.5938 4.87971 2.65227 4.778 2.83066 4.75035C3.82295 4.58484 5.99257 5.01403 3.90132 4.4142C3.84038 4.39581 3.62426 4.39003 3.43233 4.38795C3.21421 4.38584 2.99668 4.38739 2.98777 4.38373C2.7454 4.29882 2.97636 4.25322 3.3346 4.21165C3.64908 4.17002 4.04487 4.13237 4.17861 4.06336C4.60103 3.82545 2.61397 3.95541 4.27293 3.79018C3.07665 3.63234 2.26736 3.63761 0.811081 3.67932C4.99975 3.56357 6.34859 2.94844 1.80848 2.95727C3.24833 2.96888 3.14278 2.62026 3.55225 2.61474C3.67401 2.61322 4.24565 2.69987 4.7258 2.68965C5.16704 2.67937 5.41961 2.57203 4.96792 2.18254C4.85588 2.08522 3.53443 2.20657 3.9455 2.00842C7.02881 2.06402 4.02284 1.88202 4.0069 1.85574C4.05089 1.39745 11.6014 1.78575 12.8565 1.73628C14.3523 1.67861 15.6665 1.32039 16.0242 1.32067C17.0788 1.32267 16.2069 1.50413 16.4409 1.57198C16.6216 1.63907 19.7844 1.29468 19.8707 1.31417C20.4452 1.39285 19.8611 1.60873 19.9211 1.61982C20.6262 1.75434 24.7077 1.59333 25.8875 1.64655C25.8397 1.50556 23.5309 1.48917 24.9726 1.26618C26.6809 1.00628 26.7633 1.62747 26.8055 1.65488C34.3936 1.66645 42.1233 1.68005 49.781 1.6946C49.6484 1.36383 44.6412 1.59979 44.566 1.55615C43.8527 1.29667 52.3265 1.3238 53.3522 1.44336C52.5583 1.36985 51.7742 1.29637 50.9999 1.22293C52.2893 0.846559 55.4011 1.34848 57.2602 1.18594C57.8823 1.1333 56.6888 0.983405 56.7149 0.973469C57.409 0.827866 58.5397 0.944651 57.6955 1.14038C59.4157 0.955373 59.1656 1.16407 60.5095 1.18355C60.5796 1.1844 59.9985 1.0295 61.0695 0.968952C61.5798 0.940725 64.1294 0.947441 64.4942 0.814427C64.637 0.758388 63.3173 0.160259 63.1561 0.671372C60.3575 0.414105 62.2779 0.902008 61.1676 0.887127C60.9999 0.883985 61.3729 0.599457 58.569 0.726062C59.0925 0.212577 62.361 0.606777 62.8678 0.545847C64.0051 0.420842 59.3316 0.141768 58.4613 0.540777C58.8644 0.140069 58.1255 0.485687 57.0972 0.466332C55.9749 0.445323 56.4646 0.327019 55.8612 0.32471C54.1764 0.317101 54.8573 0.602604 53.4563 0.343085C54.8192 1.13839 51.0566 0.441027 50.0196 0.23094C51.7425 0.19536 53.5146 0.159969 55.3365 0.124775C55.2325 0.0829208 55.1286 0.0410666 55.0249 -0.000786565C55.5168 0.00644773 55.9508 0.0135278 56.4128 0.0206885C56.3394 0.0603243 56.266 0.0999601 56.1928 0.139596C58.5554 -0.112917 59.1686 0.179933 59.362 0.183704C61.9941 0.224807 64.7349 0.230066 67.3858 0.23864C67.7837 0.239934 67.5055 -0.019997 70.2666 0.190846C71.1532 0.258015 70.3134 0.457135 71.3228 0.429828C72.592 -0.114178 72.5711 0.322624 72.9509 0.324428C74.0467 0.327572 74.7201 0.19388 74.8081 0.192709C76.1068 0.175366 78.0429 0.203771 79.5242 0.188021C79.552 0.186038 78.7832 0.0154596 79.7435 0.0681255C80.1072 0.0869902 83.0551 0.814159 85.6709 0.588003C84.9885 0.537424 84.3107 0.486865 83.6374 0.436325C84.4006 0.506374 90.095 0.342806 88.7058 0.146267C87.8423 0.0260851 85.7709 0.482756 85.5498 0.0368334C87.4658 0.17581 97.7833 0.00861735 98.5275 0.114527C98.6368 0.129635 97.9629 0.271981 98.1141 0.290934C98.2272 0.305364 100.569 0.278542 100.887 0.335043C101.073 0.368598 100.031 0.453835 100.116 0.506151C100.184 0.543465 103.147 0.614754 103.324 0.434257C102.586 0.504582 100.545 0.43462 101.617 0.285399C101.754 0.266883 102.471 0.385955 102.64 0.362443C104.2 0.145546 99.5398 0.183963 98.8481 0.179972C101.726 -0.0416402 106.261 0.244806 109.596 0.105247C110.958 0.260373 107.578 0.32927 109.117 0.459118C112.321 0.728331 109.969 0.253468 110.068 0.234607C110.855 0.0850966 113.623 0.909019 113.597 0.288707C114.733 0.385788 114.362 0.462767 115.978 0.386922C115.765 0.343268 115.552 0.299614 115.34 0.255963C117.122 -0.0974796 120.994 0.821747 120.707 0.889946C119.92 1.07237 117.913 0.777104 117.745 0.783495C117.495 0.792945 116.78 1.41994 114.062 0.848302C112.939 1.26673 118.394 1.14743 115.908 1.42698C117.572 1.38518 124.606 1.70236 125.566 1.52034C125.686 1.49655 125.129 1.07409 126.847 1.29392C127.664 1.3986 125.695 1.39689 126.068 1.49396C127.222 1.79171 142.949 1.65718 145.836 1.65188C146.029 1.65208 145.958 1.78236 146.148 1.78183C146.728 1.7802 148.864 1.59298 149.925 1.65678C148.548 1.49994 149.717 1.44021 151.053 1.42509C151.825 1.41723 152.646 1.42494 153.04 1.43677C154.654 1.48533 154.556 1.71457 155.256 1.76695C157.998 1.96905 162.109 1.44485 164.241 1.9659C164.127 1.45925 167.838 2.23286 169.554 2.24648C170.903 2.2573 172.814 1.9327 171.032 1.71916C173.312 1.75467 175.737 1.6734 177.908 1.65455C178.262 1.65133 177.774 1.79828 178.378 1.78807C178.433 1.78606 178.51 1.63984 179.03 1.62744C183.331 1.5233 181.239 1.82342 182.044 1.91946C182.496 1.97326 182.83 2.00063 183.075 2.0104C180.547 2.02501 177.686 2.06693 176.89 2.06677C177.566 2.39422 182.443 2.03505 183.899 2.13034C183.949 2.13379 183.774 2.31129 183.824 2.31283C183.825 2.31284 183.827 2.31285 183.828 2.31285C184.381 2.32958 187.789 2.28281 187.089 2.06608C186.895 2.00813 185.342 1.99951 183.449 2.00832C183.959 1.97123 183.579 1.76919 183.669 1.76116C184.772 1.66846 187.402 1.87833 188.35 1.91001C188.566 1.917 188.551 1.78882 188.586 1.78871C189.444 1.82264 189.09 2.1864 189.974 1.81421C191.527 2.27883 187.059 1.86543 187.374 2.16329C187.615 2.39241 197.527 2.32646 197.505 1.9674C197.539 2.00601 197.675 2.05446 197.955 2.1103C198.584 2.23442 201.329 2.21265 201.808 2.14927C201.888 2.13672 201.858 1.78801 201.958 1.78537C202.204 1.77878 205.585 2.07182 206.844 1.87324C206.168 1.82041 205.482 1.76753 204.802 1.71469C208.915 1.73584 208.272 1.62838 206.909 1.51612C206.841 1.51477 206.775 1.50115 206.71 1.49935C205.652 1.41606 204.284 1.33384 204.265 1.30624C204.195 1.20084 211.155 1.18355 209.815 1.499C209.627 1.54206 206.408 1.37907 208.001 1.61921C208.279 1.66126 210.349 1.60768 210.459 1.63376C211.184 1.80712 206.664 2.00499 207.216 2.24852C208.312 2.02625 209.719 2.15504 210.979 2.10349C211.553 2.0802 211.695 1.9063 211.766 1.90343C212.824 1.86412 212.229 2.04379 212.582 2.04132C212.774 2.03931 214.855 1.66181 214.459 2.19699C221.313 1.84277 216.358 1.81324 212.15 1.81842C213.488 1.63061 216.082 1.74085 217.254 1.70247C217.674 1.6885 217.426 1.50763 218.135 1.47603C219.6 1.41099 226.556 1.65942 228.374 1.71927C227.259 1.77579 227.584 1.97318 228.444 1.96497C229.304 1.95667 228.583 1.69144 228.751 1.66444C228.931 1.63649 232.965 1.78455 233.636 1.75496C230.598 1.83055 231.282 2.02963 233.86 2.06605C233.487 2.11985 233.114 2.17365 232.741 2.22745C234.253 2.15795 237.429 2.47503 238.303 2.39207C238.44 2.37872 237.949 2.21181 238.026 2.20431C238.793 2.13949 241.398 2.32297 241.52 2.26785C241.623 2.22196 240.512 2.07761 240.925 2.0126C241.012 1.9989 242.081 2.22709 243.138 2.17934C243.53 2.16179 243.295 2.00537 243.394 1.99701C244.217 1.9277 243.73 2.18552 245.234 2.15314C246.336 2.12911 247.158 1.87927 248.678 1.97347C243.685 1.61647 247.885 1.77902 249.972 1.69386C250.307 1.68029 250.022 1.39718 252.024 1.54699C247.757 2.02819 253.24 1.82358 254.357 1.83638C254.418 1.8385 254.438 2.02411 254.986 2.03063C255.033 2.03076 254.967 1.90499 255.477 1.89869C260.312 1.8394 257.22 1.96098 258.138 2.09054C258.531 2.14576 260.888 1.98385 261.521 1.98372C261.667 1.98423 261.599 2.11403 262.162 2.11262C263.159 2.10979 264.05 1.97698 264.708 1.9703C264.785 1.97017 264.787 2.1757 266.039 2.11728C266.391 2.10097 266.786 2.0306 266.287 1.96823C264.623 1.76291 261.504 2.07881 259.631 1.87266C257.928 1.68489 263.303 1.70329 263.578 1.70411C263.68 1.70414 262.633 1.79931 263.696 1.82648C264.599 1.84921 266.277 1.50528 267.632 1.59153C267.736 1.59795 268.818 1.90607 268.768 1.92329C268.723 1.9358 267.057 1.99013 267.298 2.07882C267.327 2.08893 268.385 2.0939 268.523 2.15966C268.691 2.23971 269.142 3.01731 269.367 3.03823C269.946 3.09005 269.57 2.91089 269.944 2.92566C270.743 2.95685 273.535 3.20452 273.629 2.93666C273.167 2.91764 272.705 2.89863 272.242 2.87961C274.815 2.86914 273.718 2.74755 274.083 2.69962C274.475 2.64776 274.364 2.88302 275.228 2.91097C275.419 2.9171 279.024 2.89205 278.958 2.79259C276.966 2.93679 277.705 2.65012 277.614 2.64429C277.265 2.62295 276.817 2.78354 276.348 2.77713C273.044 2.7294 276.379 2.49351 275.599 2.42188C275.331 2.39774 274.794 2.5338 274.68 2.5259C274.309 2.50029 274.305 2.31737 274.057 2.33051C273.479 2.36098 274.152 2.62426 274.106 2.63742C273.589 2.79591 271.564 2.58092 272.827 2.30776C272.072 2.20124 271.977 2.54283 271.383 2.40207C270.201 2.1233 271.971 2.20465 272.461 2.16294C274.2 2.01226 274.715 2.14704 277.162 2.11851C278.044 2.10856 279.082 1.94931 279.498 1.94299C279.758 1.939 282.197 2.53387 282.273 1.62919C283.22 1.72319 284.698 2.32974 285.668 2.30907C286.542 2.29014 286.269 1.96805 286.35 1.95622C286.477 1.93761 287.541 1.97012 287.901 1.92732C288.322 1.87673 288.113 1.75307 288.781 1.70782C290.44 1.59556 290.393 1.92213 290.563 1.94454C292.533 2.20364 291.672 1.73278 292.11 1.69849C292.503 1.66688 298.264 1.88577 299.445 1.77643C298.958 1.8385 298.47 1.90056 297.981 1.96263C298.854 2.1726 299.779 1.84651 299.793 2.21223C299.977 1.62322 301.798 2.03055 302.342 2.01913C302.557 2.01436 302.541 1.91366 302.81 1.91121C303.863 1.90097 306.207 1.99761 306.777 1.95066C309.241 1.74851 302.97 1.33884 302.47 1.31332C303.465 1.32678 309.057 1.23418 306.479 0.932142C306.085 0.885565 305.382 1.14475 305.159 1.15352C303.651 1.21088 304.839 0.982545 304.721 0.959198C304.52 0.921439 303.524 1.14326 303.261 1.11415C303.173 1.1048 303.741 0.894436 302.294 0.879755C303.02 0.677019 307.033 0.87467 307.592 0.829868C307.781 0.813793 306.597 0.361308 310.075 0.817399C310.035 0.77589 309.995 0.73438 309.955 0.692871C311.887 0.689671 313.809 0.686486 315.76 0.683589C315.549 0.77704 314.457 0.959935 315.83 0.929362C316.619 0.911634 316.037 0.695884 316.109 0.690265C316.79 0.636664 329.353 0.799057 331.737 0.793682C332.556 0.792138 334.887 0.639667 335.056 0.637793C336.1 0.628616 339.804 0.767461 340.556 0.749256C341.02 0.737409 340.581 0.557199 340.994 0.568663C341.378 0.579562 340.979 0.747427 341.093 0.75545C342.023 0.824378 349.187 0.655867 350.914 0.830934C349.814 0.773732 344.701 1.07529 344.77 1.19641C344.793 1.21312 346.067 1.35304 346.327 1.29167C346.759 1.44301 348.233 1.00397 349.021 1.09867C349.119 1.1095 348.726 1.35913 350.193 1.41658C350.695 1.43622 352.005 1.24957 353.292 1.48068C354.817 1.40444 362.033 1.67476 364.7 1.61522C365.273 1.60337 365.656 1.57786 365.773 1.53306C365.796 1.51891 364.367 1.41339 365.334 1.31008C366.61 1.17271 365.468 1.66202 366.938 1.71752C367.156 1.72581 371.213 1.71023 371.358 1.68073C372.606 1.41156 369.001 1.26667 369.063 1.23474C369.176 1.15368 372.184 1.13022 372.282 1.15048C372.396 1.17159 370.005 1.52167 372.871 1.40613C372.546 1.35893 372.219 1.31171 371.89 1.26448C373.241 1.18998 373.349 1.4477 373.678 1.46629C374.733 1.52531 375.864 1.1455 377.458 1.64173C377.879 1.77341 377.177 1.90891 377.229 1.92856C377.715 2.10504 378.438 1.65148 379.217 2.00201C379.27 2.02814 377.456 2.21671 380.632 2.24706C380.416 2.21211 380.2 2.17716 379.982 2.1422C380.403 2.07253 383.68 2.06038 384.093 2.08198C385.344 2.14515 384.221 2.37023 385.519 2.35497C384.706 2.02286 388.6 2.02037 388.347 2.2967C388.936 1.95261 392.21 2.25797 393.758 2.28465C394.712 2.30055 396.754 2.17289 397.03 2.1944C397.423 2.22129 397.305 2.45855 397.998 2.5207C398.19 2.53833 400.247 2.39005 402.011 2.66398C402.372 2.717 403.093 3.13331 402.444 3.22452C401.306 3.38001 399.241 3.02525 399.26 3.265C399.302 3.52123 402.095 3.40837 402.877 3.45469C406.374 3.66615 404.35 3.90571 404.436 3.98929C404.664 4.1929 406.583 4.22138 406.659 4.24138C406.991 4.32761 405.625 4.46028 405.588 4.58209C405.584 4.74067 407.407 5.06281 406.987 5.10846C406.412 5.17273 404.698 4.9029 404.601 4.91298C403.179 5.04353 405.123 5.44349 405.616 5.63343C405.771 5.69179 405.144 5.77186 405.274 5.79051C407.313 6.07512 405.734 5.28175 407.055 5.35822C408.275 5.4284 406.698 5.63802 406.76 5.65282C406.791 5.66769 408.281 5.71145 408.476 5.8018C408.622 5.84529 404.795 6.241 404.999 6.45712C406.177 6.43126 407.399 6.40823 408.565 6.38801C408.682 6.66478 406.912 6.42512 406.774 6.45138C406.429 6.50145 407.379 6.65917 407.356 6.74572C407.3 6.79972 406.194 6.97502 407.207 7.07636C407.608 7.1128 408.315 6.93342 409.666 7.1636C405.052 7.31067 408.264 7.53713 408.375 7.63636C408.515 7.73673 406.321 7.91762 408.972 7.9358C409.089 8.47337 408.871 8.1021 408.157 8.18041C407.235 8.27705 409.359 8.49465 405.985 8.29486C406.188 8.54771 408.857 8.58507 409.031 8.61082C409.161 8.63191 408.528 8.74039 408.752 8.78729C411.272 9.33251 409.543 9.06928 410.282 9.39707C410.351 9.42449 412.758 9.61399 410.912 9.60192C407.556 9.59138 406.225 9.22284 405.612 9.96772C408.093 10.3397 411.059 9.92662 411.821 9.94761C412.963 9.97595 411.761 10.0879 411.911 10.1368C411.931 10.1445 412.187 10.1535 412.453 10.1638C412.713 10.1737 412.942 10.1833 412.948 10.1897C413.672 10.784 408.546 10.0537 406.954 10.1346C407.375 10.2295 407.838 10.3258 408.247 10.4215C407.687 10.4125 407.05 10.403 406.501 10.3959C409.279 10.6263 406.592 10.4625 405.892 10.9187C405.734 11.021 407.59 10.8752 405.46 11.1281C407.054 11.2252 406.468 11.3094 407.915 11.2074C407.848 11.3922 404.772 11.5442 403.489 11.6214C407.868 11.9088 405.366 11.1711 409.147 11.6178C409.859 11.4022 408.031 11.4045 408.197 11.3705C408.701 11.2439 409.966 11.4898 411.449 11.0532C411.69 10.982 410.692 10.7036 412.181 10.7661C412.372 10.7736 413.296 11.0212 413.292 11.0373C413.139 11.1925 412.228 11.0949 412.163 11.1616C412.146 11.2247 413.168 11.2266 413.192 11.2469C413.201 11.4514 412.318 11.2886 412.441 11.3581C412.724 11.5058 416.447 12.1144 411.553 11.7782C415.66 11.7117 412.08 11.5567 410.477 11.6085C410.064 11.6194 409.933 11.7382 409.37 11.7667C408.587 11.8024 407.748 11.7259 407.329 11.7398C406.911 11.7565 409.299 12.0924 405.839 11.9384C407.595 12.2577 410.695 12.0175 412.412 12.2878C415.777 12.8391 410.021 12.6868 409.374 12.7315C409.214 12.7382 409.744 12.9167 409.637 12.9242C409.474 12.9326 406.119 12.7849 405.775 12.9174C405.446 13.0478 407.009 12.9344 407.094 13.079C407.19 13.1748 403.141 13.2727 405.301 13.3766C406.837 13.4471 409.623 13.1244 410.064 13.5528C407.838 13.5284 405.642 13.5233 403.396 13.5209C404.639 13.6986 405.861 13.8778 407.033 14.059C404.556 14.0597 402.378 13.8486 400.023 14.041C405.737 14.6296 398.111 14.4157 398.083 14.4793C398.051 14.5154 400.294 14.9558 400.655 15.0363C398.654 15.1635 392.613 15.1682 396.141 15.7173C395.529 15.5953 393.892 15.858 393.947 15.88C394.161 16.1057 397.519 16.0022 396.98 16.1976C396.337 16.4239 395.481 16.0952 394.457 16.1085C389.397 16.1825 390.748 17.3653 385.695 17.1282C385.798 17.1708 385.9 17.2134 386.002 17.2561C380.461 17.1338 374.915 17.0176 369.399 16.9037C368.375 17.0643 366.586 17.187 364.568 17.2639C362.49 17.3502 360.085 17.3803 358.656 17.348C358.105 17.3358 355.294 17.1259 355.07 17.0913C354.676 17.0253 356.854 17.0188 355.871 16.893C355.626 16.8668 350.956 16.7509 351.274 16.9529C351.81 16.9803 353.462 16.8932 353.726 16.9423C355.669 17.2928 341.007 16.9095 340.322 17.0401C340.645 17.1074 340.968 17.1746 341.29 17.2419C340.372 17.203 339.445 17.164 338.512 17.125ZM380.99 1.45748C381.499 1.26214 382.968 1.4266 383.765 1.37827C384.854 1.31021 386.844 0.559702 385.989 1.32353C384.291 1.36733 382.673 1.41251 380.99 1.45748ZM356.714 0.949051C357.83 1.0656 356.964 1.49 356.042 1.30321C355.939 1.282 355.194 0.792072 356.714 0.949051ZM368.389 1.25079C368.344 1.25611 367.392 1.23656 367.357 1.2295C366.504 1.049 369.373 1.10891 368.389 1.25079ZM311.946 1.03654C313.164 1.02665 312.286 0.628146 311.525 0.784108C311.477 0.794015 311.866 1.03688 311.946 1.03654ZM312.812 1.05314C313.759 1.41114 315.707 0.713374 314.167 0.773958C314.017 0.780115 312.762 1.03568 312.812 1.05314ZM360.674 1.15284C360.541 1.28635 359.383 1.21185 358.909 1.17578C358.923 1.053 360.17 1.16372 360.674 1.15284ZM331.522 0.962514C331.443 1.06771 335.5 1.09236 335.755 0.95486C335.142 1.00935 331.539 0.867518 331.522 0.962514ZM321.284 1.03547C321.387 1.05451 322.771 1.03683 322.731 0.943166C322.059 0.81575 320.826 0.949319 321.284 1.03547ZM300.916 0.883591C300.841 0.906532 301.871 1.50792 299.419 1.09968C299.06 1.03991 300.342 0.893618 300.217 0.871426C299.947 0.827957 299.735 0.807093 299.567 0.802448C300.71 0.761183 301.906 0.74641 302.019 0.783248C302.558 0.957261 300.95 0.874038 300.916 0.883591ZM290.226 1.25215C289.992 1.34745 288.491 1.28534 288.148 1.24309C288.089 1.23518 288.347 0.982222 287.669 0.996631C287.124 1.00863 287.937 1.27508 286.875 1.22608C285.802 1.17685 287.238 1.00071 287.144 0.986803C287.017 0.968541 285.359 1.07438 285.415 0.923047C285.449 0.810888 287.228 0.89901 287.667 0.878138C288.229 0.851291 287.549 0.659394 288.488 0.706044C289.077 0.735203 288.748 1.06221 288.872 1.0797C288.978 1.09382 291.034 0.918452 290.223 1.25109C290.224 1.25145 290.225 1.2518 290.226 1.25215ZM299.261 0.814856C299.346 0.804326 299.447 0.79911 299.567 0.802448C299.465 0.806199 299.362 0.810675 299.261 0.814856ZM377.755 1.57171C377.159 1.46467 378.934 1.35078 379.577 1.48988C379.593 1.59728 377.856 1.58842 377.755 1.57171ZM298.207 1.07563C296.519 0.981386 297.765 0.876607 299.261 0.814856C298.786 0.873512 298.773 1.10713 298.207 1.07563ZM346.327 1.29167C346.255 1.26655 346.21 1.22791 346.205 1.16496C346.393 1.23523 346.409 1.27231 346.327 1.29167ZM342.368 1.14874C341.022 1.33 343.752 1.34329 343.731 1.20603C343.724 1.15422 342.423 1.14154 342.368 1.14874ZM310.377 1.00662C310.501 1.02626 308.576 1.59112 311.367 1.17686C309.881 1.09805 311.45 1.04625 311.427 0.995417C311.37 0.84936 308.865 0.971478 308.305 0.904564C307.867 1.16202 309.971 0.941935 310.374 1.0066C310.375 1.00661 310.376 1.00662 310.377 1.00662ZM270.954 0.981658C271.292 0.831212 272.37 0.88751 273.1 0.90137C272.759 1.05178 271.675 0.995436 270.954 0.981658ZM80.6812 0.022095C85.637 -0.104124 86.2462 0.519551 81.7603 0.260213C81.6921 0.254844 80.3688 0.0841806 80.6812 0.022095ZM123.426 0.319088C123.876 0.591593 122.391 0.630214 121.329 0.514764C121.094 0.48881 120.228 0.211439 121.219 0.161052C121.192 0.48944 122.708 0.619959 123.426 0.319088ZM297.252 1.24253C296.759 1.41983 295.24 1.28064 294.436 1.24793C294.928 1.10252 296.547 1.18105 297.252 1.24253ZM97.0572 0.396726C97.5716 0.418865 97.9219 0.184195 97.8326 0.164298C97.4328 0.0730555 96.472 0.260665 97.0572 0.396726ZM302.154 1.30487C302.224 1.41336 300.201 1.50313 300.061 1.23511C300.495 1.25747 302.105 1.23675 302.154 1.30487ZM272.323 1.07183C272.634 1.12881 271.017 1.21636 270.531 1.15864C270.571 1.04396 272.114 1.03474 272.323 1.07183ZM105.505 0.34355C105.965 0.365507 107.126 0.375487 107.256 0.280593C107.415 0.161966 105.713 0.197093 105.505 0.34355ZM17.9974 0.30733C17.933 0.264369 19.7968 -0.0402896 20.5673 0.0394816C22.0874 0.192175 18.0946 0.337727 17.9974 0.30733ZM92.0518 0.502677C90.5786 0.273873 92.2138 0.496106 92.1508 0.2598C91.1518 0.248187 88.7149 0.229025 90.3924 0.466359C90.7194 0.512282 91.588 0.485951 92.0518 0.502677ZM93.4196 0.585913C93.5789 0.50992 94.6567 0.272154 93.7259 0.286526C93.296 0.293537 92.6055 0.559318 93.4196 0.585913ZM29.2736 0.227502C30.5924 0.439575 24.521 0.313353 24.3294 0.276412C24.2374 0.256869 24.1773 0.238509 24.1432 0.222993C23.9156 0.288724 22.8038 0.298191 22.669 0.130334C23.0078 0.144913 23.9211 0.132214 24.0332 0.151038C24.0798 0.159049 24.1146 0.166544 24.1386 0.174138C24.551 0.0295509 29.003 0.187186 29.2736 0.227502ZM39.397 0.467302C37.8306 0.771723 37.5754 0.246822 37.7045 0.230266C39.3841 0.0198891 38.2882 0.403797 38.3388 0.422033C38.4537 0.452446 39.664 0.276089 39.3921 0.467289C39.3937 0.467294 39.3953 0.467298 39.397 0.467302ZM31.3495 0.318673C31.2909 0.325359 30.0373 0.306162 29.9661 0.297722C28.9226 0.119047 32.5142 0.1727 31.3495 0.318673ZM282.165 1.56402C281.251 1.50571 282.15 1.31891 282.757 1.39239C282.806 1.39957 282.972 1.61553 282.165 1.56402ZM94.1546 0.536243C94.3932 0.573404 99.7874 0.727822 99.4592 0.435481C99.0278 0.468458 92.8364 0.2991 94.1546 0.536243ZM134.662 0.739421C133.713 0.733934 134.748 0.462701 135.256 0.566853C135.445 0.605542 134.902 0.740631 134.662 0.739421ZM304.862 1.57336C305.85 1.4294 305.643 1.93433 304.788 1.75471C304.754 1.74768 304.823 1.57899 304.862 1.57336ZM127.022 0.555604C130.343 0.400279 129.529 1.26857 125.255 0.960181C125.388 0.921829 125.522 0.883478 125.655 0.845127C120.759 0.698092 125.309 0.78256 126.527 0.737888C126.987 0.720897 126.601 0.574203 127.019 0.554555C127.02 0.554904 127.021 0.555254 127.022 0.555604ZM139.711 0.77333C142.937 1.40269 136.771 0.978852 135.061 1.05359C136.74 0.80401 138.948 0.850211 135.956 0.578594C140.335 0.543029 138.519 0.783066 138.69 0.804117C138.898 0.827788 139.574 0.746311 139.711 0.77333ZM131.358 0.748982C131.17 0.766376 129.764 0.63576 129.261 0.654596C129.972 0.445786 132.573 0.630437 131.358 0.748982ZM49.979 0.351384C49.8759 0.51659 49.5717 0.63766 48.4624 0.572864C48.8009 0.490612 49.5297 0.421034 49.979 0.351384ZM382.033 2.33837C382.809 2.35767 384.29 2.43459 383.836 2.25614C383.794 2.24085 382.043 2.24077 382.033 2.33837ZM109.894 0.720409C110.044 0.741225 114.248 0.768585 112.796 0.581236C112.347 0.524691 108.56 0.535785 109.894 0.720409ZM88.5237 0.632074C88.8935 0.634938 90.2492 0.607948 90.2855 0.568914C90.3723 0.433878 88.7035 0.503117 88.5237 0.632074ZM385.831 2.54519C385.946 2.56341 388.224 2.55646 387.968 2.47358C387.516 2.31692 385.492 2.48257 385.831 2.54519ZM278.827 1.92912C278.636 1.93396 278.385 1.75251 278.319 1.75007C278.166 1.74645 274.657 1.79206 275.999 1.57028C276.22 1.53306 281.274 1.6557 281.935 1.68302C282.189 1.9315 280.027 1.68213 279.498 1.70396C279.405 1.70816 279.342 1.91419 278.829 1.9281C278.828 1.92844 278.828 1.92878 278.827 1.92912ZM44.2915 0.511C44.1038 0.667364 39.9716 0.760664 40.0442 0.570783C41.4209 0.550712 42.8365 0.530782 44.2915 0.511ZM46.3574 0.54237C47.2307 0.65564 45.1839 0.686984 44.6008 0.636513C44.5911 0.530943 46.2261 0.525789 46.3574 0.54237ZM96.3568 1.24255C96.7805 1.20551 95.4787 0.972519 95.7703 0.928937C95.9576 0.90181 96.902 0.990576 97.1819 0.919859C97.2658 0.89737 96.3355 0.679269 96.0467 0.687659C95.6505 0.69883 96.0339 0.869367 95.6021 0.869172C94.1699 0.868324 92.9164 0.743648 91.605 0.742396C91.4865 0.742611 92.4046 0.865041 91.3947 0.860217C91.239 0.859707 90.302 0.678691 89.1127 0.701438C86.3798 1.24463 84.4062 0.696995 81.0407 0.885751C81.2055 0.938185 83.6774 1.08497 83.8387 1.09062C86.6922 1.18996 91.7704 1.21557 94.7825 1.22619C95.5587 1.22909 95.1822 1.11116 95.5172 1.10793C95.7828 1.10561 95.4652 1.32079 96.3568 1.24255ZM381.621 2.45394C381.992 2.67341 383.272 2.5491 384.06 2.56805C383.787 2.37055 382.435 2.50956 381.621 2.45394ZM64.894 0.760485C65.2955 0.753291 66.5583 0.821937 66.6649 0.757232C66.7975 0.672712 64.9762 0.613957 64.894 0.760485ZM259.024 1.73671C258.985 1.74235 258.015 1.72448 257.978 1.71745C257.113 1.53852 260.022 1.59294 259.024 1.73671ZM235.868 1.5475C235.134 1.56957 234.393 1.63243 234.147 1.45571C234.615 1.48545 235.955 1.42602 235.868 1.5475ZM203.921 1.3593C204.071 1.5896 201.861 1.42812 201.445 1.40513C201.599 1.30406 203.81 1.19333 203.921 1.3593ZM50.1319 1.07199C48.7822 1.05482 49.0477 1.40305 48.1832 1.24348C48.0433 1.21653 47.5805 0.491649 49.0926 0.766798C49.3609 0.816253 48.3122 0.985425 50.1319 1.07199ZM124.562 0.95059C124.221 1.10122 123.161 1.05264 122.451 1.03812C122.61 0.92588 124.05 0.9597 124.562 0.95059ZM389.987 2.76209C390.596 2.98267 393.557 2.85711 392.827 2.70731C392.718 2.68745 390.389 2.77436 389.987 2.76209ZM293.806 1.91078C292.593 2.07112 295.103 2.14074 295.89 1.98134C295.534 1.98967 293.888 1.90024 293.806 1.91078ZM211.594 1.52932C211.536 1.53588 210.258 1.51201 210.201 1.50337C209.155 1.32095 212.771 1.38757 211.594 1.52932ZM243.48 1.87389C243.017 2.0098 239.997 1.8787 239.319 1.7354C239.973 1.53645 244.052 1.70406 243.48 1.87389ZM55.692 0.988323C54.7273 0.992869 53.7778 0.947515 52.8947 0.885087C53.0689 0.768644 55.6092 0.900764 55.692 0.988323ZM206.909 1.51612C206.841 1.51477 206.775 1.50115 206.71 1.49935C206.778 1.50471 206.844 1.51076 206.909 1.51612ZM77.2207 1.13206C78.0248 1.18063 77.8596 0.965928 77.8095 0.959217C77.2023 0.888036 76.3132 1.07725 77.2207 1.13206ZM382.562 2.78102C382.848 2.97708 384.208 2.84043 384.959 2.89396C384.747 2.73912 383.208 2.76695 382.562 2.78102ZM143.1 1.18097C144.1 1.39402 140.033 1.62345 139.119 1.48526C139.069 1.35558 142.967 1.15181 143.1 1.18097ZM297.549 2.22671C297.63 2.37875 299.355 2.20798 298.99 2.13387C298.759 2.08671 297.502 2.13227 297.549 2.22671ZM137.027 1.38975C136.637 1.43464 135.734 1.28208 136.053 1.19208C136.461 1.07671 137.127 1.37686 137.027 1.38975ZM102.244 1.39627C102.412 1.41994 104.73 1.27188 103.773 1.11432C103.109 1.00482 103.003 1.22345 102.848 1.2236C102.668 1.22232 98.9939 0.942685 102.244 1.39627ZM166.245 1.41833C165.383 1.47204 164.369 1.3991 163.45 1.39849C163.832 1.30679 165.878 1.29197 166.245 1.41833ZM290.864 2.22098C291.062 2.28355 296.772 2.35994 293.526 2.14891C293.323 2.13685 290.237 2.03112 290.864 2.22098ZM50.1319 1.07199C50.2978 1.07415 50.4896 1.08189 50.713 1.09745C50.4911 1.09096 50.2989 1.08018 50.1319 1.07199ZM65.4397 1.13721C65.1248 1.24658 66.7069 1.28057 67.1828 1.22326C67.3258 1.08895 65.4793 1.1219 65.4397 1.13721ZM163.381 1.55194C162.857 1.61231 161.911 1.54006 161.268 1.54409C161.377 1.44214 163.154 1.44661 163.381 1.55194ZM199.814 1.86852C198.793 1.80167 197.512 1.8223 197.494 1.94759C197.472 1.92787 197.422 1.90678 197.339 1.88539C197.255 1.8642 196.149 1.91614 195.67 1.87059C192.802 1.59972 206.754 1.78539 198.672 2.09262C199.057 2.01794 199.434 1.94322 199.814 1.86852ZM247.572 2.19504C248.156 2.3514 249.793 2.1706 249.369 2.10779C249.074 2.06471 246.988 2.03764 247.572 2.19504ZM225.069 2.14483C225.243 2.17314 226.844 2.07605 226.886 1.99592C225.966 1.90557 224.273 2.01341 225.069 2.14483ZM252.067 2.40257C252.434 2.42796 252.904 2.18486 252.861 2.17385C252.488 2.0816 251.45 2.26157 252.067 2.40257ZM52.8956 1.74247C53.4357 1.8144 55.2222 1.64113 55.5993 1.47963C55.6678 1.51125 55.8525 1.55274 56.1934 1.60286C56.1924 1.60285 56.1913 1.60285 56.1903 1.60285C56.624 1.66947 70.6674 1.78091 61.3081 1.44144C61.0058 1.43056 61.4151 1.5776 60.1895 1.54846C60.1087 1.54637 60.0687 1.42713 59.8201 1.42064C59.2363 1.40641 56.2479 1.32318 55.6707 1.41747C55.6657 1.39538 55.6277 1.37427 55.547 1.35478C54.7867 1.18089 52.4654 1.68695 52.8956 1.74247ZM221.9 2.14733C222.221 2.19342 223.239 2.15771 223.345 2.05324C222.841 1.99864 221.155 2.03983 221.9 2.14733ZM291.037 2.65346C291.691 2.74441 293.342 2.59418 292.844 2.50483C292.54 2.44987 290.285 2.54902 291.037 2.65346ZM232.102 2.15386C228.344 2.00634 231.205 2.15835 230.628 2.30894C231.119 2.25724 231.611 2.20555 232.102 2.15386ZM35.5209 1.29944C36.1063 1.33635 35.4189 1.63882 34.7737 1.4722C34.5688 1.41928 35.1961 1.27936 35.5209 1.29944ZM8.46961 1.33526C8.98211 1.60586 6.44657 1.44296 7.42684 1.25964C7.46433 1.25346 8.42321 1.32491 8.46961 1.33526ZM27.3604 1.48469C27.7615 1.30197 28.0142 1.28077 29.1725 1.32886C27.4678 1.37662 29.0357 1.54269 27.3604 1.48469ZM197.505 1.9674C197.498 1.95995 197.493 1.95443 197.494 1.94759C197.501 1.95439 197.504 1.96081 197.505 1.9674ZM255.601 2.37756C256.07 2.53616 257.386 2.53324 256.995 2.37411C256.957 2.35937 255.794 2.26386 255.601 2.37756ZM55.5993 1.47963C55.5385 1.4516 55.5695 1.43366 55.6707 1.41747C55.6753 1.43827 55.6491 1.45782 55.5993 1.47963ZM248.518 2.45882C248.566 2.34305 246.56 2.28512 246.479 2.29824C245.326 2.49219 247.69 2.46051 248.518 2.45882ZM304.311 2.90909C304.414 2.8977 303.75 2.5934 303.34 2.70791C303.023 2.79675 303.924 2.95246 304.311 2.90909ZM23.4708 1.55068C22.8733 1.54914 21.9343 1.54721 21.7707 1.40455C22.2198 1.42737 23.4907 1.4463 23.4708 1.55068ZM9.41844 1.53234C10.1921 1.36643 11.8568 1.37003 12.9992 1.39984C12.9824 1.62 10.1524 1.48185 9.41844 1.53234ZM51.1819 1.65574C51.2299 1.66482 52.8146 1.73481 52.5997 1.58682C52.2787 1.36977 50.738 1.57438 51.1819 1.65574ZM301.213 2.7283C300.496 2.82479 302.143 3.14834 302.896 2.91264C303.285 2.79195 301.335 2.71214 301.213 2.7283ZM259.719 2.60799C260.661 2.52881 258.328 2.36165 258 2.51366C258.434 2.52885 259.384 2.63601 259.719 2.60799ZM227.712 2.56116C230.673 3.02396 229.063 2.20303 228.537 2.27109C228.463 2.28081 227.639 2.55025 227.712 2.56116ZM397.326 3.73637C397.745 3.67988 396.188 3.4364 395.991 3.58141C395.879 3.67219 397.018 3.77173 397.326 3.73637ZM183.075 2.0104C183.201 2.00967 183.326 2.0089 183.449 2.00832C183.356 2.01506 183.235 2.01675 183.075 2.0104ZM268.255 3.25951C266.172 2.61806 266.386 3.10328 266.205 3.09944C265.813 3.0901 264.897 2.91435 264.162 2.93739C265.005 2.87225 265.858 2.8072 266.704 2.74211C266.028 2.69229 260.238 2.42329 260.113 2.52429C259.938 2.66809 261.764 2.63454 261.817 2.64766C261.893 2.66635 262.176 3.07118 262.345 3.08761C262.619 3.11386 267.478 3.15416 268.255 3.25951ZM233.91 2.52987C233.434 2.479 233.299 2.3185 233.077 2.35529C233.002 2.36788 232.989 2.52008 232.731 2.55788C233.124 2.54854 233.517 2.5392 233.91 2.52987ZM271.988 2.71995C272.574 2.90993 269.935 2.82172 269.85 2.80032C269.4 2.6712 271.506 2.56472 271.988 2.71995ZM249.518 2.60031C249.613 2.61177 251.65 2.68294 251.634 2.57959C251.094 2.49739 248.377 2.45706 249.518 2.60031ZM232.413 2.56629C231.698 2.5441 230.349 2.3824 230.502 2.61266C230.503 2.61267 230.504 2.61267 230.505 2.61268C231.141 2.59721 231.777 2.58175 232.413 2.56629ZM298.767 3.19548C300.08 3.56987 299.461 3.10406 298.295 2.97811C297.941 3.1396 298.552 3.13455 298.767 3.19548ZM303.01 3.49751C303.384 3.56583 307.156 3.52048 306.581 3.32318C306.378 3.25286 304.208 3.41121 304.106 3.39714C303.954 3.37626 304.65 3.16739 303.488 3.20156C303.555 3.27447 302.884 3.47467 303.01 3.49751ZM299.854 3.43692C301.179 3.72393 301.479 3.21377 300.483 3.2054C300.094 3.20177 299.665 3.39552 299.854 3.43692ZM294.49 3.35593C294.965 3.40781 296.229 3.48743 297.097 3.32311C295.936 3.30048 294.77 3.27785 293.6 3.2552C293.464 3.35078 294.074 3.31036 294.493 3.35596C294.492 3.35595 294.491 3.35594 294.49 3.35593ZM1.51644 2.83218C2.02918 2.90549 1.6815 2.95525 1.23089 2.98229C0.682686 3.0092 0.165147 3.01365 0.0456299 2.99574C-0.258697 2.87693 1.04697 2.76661 1.51644 2.83218ZM405.426 8.51126C405.72 8.57449 405.928 8.7687 406.562 8.68102C405.927 8.52809 405.262 8.37544 404.641 8.22414C404.136 8.53782 405.132 8.44196 405.426 8.51126ZM407.878 9.73676C407.782 9.74265 408.292 10.2485 407.087 9.89295C406.313 9.65205 410.632 9.52684 411.4 9.77793C410.564 9.85208 408.607 9.68772 407.878 9.73676ZM414.995 12.1711C415.041 12.1983 414.846 12.188 414.442 12.1739C414.247 12.1667 414.042 12.1596 413.875 12.1521C413.704 12.1443 413.553 12.135 413.519 12.1263C412.549 11.9275 415.126 11.9305 414.995 12.1711ZM410.141 11.8416C410.529 11.9003 410.299 11.9334 409.885 11.9432C409.519 11.9542 408.968 11.9426 408.701 11.9088C408.681 11.8157 409.99 11.8229 410.141 11.8416ZM12.0805 10.0269C12.9172 10.3653 13.6995 9.64182 12.3794 9.78533C12.317 9.79208 12.0448 10.0103 12.0805 10.0269ZM413.666 12.5649C412.912 12.4295 414.654 12.453 414.889 12.5563C414.904 12.6044 414.697 12.6061 414.391 12.5994C414.048 12.5893 413.742 12.5762 413.666 12.5649ZM12.6731 10.8303C13.8266 11.0749 13.4041 10.2607 13.2752 10.2277C12.6365 10.097 10.7921 10.4127 10.3415 10.4913C13.2286 10.3746 12.1514 10.7151 12.6731 10.8303ZM17.7557 10.3522C18.7636 10.2675 16.2163 10.0962 15.6799 10.3219C16.2458 10.3122 17.4426 10.3766 17.7557 10.3522ZM23.9735 10.6265C24.5077 10.6568 26.1823 10.7304 26.4702 10.603C25.841 10.6248 24.1956 10.4953 23.9735 10.6265ZM25.221 11.0128C26.0985 11.1887 26.313 10.6825 25.2973 10.8311C25.258 10.8368 25.1889 11.003 25.221 11.0128ZM30.0796 11.2069C30.677 11.4098 31.2728 10.9206 30.3845 10.9052C30.1028 10.9015 30.0181 11.1837 30.0796 11.2069ZM14.0517 11.7081C14.8438 11.7962 15.8949 11.4469 14.1736 11.4049C14.7681 11.3524 15.3826 11.2999 16.0172 11.2475C13.6863 11.0458 13.921 11.5336 13.276 11.5122C12.3272 11.4817 12.4142 11.0798 12.5978 10.9539C11.8248 11.1987 8.75106 11.1969 6.8749 11.2406C8.49203 11.3467 11.0775 11.5308 12.6618 11.5994C13.1358 11.6192 13.572 11.5098 13.9405 11.5229C14.5445 11.5444 14.0072 11.7022 14.0485 11.7081C14.0496 11.7081 14.0506 11.7081 14.0517 11.7081ZM36.4171 11.2295C38.0708 11.4619 37.0193 10.9665 36.0941 11.0521C36.0544 11.0587 36.3761 11.2239 36.4171 11.2295ZM414.394 6.00138C414.377 6.01326 414.349 6.02024 414.148 6.09425C414.006 6.15155 413.801 6.21256 413.361 6.48439C413.366 6.57363 411.897 7.01352 411.444 9.51695C411.367 10.114 411.434 10.7659 411.61 11.3071C411.653 11.4428 411.702 11.5724 411.755 11.6947C411.806 11.8131 411.83 11.8613 411.87 11.94C411.944 12.0847 412.022 12.217 412.101 12.3372C412.42 12.8187 412.736 13.1075 412.989 13.3108C413.501 13.7063 413.801 13.8142 414.015 13.9046C414.205 13.9768 414.213 13.9741 414.291 13.9979C414.415 14.0331 414.492 14.0479 414.548 14.0574C414.665 14.0762 414.66 14.0664 414.678 14.0631C414.7 14.0393 414.598 14.0002 414.524 13.9695C414.353 13.9053 414.251 13.8571 414.034 13.8215C413.661 13.7561 412.928 13.7429 410.661 13.8843C412.591 13.65 410.767 13.6759 411.144 13.5692C411.471 13.4846 412.555 13.6012 411.914 13.3896C412.351 13.5086 413.521 13.5836 414.409 13.6702C414.5 13.6796 414.625 13.6933 414.677 13.701C414.725 13.7047 414.84 13.7356 414.587 13.6807C414.511 13.6615 414.414 13.638 414.224 13.5677C414.03 13.4879 413.753 13.3963 413.265 13.0261C413.024 12.8353 412.719 12.5605 412.416 12.094C412.188 11.8255 411.615 10.4644 411.869 9.37024C412.405 7.14782 413.666 6.86406 413.6 6.8112C413.794 6.69263 413.929 6.62967 414.034 6.58256C414.242 6.49232 414.346 6.4645 414.377 6.4539C414.55 6.40368 414.487 6.42428 414.454 6.42841C414.249 6.46499 413.963 6.50256 413.931 6.49915C413.932 6.49893 413.934 6.49872 413.935 6.4985C413.885 6.49574 413.909 6.37076 414.011 6.24422C414.089 6.12217 414.359 5.97717 414.394 6.00138ZM23.9785 11.9152C24.5269 12.5143 24.7382 11.5657 25.8523 12.0638C27.2881 11.3474 21.8911 12.0548 21.1738 11.4455C27.1472 11.5292 17.2508 10.8346 21.396 11.7536C18.0249 11.416 20.2917 11.8639 19.7707 11.9787C19.2543 12.1011 17.2415 11.9626 17.3638 12.1856C17.3649 12.1856 17.3659 12.1856 17.367 12.1856C18.5443 12.1725 19.7468 12.1594 20.8982 12.1463C19.7432 11.6634 22.1699 11.8127 22.9948 12.206C23.319 12.1091 23.6469 12.0121 23.9785 11.9152ZM17.3134 11.4497C17.4073 11.4609 20.0417 11.3991 19.8401 11.3023C19.5376 11.2401 15.8401 11.3061 17.3134 11.4497ZM6.04738 11.5333C6.97795 11.536 8.42173 11.6323 8.89717 11.452C7.95881 11.4491 6.60579 11.353 6.04738 11.5333ZM53.3998 11.6769C54.5769 11.5315 50.9597 11.4776 52.0048 11.6565C52.0538 11.665 53.3396 11.6837 53.3998 11.6769ZM26.6713 11.8309C27.8306 12.0163 27.2795 11.4333 26.426 11.5829C26.3781 11.5918 26.6177 11.8224 26.6713 11.8309ZM413.946 14.1521C413.918 14.2767 410.795 14.058 410.245 14.0515C410.545 13.9184 414.096 13.978 413.946 14.1521ZM4.42935 12.0638C6.22308 12.579 8.80472 11.9918 9.01561 12.0051C9.27785 12.0188 8.86625 12.242 8.92629 12.2481C9.03622 12.2608 11.9535 12.2475 12.0763 12.2322C12.1765 12.2202 11.6537 11.9044 12.2515 11.8064C11.1539 11.983 5.8707 11.8617 5.54581 11.8962C5.33557 11.9238 6.92103 12.2568 4.43267 12.0638C4.43156 12.0638 4.43045 12.0638 4.42935 12.0638ZM9.68582 12.0749C8.94278 11.9416 11.0531 11.929 11.4807 11.9785C12.553 12.0895 9.79908 12.0907 9.68582 12.0749ZM14.544 12.2058C14.7645 12.2358 16.8945 12.2671 17.0397 12.1205C16.1347 11.928 13.9916 12.1358 14.544 12.2058ZM37.7146 12.2388C38.2526 12.2213 39.7988 12.3381 39.8537 12.2098C39.341 12.2273 37.7884 12.1106 37.7146 12.2388ZM403.164 14.9848C404.033 15.1061 402.012 15.1176 401.37 15.0571C401.33 14.9706 403.112 14.9745 403.164 14.9848ZM26.864 13.0586C27.1477 13.0982 33.6668 13.0163 34.6436 12.9586C33.6869 12.8591 27.2289 12.8364 26.9663 12.8832C26.8829 12.8972 26.8244 13.0524 26.864 13.0586ZM12.726 13.0877C12.1088 13.2755 11.7281 13.0481 11.6532 13.0451C10.968 13.0148 9.35599 13.0545 9.7115 12.8731C11.0775 12.949 13.9212 12.7146 12.726 13.0877ZM38.1825 13.0952C40.4402 13.0307 36.1149 12.8208 36.6919 13.0198C36.7252 13.0318 37.9464 13.102 38.1825 13.0952ZM26.1386 13.1121C25.5746 13.2634 19.15 13.1175 18.0411 13.1151C19.0133 12.8354 19.7448 13.0509 20.998 13.0393C21.3396 13.0358 21.2492 12.9184 21.2859 12.9183C21.8828 12.9142 21.435 13.0486 21.8052 13.0514C22.1103 13.053 26.7834 12.8983 26.1386 13.1121ZM12.376 13.2179C11.9898 13.3255 8.01184 13.3643 7.76749 13.3352C6.54441 13.1188 12.0743 13.1795 12.376 13.2179ZM26.737 13.3639C26.0262 13.6896 22.7546 13.463 24.9855 13.3048C25.1897 13.2904 26.1419 13.4345 26.737 13.3639ZM37.9415 13.4064C38.0551 13.4163 40.3952 13.4876 40.4143 13.3835C40.1331 13.3423 36.6737 13.2973 37.9415 13.4064ZM36.7375 13.7557C36.7939 13.7533 36.2513 13.5514 37.3353 13.5795C37.4283 13.5821 37.5856 13.8082 38.9819 13.7291C39.2699 13.7128 39.699 13.5646 39.665 13.5552C38.1875 13.1972 33.9715 13.8653 36.7375 13.7557ZM12.2999 13.4007C12.5232 13.4964 11.9807 13.7782 11.5148 13.6341C11.3165 13.5719 11.682 13.4028 12.2999 13.4007ZM45.288 13.5166C43.9623 13.6847 48.1254 13.728 48.3695 13.6848C48.2207 13.5775 45.4082 13.5002 45.288 13.5166ZM401.05 16.2767C401.051 16.2768 401.052 16.2768 401.053 16.2768C399.946 16.2219 400.634 16.0892 400.583 16.084C398.126 15.8399 398.829 16.1734 398.44 16.2062C397.647 16.2783 397.748 15.8864 396.399 16.0323C398.668 15.8205 396.568 15.8946 396.536 15.7545C396.278 15.1803 399.514 16.0597 400.657 15.9572C400.816 15.9428 399.661 15.7444 400.064 15.6983C401.32 15.5472 405.392 16.4916 401.05 16.2767ZM11.1572 13.6583C10.6241 13.8248 6.63735 13.6552 7.69446 13.519C7.92378 13.4972 11.9333 13.4155 11.1572 13.6583ZM197.07 14.5628C196.11 14.7023 198.332 14.8856 198.746 14.7751C198.951 14.7201 197.491 14.5016 197.07 14.5628ZM212.614 15.2744C213.755 15.2518 214.95 14.6541 213.539 14.7395C213.39 14.7489 212.483 15.1897 212.614 15.2744ZM137.956 14.5789C139.153 14.7992 139.083 14.3973 138.203 14.4C137.893 14.4008 137.918 14.5719 137.956 14.5789ZM183.274 14.7424C183.393 14.7571 184.773 14.7391 184.723 14.6466C184.213 14.5883 182.504 14.6419 183.274 14.7424ZM137.576 14.6348C138.285 14.5648 137.065 14.2702 136.204 14.5511C136.641 14.5293 137.503 14.6419 137.576 14.6348ZM29.1648 14.257C29.783 14.0936 31.4247 14.1473 32.3732 14.1213C32.4636 14.3351 29.8973 14.22 29.1648 14.257ZM207.788 15.0026C208.863 14.8583 206.563 14.7215 206.773 14.9218C206.802 14.9327 207.746 15.0087 207.788 15.0026ZM99.6628 14.5314C100.44 14.4064 97.9763 14.2273 98.6535 14.4534C98.6862 14.4626 99.6195 14.5384 99.6628 14.5314ZM88.8622 14.4239C89.436 14.4687 91.9389 14.4632 90.9653 14.3358C90.8111 14.3162 88.9033 14.3073 88.8622 14.4239ZM398.372 16.3591C398.701 16.5828 396.808 16.5059 396.559 16.4646C396.43 16.447 397.978 16.0682 398.372 16.3591ZM145.656 14.6398C146.268 14.6144 147.868 14.6722 148.153 14.558C147.393 14.5792 145.454 14.4097 145.656 14.6398ZM202.88 14.9748C203.815 15.2187 205.421 15.2046 205.026 14.8907C203.253 14.9012 205.242 15.172 202.88 14.9748ZM133.629 14.878C134.116 14.8978 134.492 14.5999 134.437 14.5856C133.907 14.4497 133.145 14.7599 133.629 14.878ZM170.604 14.7928C170.64 14.9209 172.202 14.8712 171.995 14.7878C171.925 14.7598 170.588 14.6892 170.604 14.7928ZM49.8674 14.3819C50.5986 14.5006 48.3481 14.6087 47.6921 14.4707C47.3647 14.2735 49.7777 14.3683 49.8674 14.3819ZM119.975 14.7573C119.897 14.9468 122.407 14.8479 121.418 14.6873C121.17 14.6471 120.001 14.6939 119.975 14.7573ZM96.3838 14.9087C98.0564 14.6876 91.0284 14.505 92.8746 14.7928C92.9976 14.8133 96.2287 14.9273 96.3838 14.9087ZM84.994 14.7322C85.2802 14.758 85.1321 15.3952 83.9585 15.1457C83.8044 15.1134 84.526 14.947 84.4002 14.9081C84.3208 14.8858 81.7864 14.7886 81.6761 14.8032C81.5517 14.8197 81.6974 15.0245 81.5712 15.0471C81.4344 15.0723 79.8092 14.8878 78.9793 14.8834C77.409 14.8753 77.248 15.045 77.1192 15.0452C76.7483 15.0452 76.1269 14.9226 75.3847 14.9205C71.5433 14.9105 65.7212 15.0379 62.7198 14.6688C65.3581 14.8211 68.0178 14.675 70.6298 14.6353C69.8357 14.9881 74.5906 14.3733 71.8063 14.7749C73.1666 14.6899 84.0713 14.6514 84.9908 14.7321C84.9918 14.7322 84.9929 14.7322 84.994 14.7322ZM217.096 15.48C216.396 15.6935 219.982 15.6662 220.288 15.4162C219.814 15.3783 217.183 15.4559 217.096 15.48ZM200.564 15.9133C200.23 15.9489 199.92 16.3727 198.171 16.1467C198.17 16.1467 198.168 16.1467 198.166 16.1467C197.655 16.0807 198.239 15.9804 198.145 15.9429C198.111 15.9276 196.516 15.7067 197.842 15.6803C199.865 15.6397 198.032 15.998 199.108 16.0087C199.238 16.0098 201.268 15.7912 201.151 15.74C201.138 15.734 200.527 15.7792 200.427 15.7576C200.046 15.6764 200.233 15.5446 200.179 15.5379C200.009 15.5207 196.782 15.7285 196.316 15.5281C196.166 15.4634 201.447 15.3469 201.65 15.3812C201.78 15.4029 201.723 15.7715 201.857 15.8085C201.926 15.827 204.051 15.7012 204.327 15.7367C204.407 15.747 204.469 15.7579 204.514 15.7669C204.192 15.6509 206.12 15.6704 206.06 15.7989C206.026 15.8493 204.699 15.8122 204.652 15.8031C204.631 15.7992 204.613 15.7939 204.596 15.7903C204.868 15.9309 200.387 15.8985 201.353 16.1111C200.056 16.217 201.539 15.8085 200.564 15.9133ZM194.317 16.1048C194.451 16.0668 194.585 16.0288 194.719 15.9907C192.455 16.0727 189.818 15.871 187.202 15.8577C186.539 15.854 187.3 16.0956 186.432 16.0259C185.736 15.97 184.969 15.7456 185.347 15.6987C185.439 15.6869 186.853 15.8382 187.564 15.8275C189.664 15.7958 189.136 15.5893 189.258 15.5845C189.394 15.5795 190.718 15.7301 191.444 15.7278C193.257 15.7217 194.078 15.6014 196.56 15.7789C195.127 15.9048 195.909 16.2006 194.317 16.1048ZM109.54 15.2989C109.452 15.4266 107.965 15.3082 107.43 15.3253C107.513 15.1972 108.996 15.3159 109.54 15.2989ZM331.31 16.737C331.768 16.5303 328.361 16.4528 329.258 16.6344C329.458 16.6748 330.886 16.7324 331.31 16.737ZM315.933 16.4963C315.474 16.5511 317.318 16.7157 317.315 16.553C317.313 16.5008 315.993 16.4891 315.933 16.4963ZM164.929 15.7365C164.845 15.7427 163.588 15.6893 163.544 15.6784C162.717 15.4508 166.847 15.6015 164.929 15.7365ZM297.219 16.6224C298.816 16.4958 294.01 16.4026 295.478 16.5885C295.552 16.5976 297.143 16.6286 297.219 16.6224ZM290.535 16.6146C290.918 16.6099 292.609 16.6899 292.631 16.6259C292.666 16.5227 290.73 16.4387 290.535 16.6146ZM133.297 15.6708C133.467 15.9082 131.303 15.7215 130.476 15.7486C130.304 15.511 132.533 15.6981 133.297 15.6708ZM147.435 15.8941C138.029 16.0482 140.073 15.5492 148.003 15.7807C148.014 15.9327 148.036 15.8844 147.435 15.8941ZM135.33 15.8243C135.672 15.6737 136.745 15.7224 137.475 15.7371C137.342 15.8421 135.85 15.7988 135.33 15.8243ZM335.4 17.0931C334.813 17.2803 332.166 17.0241 332.636 16.9486C332.751 16.9324 335.623 16.9894 335.4 17.0931ZM164.142 15.9351C164.363 16.1665 161.505 16.0577 161.291 16.0054C160.412 15.7951 163.907 15.9846 164.142 15.9351ZM119.878 15.8285C119.37 16.0072 117.938 15.9096 117.026 15.9042C117.441 15.7514 119.091 15.8226 119.878 15.8285ZM126.474 15.9918C126.415 15.9985 125.144 15.978 125.088 15.9695C124.046 15.7898 127.645 15.847 126.474 15.9918ZM402.593 18.0326C402.556 18.0377 401.576 18.0113 401.536 18.004C400.663 17.8175 403.595 17.8977 402.593 18.0326Z" fill="#FFE885"/>
</svg>
