<svg width="1231" height="583" viewBox="0 0 1231 583" fill="none" xmlns="http://www.w3.org/2000/svg">
<path d="M280.582 112.477C239.086 108.594 267.239 110.39 228.607 107.941C217.972 107.267 207.125 105.948 201.137 106.036C195.149 106.123 176.415 105.781 172.969 106.036C144.501 107.246 127.699 108.667 104.861 118.895C88.6033 126.175 73.5437 137.465 63.3509 155.66C55.6768 169.359 56.4615 201.117 63.3509 211.362C91.7801 253.638 84.8951 241.14 120.122 261.53C201.137 308.425 -63.447 384.872 102.235 425.743C158.247 439.56 289.596 414.128 284.192 466.006C280.957 497.065 325.259 518.917 325.259 518.917C325.259 518.917 354.855 533.08 382.438 535.516C422.976 539.098 457.296 528.053 457.296 528.053C457.296 528.053 490.06 521.106 513.13 495.252C526.072 480.748 561.047 426.254 567.894 418.114C637.277 335.635 711.103 306.973 781.865 323.767C838.232 337.145 930.108 388.819 984.299 406.5C1038.86 424.302 1094.45 419.809 1134.15 398.363C1162.17 383.227 1170.93 367.276 1173.33 364.201C1185.17 349.028 1185.59 321.394 1183.51 308.425C1177.76 272.537 1141.42 241.882 1120.22 233.405C1107.87 228.464 1093.05 224.426 1087.79 222.493C1081.93 220.337 1060.79 216.728 1026.76 209.71L1026.45 209.645C993.778 202.907 973.705 198.767 968.232 194.115C961.944 188.771 942.71 154.12 910.502 108.661C895.122 86.9525 887.732 77.6762 876.437 70.9116C850.993 55.6732 837.028 47.751 816.952 46.921C798.078 46.1407 763.082 45.0729 700.763 59.2064C659.917 68.47 602.321 84.5287 561.591 95.2836C520.861 106.039 497.698 111.329 477.783 115.093C457.868 118.857 441.692 121.027 423.8 121.96C405.908 122.893 386.877 122.597 350.682 118.895C314.486 115.192 311.886 115.406 280.582 112.477Z" stroke="white" stroke-width="93" stroke-linecap="round"/>
</svg>
