<svg width="181" height="12" viewBox="0 0 181 12" fill="none" xmlns="http://www.w3.org/2000/svg">
<path d="M180.427 5.24476L179.85 7.1632L180.18 7.26221L180.523 7.24563L180.427 5.24476ZM178.959 4.80359L178.382 6.72204L178.959 4.80359ZM176.758 4.7784L177.747 6.5203L176.758 4.7784ZM175.293 5.61034L176.282 7.35224L175.293 5.61034ZM173.813 6.11383L173.58 4.12423L173.813 6.11383ZM173.066 6.20135L173.299 8.19095L173.066 6.20135ZM172.319 6.28887L172.086 4.29927L172.319 6.28887ZM170.816 6.329L170.69 8.32827L170.816 6.329ZM169.303 6.2342L169.429 4.23493L169.303 6.2342ZM167.796 6.18457L167.802 4.18138L167.796 6.18457ZM167.046 6.18233L167.04 8.18552L167.046 6.18233ZM166.295 6.18009L166.301 4.1769L166.295 6.18009ZM164.015 5.6875L164.627 3.78001L164.015 5.6875ZM163.251 5.44233L162.639 7.34982L163.251 5.44233ZM161.757 5.65843L162.828 7.35141L161.757 5.65843ZM161.028 6.11971L159.957 4.42673L161.028 6.11971ZM160.298 6.58099L161.369 8.27397L160.298 6.58099ZM158.817 7.03954L158.824 5.03636L158.817 7.03954ZM157.312 7.03409L157.304 9.03727L157.312 7.03409ZM155.809 7.10025L155.626 5.10545L155.809 7.10025ZM155.059 7.16914L155.242 9.16394L155.059 7.16914ZM152.809 7.37384L152.631 5.37857L152.809 7.37384ZM152.059 7.44077L151.881 5.44549L152.059 7.44077ZM151.309 7.50769L151.487 9.50296L151.309 7.50769ZM149.798 7.37135L149.281 9.30663L149.798 7.37135ZM149.038 7.16808L148.52 9.10336L149.038 7.16808ZM148.277 6.96481L147.76 8.90009L148.277 6.96481ZM146.767 6.80313L146.656 4.80301L146.767 6.80313ZM145.267 6.88631L145.378 8.88643L145.267 6.88631ZM143.758 6.7243L143.239 8.65914L143.758 6.7243ZM142.999 6.52071L143.518 4.58587L142.999 6.52071ZM142.24 6.31711L141.721 8.25194L142.24 6.31711ZM140.733 6.18682L140.928 8.18047L140.733 6.18682ZM139.985 6.26012L140.18 8.25377L139.985 6.26012ZM139.237 6.33343L139.041 4.33978L139.237 6.33343ZM137.752 6.76561L136.875 4.96453L137.752 6.76561ZM137.014 7.1245L137.891 8.92558L137.014 7.1245ZM136.277 7.48338L135.4 5.68229L136.277 7.48338ZM134.774 7.48621L135.619 5.66978L134.774 7.48621ZM134.009 7.13016L134.853 5.31373L134.009 7.13016ZM133.243 6.77411L132.398 8.59054L133.243 6.77411ZM131.724 6.41962L131.729 8.42281L131.724 6.41962ZM130.971 6.42117L130.967 4.41797L130.971 6.42117ZM130.219 6.42272L130.223 8.42591L130.219 6.42272ZM128.723 6.73453L127.951 4.88617L128.723 6.73453ZM127.98 7.04478L128.753 8.89314L127.98 7.04478ZM127.238 7.35503L126.466 5.50667L127.238 7.35503ZM125.749 7.71638L125.612 5.71785L125.749 7.71638ZM125.002 7.76747L124.865 5.76895L125.002 7.76747ZM124.255 7.81857L124.392 9.81709L124.255 7.81857ZM122 7.67701L121.746 9.66407L122 7.67701ZM121.246 7.58069L121.5 5.59364L121.246 7.58069ZM119.746 7.68582L120.269 9.6197L119.746 7.68582ZM118.255 8.08873L117.732 6.15485L118.255 8.08873ZM116.763 8.51247L116.191 6.59275L116.763 8.51247ZM115.272 8.95704L115.844 10.8768L115.272 8.95704ZM113.767 8.8777L114.506 7.01597L113.767 8.8777ZM113.007 8.57609L112.268 10.4378L113.007 8.57609ZM112.248 8.27448L112.987 6.41274L112.248 8.27448ZM110.732 8.15079L111.19 10.1008L110.732 8.15079ZM109.219 8.50665L109.677 10.4567L109.219 8.50665ZM107.713 8.55922L108.043 6.58349L107.713 8.55922ZM106.214 8.30849L105.884 10.2842L106.214 8.30849ZM104.712 7.91227L105.39 6.02723L104.712 7.91227ZM103.205 7.37055L102.528 9.2556L103.205 7.37055ZM101.701 7.3006L102.219 9.23574L101.701 7.3006ZM100.199 7.70242L99.6816 5.76728L100.199 7.70242ZM98.6998 7.72609L99.1613 5.77677L98.6998 7.72609ZM97.2026 7.37162L96.7411 9.32094L97.2026 7.37162ZM95.6989 7.68452L94.6082 6.00429L95.6989 7.68452ZM94.1888 8.66479L93.0981 6.98456L94.1888 8.66479ZM92.6835 8.83523L91.8982 10.6781L92.6835 8.83523ZM91.183 8.19586L90.3977 10.0387L91.183 8.19586ZM89.6829 8.0766L89.1656 6.14134L89.6829 8.0766ZM88.933 8.27703L89.4503 10.2123L88.933 8.27703ZM88.1831 8.47746L87.6659 6.54219L88.1831 8.47746ZM86.6828 8.28253L87.6165 6.51023L86.6828 8.28253ZM85.9324 7.88719L86.866 6.11488L85.9324 7.88719ZM85.1819 7.49184L84.2483 9.26414L85.1819 7.49184ZM83.6776 7.36904L82.9965 5.48518L83.6776 7.36904ZM82.9237 7.64159L83.6048 9.52545L82.9237 7.64159ZM82.1699 7.91414L82.8509 9.798L82.1699 7.91414ZM80.664 8.365L81.1261 10.3142L80.664 8.365ZM79.9119 8.54331L80.3741 10.4925L79.9119 8.54331ZM79.1599 8.72163L78.6977 6.77247L79.1599 8.72163ZM77.6596 8.69795L77.1375 10.6319L77.6596 8.69795ZM76.1632 8.29396L76.6853 6.35999L76.1632 8.29396ZM74.666 7.83833L75.3085 5.94096L74.666 7.83833ZM71.6652 7.20785L71.3237 5.23397L71.6652 7.20785ZM70.1576 7.46867L69.8161 5.4948L70.1576 7.46867ZM68.6487 7.9352L69.4632 9.76532L68.6487 7.9352ZM67.8935 8.27131L67.0789 6.44119L67.8935 8.27131ZM67.1383 8.60743L67.9528 10.4375L67.1383 8.60743ZM65.6355 8.5934L64.7859 10.4075L65.6355 8.5934ZM62.6421 7.52084L62.7012 5.51851L62.6421 7.52084ZM61.1411 7.47652L61.2002 5.47419L61.1411 7.47652ZM59.6389 7.53546L59.424 5.54382L59.6389 7.53546ZM58.8871 7.61656L58.6723 5.62492L58.8871 7.61656ZM58.1354 7.69766L58.3503 9.68931L58.1354 7.69766ZM56.6339 7.71163L56.8125 5.71641L56.6339 7.71163ZM55.1343 7.57736L54.9556 9.57258L55.1343 7.57736ZM53.6368 7.30622L53.1095 9.23877L53.6368 7.30622ZM52.8892 7.10222L53.4165 5.16968L52.8892 7.10222ZM49.8819 7.24023L50.5622 9.12436L49.8819 7.24023ZM49.1258 7.51324L48.4455 5.62911L49.1258 7.51324ZM46.8679 7.69187L46.7422 9.69112L46.8679 7.69187ZM46.1169 7.64468L46.2426 5.64542L46.1169 7.64468ZM44.6151 7.54775L44.4827 9.54657L44.6151 7.54775ZM43.1134 7.44828L43.2458 5.44946L43.1134 7.44828ZM41.6026 7.72717L40.8075 5.88854L41.6026 7.72717ZM40.0828 8.38444L40.8779 10.2231L40.0828 8.38444ZM38.5853 8.22645L37.4821 9.89849L38.5853 8.22645ZM37.8478 7.73983L38.951 6.06779L37.8478 7.73983ZM37.1103 7.25321L36.0071 8.92525L37.1103 7.25321ZM35.6233 6.7676L35.626 8.7708L35.6233 6.7676ZM32.6199 6.81233L32.5094 4.81218L32.6199 6.81233ZM31.8647 6.85404L31.9752 8.85419L31.8647 6.85404ZM29.6152 6.72944L29.0725 8.65775L29.6152 6.72944ZM28.876 6.52143L28.3333 8.44973L28.876 6.52143ZM28.1368 6.31341L28.6794 4.38511L28.1368 6.31341ZM26.646 6.09151L26.609 8.09436L26.646 6.09151ZM23.6111 6.51866L22.5795 4.8015L23.6111 6.51866ZM22.8307 6.98748L21.7991 5.27031L22.8307 6.98748ZM22.0503 7.4563L23.0819 9.17346L22.0503 7.4563ZM20.5334 7.67825L21.1701 5.77892L20.5334 7.67825ZM19.0605 7.18453L18.4239 9.08387L19.0605 7.18453ZM16.099 6.45243L15.6722 8.40962L16.099 6.45243ZM13.9651 5.66914L13.1485 7.49834L13.9651 5.66914ZM13.269 5.35837L12.4524 7.18757L13.269 5.35837ZM11.8319 4.91288L12.1902 2.94199L11.8319 4.91288ZM10.3499 4.64345L9.99158 6.61434L10.3499 4.64345ZM8.85567 4.39222L8.54947 6.37188L8.85567 4.39222ZM7.34915 4.1592L7.04295 6.13886L7.34915 4.1592ZM2.00855 2.00266L2.00049 -0.000520498L0.595142 0.00513923L0.122197 1.32852L2.00855 2.00266ZM2.1149 2.00223L2.12297 4.00542L2.68248 0.0811227L2.1149 2.00223ZM180.527 5.23993L180.43 3.23906L180.33 3.24389L180.427 5.24476L180.523 7.24563L180.623 7.2408L180.527 5.23993ZM180.427 5.24476L181.003 3.32632L179.535 2.88515L178.959 4.80359L178.382 6.72204L179.85 7.1632L180.427 5.24476ZM178.959 4.80359L179.535 2.88515C178.425 2.55165 177 2.33751 175.769 3.0365L176.758 4.7784L177.747 6.5203C177.603 6.6025 177.534 6.57843 177.652 6.57978C177.773 6.58117 178.008 6.60949 178.382 6.72204L178.959 4.80359ZM176.758 4.7784L175.769 3.0365L175.036 3.45247L176.026 5.19437L177.015 6.93627L177.747 6.5203L176.758 4.7784ZM176.026 5.19437L175.036 3.45247L174.304 3.86844L175.293 5.61034L176.282 7.35224L177.015 6.93627L176.026 5.19437ZM175.293 5.61034L174.304 3.86844C174.021 4.02928 173.782 4.10058 173.58 4.12423L173.813 6.11383L174.047 8.10343C174.841 8.01039 175.589 7.74603 176.282 7.35224L175.293 5.61034ZM173.813 6.11383L173.58 4.12423L172.833 4.21175L173.066 6.20135L173.299 8.19095L174.047 8.10343L173.813 6.11383ZM173.066 6.20135L172.833 4.21175L172.086 4.29927L172.319 6.28887L172.552 8.27847L173.299 8.19095L173.066 6.20135ZM172.319 6.28887L172.086 4.29927C171.708 4.34359 171.326 4.35388 170.941 4.32972L170.816 6.329L170.69 8.32827C171.313 8.36731 171.934 8.35084 172.552 8.27847L172.319 6.28887ZM170.816 6.329L170.941 4.32972L170.185 4.28232L170.059 6.2816L169.934 8.28087L170.69 8.32827L170.816 6.329ZM170.059 6.2816L170.185 4.28232L169.429 4.23493L169.303 6.2342L169.178 8.23348L169.934 8.28087L170.059 6.2816ZM169.303 6.2342L169.429 4.23493C168.885 4.20086 168.343 4.18299 167.802 4.18138L167.796 6.18457L167.79 8.18776C168.251 8.18913 168.713 8.20435 169.178 8.23348L169.303 6.2342ZM167.796 6.18457L167.802 4.18138L167.051 4.17913L167.046 6.18233L167.04 8.18552L167.79 8.18776L167.796 6.18457ZM167.046 6.18233L167.051 4.17913L166.301 4.1769L166.295 6.18009L166.289 8.18328L167.04 8.18552L167.046 6.18233ZM166.295 6.18009L166.301 4.1769C166.02 4.17606 165.719 4.13017 165.391 4.02518L164.779 5.93267L164.168 7.84016C164.86 8.06207 165.569 8.18113 166.289 8.18328L166.295 6.18009ZM164.779 5.93267L165.391 4.02518L164.627 3.78001L164.015 5.6875L163.403 7.59499L164.168 7.84016L164.779 5.93267ZM164.015 5.6875L164.627 3.78001L163.862 3.53483L163.251 5.44233L162.639 7.34982L163.403 7.59499L164.015 5.6875ZM163.251 5.44233L163.862 3.53483C162.741 3.17527 161.631 3.36786 160.686 3.96545L161.757 5.65843L162.828 7.35141C162.867 7.32668 162.849 7.34661 162.782 7.35632C162.751 7.36085 162.719 7.36154 162.69 7.3589C162.661 7.3563 162.643 7.35125 162.639 7.34982L163.251 5.44233ZM161.757 5.65843L160.686 3.96545L159.957 4.42673L161.028 6.11971L162.098 7.81269L162.828 7.35141L161.757 5.65843ZM161.028 6.11971L159.957 4.42673L159.228 4.88801L160.298 6.58099L161.369 8.27397L162.098 7.81269L161.028 6.11971ZM160.298 6.58099L159.228 4.88801C159.015 5.02225 158.89 5.0366 158.824 5.03636L158.817 7.03954L158.809 9.04273C159.746 9.04613 160.609 8.75478 161.369 8.27397L160.298 6.58099ZM158.817 7.03954L158.824 5.03636L158.071 5.03363L158.064 7.03682L158.057 9.04L158.809 9.04273L158.817 7.03954ZM158.064 7.03682L158.071 5.03363L157.319 5.0309L157.312 7.03409L157.304 9.03727L158.057 9.04L158.064 7.03682ZM157.312 7.03409L157.319 5.0309C156.754 5.02885 156.189 5.05371 155.626 5.10545L155.809 7.10025L155.992 9.09505C156.429 9.05494 156.866 9.03569 157.304 9.03727L157.312 7.03409ZM155.809 7.10025L155.626 5.10545L154.876 5.17433L155.059 7.16914L155.242 9.16394L155.992 9.09505L155.809 7.10025ZM155.059 7.16914L154.876 5.17433L154.126 5.24322L154.309 7.23803L154.492 9.23283L155.242 9.16394L155.059 7.16914ZM154.309 7.23803L154.126 5.24322C153.627 5.28899 153.129 5.33411 152.631 5.37857L152.809 7.37384L152.987 9.36911C153.489 9.32434 153.99 9.27892 154.492 9.23283L154.309 7.23803ZM152.809 7.37384L152.631 5.37857L151.881 5.44549L152.059 7.44077L152.237 9.43604L152.987 9.36911L152.809 7.37384ZM152.059 7.44077L151.881 5.44549L151.131 5.51242L151.309 7.50769L151.487 9.50296L152.237 9.43604L152.059 7.44077ZM151.309 7.50769L151.131 5.51242C150.875 5.53526 150.607 5.51385 150.315 5.43606L149.798 7.37135L149.281 9.30663C150.004 9.49987 150.743 9.56935 151.487 9.50296L151.309 7.50769ZM149.798 7.37135L150.315 5.43606L149.555 5.2328L149.038 7.16808L148.52 9.10336L149.281 9.30663L149.798 7.37135ZM149.038 7.16808L149.555 5.2328L148.794 5.02953L148.277 6.96481L147.76 8.90009L148.52 9.10336L149.038 7.16808ZM148.277 6.96481L148.794 5.02953C148.092 4.84199 147.377 4.76299 146.656 4.80301L146.767 6.80313L146.878 8.80326C147.156 8.78782 147.447 8.8166 147.76 8.90009L148.277 6.96481ZM146.767 6.80313L146.656 4.80301L145.906 4.8446L146.017 6.84472L146.128 8.84485L146.878 8.80326L146.767 6.80313ZM146.017 6.84472L145.906 4.8446L145.156 4.88618L145.267 6.88631L145.378 8.88643L146.128 8.84485L146.017 6.84472ZM145.267 6.88631L145.156 4.88618C144.878 4.90161 144.588 4.87277 144.277 4.78947L143.758 6.7243L143.239 8.65914C143.941 8.84729 144.656 8.92646 145.378 8.88643L145.267 6.88631ZM143.758 6.7243L144.277 4.78947L143.518 4.58587L142.999 6.52071L142.48 8.45554L143.239 8.65914L143.758 6.7243ZM142.999 6.52071L143.518 4.58587L142.759 4.38228L142.24 6.31711L141.721 8.25194L142.48 8.45554L142.999 6.52071ZM142.24 6.31711L142.759 4.38228C142.031 4.18707 141.286 4.11974 140.537 4.19317L140.733 6.18682L140.928 8.18047C141.176 8.15616 141.436 8.17569 141.721 8.25194L142.24 6.31711ZM140.733 6.18682L140.537 4.19317L139.789 4.26648L139.985 6.26012L140.18 8.25377L140.928 8.18047L140.733 6.18682ZM139.985 6.26012L139.789 4.26648L139.041 4.33978L139.237 6.33343L139.432 8.32707L140.18 8.25377L139.985 6.26012ZM139.237 6.33343L139.041 4.33978C138.285 4.41388 137.561 4.63061 136.875 4.96453L137.752 6.76561L138.628 8.5667C138.925 8.42211 139.191 8.35071 139.432 8.32707L139.237 6.33343ZM137.752 6.76561L136.875 4.96453L136.138 5.32341L137.014 7.1245L137.891 8.92558L138.628 8.5667L137.752 6.76561ZM137.014 7.1245L136.138 5.32341L135.4 5.68229L136.277 7.48338L137.154 9.28446L137.891 8.92558L137.014 7.1245ZM136.277 7.48338L135.4 5.68229C135.398 5.68344 135.41 5.67733 135.436 5.67116C135.462 5.66484 135.494 5.6604 135.529 5.66033C135.606 5.66019 135.642 5.68027 135.619 5.66978L134.774 7.48621L133.93 9.30264C134.968 9.78547 136.102 9.79675 137.154 9.28446L136.277 7.48338ZM134.774 7.48621L135.619 5.66978L134.853 5.31373L134.009 7.13016L133.164 8.94659L133.93 9.30264L134.774 7.48621ZM134.009 7.13016L134.853 5.31373L134.088 4.95769L133.243 6.77411L132.398 8.59054L133.164 8.94659L134.009 7.13016ZM133.243 6.77411L134.088 4.95769C133.344 4.61181 132.549 4.41471 131.72 4.41642L131.724 6.41962L131.729 8.42281C131.903 8.42245 132.121 8.46169 132.398 8.59054L133.243 6.77411ZM131.724 6.41962L131.72 4.41642L130.967 4.41797L130.971 6.42117L130.976 8.42436L131.729 8.42281L131.724 6.41962ZM130.971 6.42117L130.967 4.41797L130.214 4.41953L130.219 6.42272L130.223 8.42591L130.976 8.42436L130.971 6.42117ZM130.219 6.42272L130.214 4.41953C129.431 4.42114 128.672 4.58474 127.951 4.88617L128.723 6.73453L129.495 8.58288C129.764 8.47064 130.002 8.42637 130.223 8.42591L130.219 6.42272ZM128.723 6.73453L127.951 4.88617L127.208 5.19642L127.98 7.04478L128.753 8.89314L129.495 8.58288L128.723 6.73453ZM127.98 7.04478L127.208 5.19642L126.466 5.50667L127.238 7.35503L128.01 9.20339L128.753 8.89314L127.98 7.04478ZM127.238 7.35503L126.466 5.50667C126.158 5.63539 125.875 5.69984 125.612 5.71785L125.749 7.71638L125.885 9.7149C126.618 9.6648 127.328 9.48834 128.01 9.20339L127.238 7.35503ZM125.749 7.71638L125.612 5.71785L124.865 5.76895L125.002 7.76747L125.139 9.766L125.885 9.7149L125.749 7.71638ZM125.002 7.76747L124.865 5.76895L124.118 5.82004L124.255 7.81857L124.392 9.81709L125.139 9.766L125.002 7.76747ZM124.255 7.81857L124.118 5.82004C123.753 5.84505 123.383 5.83422 123.008 5.78628L122.754 7.77334L122.5 9.76039C123.131 9.84089 123.762 9.86021 124.392 9.81709L124.255 7.81857ZM122.754 7.77334L123.008 5.78628L122.254 5.68996L122 7.67701L121.746 9.66407L122.5 9.76039L122.754 7.77334ZM122 7.67701L122.254 5.68996L121.5 5.59364L121.246 7.58069L120.992 9.56775L121.746 9.66407L122 7.67701ZM121.246 7.58069L121.5 5.59364C120.733 5.49571 119.969 5.55048 119.224 5.75195L119.746 7.68582L120.269 9.6197C120.517 9.55256 120.753 9.53725 120.992 9.56775L121.246 7.58069ZM119.746 7.68582L119.224 5.75195L118.478 5.9534L119 7.88728L119.523 9.82116L120.269 9.6197L119.746 7.68582ZM119 7.88728L118.478 5.9534L117.732 6.15485L118.255 8.08873L118.777 10.0226L119.523 9.82116L119 7.88728ZM118.255 8.08873L117.732 6.15485C117.218 6.29369 116.705 6.43966 116.191 6.59275L116.763 8.51247L117.335 10.4322C117.816 10.2889 118.297 10.1524 118.777 10.0226L118.255 8.08873ZM116.763 8.51247L116.191 6.59275L115.445 6.81503L116.018 8.73475L116.59 10.6545L117.335 10.4322L116.763 8.51247ZM116.018 8.73475L115.445 6.81503L114.7 7.03731L115.272 8.95704L115.844 10.8768L116.59 10.6545L116.018 8.73475ZM115.272 8.95704L114.7 7.03731C114.656 7.05016 114.617 7.05987 114.506 7.01597L113.767 8.8777L113.027 10.7394C113.929 11.0977 114.893 11.1603 115.844 10.8768L115.272 8.95704ZM113.767 8.8777L114.506 7.01597L113.747 6.71436L113.007 8.57609L112.268 10.4378L113.027 10.7394L113.767 8.8777ZM113.007 8.57609L113.747 6.71436L112.987 6.41274L112.248 8.27448L111.509 10.1362L112.268 10.4378L113.007 8.57609ZM112.248 8.27448L112.987 6.41274C112.121 6.0686 111.198 5.98339 110.273 6.20078L110.732 8.15079L111.19 10.1008C111.275 10.081 111.362 10.0782 111.509 10.1362L112.248 8.27448ZM110.732 8.15079L110.273 6.20078L109.517 6.37871L109.975 8.32872L110.434 10.2787L111.19 10.1008L110.732 8.15079ZM109.975 8.32872L109.517 6.37871L108.76 6.55664L109.219 8.50665L109.677 10.4567L110.434 10.2787L109.975 8.32872ZM109.219 8.50665L108.76 6.55664C108.508 6.61587 108.274 6.62216 108.043 6.58349L107.713 8.55922L107.382 10.5349C108.15 10.6634 108.92 10.6347 109.677 10.4567L109.219 8.50665ZM107.713 8.55922L108.043 6.58349L107.294 6.45813L106.964 8.43386L106.633 10.4096L107.382 10.5349L107.713 8.55922ZM106.964 8.43386L107.294 6.45813L106.545 6.33277L106.214 8.30849L105.884 10.2842L106.633 10.4096L106.964 8.43386ZM106.214 8.30849L106.545 6.33277C106.17 6.27 105.785 6.16942 105.39 6.02723L104.712 7.91227L104.034 9.79732C104.643 10.0163 105.26 10.1798 105.884 10.2842L106.214 8.30849ZM104.712 7.91227L105.39 6.02723L104.636 5.75637L103.959 7.64141L103.281 9.52646L104.034 9.79732L104.712 7.91227ZM103.959 7.64141L104.636 5.75637L103.883 5.48551L103.205 7.37055L102.528 9.2556L103.281 9.52646L103.959 7.64141ZM103.205 7.37055L103.883 5.48551C103.009 5.17121 102.091 5.12273 101.183 5.36547L101.701 7.3006L102.219 9.23574C102.313 9.2106 102.397 9.20875 102.528 9.2556L103.205 7.37055ZM101.701 7.3006L101.183 5.36547L100.433 5.56637L100.95 7.50151L101.468 9.43664L102.219 9.23574L101.701 7.3006ZM100.95 7.50151L100.433 5.56637L99.6816 5.76728L100.199 7.70242L100.717 9.63755L101.468 9.43664L100.95 7.50151ZM100.199 7.70242L99.6816 5.76728C99.4977 5.81648 99.3343 5.81774 99.1613 5.77677L98.6998 7.72609L98.2383 9.67541C99.0634 9.87075 99.8997 9.85623 100.717 9.63755L100.199 7.70242ZM98.6998 7.72609L99.1613 5.77677L98.4127 5.59954L97.9512 7.54886L97.4897 9.49817L98.2383 9.67541L98.6998 7.72609ZM97.9512 7.54886L98.4127 5.59954L97.6641 5.42231L97.2026 7.37162L96.7411 9.32094L97.4897 9.49817L97.9512 7.54886ZM97.2026 7.37162L97.6641 5.42231C96.5415 5.15656 95.4857 5.43469 94.6082 6.00429L95.6989 7.68452L96.7896 9.36475C96.8683 9.31365 96.8908 9.31611 96.8604 9.32242C96.8458 9.32546 96.8249 9.32807 96.8001 9.32772C96.7754 9.32738 96.7549 9.32421 96.7411 9.32094L97.2026 7.37162ZM95.6989 7.68452L94.6082 6.00429L93.8531 6.49443L94.9438 8.17465L96.0346 9.85488L96.7896 9.36475L95.6989 7.68452ZM94.9438 8.17465L93.8531 6.49443L93.0981 6.98456L94.1888 8.66479L95.2795 10.345L96.0346 9.85488L94.9438 8.17465ZM94.1888 8.66479L93.0981 6.98456C93.0582 7.01046 93.0989 6.97451 93.2096 6.96198C93.2626 6.95598 93.3169 6.95728 93.3677 6.9652C93.4177 6.973 93.4522 6.9853 93.4688 6.99236L92.6835 8.83523L91.8982 10.6781C93.0831 11.183 94.2852 10.9905 95.2795 10.345L94.1888 8.66479ZM92.6835 8.83523L93.4688 6.99236L92.7185 6.67267L91.9332 8.51555L91.148 10.3584L91.8982 10.6781L92.6835 8.83523ZM91.9332 8.51555L92.7185 6.67267L91.9682 6.35299L91.183 8.19586L90.3977 10.0387L91.148 10.3584L91.9332 8.51555ZM91.183 8.19586L91.9682 6.35299C91.0788 5.974 90.1208 5.88603 89.1656 6.14134L89.6829 8.0766L90.2001 10.0119C90.2448 9.99993 90.2868 9.99147 90.3977 10.0387L91.183 8.19586ZM89.6829 8.0766L89.1656 6.14134L88.4157 6.34177L88.933 8.27703L89.4503 10.2123L90.2001 10.0119L89.6829 8.0766ZM88.933 8.27703L88.4157 6.34177L87.6659 6.54219L88.1831 8.47746L88.7004 10.4127L89.4503 10.2123L88.933 8.27703ZM88.1831 8.47746L87.6659 6.54219C87.6612 6.54343 87.6635 6.54245 87.671 6.54194C87.6786 6.54141 87.686 6.54176 87.6912 6.54244C87.6962 6.54308 87.6939 6.54334 87.683 6.53978C87.6718 6.5361 87.6498 6.52776 87.6165 6.51023L86.6828 8.28253L85.7492 10.0548C86.6504 10.5296 87.6666 10.6891 88.7004 10.4127L88.1831 8.47746ZM86.6828 8.28253L87.6165 6.51023L86.866 6.11488L85.9324 7.88719L84.9987 9.65949L85.7492 10.0548L86.6828 8.28253ZM85.9324 7.88719L86.866 6.11488L86.1156 5.71953L85.1819 7.49184L84.2483 9.26414L84.9987 9.65949L85.9324 7.88719ZM85.1819 7.49184L86.1156 5.71953C85.1494 5.21052 84.0628 5.09967 82.9965 5.48518L83.6776 7.36904L84.3587 9.2529C84.3609 9.25211 84.3516 9.25562 84.3325 9.25831C84.3129 9.26104 84.2904 9.26189 84.2676 9.26002C84.245 9.25818 84.2298 9.2543 84.2239 9.25252C84.2185 9.25089 84.2265 9.25268 84.2483 9.26414L85.1819 7.49184ZM83.6776 7.36904L82.9965 5.48518L82.2426 5.75773L82.9237 7.64159L83.6048 9.52545L84.3587 9.2529L83.6776 7.36904ZM82.9237 7.64159L82.2426 5.75773L81.4888 6.03027L82.1699 7.91414L82.8509 9.798L83.6048 9.52545L82.9237 7.64159ZM82.1699 7.91414L81.4888 6.03027C81.0552 6.18702 80.6263 6.31519 80.2018 6.41584L80.664 8.365L81.1261 10.3142C81.7043 10.1771 82.2793 10.0047 82.8509 9.798L82.1699 7.91414ZM80.664 8.365L80.2018 6.41584L79.4498 6.59416L79.9119 8.54331L80.3741 10.4925L81.1261 10.3142L80.664 8.365ZM79.9119 8.54331L79.4498 6.59416L78.6977 6.77247L79.1599 8.72163L79.622 10.6708L80.3741 10.4925L79.9119 8.54331ZM79.1599 8.72163L78.6977 6.77247C78.5215 6.81425 78.3598 6.81204 78.1817 6.76399L77.6596 8.69795L77.1375 10.6319C77.9571 10.8532 78.7955 10.8668 79.622 10.6708L79.1599 8.72163ZM77.6596 8.69795L78.1817 6.76399L77.4335 6.56199L76.9114 8.49595L76.3893 10.4299L77.1375 10.6319L77.6596 8.69795ZM76.9114 8.49595L77.4335 6.56199L76.6853 6.35999L76.1632 8.29396L75.6411 10.2279L76.3893 10.4299L76.9114 8.49595ZM76.1632 8.29396L76.6853 6.35999C76.2278 6.23648 75.7689 6.09686 75.3085 5.94096L74.666 7.83833L74.0235 9.7357C74.5618 9.91797 75.101 10.0821 75.6411 10.2279L76.1632 8.29396ZM74.666 7.83833L75.3085 5.94096L74.5595 5.68733L73.917 7.5847L73.2745 9.48207L74.0235 9.7357L74.666 7.83833ZM73.917 7.5847L74.5595 5.68733L73.8104 5.43369L73.1679 7.33106L72.5255 9.22843L73.2745 9.48207L73.917 7.5847ZM73.1679 7.33106L73.8104 5.43369C73.0057 5.1612 72.1668 5.0881 71.3237 5.23397L71.6652 7.20785L72.0067 9.18172C72.1686 9.15371 72.3315 9.16276 72.5255 9.22843L73.1679 7.33106ZM71.6652 7.20785L71.3237 5.23397L70.5699 5.36439L70.9114 7.33826L71.2529 9.31213L72.0067 9.18172L71.6652 7.20785ZM70.9114 7.33826L70.5699 5.36439L69.8161 5.4948L70.1576 7.46867L70.4991 9.44255L71.2529 9.31213L70.9114 7.33826ZM70.1576 7.46867L69.8161 5.4948C69.1381 5.61211 68.4766 5.81911 67.8341 6.10508L68.6487 7.9352L69.4632 9.76532C69.8276 9.60314 70.1721 9.49912 70.4991 9.44255L70.1576 7.46867ZM68.6487 7.9352L67.8341 6.10508L67.0789 6.44119L67.8935 8.27131L68.708 10.1014L69.4632 9.76532L68.6487 7.9352ZM67.8935 8.27131L67.0789 6.44119L66.3238 6.77731L67.1383 8.60743L67.9528 10.4375L68.708 10.1014L67.8935 8.27131ZM67.1383 8.60743L66.3238 6.77731C66.3134 6.78192 66.3171 6.77917 66.3337 6.77554C66.3508 6.77179 66.3751 6.7686 66.4037 6.76886C66.4323 6.76913 66.4567 6.77278 66.474 6.77692C66.4909 6.78093 66.4949 6.78389 66.4851 6.77929L65.6355 8.5934L64.7859 10.4075C65.8112 10.8877 66.9194 10.8975 67.9528 10.4375L67.1383 8.60743ZM65.6355 8.5934L66.4851 6.77929L65.7374 6.42916L64.8878 8.24327L64.0383 10.0574L64.7859 10.4075L65.6355 8.5934ZM64.8878 8.24327L65.7374 6.42916L64.9898 6.07902L64.1402 7.89313L63.2906 9.70724L64.0383 10.0574L64.8878 8.24327ZM64.1402 7.89313L64.9898 6.07902C64.2683 5.74114 63.5012 5.54213 62.7012 5.51851L62.6421 7.52084L62.583 9.52316C62.7836 9.52909 63.0152 9.57827 63.2906 9.70724L64.1402 7.89313ZM62.6421 7.52084L62.7012 5.51851L61.9507 5.49635L61.8916 7.49868L61.8325 9.50101L62.583 9.52316L62.6421 7.52084ZM61.8916 7.49868L61.9507 5.49635L61.2002 5.47419L61.1411 7.47652L61.082 9.47885L61.8325 9.50101L61.8916 7.49868ZM61.1411 7.47652L61.2002 5.47419C60.6078 5.4567 60.0155 5.48001 59.424 5.54382L59.6389 7.53546L59.8537 9.5271C60.2645 9.48278 60.6737 9.46679 61.082 9.47885L61.1411 7.47652ZM59.6389 7.53546L59.424 5.54382L58.6723 5.62492L58.8871 7.61656L59.102 9.60821L59.8537 9.5271L59.6389 7.53546ZM58.8871 7.61656L58.6723 5.62492L57.9206 5.70602L58.1354 7.69766L58.3503 9.68931L59.102 9.60821L58.8871 7.61656ZM58.1354 7.69766L57.9206 5.70602C57.5496 5.74605 57.1809 5.74939 56.8125 5.71641L56.6339 7.71163L56.4552 9.70685C57.0867 9.76338 57.719 9.75742 58.3503 9.68931L58.1354 7.69766ZM56.6339 7.71163L56.8125 5.71641L56.0627 5.64928L55.8841 7.6445L55.7054 9.63971L56.4552 9.70685L56.6339 7.71163ZM55.8841 7.6445L56.0627 5.64928L55.3129 5.58214L55.1343 7.57736L54.9556 9.57258L55.7054 9.63971L55.8841 7.6445ZM55.1343 7.57736L55.3129 5.58214C54.9343 5.54824 54.5518 5.47945 54.1642 5.37368L53.6368 7.30622L53.1095 9.23877C53.7187 9.405 54.3345 9.51697 54.9556 9.57258L55.1343 7.57736ZM53.6368 7.30622L54.1642 5.37368L53.4165 5.16968L52.8892 7.10222L52.3619 9.03476L53.1095 9.23877L53.6368 7.30622ZM52.8892 7.10222L53.4165 5.16968L52.6689 4.96567L52.1416 6.89822L51.6143 8.83076L52.3619 9.03476L52.8892 7.10222ZM52.1416 6.89822L52.6689 4.96567C51.7571 4.71685 50.8342 4.76655 49.9576 5.08309L50.6379 6.96722L51.3183 8.85135C51.4497 8.80388 51.5293 8.80758 51.6143 8.83076L52.1416 6.89822ZM50.6379 6.96722L49.9576 5.08309L49.2015 5.3561L49.8819 7.24023L50.5622 9.12436L51.3183 8.85135L50.6379 6.96722ZM49.8819 7.24023L49.2015 5.3561L48.4455 5.62911L49.1258 7.51324L49.8061 9.39736L50.5622 9.12436L49.8819 7.24023ZM49.1258 7.51324L48.4455 5.62911C48.1815 5.72443 47.953 5.7529 47.7444 5.7398L47.6188 7.73905L47.4932 9.73831C48.2859 9.78812 49.062 9.66605 49.8061 9.39736L49.1258 7.51324ZM47.6188 7.73905L47.7444 5.7398L46.9935 5.69261L46.8679 7.69187L46.7422 9.69112L47.4932 9.73831L47.6188 7.73905ZM46.8679 7.69187L46.9935 5.69261L46.2426 5.64542L46.1169 7.64468L45.9913 9.64394L46.7422 9.69112L46.8679 7.69187ZM46.1169 7.64468L46.2426 5.64542C45.7442 5.61411 45.2459 5.58194 44.7475 5.54894L44.6151 7.54775L44.4827 9.54657C44.9856 9.57988 45.4884 9.61233 45.9913 9.64394L46.1169 7.64468ZM44.6151 7.54775L44.7475 5.54894L43.9967 5.4992L43.8643 7.49802L43.7319 9.49684L44.4827 9.54657L44.6151 7.54775ZM43.8643 7.49802L43.9967 5.4992L43.2458 5.44946L43.1134 7.44828L42.981 9.4471L43.7319 9.49684L43.8643 7.49802ZM43.1134 7.44828L43.2458 5.44946C42.3969 5.39322 41.5764 5.55603 40.8075 5.88854L41.6026 7.72717L42.3977 9.56581C42.6421 9.46014 42.8288 9.43702 42.981 9.4471L43.1134 7.44828ZM41.6026 7.72717L40.8075 5.88854L40.0476 6.21717L40.8427 8.05581L41.6378 9.89444L42.3977 9.56581L41.6026 7.72717ZM40.8427 8.05581L40.0476 6.21717L39.2876 6.5458L40.0828 8.38444L40.8779 10.2231L41.6378 9.89444L40.8427 8.05581ZM40.0828 8.38444L39.2876 6.5458C39.3183 6.53253 39.4121 6.50376 39.5386 6.51712C39.6591 6.52983 39.7131 6.5706 39.6885 6.55441L38.5853 8.22645L37.4821 9.89849C38.4927 10.5653 39.7027 10.7313 40.8779 10.2231L40.0828 8.38444ZM38.5853 8.22645L39.6885 6.55441L38.951 6.06779L37.8478 7.73983L36.7446 9.41187L37.4821 9.89849L38.5853 8.22645ZM37.8478 7.73983L38.951 6.06779L38.2135 5.58117L37.1103 7.25321L36.0071 8.92525L36.7446 9.41187L37.8478 7.73983ZM37.1103 7.25321L38.2135 5.58117C37.4536 5.07977 36.5795 4.76311 35.6206 4.7644L35.6233 6.7676L35.626 8.7708C35.6664 8.77074 35.7836 8.77783 36.0071 8.92525L37.1103 7.25321ZM35.6233 6.7676L35.6206 4.7644L34.8712 4.76541L34.8739 6.76861L34.8766 8.7718L35.626 8.7708L35.6233 6.7676ZM34.8739 6.76861L34.8712 4.76541L34.1218 4.76642L34.1245 6.76961L34.1272 8.77281L34.8766 8.7718L34.8739 6.76861ZM34.1245 6.76961L34.1218 4.76642C33.5859 4.76714 33.0484 4.78241 32.5094 4.81218L32.6199 6.81233L32.7304 8.81248C33.1983 8.78664 33.6639 8.77343 34.1272 8.77281L34.1245 6.76961ZM32.6199 6.81233L32.5094 4.81218L31.7543 4.85389L31.8647 6.85404L31.9752 8.85419L32.7304 8.81248L32.6199 6.81233ZM31.8647 6.85404L31.7543 4.85389L30.9991 4.8956L31.1095 6.89575L31.22 8.8959L31.9752 8.85419L31.8647 6.85404ZM31.1095 6.89575L30.9991 4.8956C30.7192 4.91106 30.4416 4.88101 30.1578 4.80114L29.6152 6.72944L29.0725 8.65775C29.7743 8.85522 30.493 8.93605 31.22 8.8959L31.1095 6.89575ZM29.6152 6.72944L30.1578 4.80114L29.4186 4.59312L28.876 6.52143L28.3333 8.44973L29.0725 8.65775L29.6152 6.72944ZM28.876 6.52143L29.4186 4.59312L28.6794 4.38511L28.1368 6.31341L27.5941 8.24172L28.3333 8.44973L28.876 6.52143ZM28.1368 6.31341L28.6794 4.38511C28.0255 4.2011 27.3588 4.10114 26.6831 4.08865L26.646 6.09151L26.609 8.09436C26.9353 8.10039 27.2624 8.14837 27.5941 8.24172L28.1368 6.31341ZM26.646 6.09151L26.6831 4.08865L25.9315 4.07476L25.8945 6.07762L25.8575 8.08048L26.609 8.09436L26.646 6.09151ZM25.8945 6.07762L25.9315 4.07476L25.18 4.06087L25.143 6.06373L25.106 8.06659L25.8575 8.08048L25.8945 6.07762ZM25.143 6.06373L25.18 4.06087C24.2305 4.04333 23.3537 4.33644 22.5795 4.8015L23.6111 6.51866L24.6427 8.23582C24.9091 8.07579 25.0535 8.06562 25.106 8.06659L25.143 6.06373ZM23.6111 6.51866L22.5795 4.8015L21.7991 5.27031L22.8307 6.98748L23.8623 8.70464L24.6427 8.23582L23.6111 6.51866ZM22.8307 6.98748L21.7991 5.27031L21.0187 5.73913L22.0503 7.4563L23.0819 9.17346L23.8623 8.70464L22.8307 6.98748ZM22.0503 7.4563L21.0187 5.73913C20.9439 5.78406 20.937 5.77198 20.9909 5.7641C21.0172 5.76025 21.0499 5.75872 21.0858 5.76198C21.1215 5.76523 21.1505 5.77234 21.1701 5.77892L20.5334 7.67825L19.8968 9.57759C21.0415 9.9613 22.1547 9.73045 23.0819 9.17346L22.0503 7.4563ZM20.5334 7.67825L21.1701 5.77892L20.4336 5.53206L19.797 7.43139L19.1603 9.33073L19.8968 9.57759L20.5334 7.67825ZM19.797 7.43139L20.4336 5.53206L19.6972 5.28519L19.0605 7.18453L18.4239 9.08387L19.1603 9.33073L19.797 7.43139ZM19.0605 7.18453L19.6972 5.28519C19.1389 5.09808 18.5762 4.94238 18.0092 4.81872L17.5824 6.77592L17.1555 8.73312C17.5774 8.82512 18.0001 8.94183 18.4239 9.08387L19.0605 7.18453ZM17.5824 6.77592L18.0092 4.81872L17.2675 4.65698L16.8407 6.61417L16.4139 8.57137L17.1555 8.73312L17.5824 6.77592ZM16.8407 6.61417L17.2675 4.65698L16.5259 4.49523L16.099 6.45243L15.6722 8.40962L16.4139 8.57137L16.8407 6.61417ZM16.099 6.45243L16.5259 4.49523C16.166 4.41674 15.8173 4.30224 15.4778 4.15071L14.6612 5.97991L13.8446 7.80911C14.4334 8.07194 15.0432 8.27245 15.6722 8.40962L16.099 6.45243ZM14.6612 5.97991L15.4778 4.15071L14.7817 3.83994L13.9651 5.66914L13.1485 7.49834L13.8446 7.80911L14.6612 5.97991ZM13.9651 5.66914L14.7817 3.83994L14.0856 3.52917L13.269 5.35837L12.4524 7.18757L13.1485 7.49834L13.9651 5.66914ZM13.269 5.35837L14.0856 3.52917C13.4768 3.25738 12.844 3.06086 12.1902 2.94199L11.8319 4.91288L11.4735 6.88377C11.8077 6.94453 12.133 7.045 12.4524 7.18757L13.269 5.35837ZM11.8319 4.91288L12.1902 2.94199L11.4492 2.80727L11.0909 4.77816L10.7326 6.74905L11.4735 6.88377L11.8319 4.91288ZM11.0909 4.77816L11.4492 2.80727L10.7082 2.67256L10.3499 4.64345L9.99158 6.61434L10.7326 6.74905L11.0909 4.77816ZM10.3499 4.64345L10.7082 2.67256C10.1967 2.57955 9.68125 2.49289 9.16187 2.41256L8.85567 4.39222L8.54947 6.37188C9.03444 6.44689 9.51514 6.52771 9.99158 6.61434L10.3499 4.64345ZM8.85567 4.39222L9.16187 2.41256L8.4086 2.29605L8.10241 4.27571L7.79621 6.25537L8.54947 6.37188L8.85567 4.39222ZM8.10241 4.27571L8.4086 2.29605L7.65534 2.17954L7.34915 4.1592L7.04295 6.13886L7.79621 6.25537L8.10241 4.27571ZM7.34915 4.1592L7.65534 2.17954C7.34184 2.13106 7.04778 2.04081 6.76706 1.90827L5.91182 3.71973L5.05658 5.53119C5.68795 5.82927 6.3521 6.03201 7.04295 6.13886L7.34915 4.1592ZM5.91182 3.71973L6.76706 1.90827L6.08299 1.58531L5.22776 3.39677L4.37252 5.20822L5.05658 5.53119L5.91182 3.71973ZM5.22776 3.39677L6.08299 1.58531L5.39893 1.26234L4.54369 3.0738L3.68846 4.88526L4.37252 5.20822L5.22776 3.39677ZM4.54369 3.0738L5.39893 1.26234C4.919 1.03576 4.48829 0.846201 4.11642 0.702482L3.39429 2.57099L2.67216 4.43951C2.92074 4.53558 3.2563 4.68123 3.68846 4.88526L4.54369 3.0738ZM3.39429 2.57099L4.11642 0.702482L3.65107 0.52264L2.92895 2.39115L2.20682 4.25967L2.67216 4.43951L3.39429 2.57099ZM2.92895 2.39115L3.65107 0.52264L3.18573 0.342798L2.4636 2.21131L1.74148 4.07982L2.20682 4.25967L2.92895 2.39115ZM2.4636 2.21131L3.18573 0.342798C3.03488 0.284499 2.94228 0.24731 2.89487 0.227297C2.86505 0.214713 2.88224 0.221135 2.92003 0.239873C2.92811 0.243875 3.00758 0.282472 3.10562 0.346568C3.14074 0.369526 3.28303 0.462093 3.43503 0.617129C3.50713 0.690666 3.67071 0.866922 3.80369 1.13933C3.93862 1.41571 4.13667 2.00033 3.88976 2.6912L2.00341 2.01707L0.117049 1.34293C-0.130066 2.0344 0.0680754 2.61972 0.2034 2.89693C0.336782 3.17015 0.501066 3.34733 0.574172 3.4219C0.72819 3.57899 0.873735 3.67405 0.913324 3.69994C1.02031 3.76988 1.11363 3.81605 1.14044 3.82934C1.21573 3.86667 1.29001 3.89857 1.3369 3.91836C1.44288 3.9631 1.5821 4.01823 1.74148 4.07982L2.4636 2.21131ZM2.00341 2.01707L3.88976 2.6912L3.89491 2.6768L2.00855 2.00266L0.122197 1.32852L0.117049 1.34293L2.00341 2.01707ZM2.00855 2.00266L2.01662 4.00585L2.12297 4.00542L2.1149 2.00223L2.10684 -0.000948815L2.00049 -0.000520498L2.00855 2.00266ZM2.1149 2.00223L2.68248 0.0811227L2.58642 0.0527442L2.01885 1.97386L1.45128 3.89497L1.54733 3.92335L2.1149 2.00223Z" fill="#FFD505"/>
</svg>
