<svg width="909" height="838" viewBox="0 0 909 838" fill="none" xmlns="http://www.w3.org/2000/svg">
<path d="M75.97 687.325L270.034 423.376C273.082 419.918 271.606 414.541 267.203 413.049L92.7125 375.271C87.4865 373.518 83.0105 370.036 80.0588 365.465L3.7253 246.659C-2.08137 237.635 -1.01681 225.911 6.33831 218.024L179.764 31.8805C184.361 26.954 190.869 24.1354 197.668 24.1354H323.237C331.923 24.1354 339.932 28.683 344.262 36.0491L366.303 73.6378C373.441 85.7884 389.724 89.2938 401.385 81.1698L511.615 4.40551C515.728 1.53959 520.64 0 525.672 0H695.663C702.098 0 708.244 2.48695 712.792 6.93979L901.896 191.922C910.679 200.52 911.405 214.234 903.59 223.685L857.5 359C854.742 362.34 851 393.5 844.5 416L837 466C837 587 837.75 837.668 837 838L83.6154 697.415C77 696.5 74.5 692.5 75.9942 687.302L75.97 687.325Z" fill="#84E2F7"/>
</svg>
