<svg width="155" height="11" viewBox="0 0 155 11" fill="none" xmlns="http://www.w3.org/2000/svg">
<path d="M154.49 2.58673L153.979 4.52976L154.31 4.61686L154.652 4.58935L154.49 2.58673ZM152.997 2.19397L153.508 0.250939L152.997 2.19397ZM150.784 2.24199L149.735 0.528756L150.784 2.24199ZM150.065 2.68279L149.015 0.969548L150.065 2.68279ZM149.345 3.12358L150.394 4.83682L149.345 3.12358ZM147.881 3.67606L148.179 5.66293L147.881 3.67606ZM147.137 3.78773L147.435 5.77461L147.137 3.78773ZM146.392 3.89942L146.094 1.91254L146.392 3.89942ZM144.89 3.98762L144.827 5.99577L144.89 3.98762ZM143.373 3.94068L143.435 1.93252L143.373 3.94068ZM141.859 3.939L141.917 5.94728L141.859 3.939ZM141.102 3.9608L141.044 1.95252L141.102 3.9608ZM140.346 3.9826L140.404 5.99088L140.346 3.9826ZM138.82 3.78229L139.378 1.852L138.82 3.78229ZM137.282 3.33806L136.724 5.26835L137.282 3.33806ZM135.791 3.60146L134.669 1.93476L135.791 3.60146ZM134.348 4.5725L135.47 6.2392L134.348 4.5725ZM131.368 5.11948L131.313 3.11111L131.368 5.11948ZM129.867 5.23197L129.622 3.23791L129.867 5.23197ZM128.372 5.41599L128.127 3.42192L128.372 5.41599ZM126.875 5.59802L127.115 7.59278L126.875 5.59802ZM125.377 5.77805L125.137 3.78329L125.377 5.77805ZM123.859 5.68749L123.4 7.64339L123.859 5.68749ZM123.09 5.50691L122.631 7.46281L123.09 5.50691ZM122.321 5.32633L122.781 3.37043L122.321 5.32633ZM120.801 5.21022L120.973 7.21197L120.801 5.21022ZM119.299 5.33916L119.127 3.33741L119.299 5.33916ZM117.78 5.22249L117.319 7.17795L117.78 5.22249ZM116.244 4.86019L116.705 2.90473L116.244 4.86019ZM114.727 4.77503L114.983 6.76781L114.727 4.77503ZM113.979 4.87101L113.724 2.87823L113.979 4.87101ZM111.754 5.44479L110.822 3.66532L111.754 5.44479ZM110.298 6.20843L111.23 7.98789L110.298 6.20843ZM108.792 6.25604L109.585 4.41017L108.792 6.25604ZM108.014 5.92184L107.221 7.76771L108.014 5.92184ZM107.236 5.58764L108.029 3.74176L107.236 5.58764ZM105.705 5.27719L105.769 7.28531L105.705 5.27719ZM104.199 5.32471L104.135 3.31659L104.199 5.32471ZM102.712 5.68126L103.543 7.51073L102.712 5.68126ZM101.246 6.34685L102.076 8.17632L101.246 6.34685ZM98.2577 6.90003L98.0623 4.90045L98.2577 6.90003ZM96.745 6.89914L96.5497 8.89873L96.745 6.89914ZM95.2229 6.75043L95.4183 4.75083L95.2229 6.75043ZM93.713 6.87076L93.2075 4.92629L93.713 6.87076ZM92.9642 7.06546L93.4697 9.00993L92.9642 7.06546ZM92.2153 7.26015L91.7098 5.31568L92.2153 7.26015ZM90.7172 7.66824L91.2675 9.60052L90.7172 7.66824ZM89.9679 7.88163L90.5182 9.81392L89.9679 7.88163ZM89.2186 8.09503L88.6683 6.16274L89.2186 8.09503ZM87.7091 7.9961L86.9456 9.85449L87.7091 7.9961ZM86.1888 7.37148L86.9523 5.5131L86.1888 7.37148ZM84.6804 7.23933L85.1508 9.19261L84.6804 7.23933ZM83.9322 7.4195L83.4619 5.46622L83.9322 7.4195ZM83.184 7.59967L83.6544 9.55295L83.184 7.59967ZM81.6795 7.6705L81.967 5.68206L81.6795 7.6705ZM80.1669 7.45183L79.8795 9.44028L80.1669 7.45183ZM78.6508 7.08702L78.0105 8.99137L78.6508 7.08702ZM77.891 6.83155L78.5313 4.9272L77.891 6.83155ZM77.1312 6.57608L76.4909 8.48043L77.1312 6.57608ZM75.6216 6.5379L76.1809 8.4676L75.6216 6.5379ZM74.1222 6.97249L73.5629 5.0428L74.1222 6.97249ZM72.616 7.02758L73.0372 5.06313L72.616 7.02758ZM71.1031 6.70316L70.6818 8.66762L71.1031 6.70316ZM68.8576 7.55434L69.9881 9.21527L68.8576 7.55434ZM68.1132 8.06104L66.9827 6.40011L68.1132 8.06104ZM66.6104 8.26196L65.859 10.1253L66.6104 8.26196ZM65.8521 7.95618L66.6035 6.09287L65.8521 7.95618ZM63.5856 7.56002L63.031 5.62897L63.5856 7.56002ZM62.0857 7.99079L62.6403 9.92184L62.0857 7.99079ZM60.5772 7.82364L59.6726 9.61754L60.5772 7.82364ZM59.8187 7.4411L58.914 9.235L59.8187 7.4411ZM59.0602 7.05856L59.9648 5.26466L59.0602 7.05856ZM57.5519 6.96278L58.2696 8.83932L57.5519 6.96278ZM56.0524 7.5363L55.3346 5.65975L56.0524 7.5363ZM54.5508 8.01472L55.0471 9.96156L54.5508 8.01472ZM53.0472 8.39804L52.5508 6.45119L53.0472 8.39804ZM51.5395 8.39925L52.0304 6.45103L51.5395 8.39925ZM50.7837 8.2088L50.2928 10.157L50.7837 8.2088ZM48.5166 7.58486L49.1319 5.67229L48.5166 7.58486ZM47.0058 7.0988L46.3905 9.01137L47.0058 7.0988ZM45.4981 6.99701L45.1274 5.0224L45.4981 6.99701ZM44.7458 7.13825L45.1165 9.11286L44.7458 7.13825ZM43.9935 7.27949L43.6228 5.30487L43.9935 7.27949ZM42.4896 7.76718L41.6485 5.94259L42.4896 7.76718ZM40.9865 8.46009L40.1454 6.6355L40.9865 8.46009ZM37.9768 7.77702L37.1433 9.6051L37.9768 7.77702ZM36.469 7.41799L36.5112 5.40932L36.469 7.41799ZM35.714 7.40213L35.6718 9.41081L35.714 7.40213ZM34.9589 7.38628L34.9167 9.39495L34.9589 7.38628ZM33.452 7.45611L33.2245 5.45992L33.452 7.45611ZM31.9483 7.62748L32.1758 9.62367L31.9483 7.62748ZM29.6878 7.58179L29.8621 5.58025L29.6878 7.58179ZM28.9334 7.5161L28.7591 9.51764L28.9334 7.5161ZM27.432 7.24395L26.8968 9.18048L27.432 7.24395ZM26.6848 7.03749L27.22 5.10096L26.6848 7.03749ZM24.4319 6.89136L23.7654 4.99602L24.4319 6.89136ZM23.6731 7.15817L24.3396 9.05351L23.6731 7.15817ZM21.4025 7.62953L21.237 9.63182L21.4025 7.62953ZM19.8962 7.50503L20.0617 5.50274L19.8962 7.50503ZM18.3962 7.36421L18.186 9.36229L18.3962 7.36421ZM17.6493 7.28564L17.8595 5.28755L17.6493 7.28564ZM15.3426 7.34256L14.8311 5.39966L15.3426 7.34256ZM11.6854 6.68556L10.2197 8.05969L11.6854 6.68556ZM11.0764 6.03597L12.5421 4.66184L11.0764 6.03597ZM9.75079 5.17653L9.18617 7.10467L9.75079 5.17653ZM9.03415 4.96668L9.59877 3.03853L9.03415 4.96668ZM6.14474 4.15885L5.6273 6.10019L6.14474 4.15885ZM5.41668 3.96479L4.89923 5.90613L5.41668 3.96479ZM2.07126 2.55479L0.197908 1.82879L0.127414 2.01069L0.0932317 2.20276L2.07126 2.55479ZM1.98016 3.06667L1.43024 4.99906L3.56863 5.60761L3.9582 3.41871L1.98016 3.06667ZM154.59 2.57866L154.429 0.576041L154.329 0.584113L154.49 2.58673L154.652 4.58935L154.752 4.58128L154.59 2.57866ZM154.49 2.58673L155.001 0.643702L153.508 0.250939L152.997 2.19397L152.486 4.13699L153.979 4.52976L154.49 2.58673ZM152.997 2.19397L153.508 0.250939C152.384 -0.0448001 150.945 -0.212563 149.735 0.528756L150.784 2.24199L151.834 3.95523C151.69 4.04325 151.62 4.02086 151.741 4.01823C151.865 4.01553 152.104 4.03642 152.486 4.13699L152.997 2.19397ZM150.784 2.24199L149.735 0.528756L149.015 0.969548L150.065 2.68279L151.114 4.39603L151.834 3.95523L150.784 2.24199ZM150.065 2.68279L149.015 0.969548L148.296 1.41034L149.345 3.12358L150.394 4.83682L151.114 4.39603L150.065 2.68279ZM149.345 3.12358L148.296 1.41034C148.018 1.58059 147.782 1.65924 147.583 1.68918L147.881 3.67606L148.179 5.66293C148.972 5.54397 149.713 5.2543 150.394 4.83682L149.345 3.12358ZM147.881 3.67606L147.583 1.68918L146.838 1.80086L147.137 3.78773L147.435 5.77461L148.179 5.66293L147.881 3.67606ZM147.137 3.78773L146.838 1.80086L146.094 1.91254L146.392 3.89942L146.69 5.88629L147.435 5.77461L147.137 3.78773ZM146.392 3.89942L146.094 1.91254C145.718 1.96897 145.338 1.99142 144.952 1.97947L144.89 3.98762L144.827 5.99577C145.452 6.01512 146.074 5.97877 146.69 5.88629L146.392 3.89942ZM144.89 3.98762L144.952 1.97947L144.193 1.956L144.131 3.96415L144.069 5.9723L144.827 5.99577L144.89 3.98762ZM144.131 3.96415L144.193 1.956L143.435 1.93252L143.373 3.94068L143.311 5.94883L144.069 5.9723L144.131 3.96415ZM143.373 3.94068L143.435 1.93252C142.89 1.91564 142.345 1.91503 141.801 1.93072L141.859 3.939L141.917 5.94728C142.381 5.93391 142.845 5.93442 143.311 5.94883L143.373 3.94068ZM141.859 3.939L141.801 1.93072L141.044 1.95252L141.102 3.9608L141.16 5.96908L141.917 5.94728L141.859 3.939ZM141.102 3.9608L141.044 1.95252L140.288 1.97432L140.346 3.9826L140.404 5.99088L141.16 5.96908L141.102 3.9608ZM140.346 3.9826L140.288 1.97432C140.004 1.98252 139.703 1.94578 139.378 1.852L138.82 3.78229L138.263 5.71257C138.964 5.91494 139.68 6.01174 140.404 5.99088L140.346 3.9826ZM138.82 3.78229L139.378 1.852L138.608 1.62988L138.051 3.56017L137.494 5.49046L138.263 5.71257L138.82 3.78229ZM138.051 3.56017L138.608 1.62988L137.839 1.40777L137.282 3.33806L136.724 5.26835L137.494 5.49046L138.051 3.56017ZM137.282 3.33806L137.839 1.40777C136.701 1.07941 135.595 1.31145 134.669 1.93476L135.791 3.60146L136.913 5.26816C136.955 5.23985 136.94 5.25964 136.874 5.27132C136.843 5.27679 136.811 5.27858 136.78 5.27677C136.75 5.27499 136.731 5.27023 136.724 5.26835L137.282 3.33806ZM135.791 3.60146L134.669 1.93476L133.948 2.42028L135.07 4.08698L136.192 5.75368L136.913 5.26816L135.791 3.60146ZM135.07 4.08698L133.948 2.42028L133.226 2.9058L134.348 4.5725L135.47 6.2392L136.192 5.75368L135.07 4.08698ZM134.348 4.5725L133.226 2.9058C133.012 3.0502 132.885 3.06836 132.819 3.07013L132.874 5.0785L132.929 7.08687C133.868 7.06133 134.723 6.74215 135.47 6.2392L134.348 4.5725ZM132.874 5.0785L132.819 3.07013L132.066 3.09062L132.121 5.09899L132.176 7.10736L132.929 7.08687L132.874 5.0785ZM132.121 5.09899L132.066 3.09062L131.313 3.11111L131.368 5.11948L131.423 7.12785L132.176 7.10736L132.121 5.09899ZM131.368 5.11948L131.313 3.11111C130.748 3.1265 130.184 3.16877 129.622 3.23791L129.867 5.23197L130.113 7.22604C130.548 7.1725 130.984 7.13977 131.423 7.12785L131.368 5.11948ZM129.867 5.23197L129.622 3.23791L128.874 3.32991L129.12 5.32398L129.365 7.31805L130.113 7.22604L129.867 5.23197ZM129.12 5.32398L128.874 3.32991L128.127 3.42192L128.372 5.41599L128.617 7.41006L129.365 7.31805L129.12 5.32398ZM128.372 5.41599L128.127 3.42192C127.63 3.48303 127.133 3.54347 126.636 3.60326L126.875 5.59802L127.115 7.59278C127.616 7.53254 128.117 7.47164 128.617 7.41006L128.372 5.41599ZM126.875 5.59802L126.636 3.60326L125.887 3.69327L126.126 5.68804L126.366 7.6828L127.115 7.59278L126.875 5.59802ZM126.126 5.68804L125.887 3.69327L125.137 3.78329L125.377 5.77805L125.617 7.77282L126.366 7.6828L126.126 5.68804ZM125.377 5.77805L125.137 3.78329C124.882 3.81394 124.613 3.80076 124.318 3.73159L123.859 5.68749L123.4 7.64339C124.13 7.815 124.873 7.86218 125.617 7.77282L125.377 5.77805ZM123.859 5.68749L124.318 3.73159L123.549 3.55101L123.09 5.50691L122.631 7.46281L123.4 7.64339L123.859 5.68749ZM123.09 5.50691L123.549 3.55101L122.781 3.37043L122.321 5.32633L121.862 7.28223L122.631 7.46281L123.09 5.50691ZM122.321 5.32633L122.781 3.37043C122.071 3.20384 121.352 3.14648 120.629 3.20847L120.801 5.21022L120.973 7.21197C121.252 7.18799 121.546 7.20804 121.862 7.28223L122.321 5.32633ZM120.801 5.21022L120.629 3.20847L119.878 3.27294L120.05 5.27469L120.222 7.27644L120.973 7.21197L120.801 5.21022ZM120.05 5.27469L119.878 3.27294L119.127 3.33741L119.299 5.33916L119.471 7.34092L120.222 7.27644L120.05 5.27469ZM119.299 5.33916L119.127 3.33741C118.848 3.36135 118.556 3.34122 118.241 3.26703L117.78 5.22249L117.319 7.17795C118.028 7.34529 118.748 7.40294 119.471 7.34092L119.299 5.33916ZM117.78 5.22249L118.241 3.26703L117.473 3.08588L117.012 5.04134L116.551 6.9968L117.319 7.17795L117.78 5.22249ZM117.012 5.04134L117.473 3.08588L116.705 2.90473L116.244 4.86019L115.782 6.81566L116.551 6.9968L117.012 5.04134ZM116.244 4.86019L116.705 2.90473C115.969 2.73118 115.221 2.68616 114.472 2.78224L114.727 4.77503L114.983 6.76781C115.232 6.73592 115.494 6.74767 115.782 6.81566L116.244 4.86019ZM114.727 4.77503L114.472 2.78224L113.724 2.87823L113.979 4.87101L114.235 6.86379L114.983 6.76781L114.727 4.77503ZM113.979 4.87101L113.724 2.87823L112.975 2.97421L113.231 4.96699L113.487 6.95977L114.235 6.86379L113.979 4.87101ZM113.231 4.96699L112.975 2.97421C112.22 3.07117 111.499 3.31005 110.822 3.66532L111.754 5.44479L112.687 7.22426C112.981 7.07044 113.245 6.99078 113.487 6.95977L113.231 4.96699ZM111.754 5.44479L110.822 3.66532L110.093 4.04714L111.026 5.82661L111.959 7.60608L112.687 7.22426L111.754 5.44479ZM111.026 5.82661L110.093 4.04714L109.365 4.42896L110.298 6.20843L111.23 7.98789L111.959 7.60608L111.026 5.82661ZM110.298 6.20843L109.365 4.42896C109.362 4.43022 109.374 4.42374 109.4 4.41679C109.426 4.40968 109.458 4.40425 109.493 4.40313C109.571 4.40068 109.607 4.41983 109.585 4.41017L108.792 6.25604L107.998 8.10192C109.054 8.55557 110.191 8.53276 111.23 7.98789L110.298 6.20843ZM108.792 6.25604L109.585 4.41017L108.807 4.07596L108.014 5.92184L107.221 7.76771L107.998 8.10192L108.792 6.25604ZM108.014 5.92184L108.807 4.07596L108.029 3.74176L107.236 5.58764L106.443 7.43351L107.221 7.76771L108.014 5.92184ZM107.236 5.58764L108.029 3.74176C107.274 3.41719 106.472 3.24288 105.642 3.26908L105.705 5.27719L105.769 7.28531C105.942 7.27982 106.161 7.31247 106.443 7.43351L107.236 5.58764ZM105.705 5.27719L105.642 3.26908L104.889 3.29283L104.952 5.30095L105.015 7.30906L105.769 7.28531L105.705 5.27719ZM104.952 5.30095L104.889 3.29283L104.135 3.31659L104.199 5.32471L104.262 7.33282L105.015 7.30906L104.952 5.30095ZM104.199 5.32471L104.135 3.31659C103.35 3.34135 102.595 3.52793 101.882 3.85179L102.712 5.68126L103.543 7.51073C103.807 7.39086 104.042 7.33974 104.262 7.33282L104.199 5.32471ZM102.712 5.68126L101.882 3.85179L101.149 4.18459L101.979 6.01406L102.809 7.84352L103.543 7.51073L102.712 5.68126ZM101.979 6.01406L101.149 4.18459L100.415 4.51739L101.246 6.34685L102.076 8.17632L102.809 7.84352L101.979 6.01406ZM101.246 6.34685L100.415 4.51739C100.114 4.65412 99.833 4.72739 99.5656 4.75352L99.761 6.75311L99.9564 8.7527C100.691 8.68088 101.4 8.48331 102.076 8.17632L101.246 6.34685ZM99.761 6.75311L99.5656 4.75352L98.8139 4.82699L99.0094 6.82657L99.2048 8.82616L99.9564 8.7527L99.761 6.75311ZM99.0094 6.82657L98.8139 4.82699L98.0623 4.90045L98.2577 6.90003L98.4531 8.89962L99.2048 8.82616L99.0094 6.82657ZM98.2577 6.90003L98.0623 4.90045C97.6928 4.93656 97.3194 4.93658 96.9404 4.89955L96.745 6.89914L96.5497 8.89873C97.1853 8.96084 97.8205 8.96146 98.4531 8.89962L98.2577 6.90003ZM96.745 6.89914L96.9404 4.89955L96.1793 4.82519L95.984 6.82478L95.7886 8.82437L96.5497 8.89873L96.745 6.89914ZM95.984 6.82478L96.1793 4.82519L95.4183 4.75083L95.2229 6.75043L95.0276 8.75002L95.7886 8.82437L95.984 6.82478ZM95.2229 6.75043L95.4183 4.75083C94.673 4.67802 93.9325 4.73779 93.2075 4.92629L93.713 6.87076L94.2186 8.81523C94.492 8.74415 94.7581 8.72369 95.0276 8.75002L95.2229 6.75043ZM93.713 6.87076L93.2075 4.92629L92.4586 5.12099L92.9642 7.06546L93.4697 9.00993L94.2186 8.81523L93.713 6.87076ZM92.9642 7.06546L92.4586 5.12099L91.7098 5.31568L92.2153 7.26015L92.7209 9.20462L93.4697 9.00993L92.9642 7.06546ZM92.2153 7.26015L91.7098 5.31568C91.1955 5.4494 90.6812 5.58949 90.1669 5.73596L90.7172 7.66824L91.2675 9.60052C91.7522 9.46247 92.2367 9.3305 92.7209 9.20462L92.2153 7.26015ZM90.7172 7.66824L90.1669 5.73596L89.4176 5.94935L89.9679 7.88163L90.5182 9.81392L91.2675 9.60052L90.7172 7.66824ZM89.9679 7.88163L89.4176 5.94935L88.6683 6.16274L89.2186 8.09503L89.7689 10.0273L90.5182 9.81392L89.9679 7.88163ZM89.2186 8.09503L88.6683 6.16274C88.6274 6.17437 88.5867 6.18461 88.4726 6.13772L87.7091 7.9961L86.9456 9.85449C87.845 10.224 88.8106 10.3002 89.7689 10.0273L89.2186 8.09503ZM87.7091 7.9961L88.4726 6.13772L87.7124 5.82541L86.9489 7.68379L86.1854 9.54217L86.9456 9.85449L87.7091 7.9961ZM86.9489 7.68379L87.7124 5.82541L86.9523 5.5131L86.1888 7.37148L85.4252 9.22986L86.1854 9.54217L86.9489 7.68379ZM86.1888 7.37148L86.9523 5.5131C86.0826 5.15578 85.1485 5.06007 84.21 5.28606L84.6804 7.23933L85.1508 9.19261C85.2099 9.17837 85.2814 9.17076 85.4252 9.22986L86.1888 7.37148ZM84.6804 7.23933L84.21 5.28606L83.4619 5.46622L83.9322 7.4195L84.4026 9.37278L85.1508 9.19261L84.6804 7.23933ZM83.9322 7.4195L83.4619 5.46622L82.7137 5.64639L83.184 7.59967L83.6544 9.55295L84.4026 9.37278L83.9322 7.4195ZM83.184 7.59967L82.7137 5.64639C82.4612 5.7072 82.2168 5.71818 81.967 5.68206L81.6795 7.6705L81.3921 9.65895C82.1507 9.76861 82.9093 9.73237 83.6544 9.55295L83.184 7.59967ZM81.6795 7.6705L81.967 5.68206L81.2107 5.57272L80.9232 7.56117L80.6358 9.54961L81.3921 9.65895L81.6795 7.6705ZM80.9232 7.56117L81.2107 5.57272L80.4544 5.46339L80.1669 7.45183L79.8795 9.44028L80.6358 9.54961L80.9232 7.56117ZM80.1669 7.45183L80.4544 5.46339C80.0758 5.40866 79.6884 5.31626 79.2911 5.18268L78.6508 7.08702L78.0105 8.99137C78.6263 9.19842 79.2496 9.34923 79.8795 9.44028L80.1669 7.45183ZM78.6508 7.08702L79.2911 5.18268L78.5313 4.9272L77.891 6.83155L77.2507 8.7359L78.0105 8.99137L78.6508 7.08702ZM77.891 6.83155L78.5313 4.9272L77.7715 4.67173L77.1312 6.57608L76.4909 8.48043L77.2507 8.7359L77.891 6.83155ZM77.1312 6.57608L77.7715 4.67173C76.8881 4.37472 75.9664 4.34618 75.0623 4.6082L75.6216 6.5379L76.1809 8.4676C76.2765 8.4399 76.3611 8.43681 76.4909 8.48043L77.1312 6.57608ZM75.6216 6.5379L75.0623 4.6082L74.3126 4.8255L74.8719 6.7552L75.4312 8.6849L76.1809 8.4676L75.6216 6.5379ZM74.8719 6.7552L74.3126 4.8255L73.5629 5.0428L74.1222 6.97249L74.6815 8.90219L75.4312 8.6849L74.8719 6.7552ZM74.1222 6.97249L73.5629 5.0428C73.379 5.09609 73.2138 5.10099 73.0372 5.06313L72.616 7.02758L72.1947 8.99204C73.0268 9.17045 73.8657 9.13863 74.6815 8.90219L74.1222 6.97249ZM72.616 7.02758L73.0372 5.06313L72.2808 4.90091L71.8595 6.86537L71.4383 8.82983L72.1947 8.99204L72.616 7.02758ZM71.8595 6.86537L72.2808 4.90091L71.5243 4.7387L71.1031 6.70316L70.6818 8.66762L71.4383 8.82983L71.8595 6.86537ZM71.1031 6.70316L71.5243 4.7387C70.3942 4.49636 69.341 4.7951 68.4717 5.38672L69.6021 7.04765L70.7326 8.70857C70.8086 8.65681 70.8299 8.65929 70.799 8.66638C70.7842 8.66978 70.7634 8.67277 70.739 8.67293C70.7146 8.67309 70.6947 8.67039 70.6818 8.66762L71.1031 6.70316ZM69.6021 7.04765L68.4717 5.38672L67.7272 5.89341L68.8576 7.55434L69.9881 9.21527L70.7326 8.70857L69.6021 7.04765ZM68.8576 7.55434L67.7272 5.89341L66.9827 6.40011L68.1132 8.06104L69.2436 9.72197L69.9881 9.21527L68.8576 7.55434ZM68.1132 8.06104L66.9827 6.40011C66.9448 6.42595 66.9865 6.38826 67.099 6.37322C67.1529 6.36602 67.208 6.36628 67.2594 6.37328C67.3101 6.38017 67.3451 6.39191 67.3618 6.39864L66.6104 8.26196L65.859 10.1253C67.0571 10.6084 68.2593 10.3919 69.2436 9.72197L68.1132 8.06104ZM66.6104 8.26196L67.3618 6.39864L66.6035 6.09287L65.8521 7.95618L65.1007 9.8195L65.859 10.1253L66.6104 8.26196ZM65.8521 7.95618L66.6035 6.09287L65.8453 5.78709L65.0939 7.65041L64.3425 9.51372L65.1007 9.8195L65.8521 7.95618ZM65.0939 7.65041L65.8453 5.78709C64.9455 5.42427 63.9834 5.35546 63.031 5.62897L63.5856 7.56002L64.1402 9.49107C64.1879 9.47739 64.2312 9.46884 64.3425 9.51372L65.0939 7.65041ZM63.5856 7.56002L63.031 5.62897L62.2811 5.84435L62.8357 7.7754L63.3903 9.70646L64.1402 9.49107L63.5856 7.56002ZM62.8357 7.7754L62.2811 5.84435L61.5311 6.05974L62.0857 7.99079L62.6403 9.92184L63.3903 9.70646L62.8357 7.7754ZM62.0857 7.99079L61.5311 6.05974C61.5259 6.06126 61.5276 6.06031 61.5348 6.05967C61.5422 6.05903 61.5495 6.05921 61.5549 6.05981C61.56 6.06038 61.5581 6.06073 61.5476 6.0575C61.5367 6.05417 61.515 6.04642 61.4819 6.02974L60.5772 7.82364L59.6726 9.61754C60.5864 10.0784 61.609 10.2181 62.6403 9.92184L62.0857 7.99079ZM60.5772 7.82364L61.4819 6.02974L60.7234 5.6472L59.8187 7.4411L58.914 9.235L59.6726 9.61754L60.5772 7.82364ZM59.8187 7.4411L60.7234 5.6472L59.9648 5.26466L59.0602 7.05856L58.1555 8.85246L58.914 9.235L59.8187 7.4411ZM59.0602 7.05856L59.9648 5.26466C58.9873 4.77168 57.8961 4.68008 56.8341 5.08623L57.5519 6.96278L58.2696 8.83932C58.2715 8.8386 58.2619 8.84238 58.2424 8.84547C58.2226 8.84862 58.1997 8.8499 58.1765 8.84842C58.1535 8.84696 58.1378 8.84329 58.1316 8.84153C58.1259 8.83991 58.1337 8.84146 58.1555 8.85246L59.0602 7.05856ZM57.5519 6.96278L56.8341 5.08623L56.0844 5.37299L56.8021 7.24954L57.5198 9.12608L58.2696 8.83932L57.5519 6.96278ZM56.8021 7.24954L56.0844 5.37299L55.3346 5.65975L56.0524 7.5363L56.7701 9.41284L57.5198 9.12608L56.8021 7.24954ZM56.0524 7.5363L55.3346 5.65975C54.9047 5.82419 54.478 5.95989 54.0545 6.06787L54.5508 8.01472L55.0471 9.96156C55.6259 9.814 56.2003 9.63074 56.7701 9.41284L56.0524 7.5363ZM54.5508 8.01472L54.0545 6.06787L53.3027 6.25953L53.799 8.20638L54.2953 10.1532L55.0471 9.96156L54.5508 8.01472ZM53.799 8.20638L53.3027 6.25953L52.5508 6.45119L53.0472 8.39804L53.5435 10.3449L54.2953 10.1532L53.799 8.20638ZM53.0472 8.39804L52.5508 6.45119C52.375 6.49601 52.2118 6.49674 52.0304 6.45103L51.5395 8.39925L51.0486 10.3475C51.875 10.5557 52.7169 10.5556 53.5435 10.3449L53.0472 8.39804ZM51.5395 8.39925L52.0304 6.45103L51.2746 6.26058L50.7837 8.2088L50.2928 10.157L51.0486 10.3475L51.5395 8.39925ZM50.7837 8.2088L51.2746 6.26058L50.5187 6.07013L50.0278 8.01834L49.5369 9.96656L50.2928 10.157L50.7837 8.2088ZM50.0278 8.01834L50.5187 6.07013C50.0574 5.95389 49.5952 5.82133 49.1319 5.67229L48.5166 7.58486L47.9013 9.49743C48.4452 9.67243 48.9904 9.82886 49.5369 9.96656L50.0278 8.01834ZM48.5166 7.58486L49.1319 5.67229L48.3765 5.42926L47.7612 7.34183L47.1459 9.2544L47.9013 9.49743L48.5166 7.58486ZM47.7612 7.34183L48.3765 5.42926L47.6211 5.18623L47.0058 7.0988L46.3905 9.01137L47.1459 9.2544L47.7612 7.34183ZM47.0058 7.0988L47.6211 5.18623C46.8112 4.92568 45.9699 4.86421 45.1274 5.0224L45.4981 6.99701L45.8688 8.97162C46.0293 8.94149 46.1931 8.94788 46.3905 9.01137L47.0058 7.0988ZM45.4981 6.99701L45.1274 5.0224L44.3751 5.16363L44.7458 7.13825L45.1165 9.11286L45.8688 8.97162L45.4981 6.99701ZM44.7458 7.13825L44.3751 5.16363L43.6228 5.30487L43.9935 7.27949L44.3642 9.2541L45.1165 9.11286L44.7458 7.13825ZM43.9935 7.27949L43.6228 5.30487C42.9463 5.43187 42.2875 5.64803 41.6485 5.94259L42.4896 7.76718L43.3307 9.59177C43.6938 9.42439 44.0376 9.31542 44.3642 9.2541L43.9935 7.27949ZM42.4896 7.76718L41.6485 5.94259L40.897 6.28905L41.738 8.11364L42.5791 9.93823L43.3307 9.59177L42.4896 7.76718ZM41.738 8.11364L40.897 6.28905L40.1454 6.6355L40.9865 8.46009L41.8275 10.2847L42.5791 9.93823L41.738 8.11364ZM40.9865 8.46009L40.1454 6.6355C40.1357 6.63998 40.1401 6.6369 40.1575 6.63287C40.1755 6.6287 40.2006 6.6251 40.2302 6.62503C40.2598 6.62497 40.285 6.62846 40.3031 6.63257C40.3207 6.63656 40.3252 6.63967 40.3156 6.6353L39.4822 8.46337L38.6487 10.2914C39.6829 10.7629 40.7957 10.7603 41.8275 10.2847L40.9865 8.46009ZM39.4822 8.46337L40.3156 6.6353L39.563 6.29212L38.7295 8.1202L37.896 9.94827L38.6487 10.2914L39.4822 8.46337ZM38.7295 8.1202L39.563 6.29212L38.8103 5.94894L37.9768 7.77702L37.1433 9.6051L37.896 9.94827L38.7295 8.1202ZM37.9768 7.77702L38.8103 5.94894C38.0836 5.61765 37.313 5.42615 36.5112 5.40932L36.469 7.41799L36.4268 9.42666C36.6318 9.43096 36.8664 9.47883 37.1433 9.6051L37.9768 7.77702ZM36.469 7.41799L36.5112 5.40932L35.7561 5.39346L35.714 7.40213L35.6718 9.41081L36.4268 9.42666L36.469 7.41799ZM35.714 7.40213L35.7561 5.39346L35.0011 5.37761L34.9589 7.38628L34.9167 9.39495L35.6718 9.41081L35.714 7.40213ZM34.9589 7.38628L35.0011 5.37761C34.4075 5.36514 33.8151 5.39261 33.2245 5.45992L33.452 7.45611L33.6795 9.4523C34.0914 9.40536 34.5036 9.38628 34.9167 9.39495L34.9589 7.38628ZM33.452 7.45611L33.2245 5.45992L32.4727 5.5456L32.7002 7.5418L32.9277 9.53799L33.6795 9.4523L33.452 7.45611ZM32.7002 7.5418L32.4727 5.5456L31.7208 5.63129L31.9483 7.62748L32.1758 9.62367L32.9277 9.53799L32.7002 7.5418ZM31.9483 7.62748L31.7208 5.63129C31.3531 5.6732 30.9856 5.67809 30.6164 5.64594L30.4421 7.64748L30.2678 9.64902C30.9044 9.70445 31.5411 9.69601 32.1758 9.62367L31.9483 7.62748ZM30.4421 7.64748L30.6164 5.64594L29.8621 5.58025L29.6878 7.58179L29.5135 9.58333L30.2678 9.64902L30.4421 7.64748ZM29.6878 7.58179L29.8621 5.58025L29.1077 5.51456L28.9334 7.5161L28.7591 9.51764L29.5135 9.58333L29.6878 7.58179ZM28.9334 7.5161L29.1077 5.51456C28.7297 5.48165 28.3499 5.41321 27.9671 5.30742L27.432 7.24395L26.8968 9.18048C27.5101 9.34998 28.1314 9.46298 28.7591 9.51764L28.9334 7.5161ZM27.432 7.24395L27.9671 5.30742L27.22 5.10096L26.6848 7.03749L26.1497 8.97402L26.8968 9.18048L27.432 7.24395ZM26.6848 7.03749L27.22 5.10096L26.4729 4.89449L25.9377 6.83102L25.4026 8.76755L26.1497 8.97402L26.6848 7.03749ZM25.9377 6.83102L26.4729 4.89449C25.5639 4.6433 24.6427 4.68752 23.7654 4.99602L24.4319 6.89136L25.0984 8.78671C25.2327 8.73947 25.3154 8.74346 25.4026 8.76755L25.9377 6.83102ZM24.4319 6.89136L23.7654 4.99602L23.0067 5.26283L23.6731 7.15817L24.3396 9.05351L25.0984 8.78671L24.4319 6.89136ZM23.6731 7.15817L23.0067 5.26283L22.2479 5.52963L22.9144 7.42498L23.5809 9.32032L24.3396 9.05351L23.6731 7.15817ZM22.9144 7.42498L22.2479 5.52963C21.9914 5.61984 21.7705 5.64398 21.568 5.62724L21.4025 7.62953L21.237 9.63182C22.0387 9.69808 22.8258 9.58585 23.5809 9.32032L22.9144 7.42498ZM21.4025 7.62953L21.568 5.62724L20.8148 5.56499L20.6493 7.56728L20.4838 9.56956L21.237 9.63182L21.4025 7.62953ZM20.6493 7.56728L20.8148 5.56499L20.0617 5.50274L19.8962 7.50503L19.7307 9.50731L20.4838 9.56956L20.6493 7.56728ZM19.8962 7.50503L20.0617 5.50274C19.5744 5.46246 19.0893 5.41692 18.6064 5.36612L18.3962 7.36421L18.186 9.36229C18.6988 9.41625 19.2137 9.46458 19.7307 9.50731L19.8962 7.50503ZM18.3962 7.36421L18.6064 5.36612L17.8595 5.28755L17.6493 7.28564L17.4391 9.28373L18.186 9.36229L18.3962 7.36421ZM17.6493 7.28564L17.8595 5.28755L17.1127 5.20898L16.9025 7.20707L16.6923 9.20516L17.4391 9.28373L17.6493 7.28564ZM16.9025 7.20707L17.1127 5.20898C16.3457 5.12829 15.5804 5.20238 14.8311 5.39966L15.3426 7.34256L15.8541 9.28547C16.1889 9.19733 16.4635 9.18109 16.6923 9.20516L16.9025 7.20707ZM15.3426 7.34256L14.8311 5.39966L14.018 5.61372L14.5295 7.55662L15.0411 9.49953L15.8541 9.28547L15.3426 7.34256ZM14.5295 7.55662L14.018 5.61372L13.205 5.82778L13.7165 7.77068L14.228 9.71359L15.0411 9.49953L14.5295 7.55662ZM13.7165 7.77068L13.205 5.82778C13.247 5.8167 13.3773 5.79711 13.5428 5.84779C13.7015 5.89639 13.7708 5.97237 13.7602 5.96102L12.2944 7.33515L10.8287 8.70928C11.2241 9.13099 11.7334 9.49609 12.3661 9.68986C13.0056 9.88572 13.6439 9.86737 14.228 9.71359L13.7165 7.77068ZM12.2944 7.33515L13.7602 5.96102L13.1511 5.31143L11.6854 6.68556L10.2197 8.05969L10.8287 8.70928L12.2944 7.33515ZM11.6854 6.68556L13.1511 5.31143L12.5421 4.66184L11.0764 6.03597L9.61073 7.4101L10.2197 8.05969L11.6854 6.68556ZM11.0764 6.03597L12.5421 4.66184C11.9381 4.01756 11.1986 3.50702 10.3154 3.24838L9.75079 5.17653L9.18617 7.10467C9.25847 7.12585 9.40274 7.18826 9.61073 7.4101L11.0764 6.03597ZM9.75079 5.17653L10.3154 3.24838L9.59877 3.03853L9.03415 4.96668L8.46953 6.89482L9.18617 7.10467L9.75079 5.17653ZM9.03415 4.96668L9.59877 3.03853L8.88213 2.82868L8.31751 4.75682L7.75289 6.68497L8.46953 6.89482L9.03415 4.96668ZM8.31751 4.75682L8.88213 2.82868C8.38856 2.68415 7.89126 2.54511 7.39025 2.41157L6.87281 4.35291L6.35536 6.29425C6.8251 6.41945 7.29094 6.5497 7.75289 6.68497L8.31751 4.75682ZM6.87281 4.35291L7.39025 2.41157L6.66219 2.21752L6.14474 4.15885L5.6273 6.10019L6.35536 6.29425L6.87281 4.35291ZM6.14474 4.15885L6.66219 2.21752L5.93413 2.02346L5.41668 3.96479L4.89923 5.90613L5.6273 6.10019L6.14474 4.15885ZM5.41668 3.96479L5.93413 2.02346C5.67212 1.95362 5.44233 1.84596 5.23317 1.69959L4.08121 3.34565L2.92924 4.99171C3.52996 5.41211 4.19049 5.71722 4.89923 5.90613L5.41668 3.96479ZM4.08121 3.34565L5.23317 1.69959L4.62576 1.27451L3.4738 2.92057L2.32184 4.56663L2.92924 4.99171L4.08121 3.34565ZM3.4738 2.92057L4.62576 1.27451L4.01836 0.849423L2.86639 2.49548L1.71443 4.14154L2.32184 4.56663L3.4738 2.92057ZM2.86639 2.49548L4.01836 0.849423C3.78116 0.683427 3.37658 0.418889 2.89438 0.293133C2.64752 0.22875 2.15893 0.140591 1.59886 0.330535C0.933833 0.556079 0.496439 1.05847 0.291768 1.58659L2.16512 2.31259L4.03848 3.03859C3.8651 3.48599 3.48039 3.93545 2.88944 4.13587C2.40346 4.30069 2.01035 4.21521 1.88036 4.18131C1.63191 4.11651 1.54668 4.02415 1.71443 4.14154L2.86639 2.49548ZM2.16512 2.31259L0.291768 1.58659L0.197908 1.82879L2.07126 2.55479L3.94462 3.28079L4.03848 3.03859L2.16512 2.31259ZM2.07126 2.55479L0.0932317 2.20276L0.00213135 2.71464L1.98016 3.06667L3.9582 3.41871L4.0493 2.90682L2.07126 2.55479ZM1.98016 3.06667L2.53009 1.13429L2.43347 1.10679L1.88354 3.03918L1.33362 4.97156L1.43024 4.99906L1.98016 3.06667Z" fill="#FFD505"/>
</svg>
